# Blender v2.76 (sub 0) OBJ File: 'character17.blend'
# www.blender.org
o Cube_Cube.001
v -0.500000 0.500000 0.500000
v -0.500000 0.500000 -0.500000
v -0.500000 0.042670 -0.500000
v -0.500000 0.021676 -0.437134
v -0.500000 -0.100112 -0.269505
v -0.500000 -0.101548 -0.268236
v -0.500000 -0.104476 -0.267211
v -0.500000 -0.300331 -0.227880
v -0.500000 -0.458787 -0.248978
v -0.500000 -0.470597 -0.253114
v -0.500000 -0.493334 -0.273206
v -0.500000 -0.500000 -0.280225
v -0.500000 -0.500000 0.297343
v -0.500000 -0.435611 0.224278
v -0.500000 -0.352451 0.188957
v -0.500000 -0.246387 0.167657
v -0.500000 -0.152247 0.180192
v -0.500000 -0.067119 0.217753
v -0.500000 0.016626 0.305933
v -0.500000 0.075619 0.437314
v -0.500000 0.087567 0.495201
v -0.500000 0.086576 0.500000
v 0.500000 0.500000 0.500000
v 0.199317 0.500000 0.500000
v 0.200054 0.496876 0.500000
v 0.181354 0.377407 0.500000
v 0.180393 0.375852 0.500000
v 0.081900 0.305700 0.500000
v -0.046847 0.275307 0.500000
v -0.060096 0.276078 0.500000
v -0.190419 0.356621 0.500000
v -0.197034 0.368126 0.500000
v -0.227429 0.496876 0.500000
v -0.226940 0.500000 0.500000
v -0.461428 0.075619 0.500000
v -0.456382 0.072501 0.500000
v -0.320354 -0.076344 0.500000
v -0.317495 -0.084043 0.500000
v -0.296937 -0.246387 0.500000
v -0.333387 -0.437236 0.500000
v -0.336106 -0.444683 0.500000
v -0.341551 -0.450445 0.500000
v -0.406420 -0.500000 0.500000
v 0.422606 -0.500000 0.500000
v 0.335578 -0.404773 0.500000
v 0.299147 -0.306667 0.500000
v 0.288917 -0.225880 0.500000
v 0.307056 -0.130909 0.500000
v 0.341704 -0.036001 0.500000
v 0.411097 0.037433 0.500000
v 0.487929 0.096127 0.500000
v 0.500000 0.100366 0.500000
v 0.500000 0.500000 -0.106602
v 0.485734 0.500000 -0.106976
v 0.294275 0.500000 -0.169185
v 0.268684 0.500000 -0.186772
v 0.153724 0.500000 -0.345002
v 0.144906 0.500000 -0.374776
v 0.144906 0.500000 -0.500000
v -0.268976 0.500000 0.442142
v -0.269968 0.500000 0.438793
v -0.269968 0.500000 0.275539
v -0.268976 0.500000 0.272189
v -0.173394 0.500000 0.140632
v -0.170515 0.500000 0.138654
v -0.015249 0.500000 0.088205
v -0.011757 0.500000 0.088113
v 0.142896 0.500000 0.138363
v 0.145668 0.500000 0.140490
v 0.241628 0.500000 0.272568
v 0.242794 0.500000 0.275861
v 0.242794 0.500000 0.438470
v 0.241628 0.500000 0.441763
v 0.139603 0.472235 -0.500000
v 0.156537 0.338504 -0.500000
v 0.171175 0.299087 -0.500000
v 0.292623 0.166195 -0.500000
v 0.318458 0.150229 -0.500000
v 0.491634 0.101033 -0.500000
v 0.500000 0.101941 -0.500000
v 0.500000 -0.500000 -0.500000
v -0.109244 -0.500000 -0.500000
v -0.098095 -0.488202 -0.500000
v -0.055826 -0.372420 -0.500000
v -0.042058 -0.300331 -0.500000
v -0.049823 -0.239009 -0.500000
v -0.094267 -0.119326 -0.500000
v -0.178822 -0.026804 -0.500000
v -0.257265 0.021675 -0.500000
v -0.377833 0.055926 -0.500000
v -0.498117 -0.500000 -0.279000
v -0.303424 -0.500000 -0.268982
v -0.302238 -0.500000 -0.269367
v -0.150618 -0.500000 -0.391912
v 0.500000 -0.500000 0.263276
v 0.425978 -0.500000 0.365158
v 0.406158 -0.500000 0.438848
v -0.406420 -0.500000 0.443274
v -0.445381 -0.500000 0.341488
v -0.383037 -0.415678 0.296193
v -0.434451 -0.246387 0.188956
v -0.396444 -0.047375 0.305932
v -0.457941 0.075619 0.495201
v 0.500000 0.100366 0.330644
v 0.500000 0.096127 0.317952
v 0.500000 0.071985 0.284723
v 0.500000 -0.035290 0.162993
v 0.500000 -0.106840 0.132603
v 0.500000 -0.225880 0.108698
v 0.500000 -0.331538 0.122766
v 0.500000 -0.403619 0.154570
v 0.500000 -0.493850 0.249579
v 0.500000 0.093829 -0.475708
v 0.500000 0.093829 -0.475152
v 0.500000 0.150228 -0.306268
v 0.500000 0.197499 -0.241204
v 0.500000 0.287655 -0.161533
v 0.500000 0.471468 -0.097168
v 0.500000 0.472235 -0.097014
v 0.500000 0.472855 -0.097097
v 0.243189 0.496876 0.440629
v 0.181756 0.376084 0.499162
v 0.101191 0.267118 0.440628
v -0.057566 0.267118 0.492212
v -0.199564 0.354877 0.492213
v -0.270564 0.496876 0.440629
v -0.318375 -0.077098 0.495201
v -0.296937 -0.246387 0.378228
v -0.334947 -0.445400 0.495201
v 0.310355 -0.395169 0.438848
v 0.288917 -0.225880 0.321874
v 0.326926 -0.026868 0.438848
v 0.487929 0.096127 0.321874
v 0.499617 0.472235 -0.096889
v 0.277116 0.472235 -0.169184
v 0.139603 0.472235 -0.358456
v -0.270564 0.496876 0.273703
v -0.172446 0.496876 0.138654
v -0.013687 0.496876 0.087070
v 0.145071 0.496876 0.138654
v 0.243189 0.496876 0.273703
v 0.161040 0.302946 -0.475430
v 0.300607 0.150229 -0.475430
v 0.499617 0.093694 -0.475430
v 0.388424 -0.424892 0.249578
v 0.375016 -0.056589 0.239839
v 0.426430 -0.225880 0.132602
v 0.438121 0.150228 -0.286161
v 0.394993 0.302944 -0.153425
v 0.216069 0.354877 0.357166
v -0.013687 0.226781 0.357166
v -0.155685 0.267119 0.357166
v -0.255268 0.376085 0.357166
v 0.239109 0.273222 -0.286161
v -0.199564 0.354877 0.222119
v -0.088339 0.376084 0.127409
v 0.057312 0.354877 0.138655
v 0.181756 0.376084 0.215169
v 0.101191 0.267118 0.273703
v -0.057566 0.267118 0.222119
v -0.128157 -0.469622 -0.375594
v -0.042058 -0.300331 -0.457628
v -0.302566 -0.499344 -0.268358
v -0.179571 -0.300331 -0.268356
v -0.141565 -0.101319 -0.385333
v -0.402072 -0.300331 -0.196062
v -0.297448 -0.131040 -0.252597
v -0.340576 0.021676 -0.385334
vt 0.308059 0.054966
vt 0.314402 0.054054
vt 0.320231 0.051392
vt 0.325074 0.047195
vt 0.328539 0.041804
vt 0.330344 0.035655
vt 0.330344 0.029247
vt 0.328539 0.023098
vt 0.325074 0.017707
vt 0.320231 0.013511
vt 0.314402 0.010849
vt 0.308059 0.009937
vt 0.301716 0.010849
vt 0.295887 0.013511
vt 0.291043 0.017707
vt 0.287579 0.023098
vt 0.285773 0.029247
vt 0.285773 0.035655
vt 0.287579 0.041804
vt 0.291043 0.047195
vt 0.295887 0.051392
vt 0.301716 0.054054
vt 0.312451 0.054533
vt 0.316675 0.053252
vt 0.320567 0.051172
vt 0.323979 0.048372
vt 0.326779 0.044960
vt 0.328860 0.041067
vt 0.330141 0.036844
vt 0.330574 0.032451
vt 0.330141 0.028059
vt 0.328860 0.023835
vt 0.326779 0.019943
vt 0.323979 0.016531
vt 0.320567 0.013731
vt 0.316675 0.011650
vt 0.312451 0.010369
vt 0.303667 0.010369
vt 0.299443 0.011650
vt 0.295550 0.013731
vt 0.292139 0.016531
vt 0.289339 0.019943
vt 0.287258 0.023835
vt 0.285977 0.028059
vt 0.285544 0.032451
vt 0.285977 0.036844
vt 0.287258 0.041067
vt 0.289339 0.044960
vt 0.292139 0.048372
vt 0.295550 0.051172
vt 0.299443 0.053252
vt 0.303667 0.054533
vt 0.313447 0.054312
vt 0.318522 0.052387
vt 0.322989 0.049304
vt 0.326588 0.045241
vt 0.329111 0.040435
vt 0.330409 0.035165
vt 0.330409 0.029737
vt 0.329111 0.024467
vt 0.326588 0.019661
vt 0.322989 0.015599
vt 0.318522 0.012515
vt 0.313447 0.010591
vt 0.302671 0.010591
vt 0.297596 0.012515
vt 0.293129 0.015599
vt 0.289530 0.019661
vt 0.287007 0.024467
vt 0.285708 0.029737
vt 0.285708 0.035165
vt 0.287007 0.040435
vt 0.289530 0.045241
vt 0.293129 0.049304
vt 0.297596 0.052387
vt 0.302671 0.054312
vt 0.315016 0.053864
vt 0.321293 0.050666
vt 0.326274 0.045685
vt 0.329472 0.039409
vt 0.329472 0.025494
vt 0.326274 0.019217
vt 0.321293 0.014236
vt 0.315016 0.011039
vt 0.301102 0.011039
vt 0.294825 0.014236
vt 0.289844 0.019217
vt 0.286646 0.025494
vt 0.286646 0.039409
vt 0.289844 0.045685
vt 0.294825 0.050666
vt 0.301102 0.053864
vt 0.317216 0.053019
vt 0.324791 0.047516
vt 0.330450 0.030098
vt 0.327557 0.021194
vt 0.312740 0.010429
vt 0.303378 0.010429
vt 0.288561 0.021194
vt 0.285668 0.030098
vt 0.291327 0.047516
vt 0.298901 0.053019
vt 0.285544 0.009937
vt 0.330574 0.009937
vt 0.330574 0.054966
vt 0.285544 0.054966
vt 0.314133 0.054131
vt 0.319757 0.051688
vt 0.324513 0.047819
vt 0.328049 0.042809
vt 0.330103 0.037032
vt 0.330521 0.030915
vt 0.329274 0.024912
vt 0.326453 0.019467
vt 0.322268 0.014986
vt 0.317029 0.011801
vt 0.311125 0.010146
vt 0.304993 0.010146
vt 0.299089 0.011801
vt 0.293850 0.014986
vt 0.289665 0.019467
vt 0.286844 0.024912
vt 0.285597 0.030915
vt 0.286015 0.037032
vt 0.288068 0.042809
vt 0.291604 0.047819
vt 0.296361 0.051688
vt 0.301985 0.054131
vn -1.000000 0.000000 0.000000
vn 0.000000 0.000000 1.000000
vn 0.000000 1.000000 0.000000
vn 0.000000 0.000000 -1.000000
vn 0.000000 -1.000000 0.000000
vn -0.471300 0.661700 0.583100
vn -0.534600 0.330400 0.777900
vn -0.303500 0.187600 0.934200
vn -0.306600 -0.125600 0.943500
vn -0.574600 -0.330400 0.748800
vn -0.408900 -0.661700 0.628400
vn -0.491100 -0.794700 0.356800
vn -0.268000 -0.943500 0.194700
vn -0.268000 -0.943500 -0.194700
vn 1.000000 0.000000 0.000000
vn -0.794700 -0.187600 -0.577300
vn -0.802600 0.125600 -0.583100
vn -0.534600 0.330400 -0.777900
vn -0.471300 0.661700 -0.583100
vn -0.187600 0.794700 -0.577300
vn 0.038500 0.661700 -0.748800
vn 0.408900 0.661700 -0.628400
vn 0.574600 0.330400 -0.748800
vn 0.794700 0.187600 -0.577300
vn 0.802600 -0.125600 -0.583100
vn -0.491100 -0.794700 -0.356800
vn -0.724000 -0.661700 -0.194700
vn -0.889700 -0.330400 -0.315100
vn -0.992100 -0.125600 0.000000
vn -0.982200 0.187600 -0.000000
vn -0.905000 0.330400 -0.268000
vn -0.700200 0.661700 -0.268000
vn -0.607100 0.794700 -0.000000
vn 0.724000 0.661700 -0.194700
vn 0.889700 0.330400 -0.315100
vn 0.992100 0.125600 0.000000
vn 0.982200 -0.187600 0.000000
vn 0.905000 -0.330400 -0.268000
vn 0.700200 -0.661700 -0.268000
vn 0.607100 -0.794700 -0.000000
vn 0.331300 -0.943500 0.000000
vn 0.024700 -0.330400 -0.943500
vn 0.303500 -0.187600 -0.934200
vn 0.534600 -0.330400 -0.777900
vn 0.905000 -0.330400 0.268000
vn 0.802600 -0.125600 0.583100
vn 0.534600 -0.330400 0.777900
vn 0.303500 -0.187600 0.934200
vn 0.024700 -0.330400 0.943500
vn -0.794700 -0.187600 0.577300
vn -0.889700 -0.330400 0.315100
vn 0.889700 0.330400 0.315100
vn 0.724000 0.661700 0.194700
vn 0.491100 0.794700 0.356800
vn 0.268000 0.943500 0.194700
vn -0.102400 0.943500 0.315100
vn -0.700200 0.661700 0.268000
vn -0.802600 0.125600 0.583100
vn -0.724000 -0.661700 0.194700
vn 0.102400 -0.943500 0.315100
vn 0.187600 -0.794700 0.577300
vn 0.471300 -0.661700 0.583100
vn 0.306600 0.125600 0.943500
vn 0.574600 0.330400 0.748800
vn 0.408900 0.661700 0.628400
vn -0.331300 0.943500 0.000000
vn -0.102400 0.943500 -0.315100
vn -0.024700 0.330400 -0.943500
vn -0.303600 0.187600 -0.934200
vn -0.306500 -0.125600 -0.943500
vn 0.491100 0.794700 -0.356800
vn -0.905000 0.330400 0.268000
vn 0.700200 -0.661700 0.268000
vn 0.306600 0.125600 -0.943500
vn 0.794700 0.187600 0.577300
vn 0.268000 0.943500 -0.194700
vn -0.024700 0.330400 0.943500
vn 0.038500 0.661700 0.748800
vn -0.187600 0.794700 0.577300
vn -0.187600 0.794600 -0.577400
vn -0.303500 0.187600 -0.934200
vn -0.574600 -0.330400 -0.748800
vn -0.306600 -0.125600 -0.943500
vn -0.408900 -0.661700 -0.628400
vn -0.038500 -0.661700 -0.748800
vn 0.187600 -0.794700 -0.577300
vn 0.102400 -0.943500 -0.315100
s off
f 1/1/1 2/2/1 3/3/1 4/4/1 5/5/1 6/6/1 7/7/1 8/8/1 9/9/1 10/10/1 11/11/1 12/12/1 13/13/1 14/14/1 15/15/1 16/16/1 17/17/1 18/18/1 19/19/1 20/20/1 21/21/1 22/22/1
f 23/1/2 24/23/2 25/24/2 26/25/2 27/26/2 28/27/2 29/28/2 30/29/2 31/30/2 32/31/2 33/32/2 34/33/2 1/34/2 22/35/2 35/36/2 36/37/2 37/12/2 38/38/2 39/39/2 40/40/2 41/41/2 42/42/2 43/43/2 44/44/2 45/45/2 46/46/2 47/47/2 48/48/2 49/49/2 50/50/2 51/51/2 52/52/2
f 23/1/3 53/53/3 54/54/3 55/55/3 56/56/3 57/57/3 58/58/3 59/59/3 2/60/3 1/61/3 34/62/3 60/63/3 61/64/3 62/12/3 63/65/3 64/66/3 65/67/3 66/68/3 67/69/3 68/70/3 69/71/3 70/72/3 71/73/3 72/74/3 73/75/3 24/76/3
f 2/1/4 59/77/4 74/78/4 75/79/4 76/80/4 77/30/4 78/81/4 79/82/4 80/83/4 81/84/4 82/12/4 83/85/4 84/86/4 85/87/4 86/88/4 87/45/4 88/89/4 89/90/4 90/91/4 3/92/4
f 13/1/5 12/93/5 91/94/5 92/80/5 93/95/5 94/96/5 82/83/5 81/97/5 95/98/5 96/86/5 97/99/5 44/100/5 43/89/5 98/101/5 99/102/5
f 14/103/6 13/104/6 99/105/6 100/106/6
f 15/103/7 14/104/7 100/105/7 101/106/7
f 16/103/8 15/104/8 101/105/8
f 17/103/9 16/104/9 101/105/9
f 18/103/10 17/104/10 101/105/10 102/106/10
f 19/103/11 18/104/11 102/105/11
f 20/103/12 19/104/12 102/105/12 103/106/12
f 21/103/13 20/104/13 103/105/13
f 35/103/14 22/104/14 21/105/14 103/106/14
f 53/1/15 23/107/15 52/108/15 104/109/15 105/110/15 106/111/15 107/112/15 108/113/15 109/114/15 110/115/15 111/116/15 112/117/15 95/118/15 81/119/15 80/120/15 113/121/15 114/122/15 115/123/15 116/124/15 117/125/15 118/126/15 119/127/15 120/128/15
f 25/103/16 24/104/16 73/105/16 121/106/16
f 26/103/17 25/104/17 121/105/17 122/106/17
f 27/103/18 26/104/18 122/105/18
f 28/103/19 27/104/19 122/105/19 123/106/19
f 29/103/20 28/104/20 123/105/20 124/106/20
f 30/103/21 29/104/21 124/105/21
f 31/103/22 30/104/22 124/105/22 125/106/22
f 32/103/23 31/104/23 125/105/23
f 33/103/24 32/104/24 125/105/24 126/106/24
f 126/103/25 60/104/25 34/105/25 33/106/25
f 36/103/26 35/104/26 103/105/26
f 37/103/27 36/104/27 103/105/27 127/106/27
f 38/103/28 37/104/28 127/105/28
f 39/103/29 38/104/29 127/105/29 128/106/29
f 40/103/30 39/104/30 128/105/30 129/106/30
f 41/103/31 40/104/31 129/105/31
f 42/103/32 41/104/32 129/105/32
f 129/103/33 98/104/33 43/105/33 42/106/33
f 45/103/34 44/104/34 97/105/34 130/106/34
f 46/103/35 45/104/35 130/105/35
f 47/103/36 46/104/36 130/105/36 131/106/36
f 48/103/37 47/104/37 131/105/37 132/106/37
f 49/103/38 48/104/38 132/105/38
f 50/103/39 49/104/39 132/105/39
f 51/103/40 50/104/40 132/105/40 133/106/40
f 133/103/41 104/104/41 52/105/41 51/106/41
f 54/103/42 53/104/42 120/105/42 134/106/42
f 55/103/43 54/104/43 134/105/43 135/106/43
f 56/103/44 55/104/44 135/105/44
f 57/103/25 56/104/25 135/105/25 136/106/25
f 58/103/38 57/104/38 136/105/38
f 74/103/37 59/104/37 58/105/37 136/106/37
f 61/103/38 60/104/38 126/105/38
f 62/103/37 61/104/37 126/105/37 137/106/37
f 63/103/45 62/104/45 137/105/45
f 64/103/46 63/104/46 137/105/46 138/106/46
f 65/103/47 64/104/47 138/105/47
f 66/103/48 65/104/48 138/105/48 139/106/48
f 67/103/49 66/104/49 139/105/49
f 68/103/9 67/104/9 139/105/9 140/106/9
f 69/103/10 68/104/10 140/105/10
f 70/103/50 69/104/50 140/105/50 141/106/50
f 71/103/51 70/104/51 141/105/51
f 72/103/29 71/104/29 141/105/29 121/106/29
f 73/103/28 72/104/28 121/105/28
f 75/103/36 74/104/36 136/105/36 142/106/36
f 76/103/52 75/104/52 142/105/52
f 77/103/53 76/104/53 142/105/53 143/106/53
f 78/103/54 77/104/54 143/105/54
f 79/103/55 78/104/55 143/105/55 144/106/55
f 79/103/56 144/104/56 113/105/56 80/106/56
f 96/103/54 95/104/54 112/105/54 145/106/54
f 97/103/53 96/104/53 145/105/53 130/106/53
f 99/103/57 98/104/57 129/105/57 100/106/57
f 100/103/58 128/104/58 101/105/58
f 128/103/50 102/104/50 101/105/50
f 127/103/59 103/104/59 102/105/59
f 105/103/60 104/104/60 133/105/60
f 106/103/61 105/104/61 133/105/61
f 107/103/62 106/104/62 133/105/62 146/106/62
f 108/103/47 107/104/47 146/105/47 147/106/47
f 109/103/48 108/104/48 147/105/48
f 110/103/63 109/104/63 147/105/63
f 111/103/64 110/104/64 147/105/64 145/106/64
f 112/103/65 111/104/65 145/105/65
f 114/103/66 113/104/66 144/105/66
f 115/103/67 114/104/67 144/105/67 148/106/67
f 116/103/20 115/104/20 148/105/20
f 117/103/21 116/104/21 148/105/21 149/106/21
f 149/103/68 134/104/68 118/105/68 117/106/68
f 119/103/69 118/104/69 134/105/69
f 120/103/70 119/104/70 134/105/70
f 122/103/31 121/104/31 150/105/31
f 122/103/32 150/104/32 123/105/32
f 151/103/67 124/104/67 123/105/67
f 152/103/71 125/104/71 124/105/71
f 153/103/35 126/104/35 125/105/35
f 128/103/51 127/104/51 102/105/51
f 129/103/72 128/104/72 100/105/72
f 145/103/52 131/104/52 130/105/52
f 131/103/45 146/104/45 132/105/45
f 146/103/73 133/104/73 132/105/73
f 149/103/74 135/104/74 134/105/74
f 136/103/24 135/104/24 154/105/24
f 153/103/36 137/104/36 126/105/36
f 138/103/75 137/104/75 155/105/75
f 156/103/63 139/104/63 138/105/63
f 140/103/8 139/104/8 157/105/8
f 158/103/58 141/104/58 140/105/58
f 121/103/30 141/104/30 150/105/30
f 142/103/35 136/104/35 154/105/35
f 143/103/34 142/104/34 154/105/34
f 144/103/76 143/104/76 148/105/76
f 147/103/46 146/104/46 131/105/46
f 147/103/75 131/104/75 145/105/75
f 148/103/22 154/104/22 149/105/22
f 150/103/33 159/104/33 123/105/33
f 123/103/66 159/104/66 151/105/66
f 151/103/76 152/104/76 124/105/76
f 152/103/34 153/104/34 125/105/34
f 154/103/23 135/104/23 149/105/23
f 155/103/52 137/104/52 153/105/52
f 156/103/64 138/104/64 155/105/64
f 157/103/77 139/104/77 156/105/77
f 158/103/7 140/104/7 157/105/7
f 150/103/72 141/104/72 158/105/72
f 143/103/71 154/104/71 148/105/71
f 150/103/57 158/104/57 159/105/57
f 151/103/56 159/104/56 160/105/56
f 151/103/55 160/104/55 152/105/55
f 152/103/53 155/104/53 153/105/53
f 160/103/65 156/104/65 155/105/65
f 160/103/78 157/104/78 156/105/78
f 159/103/6 158/104/6 157/105/6
f 159/103/79 157/104/79 160/105/79
f 160/103/54 155/104/54 152/105/54
f 161/103/32 83/104/32 82/105/32 94/106/32
f 84/103/31 83/104/31 161/105/31 162/106/31
f 94/103/19 93/104/19 163/105/19 161/106/19
f 85/103/30 84/104/30 162/105/30
f 161/103/17 164/104/17 162/105/17
f 163/103/18 164/104/18 161/105/18
f 93/103/80 92/104/80 163/105/80
f 86/103/29 85/104/29 162/105/29
f 164/103/16 165/104/16 162/105/16
f 166/103/81 164/104/81 163/105/81
f 92/1/21 91/80/21 11/83/21 10/86/21 163/89/21
f 87/103/28 86/104/28 162/105/28 165/106/28
f 164/103/82 167/104/82 165/105/82
f 166/103/83 167/104/83 164/105/83
f 10/103/68 9/104/68 166/105/68 163/106/68
f 91/103/22 12/104/22 11/105/22
f 88/103/27 87/104/27 165/105/27
f 167/103/84 168/104/84 165/105/84
f 7/103/42 6/104/42 167/105/42 166/106/42
f 9/103/74 8/104/74 166/105/74
f 89/103/26 88/104/26 165/105/26 168/106/26
f 6/103/85 5/104/85 168/105/85 167/106/85
f 8/103/43 7/104/43 166/105/43
f 90/103/14 89/104/14 168/105/14
f 5/103/86 4/104/86 168/105/86
f 4/103/87 3/104/87 90/105/87 168/106/87
