# Blender v2.76 (sub 0) OBJ File: 'decoration-move-up.blend'
# www.blender.org
o Circle
v 0.195190 0.155659 0.942889
v 0.195190 0.155659 0.750000
v 0.262447 0.345252 0.769289
v 0.262447 0.345252 0.923600
v 0.108322 -0.224933 0.942889
v 0.108322 -0.224933 0.750000
v 0.278196 -0.332693 0.769289
v 0.278196 -0.332693 0.923600
v -0.243398 -0.055554 0.942889
v -0.243398 -0.055554 0.750000
v -0.386256 -0.197190 0.769289
v -0.386256 -0.197190 0.923600
v -0.195190 0.155659 0.942889
v 0.000000 0.249657 0.942889
v -0.106296 0.420451 0.923600
v -0.262448 0.345252 0.923600
v 0.243397 -0.055554 0.750000
v 0.394996 0.179041 0.769289
v 0.433562 0.010071 0.769289
v 0.086658 -0.424933 0.923600
v 0.086658 -0.424933 0.769289
v -0.433563 0.010072 0.923600
v -0.433563 0.010072 0.769289
v 0.000000 -0.000000 0.942889
v 0.243397 -0.055554 0.942889
v -0.108322 -0.224933 0.942889
v -0.195190 0.155659 0.750000
v 0.000000 -0.000000 0.750000
v -0.108322 -0.224933 0.750000
v 0.000000 0.249657 0.750000
v -0.394996 0.179042 0.923600
v -0.394996 0.179042 0.769289
v -0.262448 0.345252 0.769289
v -0.106296 0.420451 0.769289
v 0.106296 0.420451 0.769289
v 0.106296 0.420451 0.923600
v 0.394996 0.179041 0.923600
v 0.433562 0.010071 0.923600
v 0.386256 -0.197190 0.769289
v 0.386256 -0.197190 0.923600
v -0.086658 -0.424933 0.923600
v -0.086658 -0.424933 0.769289
v -0.278196 -0.332693 0.769289
v -0.278196 -0.332693 0.923600
v 0.195190 0.155658 -0.942889
v 0.262447 0.345252 -0.923600
v 0.262447 0.345252 -0.769289
v 0.195190 0.155658 -0.750000
v 0.108322 -0.224933 -0.942889
v 0.278196 -0.332693 -0.923600
v 0.278196 -0.332693 -0.769289
v 0.108322 -0.224933 -0.750000
v -0.243398 -0.055554 -0.942889
v -0.386256 -0.197190 -0.923600
v -0.386256 -0.197190 -0.769289
v -0.243398 -0.055554 -0.750000
v -0.195190 0.155658 -0.942889
v -0.262448 0.345252 -0.923600
v -0.106296 0.420451 -0.923600
v 0.000000 0.249657 -0.942889
v 0.243397 -0.055554 -0.750000
v 0.433562 0.010071 -0.769289
v 0.394996 0.179041 -0.769289
v 0.086658 -0.424933 -0.769289
v 0.086658 -0.424933 -0.923600
v -0.433563 0.010071 -0.769289
v -0.433563 0.010071 -0.923600
v 0.000000 0.000000 -0.942889
v 0.243397 -0.055554 -0.942889
v -0.108322 -0.224933 -0.942889
v -0.195190 0.155658 -0.750000
v 0.000000 0.000000 -0.750000
v -0.108322 -0.224933 -0.750000
v 0.000000 0.249657 -0.750000
v -0.394996 0.179041 -0.769289
v -0.394996 0.179041 -0.923600
v -0.262448 0.345252 -0.769289
v -0.106296 0.420451 -0.769289
v 0.106296 0.420451 -0.769289
v 0.106296 0.420451 -0.923600
v 0.433562 0.010071 -0.923600
v 0.394996 0.179041 -0.923600
v 0.386256 -0.197190 -0.769289
v 0.386256 -0.197190 -0.923600
v -0.086658 -0.424933 -0.769289
v -0.086658 -0.424933 -0.923600
v -0.278196 -0.332693 -0.769289
v -0.278196 -0.332693 -0.923600
vt 0.277515 0.002742
vt 0.338812 0.002742
vt 0.338812 0.064040
vt 0.277515 0.064040
vn 0.942500 -0.334300 -0.000000
vn -0.535700 -0.844400 -0.000000
vn -0.704100 0.710100 0.000000
vn -0.041700 0.086500 0.995400
vn 0.093600 0.021400 -0.995400
vn 0.994200 -0.107700 -0.000000
vn -0.326200 -0.945300 -0.000000
vn 0.000000 -0.000000 1.000000
vn -0.000000 0.000000 -1.000000
vn -0.974900 0.222500 0.000000
vn -0.093600 0.021400 -0.995400
vn -0.093600 0.021400 0.995400
vn 0.116200 0.993200 0.000000
vn -0.433900 0.901000 0.000000
vn 0.849000 0.528400 0.000000
vn -0.041700 0.086500 -0.995400
vn -0.942500 -0.334300 -0.000000
vn 0.433900 0.901000 0.000000
vn 0.041700 0.086500 -0.995400
vn -0.849000 0.528400 0.000000
vn 0.041700 0.086500 0.995400
vn 0.974900 0.222500 0.000000
vn -0.116200 0.993200 0.000000
vn 0.093600 0.021400 0.995400
vn 0.326200 -0.945300 -0.000000
vn 0.781800 -0.623500 -0.000000
vn 0.704100 0.710100 0.000000
vn 0.075100 -0.059900 -0.995400
vn 0.075100 -0.059900 0.995400
vn 0.000000 -1.000000 -0.000000
vn 0.000000 -0.096000 -0.995400
vn 0.000000 -0.096000 0.995400
vn -0.994200 -0.107700 -0.000000
vn -0.781800 -0.623500 -0.000000
vn 0.535700 -0.844400 -0.000000
vn -0.075100 -0.059900 -0.995400
vn -0.075100 -0.059900 0.995400
s off
f 1/1/1 2/2/1 3/3/1 4/4/1
f 5/1/2 6/2/2 7/3/2 8/4/2
f 9/1/3 10/2/3 11/3/3 12/4/3
f 13/1/4 14/2/4 15/3/4 16/4/4
f 17/1/5 2/2/5 18/3/5 19/4/5
f 6/1/6 5/2/6 20/3/6 21/4/6
f 10/1/7 9/2/7 22/3/7 23/4/7
f 14/1/8 24/2/8 1/3/8
f 25/1/8 24/2/8 5/3/8
f 26/1/8 24/2/8 9/3/8
f 13/1/8 24/2/8 14/3/8
f 1/1/8 24/2/8 25/3/8
f 5/1/8 24/2/8 26/3/8
f 9/1/8 24/2/8 13/3/8
f 27/1/9 28/2/9 10/3/9
f 29/1/9 28/2/9 6/3/9
f 17/1/9 28/2/9 2/3/9
f 30/1/9 28/2/9 27/3/9
f 10/1/9 28/2/9 29/3/9
f 6/1/9 28/2/9 17/3/9
f 2/1/9 28/2/9 30/3/9
f 23/1/10 22/2/10 31/3/10 32/4/10
f 27/1/11 10/2/11 23/3/11 32/4/11
f 9/1/12 13/2/12 31/3/12 22/4/12
f 13/1/13 27/2/13 32/3/13 31/4/13
f 33/1/14 16/2/14 15/3/14 34/4/14
f 14/1/15 30/2/15 34/3/15 15/4/15
f 30/1/16 27/2/16 33/3/16 34/4/16
f 27/1/17 13/2/17 16/3/17 33/4/17
f 35/1/18 36/2/18 4/3/18 3/4/18
f 2/1/19 30/2/19 35/3/19 3/4/19
f 30/1/20 14/2/20 36/3/20 35/4/20
f 14/1/21 1/2/21 4/3/21 36/4/21
f 18/1/22 37/2/22 38/3/22 19/4/22
f 2/1/23 1/2/23 37/3/23 18/4/23
f 1/1/24 25/2/24 38/3/24 37/4/24
f 25/1/25 17/2/25 19/3/25 38/4/25
f 39/1/26 40/2/26 8/3/26 7/4/26
f 17/1/27 25/2/27 40/3/27 39/4/27
f 6/1/28 17/2/28 39/3/28 7/4/28
f 25/1/29 5/2/29 8/3/29 40/4/29
f 21/1/30 20/2/30 41/3/30 42/4/30
f 29/1/31 6/2/31 21/3/31 42/4/31
f 5/1/32 26/2/32 41/3/32 20/4/32
f 26/1/33 29/2/33 42/3/33 41/4/33
f 43/1/34 44/2/34 12/3/34 11/4/34
f 29/1/35 26/2/35 44/3/35 43/4/35
f 10/1/36 29/2/36 43/3/36 11/4/36
f 26/1/37 9/2/37 12/3/37 44/4/37
f 45/1/1 46/2/1 47/3/1 48/4/1
f 49/1/2 50/2/2 51/3/2 52/4/2
f 53/1/3 54/2/3 55/3/3 56/4/3
f 57/1/16 58/2/16 59/3/16 60/4/16
f 61/1/24 62/2/24 63/3/24 48/4/24
f 52/1/6 64/2/6 65/3/6 49/4/6
f 56/1/7 66/2/7 67/3/7 53/4/7
f 60/1/9 45/2/9 68/3/9
f 69/1/9 49/2/9 68/3/9
f 70/1/9 53/2/9 68/3/9
f 57/1/9 60/2/9 68/3/9
f 45/1/9 69/2/9 68/3/9
f 49/1/9 70/2/9 68/3/9
f 53/1/9 57/2/9 68/3/9
f 71/1/8 56/2/8 72/3/8
f 73/1/8 52/2/8 72/3/8
f 61/1/8 48/2/8 72/3/8
f 74/1/8 71/2/8 72/3/8
f 56/1/8 73/2/8 72/3/8
f 52/1/8 61/2/8 72/3/8
f 48/1/8 74/2/8 72/3/8
f 66/1/10 75/2/10 76/3/10 67/4/10
f 71/1/12 75/2/12 66/3/12 56/4/12
f 53/1/11 67/2/11 76/3/11 57/4/11
f 57/1/13 76/2/13 75/3/13 71/4/13
f 77/1/14 78/2/14 59/3/14 58/4/14
f 60/1/15 59/2/15 78/3/15 74/4/15
f 74/1/4 78/2/4 77/3/4 71/4/4
f 71/1/17 77/2/17 58/3/17 57/4/17
f 79/1/18 47/2/18 46/3/18 80/4/18
f 48/1/21 47/2/21 79/3/21 74/4/21
f 74/1/20 79/2/20 80/3/20 60/4/20
f 60/1/19 80/2/19 46/3/19 45/4/19
f 63/1/22 62/2/22 81/3/22 82/4/22
f 48/1/23 63/2/23 82/3/23 45/4/23
f 45/1/5 82/2/5 81/3/5 69/4/5
f 69/1/25 81/2/25 62/3/25 61/4/25
f 83/1/26 51/2/26 50/3/26 84/4/26
f 61/1/27 83/2/27 84/3/27 69/4/27
f 52/1/29 51/2/29 83/3/29 61/4/29
f 69/1/28 84/2/28 50/3/28 49/4/28
f 64/1/30 85/2/30 86/3/30 65/4/30
f 73/1/32 85/2/32 64/3/32 52/4/32
f 49/1/31 65/2/31 86/3/31 70/4/31
f 70/1/33 86/2/33 85/3/33 73/4/33
f 87/1/34 55/2/34 54/3/34 88/4/34
f 73/1/35 87/2/35 88/3/35 70/4/35
f 56/1/37 55/2/37 87/3/37 73/4/37
f 70/1/36 88/2/36 54/3/36 53/4/36
