# Blender v2.76 (sub 0) OBJ File: 'decoration-move-plane.blend'
# www.blender.org
o Cube.004
v 0.750000 0.000000 -0.750000
v 0.750000 -0.000000 0.750000
v -0.750000 -0.000000 0.750000
v -0.749999 0.000000 -0.750000
v 0.750000 0.020000 -0.749999
v -0.750000 0.020000 -0.750000
v -0.750000 0.020000 0.749999
v 0.749999 0.020000 0.750000
vt 0.214165 0.008051
vt 0.268465 0.008051
vt 0.268465 0.062351
vt 0.214165 0.062351
vn 0.000000 -1.000000 -0.000000
vn -0.000000 1.000000 0.000000
vn 1.000000 0.000000 0.000000
vn -0.000000 0.000000 1.000000
vn -1.000000 -0.000000 -0.000000
vn 0.000000 0.000000 -1.000000
s off
f 1/1/1 2/2/1 3/3/1 4/4/1
f 5/1/2 6/2/2 7/3/2 8/4/2
f 1/1/3 5/2/3 8/3/3 2/4/3
f 2/1/4 8/2/4 7/3/4 3/4/4
f 3/1/5 7/2/5 6/3/5 4/4/5
f 5/1/6 1/2/6 4/3/6 6/4/6
