# Blender v2.76 (sub 0) OBJ File: 'door-engine.blend'
# www.blender.org
o Circle.001
v 0.195190 0.155659 -0.096445
v 0.262447 0.345252 -0.077156
v 0.262447 0.345252 0.077156
v 0.195190 0.155659 0.096445
v 0.108322 -0.224933 -0.096445
v 0.278196 -0.332693 -0.077156
v 0.278196 -0.332693 0.077156
v 0.108322 -0.224933 0.096445
v -0.243398 -0.055554 -0.096445
v -0.386256 -0.197190 -0.077156
v -0.386256 -0.197190 0.077156
v -0.243398 -0.055554 0.096445
v -0.195190 0.155659 -0.096445
v -0.262448 0.345252 -0.077156
v -0.106296 0.420451 -0.077156
v 0.000000 0.249657 -0.096445
v 0.243398 -0.055554 0.096445
v 0.433562 0.010072 0.077156
v 0.394996 0.179042 0.077156
v 0.086658 -0.424933 0.077156
v 0.086658 -0.424933 -0.077156
v -0.433562 0.010072 0.077156
v -0.433562 0.010072 -0.077156
v 0.000000 0.000000 -0.096445
v 0.243398 -0.055554 -0.096445
v -0.108322 -0.224933 -0.096445
v -0.195190 0.155659 0.096445
v 0.000000 -0.000000 0.096445
v -0.108322 -0.224933 0.096445
v 0.000000 0.249657 0.096445
v -0.394996 0.179042 0.077156
v -0.394996 0.179042 -0.077156
v -0.262448 0.345252 0.077156
v -0.106296 0.420451 0.077156
v 0.106296 0.420451 0.077156
v 0.106296 0.420451 -0.077156
v 0.433562 0.010072 -0.077156
v 0.394996 0.179042 -0.077156
v 0.386256 -0.197190 0.077156
v 0.386256 -0.197190 -0.077156
v -0.086658 -0.424933 0.077156
v -0.086658 -0.424933 -0.077156
v -0.278196 -0.332693 0.077156
v -0.278196 -0.332693 -0.077156
vt 0.277276 0.003474
vt 0.338736 0.003474
vt 0.338736 0.064933
vt 0.277276 0.064933
vn 0.259200 0.206700 -0.943500
vn 0.766000 0.331000 -0.551100
vn 0.766000 0.331000 0.551100
vn 0.259200 0.206700 0.943500
vn 0.143800 -0.298700 -0.943500
vn 0.152200 -0.820400 -0.551100
vn 0.152200 -0.820400 0.551100
vn 0.143800 -0.298700 0.943500
vn -0.323200 -0.073800 -0.943500
vn -0.833800 0.034200 -0.551100
vn -0.833800 0.034200 0.551100
vn -0.323200 -0.073800 0.943500
vn -0.259200 0.206700 -0.943500
vn -0.766000 0.331000 -0.551100
vn 0.218800 0.805200 -0.551100
vn 0.000000 0.331500 -0.943500
vn 0.323200 -0.073800 0.943500
vn 0.736400 -0.392500 0.551100
vn 0.493100 0.673200 0.551100
vn 0.546500 -0.630600 0.551100
vn 0.546500 -0.630600 -0.551100
vn -0.736400 -0.392500 0.551100
vn -0.736400 -0.392500 -0.551100
vn -0.000000 0.000000 -1.000000
vn 0.323200 -0.073800 -0.943500
vn -0.143800 -0.298700 -0.943500
vn -0.259200 0.206700 0.943500
vn -0.000000 -0.000000 1.000000
vn -0.143800 -0.298700 0.943500
vn 0.000000 0.331500 0.943500
vn -0.493100 0.673200 0.551100
vn -0.493100 0.673200 -0.551100
vn -0.766000 0.331000 0.551100
vn 0.218800 0.805200 0.551100
vn -0.218800 0.805200 0.551100
vn -0.218800 0.805200 -0.551100
vn 0.736400 -0.392500 -0.551100
vn 0.493100 0.673200 -0.551100
vn 0.833800 0.034200 0.551100
vn 0.833800 0.034200 -0.551100
vn -0.546500 -0.630600 0.551100
vn -0.546500 -0.630600 -0.551100
vn -0.152200 -0.820400 0.551100
vn -0.152200 -0.820400 -0.551100
s 1
f 1/1/1 2/2/2 3/3/3 4/4/4
f 5/1/5 6/2/6 7/3/7 8/4/8
f 9/1/9 10/2/10 11/3/11 12/4/12
f 13/1/13 14/2/14 15/3/15 16/4/16
f 17/1/17 18/2/18 19/3/19 4/4/4
f 8/1/8 20/2/20 21/3/21 5/4/5
f 12/1/12 22/2/22 23/3/23 9/4/9
f 16/1/16 1/2/1 24/3/24
f 25/1/25 5/2/5 24/3/24
f 26/1/26 9/2/9 24/3/24
f 13/1/13 16/2/16 24/3/24
f 1/1/1 25/2/25 24/3/24
f 5/1/5 26/2/26 24/3/24
f 9/1/9 13/2/13 24/3/24
f 27/1/27 12/2/12 28/3/28
f 29/1/29 8/2/8 28/3/28
f 17/1/17 4/2/4 28/3/28
f 30/1/30 27/2/27 28/3/28
f 12/1/12 29/2/29 28/3/28
f 8/1/8 17/2/17 28/3/28
f 4/1/4 30/2/30 28/3/28
f 22/1/22 31/2/31 32/3/32 23/4/23
f 27/1/27 31/2/31 22/3/22 12/4/12
f 9/1/9 23/2/23 32/3/32 13/4/13
f 13/1/13 32/2/32 31/3/31 27/4/27
f 33/1/33 34/2/34 15/3/15 14/4/14
f 16/1/16 15/2/15 34/3/34 30/4/30
f 30/1/30 34/2/34 33/3/33 27/4/27
f 27/1/27 33/2/33 14/3/14 13/4/13
f 35/1/35 3/2/3 2/3/2 36/4/36
f 4/1/4 3/2/3 35/3/35 30/4/30
f 30/1/30 35/2/35 36/3/36 16/4/16
f 16/1/16 36/2/36 2/3/2 1/4/1
f 19/1/19 18/2/18 37/3/37 38/4/38
f 4/1/4 19/2/19 38/3/38 1/4/1
f 1/1/1 38/2/38 37/3/37 25/4/25
f 25/1/25 37/2/37 18/3/18 17/4/17
f 39/1/39 7/2/7 6/3/6 40/4/40
f 17/1/17 39/2/39 40/3/40 25/4/25
f 8/1/8 7/2/7 39/3/39 17/4/17
f 25/1/25 40/2/40 6/3/6 5/4/5
f 20/1/20 41/2/41 42/3/42 21/4/21
f 29/1/29 41/2/41 20/3/20 8/4/8
f 5/1/5 21/2/21 42/3/42 26/4/26
f 26/1/26 42/2/42 41/3/41 29/4/29
f 43/1/43 11/2/11 10/3/10 44/4/44
f 29/1/29 43/2/43 44/3/44 26/4/26
f 12/1/12 11/2/11 43/3/43 29/4/29
f 26/1/26 44/2/44 10/3/10 9/4/9
