# Blender v2.76 (sub 0) OBJ File: 'door-engine.blend'
# www.blender.org
o Circle.001
v 0.195190 0.155659 -0.096445
v 0.262447 0.345252 -0.077156
v 0.262447 0.345252 0.077156
v 0.195190 0.155659 0.096445
v 0.108322 -0.224933 -0.096445
v 0.278196 -0.332693 -0.077156
v 0.278196 -0.332693 0.077156
v 0.108322 -0.224933 0.096445
v -0.243398 -0.055554 -0.096445
v -0.386256 -0.197190 -0.077156
v -0.386256 -0.197190 0.077156
v -0.243398 -0.055554 0.096445
v -0.195190 0.155659 -0.096445
v -0.262448 0.345252 -0.077156
v -0.106296 0.420451 -0.077156
v 0.000000 0.249657 -0.096445
v 0.243398 -0.055554 0.096445
v 0.433562 0.010072 0.077156
v 0.394996 0.179042 0.077156
v 0.086658 -0.424933 0.077156
v 0.086658 -0.424933 -0.077156
v -0.433562 0.010072 0.077156
v -0.433562 0.010072 -0.077156
v 0.000000 0.000000 -0.096445
v 0.243398 -0.055554 -0.096445
v -0.108322 -0.224933 -0.096445
v -0.195190 0.155659 0.096445
v 0.000000 -0.000000 0.096445
v -0.108322 -0.224933 0.096445
v 0.000000 0.249657 0.096445
v -0.394996 0.179042 0.077156
v -0.394996 0.179042 -0.077156
v -0.262448 0.345252 0.077156
v -0.106296 0.420451 0.077156
v 0.106296 0.420451 0.077156
v 0.106296 0.420451 -0.077156
v 0.433562 0.010072 -0.077156
v 0.394996 0.179042 -0.077156
v 0.386256 -0.197190 0.077156
v 0.386256 -0.197190 -0.077156
v -0.086658 -0.424933 0.077156
v -0.086658 -0.424933 -0.077156
v -0.278196 -0.332693 0.077156
v -0.278196 -0.332693 -0.077156
vt 0.277276 0.003474
vt 0.338736 0.003474
vt 0.338736 0.064933
vt 0.277276 0.064933
vn 0.942500 -0.334300 0.000000
vn -0.535700 -0.844400 0.000000
vn -0.704100 0.710100 0.000000
vn -0.041700 0.086500 -0.995400
vn 0.093600 0.021400 0.995400
vn 0.994200 -0.107700 0.000000
vn -0.326200 -0.945300 -0.000000
vn -0.000000 0.000000 -1.000000
vn 0.000000 -0.000000 1.000000
vn -0.974900 0.222500 0.000000
vn -0.093600 0.021400 0.995400
vn -0.093600 0.021400 -0.995400
vn 0.116200 0.993200 0.000000
vn -0.433900 0.901000 0.000000
vn 0.849000 0.528400 0.000000
vn -0.041700 0.086500 0.995400
vn -0.942500 -0.334300 0.000000
vn 0.433900 0.901000 0.000000
vn 0.041700 0.086500 0.995400
vn -0.849000 0.528400 0.000000
vn 0.041700 0.086500 -0.995400
vn 0.974900 0.222500 0.000000
vn -0.116200 0.993200 0.000000
vn 0.093600 0.021400 -0.995400
vn 0.326200 -0.945300 -0.000000
vn 0.781800 -0.623500 0.000000
vn 0.704100 0.710100 0.000000
vn 0.075100 -0.059900 0.995400
vn 0.075100 -0.059900 -0.995400
vn 0.000000 -1.000000 0.000000
vn 0.000000 -0.096000 0.995400
vn 0.000000 -0.096000 -0.995400
vn -0.994200 -0.107700 0.000000
vn -0.781800 -0.623500 0.000000
vn 0.535700 -0.844400 0.000000
vn -0.075100 -0.059900 0.995400
vn -0.075100 -0.059900 -0.995400
s off
f 1/1/1 2/2/1 3/3/1 4/4/1
f 5/1/2 6/2/2 7/3/2 8/4/2
f 9/1/3 10/2/3 11/3/3 12/4/3
f 13/1/4 14/2/4 15/3/4 16/4/4
f 17/1/5 18/2/5 19/3/5 4/4/5
f 8/1/6 20/2/6 21/3/6 5/4/6
f 12/1/7 22/2/7 23/3/7 9/4/7
f 16/1/8 1/2/8 24/3/8
f 25/1/8 5/2/8 24/3/8
f 26/1/8 9/2/8 24/3/8
f 13/1/8 16/2/8 24/3/8
f 1/1/8 25/2/8 24/3/8
f 5/1/8 26/2/8 24/3/8
f 9/1/8 13/2/8 24/3/8
f 27/1/9 12/2/9 28/3/9
f 29/1/9 8/2/9 28/3/9
f 17/1/9 4/2/9 28/3/9
f 30/1/9 27/2/9 28/3/9
f 12/1/9 29/2/9 28/3/9
f 8/1/9 17/2/9 28/3/9
f 4/1/9 30/2/9 28/3/9
f 22/1/10 31/2/10 32/3/10 23/4/10
f 27/1/11 31/2/11 22/3/11 12/4/11
f 9/1/12 23/2/12 32/3/12 13/4/12
f 13/1/13 32/2/13 31/3/13 27/4/13
f 33/1/14 34/2/14 15/3/14 14/4/14
f 16/1/15 15/2/15 34/3/15 30/4/15
f 30/1/16 34/2/16 33/3/16 27/4/16
f 27/1/17 33/2/17 14/3/17 13/4/17
f 35/1/18 3/2/18 2/3/18 36/4/18
f 4/1/19 3/2/19 35/3/19 30/4/19
f 30/1/20 35/2/20 36/3/20 16/4/20
f 16/1/21 36/2/21 2/3/21 1/4/21
f 19/1/22 18/2/22 37/3/22 38/4/22
f 4/1/23 19/2/23 38/3/23 1/4/23
f 1/1/24 38/2/24 37/3/24 25/4/24
f 25/1/25 37/2/25 18/3/25 17/4/25
f 39/1/26 7/2/26 6/3/26 40/4/26
f 17/1/27 39/2/27 40/3/27 25/4/27
f 8/1/28 7/2/28 39/3/28 17/4/28
f 25/1/29 40/2/29 6/3/29 5/4/29
f 20/1/30 41/2/30 42/3/30 21/4/30
f 29/1/31 41/2/31 20/3/31 8/4/31
f 5/1/32 21/2/32 42/3/32 26/4/32
f 26/1/33 42/2/33 41/3/33 29/4/33
f 43/1/34 11/2/34 10/3/34 44/4/34
f 29/1/35 43/2/35 44/3/35 26/4/35
f 12/1/36 11/2/36 43/3/36 29/4/36
f 26/1/37 44/2/37 10/3/37 9/4/37
