# Blender v2.76 (sub 0) OBJ File: 'particle.blend'
# www.blender.org
o Cube.008
v 0.150000 0.000000 -0.150000
v 0.150000 -0.000000 0.150000
v -0.150000 -0.000000 0.150000
v -0.150000 0.000000 -0.150000
v 0.150000 0.300000 -0.150000
v -0.150000 0.300000 -0.150000
v -0.150000 0.300000 0.150000
v 0.150000 0.300000 0.150000
vt 0.900648 0.461682
vt 0.900648 0.520093
vt 0.842238 0.520093
vt 0.842238 0.461682
vt 0.294048 0.702381
vt 0.055953 0.702381
vt 0.055953 0.464286
vt 0.294048 0.464286
vt 0.630159 0.330952
vt 0.630159 0.569048
vt 0.392063 0.569048
vt 0.392063 0.330952
vt 0.714286 0.285714
vt 0.714286 0.047619
vt 0.952381 0.047619
vt 0.952381 0.285714
vt 0.818873 0.379907
vt 0.818873 0.438318
vt 0.760463 0.438318
vt 0.760463 0.379907
vt 0.692063 0.405953
vt 0.930159 0.405952
vt 0.930159 0.644048
vt 0.692063 0.644048
vn 0.000000 -1.000000 -0.000000
vn 0.000000 1.000000 0.000000
vn 1.000000 -0.000000 0.000000
vn 0.000000 -0.000000 1.000000
vn -1.000000 0.000000 0.000000
vn 0.000000 0.000000 -1.000000
s off
f 1/1/1 2/2/1 3/3/1 4/4/1
f 5/5/2 6/6/2 7/7/2 8/8/2
f 1/9/3 5/10/3 8/11/3 2/12/3
f 2/13/4 8/14/4 7/15/4 3/16/4
f 3/17/5 7/18/5 6/19/5 4/20/5
f 5/21/6 1/22/6 4/23/6 6/24/6
