# Blender v2.76 (sub 0) OBJ File: 'plate-bottom-shadow.blend'
# www.blender.org
o Cube.010
v -0.750000 0.005000 0.750000
v -0.750000 0.005000 -0.750000
v -0.750000 -0.005000 -0.750000
v -0.750000 -0.005000 0.750000
v 0.750000 0.005000 -0.750000
v 0.750000 -0.005000 -0.750000
v 0.750000 0.005000 0.750000
v 0.750000 -0.005000 0.750000
vt 0.277482 0.065413
vt 0.277482 0.003248
vt 0.339647 0.003248
vt 0.339647 0.065413
vn -1.000000 0.000000 0.000000
vn 0.000000 0.000000 -1.000000
vn 1.000000 0.000000 0.000000
vn 0.000000 0.000000 1.000000
vn 0.000000 -1.000000 -0.000000
vn 0.000000 1.000000 0.000000
s off
f 1/1/1 2/2/1 3/3/1 4/4/1
f 2/1/2 5/2/2 6/3/2 3/4/2
f 5/1/3 7/2/3 8/3/3 6/4/3
f 7/2/4 1/3/4 4/4/4 8/1/4
f 4/3/5 3/4/5 6/1/5 8/2/5
f 7/2/6 5/3/6 2/4/6 1/1/6
