# Blender v2.76 (sub 0) OBJ File: 'plate-type-copter.blend'
# www.blender.org
o Cube.013
v 0.750000 -0.400000 -0.750000
v 0.750000 -0.400000 0.750000
v -0.750000 -0.400000 0.750000
v -0.749999 -0.400000 -0.750000
v -0.562500 0.400000 0.562500
v -0.750000 0.400000 0.562500
v -0.750000 0.400000 0.749999
v -0.562500 0.400000 0.750000
v 0.750000 0.400000 -0.749999
v 0.750000 0.400000 -0.562499
v 0.750000 0.400000 -0.374999
v 0.750000 0.400000 -0.187499
v 0.750000 0.400000 0.000000
v 0.750000 0.400000 0.187500
v 0.749999 0.400000 0.375000
v 0.749999 0.400000 0.562500
v 0.749999 0.400000 0.750000
v 0.562499 0.400000 0.750000
v 0.374999 0.400000 0.750000
v 0.187500 0.400000 0.750000
v 0.000000 0.400000 0.750000
v -0.187500 0.400000 0.750000
v -0.375000 0.400000 0.750000
v -0.750000 0.400000 0.375000
v -0.750000 0.400000 0.187500
v -0.750000 0.400000 0.000000
v -0.750000 0.400000 -0.187500
v -0.750000 0.400000 -0.375000
v -0.750000 0.400000 -0.562500
v -0.750000 0.400000 -0.750000
v -0.562500 0.400000 -0.750000
v -0.375000 0.400000 -0.750000
v -0.187500 0.400000 -0.749999
v 0.000000 0.400000 -0.749999
v 0.187500 0.400000 -0.749999
v 0.375000 0.400000 -0.749999
v 0.562500 0.400000 -0.749999
v 0.187500 0.400000 0.562500
v 0.000000 0.400000 0.562500
v -0.562500 0.400000 -0.187500
v -0.562500 0.400000 0.000000
v -0.562500 0.400000 -0.562500
v -0.562500 0.400000 -0.375000
v 0.562499 0.400000 0.562500
v 0.374999 0.400000 0.562500
v -0.187500 0.400000 0.562500
v -0.375000 0.400000 0.562500
v -0.562500 0.400000 0.187500
v -0.562500 0.400000 0.375000
v 0.562500 0.400000 0.187500
v 0.562500 0.400000 0.375000
v 0.562500 0.400000 0.000000
v 0.187500 0.400000 -0.562499
v 0.375000 0.400000 -0.562499
v 0.000000 0.400000 -0.562500
v 0.562500 0.400000 -0.562499
v 0.562500 0.400000 -0.374999
v 0.562500 0.400000 -0.187500
v -0.375000 0.400000 -0.562500
v -0.187500 0.400000 -0.562500
v -0.518627 0.400000 0.138966
v -0.536922 0.400000 0.000000
v -0.518627 0.400000 -0.138965
v -0.464988 0.400000 -0.268461
v -0.379661 0.400000 -0.379661
v -0.268461 0.400000 -0.464988
v -0.138966 0.400000 -0.518626
v 0.000000 0.400000 -0.536922
v 0.138966 0.400000 -0.518626
v 0.268461 0.400000 -0.464988
v 0.379661 0.400000 -0.379661
v 0.464988 0.400000 -0.268460
v 0.518627 0.400000 -0.138965
v 0.536922 0.400000 0.000000
v 0.518627 0.400000 0.138966
v 0.464988 0.400000 0.268461
v 0.379661 0.400000 0.379662
v 0.268461 0.400000 0.464988
v 0.138965 0.400000 0.518627
v 0.000000 0.400000 0.536922
v -0.138966 0.400000 0.518627
v -0.268461 0.400000 0.464988
v -0.379661 0.400000 0.379661
v -0.464988 0.400000 0.268461
v -0.268461 0.100000 0.464988
v -0.379661 0.100000 0.379661
v -0.379661 0.100000 -0.379661
v -0.268461 0.100000 -0.464988
v 0.536922 0.100000 0.000000
v 0.518627 0.100000 0.138966
v -0.138966 0.100000 0.518627
v -0.464988 0.100000 -0.268461
v 0.518627 0.100000 -0.138965
v 0.000000 0.100000 0.536922
v -0.518627 0.100000 -0.138965
v 0.464988 0.100000 -0.268460
v 0.138965 0.100000 0.518627
v -0.536922 0.100000 0.000000
v 0.379661 0.100000 -0.379661
v 0.268461 0.100000 0.464988
v -0.518627 0.100000 0.138966
v 0.268461 0.100000 -0.464988
v 0.379661 0.100000 0.379662
v -0.464988 0.100000 0.268461
v 0.138966 0.100000 -0.518626
v -0.138966 0.100000 -0.518626
v 0.000000 0.100000 -0.536922
v 0.464988 0.100000 0.268461
v 0.000000 0.100000 0.000000
vt 0.144677 0.013118
vt 0.187109 0.013118
vt 0.187109 0.056080
vt 0.144677 0.056080
vt 0.257042 0.018312
vt 0.257042 0.012898
vt 0.263110 0.012898
vt 0.263110 0.018312
vt 0.135742 0.000977
vt 0.135742 0.067383
vt 0.121265 0.067383
vt 0.114676 0.067383
vt 0.108242 0.067383
vt 0.100269 0.067383
vt 0.092451 0.067383
vt 0.082051 0.067383
vt 0.074793 0.067383
vt 0.069336 0.067383
vt 0.069336 0.000977
vt 0.121131 0.067383
vt 0.114576 0.067383
vt 0.100236 0.067383
vt 0.074727 0.067383
vt 0.074860 0.067383
vt 0.257042 0.039969
vt 0.257042 0.034555
vt 0.263110 0.034555
vt 0.263110 0.039969
vt 0.232770 0.018312
vt 0.232770 0.012898
vt 0.238838 0.012898
vt 0.238838 0.018312
vt 0.220634 0.018312
vt 0.220634 0.012898
vt 0.226702 0.012898
vt 0.226702 0.018312
vt 0.257042 0.050798
vt 0.257042 0.045384
vt 0.263110 0.045384
vt 0.263110 0.050798
vt 0.257042 0.029141
vt 0.257042 0.023726
vt 0.263110 0.023726
vt 0.263110 0.029141
vt 0.244906 0.018312
vt 0.244906 0.012898
vt 0.250974 0.012898
vt 0.250974 0.018312
vt 0.244906 0.056212
vt 0.244906 0.050798
vt 0.250974 0.050798
vt 0.250974 0.056212
vt 0.238838 0.056212
vt 0.238838 0.050798
vt 0.257042 0.056212
vt 0.263110 0.056212
vt 0.214566 0.045384
vt 0.214566 0.039969
vt 0.220634 0.039969
vt 0.220634 0.045384
vt 0.214566 0.034555
vt 0.220634 0.034555
vt 0.220634 0.056212
vt 0.220634 0.050798
vt 0.226702 0.050798
vt 0.226702 0.056212
vt 0.214566 0.056212
vt 0.214566 0.050798
vt 0.232770 0.056212
vt 0.232770 0.050798
vt 0.214566 0.023726
vt 0.214566 0.018312
vt 0.220634 0.023726
vt 0.214566 0.012898
vt 0.214566 0.029141
vt 0.220634 0.029141
vt 0.243335 0.019579
vt 0.238838 0.019051
vt 0.234340 0.019579
vt 0.230150 0.021128
vt 0.226551 0.023592
vt 0.223789 0.026803
vt 0.222054 0.030542
vt 0.221461 0.034555
vt 0.222054 0.038568
vt 0.223789 0.042307
vt 0.226551 0.045518
vt 0.230150 0.047982
vt 0.234340 0.049531
vt 0.238838 0.050059
vt 0.243335 0.049531
vt 0.247526 0.047982
vt 0.251125 0.045518
vt 0.253886 0.042307
vt 0.255622 0.038568
vt 0.256214 0.034555
vt 0.255622 0.030542
vt 0.253886 0.026803
vt 0.251124 0.023592
vt 0.247526 0.021128
vt 0.233837 0.044419
vt 0.233837 0.040595
vt 0.243545 0.040595
vt 0.243545 0.044419
vt 0.233837 0.032410
vt 0.233837 0.028586
vt 0.243545 0.028586
vt 0.243545 0.032410
vt 0.233837 0.040879
vt 0.233837 0.036945
vt 0.243545 0.036945
vt 0.243545 0.040879
vt 0.233837 0.036558
vt 0.243545 0.036558
vt 0.233837 0.025237
vt 0.243545 0.025237
vt 0.233837 0.032899
vt 0.243545 0.032899
vt 0.233837 0.032583
vt 0.243545 0.032583
vt 0.244084 0.029022
vt 0.244084 0.032761
vt 0.234375 0.032761
vt 0.234375 0.029022
vt 0.233837 0.029016
vt 0.243545 0.029016
vt 0.233837 0.028941
vt 0.243545 0.028941
vt 0.244084 0.036774
vt 0.234375 0.036774
vt 0.233837 0.025561
vt 0.243545 0.025561
vt 0.233837 0.025879
vt 0.243545 0.025879
vt 0.244084 0.040787
vt 0.234375 0.040787
vt 0.233837 0.022770
vt 0.243545 0.022770
vt 0.233837 0.023607
vt 0.243545 0.023607
vt 0.244084 0.044526
vt 0.234375 0.044526
vt 0.233837 0.047126
vt 0.233837 0.044064
vt 0.243545 0.044064
vt 0.243545 0.047126
vt 0.233837 0.040422
vt 0.233837 0.036446
vt 0.243545 0.036446
vt 0.243545 0.040422
vt 0.233837 0.047364
vt 0.243545 0.047364
vt 0.233837 0.047768
vt 0.243545 0.047768
vt 0.228125 0.022044
vt 0.232054 0.020020
vt 0.238703 0.034344
vt 0.228125 0.046645
vt 0.224918 0.043783
vt 0.255931 0.032320
vt 0.255931 0.036368
vt 0.236435 0.018972
vt 0.222650 0.040277
vt 0.254757 0.040277
vt 0.252489 0.043783
vt 0.249281 0.046645
vt 0.240971 0.018972
vt 0.221476 0.036368
vt 0.245353 0.048668
vt 0.245353 0.020020
vt 0.221476 0.032320
vt 0.240971 0.049716
vt 0.249281 0.022044
vt 0.222650 0.028411
vt 0.236435 0.049716
vt 0.252489 0.024906
vt 0.224918 0.024906
vt 0.232054 0.048668
vt 0.254757 0.028411
vn 0.000000 -1.000000 -0.000000
vn -0.000000 1.000000 0.000000
vn 1.000000 0.000000 0.000000
vn -0.000000 -0.000000 1.000000
vn -1.000000 -0.000000 -0.000000
vn 0.000000 0.000000 -1.000000
vn 0.608800 0.000000 -0.793400
vn 0.608800 -0.000000 0.793400
vn -0.991400 0.000000 -0.130500
vn 0.382700 0.000000 -0.923900
vn 0.793400 -0.000000 0.608800
vn -0.991400 -0.000000 0.130500
vn 0.130500 0.000000 -0.991400
vn 0.923900 0.000000 0.382700
vn -0.923900 0.000000 0.382700
vn -0.130500 0.000000 -0.991400
vn 0.991400 -0.000000 0.130500
vn -0.793400 -0.000000 0.608800
vn -0.382700 0.000000 -0.923900
vn 0.991400 0.000000 -0.130500
vn -0.608800 -0.000000 0.793400
vn -0.608800 0.000000 -0.793400
vn 0.923900 0.000000 -0.382700
vn -0.382700 -0.000000 0.923900
vn 0.130500 -0.000000 0.991400
vn -0.793400 0.000000 -0.608800
vn 0.793400 0.000000 -0.608800
vn -0.130500 -0.000000 0.991400
vn 0.382700 -0.000000 0.923900
vn -0.923900 0.000000 -0.382700
s off
f 1/1/1 2/2/1 3/3/1 4/4/1
f 5/5/2 6/6/2 7/7/2 8/8/2
f 1/9/3 9/10/3 10/11/3 11/12/3 12/13/3 13/14/3 14/15/3 15/16/3 16/17/3 17/18/3 2/19/3
f 2/9/4 17/10/4 18/20/4 19/21/4 20/13/4 21/22/4 22/15/4 23/16/4 8/23/4 7/18/4 3/19/4
f 3/9/5 7/10/5 6/20/5 24/21/5 25/13/5 26/22/5 27/15/5 28/16/5 29/24/5 30/18/5 4/19/5
f 9/10/6 1/9/6 4/19/6 30/18/6 31/23/6 32/16/6 33/15/6 34/22/6 35/13/6 36/21/6 37/20/6
f 38/25/2 39/26/2 21/27/2 20/28/2
f 40/29/2 27/30/2 26/31/2 41/32/2
f 42/33/2 29/34/2 28/35/2 43/36/2
f 44/37/2 45/38/2 19/39/2 18/40/2
f 46/41/2 47/42/2 23/43/2 22/44/2
f 48/45/2 25/46/2 24/47/2 49/48/2
f 41/32/2 26/31/2 25/46/2 48/45/2
f 39/26/2 46/41/2 22/44/2 21/27/2
f 14/49/2 50/50/2 51/51/2 15/52/2
f 13/53/2 52/54/2 50/50/2 14/49/2
f 16/55/2 44/37/2 18/40/2 17/56/2
f 15/52/2 51/51/2 44/37/2 16/55/2
f 36/57/2 35/58/2 53/59/2 54/60/2
f 35/58/2 34/61/2 55/62/2 53/59/2
f 10/63/2 56/64/2 57/65/2 11/66/2
f 9/67/2 37/68/2 56/64/2 10/63/2
f 37/68/2 36/57/2 54/60/2 56/64/2
f 12/69/2 58/70/2 52/54/2 13/53/2
f 11/66/2 57/65/2 58/70/2 12/69/2
f 32/71/2 31/72/2 42/33/2 59/73/2
f 31/72/2 30/74/2 29/34/2 42/33/2
f 34/61/2 33/75/2 60/76/2 55/62/2
f 33/75/2 32/71/2 59/73/2 60/76/2
f 43/36/2 28/35/2 27/30/2 40/29/2
f 45/38/2 38/25/2 20/28/2 19/39/2
f 47/42/2 5/5/2 8/8/2 23/43/2
f 49/48/2 24/47/2 6/6/2 5/5/2
f 48/45/2 61/77/2 62/78/2 41/32/2
f 41/32/2 62/78/2 63/79/2 40/29/2
f 40/29/2 63/79/2 64/80/2 43/36/2
f 43/36/2 64/80/2 65/81/2 42/33/2
f 42/33/2 65/81/2 66/82/2 59/73/2
f 59/73/2 66/82/2 67/83/2 60/76/2
f 60/76/2 67/83/2 68/84/2 55/62/2
f 55/62/2 68/84/2 69/85/2 53/59/2
f 53/59/2 69/85/2 70/86/2 54/60/2
f 54/60/2 70/86/2 71/87/2 56/64/2
f 56/64/2 71/87/2 72/88/2 57/65/2
f 57/65/2 72/88/2 73/89/2 58/70/2
f 58/70/2 73/89/2 74/90/2 52/54/2
f 52/54/2 74/90/2 75/91/2 50/50/2
f 50/50/2 75/91/2 76/92/2 51/51/2
f 51/51/2 76/92/2 77/93/2 44/37/2
f 44/37/2 77/93/2 78/94/2 45/38/2
f 45/38/2 78/94/2 79/95/2 38/25/2
f 38/25/2 79/95/2 80/96/2 39/26/2
f 39/26/2 80/96/2 81/97/2 46/41/2
f 46/41/2 81/97/2 82/98/2 47/42/2
f 47/42/2 82/98/2 83/99/2 5/5/2
f 5/5/2 83/99/2 84/100/2 49/48/2
f 49/48/2 84/100/2 61/77/2 48/45/2
f 83/101/7 82/102/7 85/103/7 86/104/7
f 66/105/8 65/106/8 87/107/8 88/108/8
f 75/109/9 74/110/9 89/111/9 90/112/9
f 82/102/10 81/113/10 91/114/10 85/103/10
f 65/106/11 64/115/11 92/116/11 87/107/11
f 74/110/12 73/117/12 93/118/12 89/111/12
f 81/113/13 80/119/13 94/120/13 91/114/13
f 64/121/14 63/122/14 95/123/14 92/124/14
f 73/117/15 72/125/15 96/126/15 93/118/15
f 80/119/16 79/127/16 97/128/16 94/120/16
f 63/122/17 62/129/17 98/130/17 95/123/17
f 72/125/18 71/131/18 99/132/18 96/126/18
f 79/127/19 78/133/19 100/134/19 97/128/19
f 62/129/20 61/135/20 101/136/20 98/130/20
f 71/131/21 70/137/21 102/138/21 99/132/21
f 78/133/22 77/139/22 103/140/22 100/134/22
f 61/135/23 84/141/23 104/142/23 101/136/23
f 70/143/24 69/144/24 105/145/24 102/146/24
f 68/147/25 67/148/25 106/149/25 107/150/25
f 77/151/26 76/101/26 108/104/26 103/152/26
f 84/153/27 83/101/27 86/104/27 104/154/27
f 69/144/28 68/147/28 107/150/28 105/145/28
f 67/148/29 66/105/29 88/108/29 106/149/29
f 76/101/30 75/109/30 90/112/30 108/104/30
f 97/155/2 100/156/2 109/157/2
f 98/158/2 101/159/2 109/157/2
f 99/160/2 102/161/2 109/157/2
f 100/156/2 103/162/2 109/157/2
f 101/159/2 104/163/2 109/157/2
f 102/161/2 105/164/2 109/157/2
f 107/165/2 106/166/2 109/157/2
f 103/162/2 108/167/2 109/157/2
f 104/163/2 86/168/2 109/157/2
f 105/164/2 107/165/2 109/157/2
f 106/166/2 88/169/2 109/157/2
f 108/167/2 90/170/2 109/157/2
f 86/168/2 85/171/2 109/157/2
f 88/169/2 87/172/2 109/157/2
f 90/170/2 89/173/2 109/157/2
f 85/171/2 91/174/2 109/157/2
f 87/172/2 92/175/2 109/157/2
f 89/173/2 93/176/2 109/157/2
f 91/174/2 94/177/2 109/157/2
f 92/175/2 95/178/2 109/157/2
f 93/176/2 96/179/2 109/157/2
f 94/177/2 97/155/2 109/157/2
f 95/178/2 98/158/2 109/157/2
f 96/179/2 99/160/2 109/157/2
