# Blender v2.76 (sub 0) OBJ File: 'start.blend'
# www.blender.org
o Cube.020
v 0.630993 2.034349 0.648079
v 0.630993 2.034349 -0.653317
v 0.630993 1.576487 -0.653317
v 0.630993 1.576487 0.648079
v 0.649007 2.034349 -0.653317
v 0.649007 1.576487 -0.653317
v 0.649007 2.034349 0.648079
v 0.649007 1.576487 0.648079
v 0.585845 2.067614 0.694155
v 0.585845 2.067614 0.585845
v 0.585845 -0.094485 0.585845
v 0.585845 -0.094485 0.694155
v 0.694155 2.067614 0.585845
v 0.694155 -0.094485 0.585845
v 0.694155 2.067614 0.694155
v 0.694155 -0.094485 0.694155
v 0.585845 2.067614 -0.694155
v 0.585845 -0.094485 -0.694155
v 0.585845 -0.094485 -0.585845
v 0.585845 2.067614 -0.585845
v 0.694155 -0.094485 -0.585845
v 0.694155 2.067614 -0.585845
v 0.694155 -0.094485 -0.694155
v 0.694155 2.067614 -0.694155
vt 0.000977 0.340820
vt 0.000977 0.206055
vt 0.067383 0.206055
vt 0.067383 0.340820
vt 0.295244 0.014744
vt 0.296561 0.014744
vt 0.296561 0.048634
vt 0.295244 0.048634
vt 0.305333 0.014744
vt 0.306650 0.014744
vt 0.306650 0.048634
vt 0.305333 0.048634
vt 0.307402 0.072323
vt 0.307402 0.108013
vt 0.306932 0.108013
vt 0.306932 0.072323
vt 0.313438 0.038145
vt 0.313438 0.006995
vt 0.313847 0.006995
vt 0.313847 0.038145
vt 0.306009 0.056784
vt 0.303546 0.056784
vt 0.303546 0.006995
vt 0.306009 0.006995
vt 0.310955 0.056784
vt 0.308492 0.056784
vt 0.308492 0.006995
vt 0.310955 0.006995
vt 0.304098 0.072323
vt 0.306920 0.129368
vt 0.304098 0.129368
vt 0.298417 0.129368
vt 0.295594 0.129368
vt 0.295594 0.072323
vt 0.298417 0.072323
vt 0.310236 0.075181
vt 0.307414 0.075181
vt 0.310236 0.072323
vt 0.306638 0.035980
vt 0.291887 0.035980
vt 0.291887 0.021045
vt 0.306638 0.021045
vt 0.301263 0.129368
vt 0.301263 0.072323
vt 0.313428 0.056784
vt 0.310271 0.075193
vt 0.310271 0.078015
vt 0.307414 0.078015
vt 0.321394 0.021045
vt 0.321394 0.035980
vn -1.000000 0.000000 0.000000
vn 0.000000 0.000000 -1.000000
vn 1.000000 0.000000 0.000000
vn 0.000000 -0.000000 1.000000
vn 0.000000 -1.000000 -0.000000
vn 0.000000 1.000000 0.000000
s off
f 1/1/1 2/2/1 3/3/1 4/4/1
f 2/5/2 5/6/2 6/7/2 3/8/2
f 5/1/3 7/2/3 8/3/3 6/4/3
f 7/9/4 1/10/4 4/11/4 8/12/4
f 4/13/5 3/14/5 6/15/5 8/16/5
f 7/17/6 5/18/6 2/19/6 1/20/6
f 9/21/1 10/22/1 11/23/1 12/24/1
f 10/25/2 13/26/2 14/27/2 11/28/2
f 13/29/3 15/16/3 16/30/3 14/31/3
f 15/32/4 9/33/4 12/34/4 16/35/4
f 12/36/5 11/37/5 14/13/5 16/38/5
f 15/39/6 13/40/6 10/41/6 9/42/6
f 17/21/1 18/24/1 19/27/1 20/26/1
f 20/43/4 19/44/4 21/29/4 22/31/4
f 22/32/3 21/35/3 23/44/3 24/43/3
f 24/25/2 23/28/2 18/18/2 17/45/2
f 18/37/5 23/46/5 21/47/5 19/48/5
f 24/49/6 17/50/6 20/39/6 22/42/6
