# Blender v2.76 (sub 0) OBJ File: 'video.blend'
# www.blender.org
o Cube.004_Cube.005
v 0.180504 0.900674 0.044672
v 0.180504 1.028745 0.044672
v 0.180504 0.900674 -0.083399
v 0.180504 1.028745 -0.083399
v 0.308575 0.900674 0.044672
v 0.308575 1.028745 0.044672
v 0.308575 0.900674 -0.083399
v 0.308575 1.028745 -0.083399
v 0.104140 0.708302 0.121037
v 0.104140 0.989102 0.121037
v 0.104140 0.708302 -0.159763
v 0.104140 0.989102 -0.159763
v 0.384939 0.708302 0.121037
v 0.384939 0.989102 0.121037
v 0.384939 0.708302 -0.159763
v 0.384939 0.989102 -0.159763
v -0.062084 0.254065 0.210837
v -0.062084 0.318096 0.210837
v -0.062084 0.254065 0.146805
v -0.062084 0.318096 0.146805
v 0.001948 0.254065 0.210837
v 0.001948 0.318096 0.210837
v 0.001948 0.254065 0.146805
v 0.001948 0.318096 0.146805
v -0.180822 0.254065 0.210837
v -0.180822 0.318096 0.210837
v -0.180822 0.254065 0.146805
v -0.180822 0.318096 0.146805
v -0.116790 0.254065 0.210837
v -0.116790 0.318096 0.210837
v -0.116790 0.254065 0.146805
v -0.116790 0.318096 0.146805
v -0.299573 0.254065 0.210837
v -0.299573 0.318096 0.210837
v -0.299573 0.254065 0.146805
v -0.299573 0.318096 0.146805
v -0.235542 0.254065 0.210837
v -0.235542 0.318096 0.210837
v -0.235542 0.254065 0.146805
v -0.235542 0.318096 0.146805
v -0.349323 0.366542 0.219039
v -0.402492 0.903939 0.219039
v -0.349323 0.366542 0.186325
v -0.402492 0.903939 0.186325
v 0.379301 0.366542 0.219039
v 0.432470 0.903939 0.219039
v 0.379301 0.366542 0.186325
v 0.432470 0.903939 0.186325
v -0.397768 0.000000 -0.113627
v -0.359212 0.319798 -0.086224
v -0.397768 0.000000 -0.164583
v -0.359212 0.319798 -0.191986
v -0.358616 0.000000 -0.113627
v -0.277950 0.319798 -0.086224
v -0.358616 0.000000 -0.164583
v -0.277950 0.319798 -0.191986
v 0.427485 0.000000 -0.164583
v 0.388930 0.319798 -0.191986
v 0.427485 0.000000 -0.113627
v 0.388930 0.319798 -0.086224
v 0.388334 0.000000 -0.164583
v 0.307668 0.319798 -0.191986
v 0.388334 0.000000 -0.113627
v 0.307668 0.319798 -0.086224
v 0.427485 0.000000 0.071668
v 0.388930 0.319798 0.044265
v 0.427485 0.000000 0.122624
v 0.388930 0.319798 0.150027
v 0.388334 0.000000 0.071668
v 0.307668 0.319798 0.044265
v 0.388334 0.000000 0.122624
v 0.307668 0.319798 0.150027
v -0.397767 0.000000 0.122624
v -0.359212 0.319798 0.150027
v -0.397767 0.000000 0.071668
v -0.359212 0.319798 0.044265
v -0.358616 0.000000 0.122624
v -0.277950 0.319798 0.150027
v -0.358616 0.000000 0.071668
v -0.277950 0.319798 0.044265
v 0.246455 0.949124 0.007319
v 0.177242 1.208387 0.011908
v 0.246455 0.949124 -0.007319
v 0.177242 1.208387 -0.011908
v 0.257396 0.951891 0.007319
v 0.195043 1.212889 0.011908
v 0.257396 0.951891 -0.007319
v 0.195043 1.212889 -0.011908
v 0.175843 1.231073 0.008954
v 0.175843 1.231073 -0.008954
v 0.183843 1.240026 -0.008954
v 0.183843 1.240026 0.008954
v -0.029577 1.308325 0.016972
v -0.029577 1.308325 -0.016972
v -0.014414 1.325295 -0.016972
v -0.014414 1.325295 0.016972
v -0.053774 1.307924 0.031892
v -0.053774 1.307924 -0.031892
v -0.025281 1.339812 -0.031892
v -0.025281 1.339812 0.031892
v 0.252081 0.962175 0.007319
v 0.359881 1.428169 0.016472
v 0.252081 0.962175 -0.007319
v 0.359881 1.428169 -0.016472
v 0.263744 0.959283 0.007319
v 0.386131 1.421660 0.016472
v 0.263744 0.959283 -0.007319
v 0.386131 1.421660 -0.016472
v 0.352536 1.446258 0.030457
v 0.352536 1.446258 -0.030457
v 0.401075 1.434222 -0.030457
v 0.401075 1.434222 0.030457
v -0.337233 0.320359 -0.122273
v -0.337233 0.930474 -0.122273
v -0.209433 0.454931 -0.406778
v -0.209433 0.846142 -0.406778
v 0.375158 0.320359 -0.122273
v 0.375158 0.930474 -0.122273
v 0.247358 0.454931 -0.406778
v 0.247358 0.846142 -0.406778
v -0.415124 0.191173 0.189015
v -0.492668 0.942745 0.188616
v -0.435479 0.173552 -0.264958
v -0.516659 0.967040 -0.285663
v 0.453049 0.191173 0.189015
v 0.530592 0.942745 0.188616
v 0.473403 0.173552 -0.264958
v 0.554583 0.967040 -0.285663
vt 0.037174 0.156539
vt 0.209430 0.156539
vt 0.209430 0.328796
vt 0.037174 0.328796
vt 0.213719 0.347036
vt 0.035986 0.347036
vt 0.035986 0.169303
vt 0.213719 0.169303
vt 0.579591 0.675294
vt 0.705566 0.675294
vt 0.705566 0.801269
vt 0.579591 0.801269
vt 0.297466 0.674419
vt 0.456440 0.674419
vt 0.456440 0.833393
vt 0.297466 0.833393
vt 0.058533 0.689393
vt 0.195373 0.689393
vt 0.195373 0.826232
vt 0.058533 0.826232
vt 0.800042 0.145746
vt 0.953864 0.145746
vt 0.953864 0.299567
vt 0.800042 0.299567
vt 0.543167 0.207230
vt 0.706833 0.207230
vt 0.706833 0.370895
vt 0.543167 0.370895
vt 0.576316 0.244285
vt 0.704934 0.244285
vt 0.704934 0.372903
vt 0.576316 0.372903
vt 0.549592 0.201936
vt 0.684783 0.201936
vt 0.684783 0.337126
vt 0.549592 0.337126
vt 0.576627 0.203580
vt 0.677279 0.203580
vt 0.677279 0.304233
vt 0.576627 0.304233
vt 0.046976 0.144632
vt 0.187399 0.144632
vt 0.187399 0.285056
vt 0.046976 0.285056
vt 0.056665 0.209008
vt 0.185523 0.209008
vt 0.185523 0.337867
vt 0.056665 0.337867
vt 0.051752 0.208002
vt 0.198248 0.208002
vt 0.198248 0.354498
vt 0.051752 0.354498
vt 0.269898 0.186289
vt 0.449966 0.186289
vt 0.449966 0.366357
vt 0.269898 0.366357
vn -1.000000 0.000000 0.000000
vn 0.000000 0.000000 -1.000000
vn 1.000000 0.000000 0.000000
vn 0.000000 0.000000 1.000000
vn 0.000000 -1.000000 0.000000
vn 0.000000 1.000000 0.000000
vn -0.995100 -0.098500 0.000000
vn 0.995100 -0.098500 0.000000
vn -0.992800 0.119700 0.000000
vn 0.000000 -0.085400 -0.996300
vn 0.969600 -0.244600 0.000000
vn 0.000000 -0.085400 0.996300
vn 0.992800 0.119700 0.000000
vn -0.969600 -0.244600 0.000000
vn -0.966200 -0.257900 0.000000
vn 0.004200 -0.016600 -0.999900
vn 0.972600 0.232400 0.000000
vn 0.004200 -0.016600 0.999900
vn 0.245200 -0.969500 0.000000
vn 0.924400 0.381500 0.000000
vn 0.395100 0.918600 0.000000
vn -0.998100 -0.061600 0.000000
vn -0.054300 0.104000 0.993100
vn -0.054300 0.104000 -0.993100
vn 0.800600 0.599300 0.000000
vn -0.352000 -0.936000 0.000000
vn 0.029200 -0.026100 0.999200
vn 0.029200 -0.026100 -0.999200
vn -0.745700 0.666300 0.000000
vn 0.016500 -0.999900 0.000000
vn 0.479400 -0.428300 0.766000
vn 0.479400 -0.428300 -0.766000
vn -0.974300 0.225400 0.000000
vn -0.004600 -0.018600 -0.999800
vn 0.966700 -0.255900 0.000000
vn -0.004600 -0.018600 0.999800
vn -0.240700 -0.970600 0.000000
vn -0.159600 -0.643600 -0.748600
vn 0.240700 0.970600 0.000000
vn 0.643500 -0.765500 0.000000
vn -0.926500 -0.376200 0.000000
vn -0.159600 -0.643600 0.748600
vn -0.912200 0.000000 -0.409800
vn 0.912200 0.000000 -0.409800
vn 0.000000 -0.904000 -0.427600
vn 0.000000 0.958800 -0.284200
vn -0.993700 -0.101400 0.046700
vn 0.000000 -0.026100 -0.999700
vn 0.993700 -0.101400 0.046700
vn 0.000000 0.000500 1.000000
vn 0.000000 -0.999200 0.038800
vn 0.000000 0.998700 0.051200
s off
f 2/1/1 4/2/1 3/3/1 1/4/1
f 4/1/2 8/2/2 7/3/2 3/4/2
f 8/1/3 6/2/3 5/3/3 7/4/3
f 6/1/4 2/2/4 1/3/4 5/4/4
f 1/1/5 3/2/5 7/3/5 5/4/5
f 6/1/6 8/2/6 4/3/6 2/4/6
f 10/5/1 12/6/1 11/7/1 9/8/1
f 12/5/2 16/6/2 15/7/2 11/8/2
f 16/5/3 14/6/3 13/7/3 15/8/3
f 14/5/4 10/6/4 9/7/4 13/8/4
f 9/5/5 11/6/5 15/7/5 13/8/5
f 14/5/6 16/6/6 12/7/6 10/8/6
f 18/9/1 20/10/1 19/11/1 17/12/1
f 20/9/2 24/10/2 23/11/2 19/12/2
f 24/9/3 22/10/3 21/11/3 23/12/3
f 22/9/4 18/10/4 17/11/4 21/12/4
f 17/9/5 19/10/5 23/11/5 21/12/5
f 22/9/6 24/10/6 20/11/6 18/12/6
f 26/13/1 28/14/1 27/15/1 25/16/1
f 28/13/2 32/14/2 31/15/2 27/16/2
f 32/13/3 30/14/3 29/15/3 31/16/3
f 30/13/4 26/14/4 25/15/4 29/16/4
f 25/13/5 27/14/5 31/15/5 29/16/5
f 30/13/6 32/14/6 28/15/6 26/16/6
f 34/17/1 36/18/1 35/19/1 33/20/1
f 36/17/2 40/18/2 39/19/2 35/20/2
f 40/17/3 38/18/3 37/19/3 39/20/3
f 38/17/4 34/18/4 33/19/4 37/20/4
f 33/17/5 35/18/5 39/19/5 37/20/5
f 38/17/6 40/18/6 36/19/6 34/20/6
f 42/21/7 44/22/7 43/23/7 41/24/7
f 44/21/2 48/22/2 47/23/2 43/24/2
f 48/21/8 46/22/8 45/23/8 47/24/8
f 46/21/4 42/22/4 41/23/4 45/24/4
f 41/21/5 43/22/5 47/23/5 45/24/5
f 46/21/6 48/22/6 44/23/6 42/24/6
f 50/25/9 52/26/9 51/27/9 49/28/9
f 52/25/10 56/26/10 55/27/10 51/28/10
f 56/25/11 54/26/11 53/27/11 55/28/11
f 54/25/12 50/26/12 49/27/12 53/28/12
f 49/25/5 51/26/5 55/27/5 53/28/5
f 54/25/6 56/26/6 52/27/6 50/28/6
f 58/29/13 60/30/13 59/31/13 57/32/13
f 60/29/12 64/30/12 63/31/12 59/32/12
f 64/29/14 62/30/14 61/31/14 63/32/14
f 62/29/10 58/30/10 57/31/10 61/32/10
f 57/29/5 59/30/5 63/31/5 61/32/5
f 62/29/6 64/30/6 60/31/6 58/32/6
f 66/33/13 68/34/13 67/35/13 65/36/13
f 68/33/12 72/34/12 71/35/12 67/36/12
f 72/33/14 70/34/14 69/35/14 71/36/14
f 70/33/10 66/34/10 65/35/10 69/36/10
f 65/33/5 67/34/5 71/35/5 69/36/5
f 70/33/6 72/34/6 68/35/6 66/36/6
f 74/37/9 76/38/9 75/39/9 73/40/9
f 76/37/10 80/38/10 79/39/10 75/40/10
f 80/37/11 78/38/11 77/39/11 79/40/11
f 78/37/12 74/38/12 73/39/12 77/40/12
f 73/37/5 75/38/5 79/39/5 77/40/5
f 78/37/6 80/38/6 76/39/6 74/40/6
f 82/41/15 84/42/15 83/43/15 81/44/15
f 84/41/16 88/42/16 87/43/16 83/44/16
f 88/41/17 86/42/17 85/43/17 87/44/17
f 86/41/18 82/42/18 81/43/18 85/44/18
f 81/41/19 83/42/19 87/43/19 85/44/19
f 86/42/20 88/41/20 91/41/20 92/42/20
f 92/42/21 91/41/21 95/41/21 96/42/21
f 84/42/22 82/41/22 89/41/22 90/42/22
f 82/42/23 86/41/23 92/41/23 89/42/23
f 88/42/24 84/41/24 90/41/24 91/42/24
f 96/42/25 95/41/25 99/41/25 100/42/25
f 90/42/26 89/41/26 93/41/26 94/42/26
f 89/42/27 92/41/27 96/41/27 93/42/27
f 91/42/28 90/41/28 94/41/28 95/42/28
f 100/41/29 99/42/29 98/43/29 97/44/29
f 94/42/30 93/41/30 97/41/30 98/42/30
f 93/42/31 96/41/31 100/41/31 97/42/31
f 95/42/32 94/41/32 98/41/32 99/42/32
f 102/45/33 104/46/33 103/47/33 101/48/33
f 104/45/34 108/46/34 107/47/34 103/48/34
f 108/45/35 106/46/35 105/47/35 107/48/35
f 106/45/36 102/46/36 101/47/36 105/48/36
f 101/45/37 103/46/37 107/47/37 105/48/37
f 108/46/38 104/45/38 110/45/38 111/46/38
f 112/45/39 111/46/39 110/47/39 109/48/39
f 106/46/40 108/45/40 111/45/40 112/46/40
f 104/46/41 102/45/41 109/45/41 110/46/41
f 102/46/42 106/45/42 112/45/42 109/46/42
f 114/49/43 116/50/43 115/51/43 113/52/43
f 116/49/2 120/50/2 119/51/2 115/52/2
f 120/49/44 118/50/44 117/51/44 119/52/44
f 118/49/4 114/50/4 113/51/4 117/52/4
f 113/49/45 115/50/45 119/51/45 117/52/45
f 118/49/46 120/50/46 116/51/46 114/52/46
f 122/53/47 124/54/47 123/55/47 121/56/47
f 124/53/48 128/54/48 127/55/48 123/56/48
f 128/53/49 126/54/49 125/55/49 127/56/49
f 126/53/50 122/54/50 121/55/50 125/56/50
f 121/53/51 123/54/51 127/55/51 125/56/51
f 126/53/52 128/54/52 124/55/52 122/56/52
