# Blender v2.76 (sub 0) OBJ File: 'cube11.blend'
# www.blender.org
o Cube
v 0.366666 -0.500000 -0.500000
v -0.366666 -0.500000 -0.500000
v 0.366666 -0.500000 0.500000
v -0.366667 -0.500000 0.500000
v 0.366667 0.500000 -0.500000
v -0.366666 0.500000 -0.500000
v 0.366666 0.500000 0.500000
v -0.366667 0.500000 0.500000
v 0.500000 -0.500000 -0.366666
v 0.500000 -0.500000 0.366666
v -0.500000 -0.500000 0.366666
v -0.500000 -0.500000 -0.366667
v 0.500000 0.500000 -0.366666
v 0.499999 0.500000 0.366667
v -0.500000 0.500000 0.366666
v -0.500000 0.500000 -0.366667
v 0.433333 0.500000 -0.433333
v 0.433333 0.500000 -0.366666
v 0.433333 0.500000 0.366667
v 0.433333 0.500000 0.433333
v 0.366667 0.500000 -0.433333
v 0.366667 0.500000 -0.366666
v 0.366666 0.500000 0.366667
v 0.366666 0.500000 0.433333
v -0.366666 0.500000 -0.433333
v -0.366666 0.500000 -0.366666
v -0.366667 0.500000 0.366666
v -0.366667 0.500000 0.433333
v -0.433333 0.500000 -0.433333
v -0.433333 0.500000 -0.366666
v -0.433333 0.500000 0.366666
v -0.433333 0.500000 0.433333
v 0.433333 -0.500000 0.433333
v 0.433333 -0.500000 0.366666
v 0.433333 -0.500000 -0.366666
v 0.433333 -0.500000 -0.433333
v 0.366666 -0.500000 0.433333
v 0.366666 -0.500000 0.366666
v 0.366666 -0.500000 -0.366666
v 0.366666 -0.500000 -0.433333
v -0.366667 -0.500000 0.433333
v -0.366667 -0.500000 0.366666
v -0.366666 -0.500000 -0.366667
v -0.366666 -0.500000 -0.433333
v -0.433333 -0.500000 0.433333
v -0.433333 -0.500000 0.366666
v -0.433333 -0.500000 -0.366667
v -0.433333 -0.500000 -0.433333
vt 0.535448 0.017857
vt 0.535448 0.315476
vt 0.330224 0.315476
vt 0.330224 0.017857
vt 0.035448 0.057540
vt 0.035448 0.275794
vt 0.016791 0.275794
vt 0.016791 0.057540
vt 0.259328 0.057540
vt 0.277985 0.057540
vt 0.277985 0.275794
vt 0.259328 0.275794
vt 0.054104 0.275794
vt 0.054104 0.295635
vt 0.035448 0.295635
vt 0.259328 0.295635
vt 0.277985 0.295635
vt 0.054104 0.057540
vt 0.813812 0.277778
vt 0.608588 0.277778
vt 0.608588 0.059524
vt 0.813812 0.059524
vt 0.296642 0.057540
vt 0.296642 0.275794
vt 0.035448 0.037698
vt 0.054104 0.037698
vt 0.259328 0.037698
vt 0.277985 0.037698
vt 0.054104 0.017857
vt 0.259328 0.017857
vt 0.259328 0.315476
vt 0.054104 0.315476
vt 0.889342 0.016555
vt 0.907999 0.016555
vt 0.907999 0.314174
vt 0.889342 0.314174
vn 0.000000 0.000000 -1.000000
vn -0.000000 -0.000000 1.000000
vn 0.000000 1.000000 0.000000
vn 0.000000 -1.000000 0.000000
vn -1.000000 -0.000000 -0.000000
vn 1.000000 0.000000 0.000000
s off
f 5/1/1 1/2/1 2/3/1 6/4/1
f 3/3/2 7/4/2 8/1/2 4/2/2
f 24/5/3 28/6/3 8/7/3 7/8/3
f 38/9/4 37/10/4 41/11/4 42/12/4
f 44/6/4 43/13/4 47/14/4 48/15/4
f 43/13/4 42/12/4 46/16/4 47/14/4
f 42/12/4 41/11/4 45/17/4 46/16/4
f 40/5/4 39/18/4 43/13/4 44/6/4
f 42/19/4 43/20/4 39/21/4 38/22/4
f 1/8/4 40/5/4 44/6/4 2/7/4
f 3/23/4 4/24/4 41/11/4 37/10/4
f 36/25/4 35/26/4 39/18/4 40/5/4
f 35/26/4 34/27/4 38/9/4 39/18/4
f 34/27/4 33/28/4 37/10/4 38/9/4
f 9/29/4 10/30/4 34/27/4 35/26/4
f 25/11/3 29/17/3 30/16/3 26/12/3
f 26/12/3 30/16/3 31/14/3 27/13/3
f 27/13/3 31/14/3 32/15/3 28/6/3
f 21/10/3 25/11/3 26/12/3 22/9/3
f 26/19/3 27/20/3 23/21/3 22/22/3
f 23/18/3 27/13/3 28/6/3 24/5/3
f 5/23/3 6/24/3 25/11/3 21/10/3
f 17/28/3 21/10/3 22/9/3 18/27/3
f 18/27/3 22/9/3 23/18/3 19/26/3
f 19/26/3 23/18/3 24/5/3 20/25/3
f 13/30/3 18/27/3 19/26/3 14/29/3
f 11/3/5 15/4/5 16/1/5 12/2/5
f 9/3/6 13/4/6 14/1/6 10/2/6
f 30/16/3 16/31/3 15/32/3 31/14/3
f 47/33/1 12/34/1 16/35/1 30/36/1
f 29/36/5 48/33/5 47/34/5 30/35/5
f 29/35/1 25/36/1 44/33/1 48/34/1
f 6/36/5 2/33/5 44/34/5 25/35/5
f 5/35/6 21/36/6 40/33/6 1/34/6
f 40/36/1 21/33/1 17/34/1 36/35/1
f 17/35/6 18/36/6 35/33/6 36/34/6
f 47/14/4 46/16/4 11/31/4 12/32/4
f 35/34/1 18/35/1 13/36/1 9/33/1
f 11/33/2 46/34/2 31/35/2 15/36/2
f 31/36/5 46/33/5 45/34/5 32/35/5
f 41/36/2 28/33/2 32/34/2 45/35/2
f 8/35/5 28/36/5 41/33/5 4/34/5
f 3/33/6 37/34/6 24/35/6 7/36/6
f 33/36/2 20/33/2 24/34/2 37/35/2
f 19/35/6 20/36/6 33/33/6 34/34/6
f 10/34/2 14/35/2 19/36/2 34/33/2
