# Blender v2.76 (sub 0) OBJ File: 'cube3.blend'
# www.blender.org
o Cube
v 0.500000 -0.500000 -0.500000
v 0.500000 -0.500000 0.500000
v -0.500000 -0.500000 0.500000
v -0.350000 -0.500000 0.350000
v 0.350000 -0.500000 0.350000
v 0.350000 -0.500000 -0.350000
v -0.350000 -0.500000 -0.350000
v -0.500000 -0.500000 -0.500000
v 0.350000 -0.350000 -0.500000
v 0.500000 -0.350000 0.350000
v 0.350000 -0.350000 0.500000
v -0.500000 -0.350000 -0.350000
v 0.350000 0.350000 -0.500000
v -0.350000 -0.350000 -0.500000
v 0.500000 -0.350000 -0.350000
v 0.500000 0.350000 0.350000
v 0.499999 0.500000 0.500000
v -0.350000 -0.350000 0.500000
v -0.500000 0.500000 -0.500000
v -0.500000 -0.350000 0.350000
v 0.500000 0.500000 -0.499999
v 0.350000 -0.350000 -0.350000
v 0.350000 0.350000 -0.350000
v -0.350000 -0.350000 -0.350000
v 0.350000 -0.350000 -0.350000
v 0.350000 -0.350000 -0.350000
v 0.350000 -0.350000 0.350000
v 0.350000 -0.350000 0.100961
v 0.350000 0.350000 0.350000
v 0.350000 0.350000 0.500000
v -0.350000 -0.350000 0.350000
v -0.350000 -0.350000 0.350000
v 0.350000 -0.350000 0.350000
v -0.350000 -0.350000 0.350000
v -0.350000 0.350000 0.500000
v -0.500000 0.350000 -0.350000
v -0.350000 -0.350000 -0.350000
v -0.350000 -0.350000 -0.017500
v -0.500000 0.500000 0.500000
v -0.350000 0.350000 -0.500000
v 0.350000 0.350000 -0.350000
v 0.350000 0.350000 -0.350000
v -0.350000 0.350000 -0.350000
v 0.500000 0.350000 -0.350000
v 0.350000 0.350000 -0.069079
v 0.350000 0.350000 0.350000
v -0.350000 0.350000 0.350000
v -0.350000 0.350000 -0.350000
v -0.500000 0.350000 0.350000
v -0.350000 0.500000 0.350000
v -0.350000 0.500000 -0.350000
v 0.350000 0.500000 -0.350000
v 0.350000 0.500000 0.350000
v -0.350000 0.350000 0.350000
v -0.350000 0.350000 0.350000
v -0.350000 0.350000 0.015833
vt 0.512547 0.000000
vt 0.768820 0.000000
vt 0.768820 0.250000
vt 0.730379 0.212500
vt 0.730379 0.037500
vt 0.550988 0.037500
vt 0.550988 0.212500
vt 0.512547 0.250000
vt 0.256273 0.000000
vt 0.256274 0.250000
vt 0.217832 0.212500
vt 0.217832 0.037500
vt 0.038441 0.037500
vt 0.000000 0.000000
vt 0.256274 0.500000
vt 0.474106 0.287500
vt 0.294715 0.287500
vt 0.294715 0.462500
vt 0.474106 0.462500
vt 0.512547 0.500000
vt 0.038441 0.287500
vt 0.038441 0.462500
vt 0.217832 0.462500
vt 0.000000 0.500000
vt 0.000000 0.250000
vt 0.448745 0.675000
vt 0.448745 0.500000
vt 0.487186 0.500000
vt 0.487186 0.675000
vt 0.512547 0.373744
vt 0.639396 0.250000
vt 0.666578 0.276517
vt 0.539729 0.400260
vt 0.666578 0.524004
vt 0.639396 0.550520
vt 0.512547 0.426777
vt 0.621449 0.479980
vt 0.884410 0.725520
vt 0.922851 0.725520
vt 0.922851 0.900520
vt 0.884410 0.900520
vt 0.793427 0.400260
vt 0.820608 0.426777
vt 0.693760 0.550520
vt 0.000000 0.750000
vt 0.038441 0.537500
vt 0.038441 0.712500
vt 0.217832 0.712500
vt 0.256273 0.750000
vt 0.693760 0.250000
vt 0.820608 0.373744
vt 0.726831 0.335295
vt 0.217832 0.537500
vt 0.639396 0.851041
vt 0.512547 0.727297
vt 0.539729 0.700781
vt 0.666578 0.824524
vt 0.410304 0.850000
vt 0.410304 0.675000
vt 0.448745 0.850000
vt 0.845969 0.900520
vt 0.845969 0.725520
vt 0.038441 0.212500
vt 0.590635 0.651120
vt 0.512547 0.674264
vt 0.666578 0.577037
vt 0.487186 0.850000
vt 0.217832 0.287500
vt 0.884410 0.550520
vt 0.845969 0.550520
vt 0.922851 0.550520
vt 0.410304 0.500000
vt 0.474106 0.037500
vt 0.294715 0.037500
vt 0.294714 0.212500
vt 0.474106 0.212500
vt 0.283455 0.650260
vt 0.410304 0.774004
vt 0.383122 0.800520
vt 0.256274 0.676777
vt 0.344011 0.591187
vt 0.256273 0.623744
vt 0.383122 0.500000
vt 0.410304 0.526517
vt 0.179391 1.000000
vt 0.000000 1.000000
vt 0.179391 0.750000
vt 0.179391 0.787500
vt 0.000000 0.787500
vt 0.000000 0.962500
vt 0.179391 0.962500
vt 0.666578 0.550520
vt 0.845969 0.588020
vt 0.773977 0.588020
vt 0.666578 0.588020
vt 0.666578 0.763020
vt 0.730400 0.763020
vt 0.845969 0.763020
vt 0.845969 0.800520
vt 0.666578 0.800520
vt 0.948212 0.250000
vt 0.768820 0.212500
vt 0.854459 0.212500
vt 0.948212 0.212500
vt 0.948212 0.037500
vt 0.863001 0.037500
vt 0.768820 0.037500
vt 0.948212 0.000000
vt 1.000000 0.500000
vt 0.820609 0.500000
vt 0.820609 0.250000
vt 1.000000 0.250000
vt 1.000000 0.287500
vt 0.820609 0.287500
vt 0.820609 0.462500
vt 1.000000 0.462500
vn 0.000000 -1.000000 0.000000
vn 0.000000 0.000000 -1.000000
vn 1.000000 0.000000 0.000000
vn -0.000000 -0.000000 1.000000
vn -1.000000 0.000000 -0.000000
vn 0.000000 1.000000 0.000000
s off
f 1/1/1 2/2/1 3/3/1 4/4/1 5/5/1 6/6/1
f 1/1/1 6/6/1 7/7/1 4/4/1 3/3/1 8/8/1
f 1/9/2 8/10/2 14/11/2 9/12/2 13/13/2 21/14/2
f 2/15/3 1/10/3 21/8/3 44/16/3 15/17/3 10/18/3
f 10/18/3 16/19/3 44/16/3 21/8/3 17/20/3 2/15/3
f 30/21/4 11/22/4 18/23/4 3/15/4 2/24/4 17/25/4
f 13/26/5 9/27/5 22/28/5 23/29/5
f 9/30/6 14/31/6 24/32/6 25/33/6 26/33/6 22/33/6
f 27/34/6 10/35/6 15/36/6 22/33/6 28/37/6
f 29/38/2 16/39/2 10/40/2 27/41/2
f 31/42/6 32/42/6 18/43/6 11/44/6 33/34/6 34/42/6
f 8/45/5 3/24/5 20/46/5 12/47/5 36/48/5 19/49/5
f 37/32/6 12/50/6 20/51/6 32/42/6 38/52/6
f 3/24/5 39/15/5 19/49/5 36/48/5 49/53/5 20/46/5
f 40/54/1 13/55/1 23/56/1 41/56/1 42/56/1 43/57/1
f 15/58/4 44/59/4 23/26/4 22/60/4
f 24/41/3 14/61/3 40/62/3 43/38/3
f 22/33/6 26/33/6 28/37/6
f 8/10/2 19/25/2 21/14/2 13/13/2 40/63/2 14/11/2
f 45/64/1 23/56/1 44/65/1 16/35/1 29/66/1
f 33/26/5 11/29/5 30/67/5 46/60/5
f 39/10/4 3/15/4 18/23/4 35/68/4 30/21/4 17/25/4
f 38/52/6 32/42/6 31/42/6
f 32/69/3 47/38/3 35/62/3 18/70/3
f 48/39/4 36/38/4 12/69/4 37/71/4
f 32/26/2 20/59/2 49/72/2 47/27/2
f 41/56/1 23/56/1 45/64/1
f 21/10/6 19/9/6 39/1/6 50/73/6 51/74/6 52/75/6
f 21/10/6 52/75/6 53/76/6 50/73/6 39/1/6 17/8/6
f 47/77/1 54/77/1 55/77/1 46/78/1 30/79/1 35/80/1
f 56/81/1 47/77/1 49/82/1 36/83/1 48/84/1
f 54/77/1 47/77/1 56/81/1
f 52/85/4 51/86/4 7/45/4 6/87/4 25/88/4 24/89/4 43/90/4 42/91/4
f 53/92/5 52/70/5 42/93/5 41/93/5 45/94/5 29/95/5 27/96/5 28/97/5 26/98/5 25/98/5 6/99/5 5/100/5
f 51/101/3 50/3/3 55/102/3 54/102/3 56/103/3 48/104/3 37/105/3 38/106/3 31/107/3 34/107/3 4/2/3 7/108/3
f 50/109/2 53/110/2 5/111/2 4/112/2 34/113/2 33/114/2 46/115/2 55/116/2
