# Blender v2.76 (sub 0) OBJ File: 'cube3.blend'
# www.blender.org
o Cube
v 0.500000 -0.500000 -0.500000
v 0.500000 -0.500000 0.500000
v -0.500000 -0.500000 0.500000
v -0.500000 -0.500000 -0.500000
v 0.500000 -0.500000 0.375000
v -0.375000 -0.500000 -0.500000
v -0.375000 -0.500000 0.500000
v -0.500000 -0.500000 -0.375000
v 0.500000 -0.500000 -0.375000
v 0.375000 -0.500000 -0.500000
v 0.375000 -0.375000 0.500000
v 0.375000 -0.500000 0.500000
v 0.375000 -0.375000 -0.500000
v -0.500000 -0.500000 0.375000
v 0.500000 -0.375000 -0.375000
v 0.500000 -0.375000 -0.500000
v -0.500000 -0.375000 -0.375000
v -0.375000 -0.375000 0.500000
v -0.500000 -0.375000 -0.500000
v -0.375000 -0.375000 -0.500000
v 0.500000 -0.375000 0.500000
v -0.375000 -0.500000 -0.375000
v 0.375000 -0.500000 -0.375000
v 0.375000 -0.500000 0.375000
v 0.500000 -0.375000 0.375000
v -0.375000 -0.500000 0.375000
v -0.500000 -0.375000 0.500000
v -0.500000 -0.375000 0.375000
v -0.375000 -0.375000 0.375000
v -0.375000 -0.375000 -0.375000
v 0.375000 -0.375000 -0.375000
v 0.375000 -0.375000 0.375000
v 0.500000 0.500000 -0.500000
v 0.500000 0.500000 0.500000
v -0.500000 0.500000 0.500000
v -0.500000 0.500000 -0.500000
v 0.500000 0.500000 0.375000
v -0.375000 0.500000 -0.500000
v -0.375000 0.500000 0.500000
v -0.500000 0.500000 -0.375000
v 0.500000 0.500000 -0.375000
v 0.375000 0.500000 -0.500000
v 0.375000 0.375000 0.500000
v 0.375000 0.500000 0.500000
v 0.375000 0.375000 -0.500000
v -0.500000 0.500000 0.375000
v 0.500000 0.375000 -0.375000
v 0.500000 0.375000 -0.500000
v -0.500000 0.375000 -0.375000
v -0.375000 0.375000 0.500000
v -0.500000 0.375000 -0.500000
v -0.375000 0.375000 -0.500000
v 0.500000 0.375000 0.500000
v -0.375000 0.500000 -0.375000
v 0.375000 0.500000 -0.375000
v 0.375000 0.500000 0.375000
v 0.500000 0.375000 0.375000
v -0.375000 0.500000 0.375000
v -0.500000 0.375000 0.500000
v -0.500000 0.375000 0.375000
v -0.375000 0.375000 0.375000
v -0.375000 0.375000 -0.375000
v 0.375000 0.375000 -0.375000
v 0.375000 0.375000 0.375000
v 0.375000 -0.125000 0.500000
v 0.375000 -0.250000 0.375000
v 0.500000 -0.250000 0.375000
v 0.500000 -0.125000 0.500000
v 0.375000 0.125000 -0.500000
v 0.500000 0.250000 -0.375000
v 0.500000 0.125000 -0.500000
v 0.375000 0.250000 -0.375000
v 0.375000 0.250000 0.500000
v 0.500000 0.125000 0.500000
v 0.500000 0.125000 0.375000
v 0.375000 0.250000 0.375000
v -0.375000 -0.250000 0.500000
v -0.500000 -0.125000 0.500000
v -0.500000 -0.125000 0.375000
v -0.375000 -0.250000 0.375000
v 0.375000 -0.250000 -0.500000
v 0.500000 -0.125000 -0.375000
v 0.500000 -0.125000 -0.500000
v 0.375000 -0.250000 -0.375000
v -0.500000 -0.250000 -0.375000
v -0.500000 -0.125000 -0.500000
v -0.375000 -0.125000 -0.500000
v -0.375000 -0.250000 -0.375000
v -0.375000 0.125000 0.500000
v -0.500000 0.125000 0.500000
v -0.500000 0.250000 0.375000
v -0.375000 0.250000 0.375000
v -0.500000 0.125000 -0.375000
v -0.500000 0.125000 -0.500000
v -0.375000 0.250000 -0.500000
v -0.375000 0.250000 -0.375000
v -0.375000 0.375000 -0.250000
v -0.375000 0.500000 -0.250000
v -0.500000 0.375000 -0.125000
v -0.500000 0.500000 -0.125000
v 0.125000 0.500000 -0.500000
v 0.125000 0.375000 -0.500000
v 0.250000 0.500000 -0.375000
v 0.250000 0.375000 -0.375000
v 0.500000 0.500000 0.125000
v 0.375000 0.500000 0.250000
v 0.500000 0.375000 0.125000
v 0.375000 0.375000 0.250000
v -0.125000 0.500000 0.500000
v -0.125000 0.375000 0.500000
v -0.250000 0.500000 0.375000
v -0.250000 0.375000 0.375000
v 0.062500 0.375000 -0.062500
v 0.062500 0.500000 -0.062500
v -0.156250 0.375000 -0.156250
v -0.074403 0.500000 -0.156250
v 0.156250 0.375000 0.156250
v 0.058532 0.500000 0.170541
v -0.062500 0.375000 0.062500
v -0.062500 0.500000 0.062500
vt 0.259540 0.548334
vt 0.259540 0.580201
vt 0.228044 0.580181
vt 0.228044 0.548313
vt 0.306704 0.277931
vt 0.306704 0.309798
vt 0.275207 0.309776
vt 0.275207 0.277909
vt 0.259877 0.039519
vt 0.259877 0.230741
vt 0.228339 0.230741
vt 0.228339 0.039519
vt 0.573840 0.007690
vt 0.573840 0.039560
vt 0.542321 0.039566
vt 0.542321 0.007696
vt 0.039108 0.230741
vt 0.228339 0.262611
vt 0.039108 0.262611
vt 0.007569 0.230741
vt 0.007569 0.262611
vt 0.007569 0.007649
vt 0.039108 0.007649
vt 0.039108 0.039519
vt 0.007569 0.039519
vt 0.228339 0.007649
vt 0.259877 0.007649
vt 0.794474 0.007649
vt 0.794474 0.039519
vt 0.762955 0.039525
vt 0.762955 0.007655
vt 0.527183 0.007649
vt 0.527183 0.039518
vt 0.495662 0.039527
vt 0.495662 0.007658
vt 0.306537 0.039579
vt 0.306537 0.007710
vt 0.039066 0.548189
vt 0.039066 0.580057
vt 0.007569 0.580036
vt 0.007569 0.548168
vt 0.527183 0.278085
vt 0.527183 0.309952
vt 0.495686 0.309930
vt 0.495686 0.278063
vt 0.275016 0.039588
vt 0.275016 0.007719
vt 0.259877 0.262611
vt 0.259540 0.803276
vt 0.228044 0.803255
vt 0.228044 0.771387
vt 0.259540 0.771408
vt 0.715011 0.326486
vt 0.746508 0.326507
vt 0.746508 0.358375
vt 0.715011 0.358353
vt 0.605360 0.326500
vt 0.636879 0.326494
vt 0.636879 0.358364
vt 0.605360 0.358370
vt 0.461914 0.992121
vt 0.461914 0.801152
vt 0.493449 0.801130
vt 0.493449 0.992099
vt 0.228339 0.277909
vt 0.259877 0.277909
vt 0.259877 0.309779
vt 0.228339 0.309779
vt 0.007569 0.277909
vt 0.039108 0.277909
vt 0.039108 0.309779
vt 0.007569 0.309779
vt 0.007569 0.501001
vt 0.039108 0.501001
vt 0.039108 0.532871
vt 0.007569 0.532871
vt 0.794474 0.262607
vt 0.762955 0.262613
vt 0.762955 0.230744
vt 0.794474 0.230738
vt 0.527183 0.262602
vt 0.495662 0.262611
vt 0.495662 0.230742
vt 0.527183 0.230733
vt 0.793143 0.422066
vt 0.761647 0.422045
vt 0.761647 0.390177
vt 0.793143 0.390198
vt 0.527183 0.533024
vt 0.495686 0.533002
vt 0.495686 0.501134
vt 0.527183 0.501156
vt 0.605363 0.437416
vt 0.636884 0.437407
vt 0.636884 0.469277
vt 0.605363 0.469285
vt 0.259877 0.532871
vt 0.228339 0.532871
vt 0.228339 0.501001
vt 0.259877 0.501001
vt 0.766857 0.836557
vt 0.751211 0.864180
vt 0.696451 0.832556
vt 0.739477 0.820745
vt 0.588981 0.279325
vt 0.620500 0.279319
vt 0.620500 0.311188
vt 0.588981 0.311194
vt 0.839876 0.469275
vt 0.839876 0.501142
vt 0.808379 0.501120
vt 0.808379 0.469253
vt 0.259877 0.373519
vt 0.228339 0.341649
vt 0.510245 0.560822
vt 0.504060 0.592073
vt 0.473134 0.585823
vt 0.448393 0.548322
vt 0.856136 0.390239
vt 0.856136 0.422107
vt 0.306704 0.341666
vt 0.275207 0.373511
vt 0.306745 0.801130
vt 0.306745 0.992351
vt 0.275207 0.992351
vt 0.275207 0.801130
vt 0.353422 0.801130
vt 0.353422 0.992351
vt 0.321884 0.992351
vt 0.321884 0.801130
vt 0.992431 0.548321
vt 0.992431 0.739288
vt 0.960895 0.739308
vt 0.960895 0.548342
vt 0.446775 0.801135
vt 0.446775 0.992239
vt 0.415237 0.992234
vt 0.415237 0.801130
vt 0.914218 0.977933
vt 0.914218 0.786711
vt 0.945756 0.786711
vt 0.945756 0.977933
vt 0.527183 0.103256
vt 0.495662 0.103265
vt 0.867541 0.977933
vt 0.867541 0.786711
vt 0.899079 0.786711
vt 0.899079 0.977933
vt 0.368561 0.992244
vt 0.368561 0.801130
vt 0.400098 0.801138
vt 0.400098 0.992253
vt 0.945756 0.771413
vt 0.914218 0.771413
vt 0.914218 0.548321
vt 0.945756 0.548321
vt 0.696451 0.575945
vt 0.712097 0.548321
vt 0.766857 0.579946
vt 0.723831 0.591757
vt 0.856290 0.230741
vt 0.856290 0.007649
vt 0.887828 0.007649
vt 0.887828 0.230741
vt 0.495686 0.469267
vt 0.527183 0.437422
vt 0.715064 0.469277
vt 0.683543 0.469285
vt 0.683543 0.437416
vt 0.715064 0.437407
vt 0.636879 0.422104
vt 0.605360 0.422110
vt 0.872605 0.277927
vt 0.841109 0.277906
vt 0.841109 0.246038
vt 0.872605 0.246059
vt 0.495662 0.198873
vt 0.527183 0.166995
vt 0.746508 0.422110
vt 0.715011 0.422088
vt 0.681312 0.836814
vt 0.665669 0.864465
vt 0.610916 0.832819
vt 0.653936 0.820991
vt 0.259540 0.643937
vt 0.228044 0.643916
vt 0.306537 0.071449
vt 0.275016 0.103327
vt 0.610916 0.575972
vt 0.626559 0.548321
vt 0.681312 0.579967
vt 0.638292 0.591795
vt 0.652017 0.279254
vt 0.683514 0.279276
vt 0.683514 0.311144
vt 0.652017 0.311122
vt 0.573840 0.071430
vt 0.542321 0.103306
vt 0.730149 0.311143
vt 0.698653 0.311122
vt 0.698653 0.279254
vt 0.730149 0.279275
vt 0.527183 0.373687
vt 0.495686 0.373665
vt 0.525383 0.575975
vt 0.541026 0.548321
vt 0.595777 0.579969
vt 0.552759 0.591798
vt 0.039066 0.611925
vt 0.007569 0.643772
vt 0.573842 0.311188
vt 0.542321 0.311197
vt 0.542321 0.279327
vt 0.573842 0.279319
vt 0.794474 0.103258
vt 0.762955 0.103264
vt 0.781995 0.575945
vt 0.797641 0.548321
vt 0.852402 0.579943
vt 0.809376 0.591756
vt 0.636884 0.533015
vt 0.605363 0.533024
vt 0.730203 0.469289
vt 0.761722 0.469283
vt 0.761722 0.501153
vt 0.730203 0.501159
vt 0.852402 0.836553
vt 0.836756 0.864176
vt 0.781995 0.832554
vt 0.825022 0.820742
vt 0.228044 0.739520
vt 0.259540 0.707672
vt 0.595777 0.836835
vt 0.580134 0.864488
vt 0.525383 0.832841
vt 0.568402 0.821012
vt 0.762955 0.198874
vt 0.794474 0.166998
vt 0.871373 0.469297
vt 0.839876 0.437407
vt 0.871373 0.437429
vt 0.761647 0.326442
vt 0.793143 0.326462
vt 0.902967 0.246038
vt 0.934505 0.246038
vt 0.934505 0.469130
vt 0.902967 0.469130
vt 0.902967 0.230741
vt 0.902967 0.007649
vt 0.934505 0.007649
vt 0.934505 0.230741
vt 0.949644 0.007649
vt 0.981182 0.007649
vt 0.981182 0.230741
vt 0.949644 0.230741
vt 0.981182 0.246038
vt 0.981182 0.469130
vt 0.949644 0.469130
vt 0.949644 0.246038
vt 0.809613 0.007649
vt 0.841151 0.007649
vt 0.841151 0.230741
vt 0.809613 0.230741
vt 0.867541 0.771413
vt 0.867541 0.548321
vt 0.899079 0.548321
vt 0.899079 0.771413
vt 0.715064 0.501146
vt 0.683543 0.501155
vt 0.871373 0.501164
vt 0.730203 0.437419
vt 0.761722 0.437413
vt 0.872605 0.309795
vt 0.841109 0.309774
vt 0.102185 0.277909
vt 0.070646 0.309779
vt 0.542321 0.358382
vt 0.542321 0.326512
vt 0.652022 0.501163
vt 0.652022 0.469294
vt 0.497874 0.785832
vt 0.466948 0.779582
vt 0.473134 0.748330
vt 0.510245 0.723329
vt 0.652017 0.358309
vt 0.652017 0.326442
vt 0.275207 0.773331
vt 0.281392 0.742080
vt 0.312318 0.748330
vt 0.337059 0.785832
vt 0.007569 0.437260
vt 0.039108 0.469130
vt 0.809613 0.309753
vt 0.809613 0.277886
vt 0.793241 0.437407
vt 0.793241 0.469277
vt 0.542321 0.469303
vt 0.542321 0.437434
vt 0.287577 0.548321
vt 0.318503 0.554572
vt 0.312318 0.585823
vt 0.275207 0.610824
vt 0.165262 0.532871
vt 0.196800 0.501001
vt 0.226352 0.818786
vt 0.226352 0.900827
vt 0.194817 0.900614
vt 0.194817 0.818574
vt 0.439115 0.635825
vt 0.405096 0.685827
vt 0.346337 0.698328
vt 0.380356 0.648326
vt 0.039107 0.818574
vt 0.039107 0.931727
vt 0.007569 0.931792
vt 0.007569 0.818639
vt 0.149492 0.421325
vt 0.118955 0.448871
vt 0.117954 0.389455
vt 0.152496 0.365552
vt 0.728068 0.960797
vt 0.696451 0.936075
vt 0.696531 0.879535
vt 0.728068 0.879478
vt 0.642487 0.957194
vt 0.610916 0.936386
vt 0.610949 0.879809
vt 0.642487 0.879763
vt 0.132753 0.909994
vt 0.101218 0.909783
vt 0.100921 0.818574
vt 0.132753 0.823703
vt 0.148143 0.909808
vt 0.147891 0.818574
vt 0.179678 0.819858
vt 0.179678 0.910012
vt 0.054246 0.818676
vt 0.085783 0.818574
vt 0.085783 0.931655
vt 0.054246 0.931758
vt 0.813530 0.961727
vt 0.781995 0.961499
vt 0.781995 0.879474
vt 0.813530 0.879702
vn -1.000000 0.000000 -0.000000
vn 1.000000 0.000000 0.000000
vn 0.000000 -1.000000 0.000000
vn 0.000000 0.000000 -1.000000
vn 0.000000 0.000000 1.000000
vn 0.000000 1.000000 0.000000
vn -0.000000 0.919100 0.393900
vn 0.000000 -0.919100 -0.393900
vn 0.393900 -0.919100 0.000000
vn -0.393900 0.919100 -0.000000
vn -0.000000 -0.919100 0.393900
vn 0.000000 0.919100 -0.393900
vn -0.393900 -0.919100 -0.000000
vn 0.393900 0.919100 0.000000
vn -0.857500 0.000000 -0.514500
vn 0.393900 0.000000 -0.919100
vn -0.303300 -0.172100 0.937200
vn 0.337500 -0.110500 -0.934800
vn 0.790500 0.277800 0.545800
vn -0.791600 0.259100 -0.553400
vn -0.393900 0.000000 0.919100
vn 0.857500 0.000000 0.514500
s off
f 3/1/1 27/2/1 28/3/1 14/4/1
f 5/5/2 25/6/2 21/7/2 2/8/2
f 12/9/3 7/10/3 26/11/3 24/12/3
f 10/13/4 13/14/4 16/15/4 1/16/4
f 22/17/3 26/11/3 14/18/3 8/19/3
f 6/20/3 22/17/3 8/19/3 4/21/3
f 1/22/3 9/23/3 23/24/3 10/25/3
f 5/26/3 2/27/3 12/9/3 24/12/3
f 4/28/4 19/29/4 20/30/4 6/31/4
f 2/32/5 21/33/5 11/34/5 12/35/5
f 11/34/5 18/36/5 7/37/5 12/35/5
f 8/38/1 17/39/1 19/40/1 4/41/1
f 1/42/2 16/43/2 15/44/2 9/45/2
f 7/37/5 18/36/5 27/46/5 3/47/5
f 3/48/3 14/18/3 26/11/3 7/10/3
f 35/49/1 46/50/1 60/51/1 59/52/1
f 37/53/2 34/54/2 53/55/2 57/56/2
f 10/13/4 6/31/4 20/30/4 13/14/4
f 42/57/4 33/58/4 48/59/4 45/60/4
f 30/61/2 29/62/2 26/63/2 22/64/2
f 38/65/6 36/66/6 40/67/6 54/68/6
f 33/69/6 42/70/6 55/71/6 41/72/6
f 37/73/6 56/74/6 44/75/6 34/76/6
f 36/77/4 38/78/4 52/79/4 51/80/4
f 34/81/5 44/82/5 43/83/5 53/84/5
f 23/24/3 22/17/3 6/20/3 10/25/3
f 40/85/1 36/86/1 51/87/1 49/88/1
f 33/89/2 41/90/2 47/91/2 48/92/2
f 39/93/5 35/94/5 59/95/5 50/96/5
f 35/97/6 39/98/6 58/99/6 46/100/6
f 63/101/1 45/102/1 69/103/1 72/104/1
f 25/105/4 32/106/4 66/107/4 67/108/4
f 62/109/2 54/110/2 98/111/2 97/112/2
f 54/68/6 40/67/6 100/113/6 98/114/6
f 49/115/3 62/116/3 97/117/3 99/118/3
f 40/85/1 49/88/1 99/119/1 100/120/1
f 21/7/2 25/6/2 67/121/2 68/122/2
f 8/38/1 14/4/1 28/3/1 17/39/1
f 17/123/6 28/124/6 29/125/6 30/126/6
f 31/127/6 32/128/6 25/129/6 15/130/6
f 15/44/2 25/6/2 5/5/2 9/45/2
f 9/23/3 5/26/3 24/12/3 23/24/3
f 23/131/1 24/132/1 32/133/1 31/134/1
f 24/135/4 26/136/4 29/137/4 32/138/4
f 32/139/6 29/140/6 18/141/6 11/142/6
f 11/34/5 21/33/5 68/143/5 65/144/5
f 13/145/6 20/146/6 30/147/6 31/148/6
f 31/149/5 30/150/5 22/151/5 23/152/5
f 65/153/7 68/154/7 70/155/7 72/156/7
f 32/157/1 11/158/1 65/159/1 66/160/1
f 66/161/8 69/162/8 71/163/8 67/164/8
f 48/92/2 47/91/2 70/165/2 71/166/2
f 47/167/5 63/168/5 72/169/5 70/170/5
f 45/60/4 48/59/4 71/171/4 69/172/4
f 68/122/2 67/121/2 71/166/2 70/165/2
f 66/160/1 65/159/1 72/104/1 69/103/1
f 43/173/1 64/174/1 76/175/1 73/176/1
f 53/84/5 43/83/5 73/177/5 74/178/5
f 57/56/2 53/55/2 74/179/2 75/180/2
f 64/181/4 57/182/4 75/183/4 76/184/4
f 28/3/1 27/2/1 78/185/1 79/186/1
f 27/46/5 18/36/5 77/187/5 78/188/5
f 29/189/4 28/190/4 79/191/4 80/192/4
f 18/193/2 29/194/2 80/195/2 77/196/2
f 16/15/4 13/14/4 81/197/4 83/198/4
f 13/199/1 31/200/1 84/201/1 81/202/1
f 15/44/2 16/43/2 83/203/2 82/204/2
f 31/205/5 15/206/5 82/207/5 84/208/5
f 19/40/1 17/39/1 85/209/1 86/210/1
f 17/211/5 30/212/5 88/213/5 85/214/5
f 20/30/4 19/29/4 86/215/4 87/216/4
f 30/217/2 20/218/2 87/219/2 88/220/2
f 50/96/5 59/95/5 90/221/5 89/222/5
f 60/223/4 61/224/4 92/225/4 91/226/4
f 61/227/2 50/228/2 89/229/2 92/230/2
f 59/52/1 60/51/1 91/231/1 90/232/1
f 62/233/5 49/234/5 93/235/5 96/236/5
f 51/80/4 52/79/4 95/237/4 94/238/4
f 52/239/2 62/109/2 96/240/2 95/241/2
f 49/88/1 51/87/1 94/242/1 93/243/1
f 76/184/4 75/183/4 80/192/4 79/191/4
f 75/244/9 74/245/9 77/246/9 80/247/9
f 73/177/5 78/188/5 77/187/5 74/178/5
f 76/248/10 79/249/10 78/250/10 73/251/10
f 87/219/2 92/230/2 89/229/2 88/220/2
f 85/252/11 88/253/11 89/254/11 90/255/11
f 86/210/1 85/209/1 90/232/1 91/231/1
f 86/256/12 91/257/12 92/258/12 87/259/12
f 81/260/13 84/261/13 93/262/13 94/263/13
f 84/208/5 82/207/5 96/236/5 93/235/5
f 81/197/4 94/238/4 95/237/4 83/198/4
f 83/264/14 95/265/14 96/266/14 82/267/14
f 63/168/5 47/167/5 41/268/5 55/269/5
f 52/239/2 38/270/2 54/110/2 62/109/2
f 46/271/4 58/272/4 61/224/4 60/223/4
f 64/174/1 43/173/1 44/273/1 56/274/1
f 55/71/6 42/70/6 101/275/6 103/276/6
f 42/57/4 45/60/4 102/277/4 101/278/4
f 63/168/5 55/269/5 103/279/5 104/280/5
f 45/281/3 63/282/3 104/283/3 102/284/3
f 37/53/2 57/56/2 107/285/2 105/286/2
f 57/287/3 64/288/3 108/289/3 107/290/3
f 56/74/6 37/73/6 105/291/6 106/292/6
f 64/174/1 56/274/1 106/293/1 108/294/1
f 61/224/4 58/272/4 111/295/4 112/296/4
f 39/93/5 50/96/5 110/297/5 109/298/5
f 50/299/3 61/300/3 112/301/3 110/302/3
f 58/99/6 39/98/6 109/303/6 111/304/6
f 119/305/15 112/306/15 111/307/15 120/308/15
f 99/118/3 97/117/3 115/309/3 113/310/3 107/290/3 108/289/3 117/311/3 119/312/3
f 107/313/16 113/314/16 114/315/16 105/316/16
f 100/113/6 120/317/6 118/318/6 106/292/6 105/291/6 114/319/6 116/320/6 98/114/6
f 118/321/17 117/322/17 108/323/17 106/324/17
f 116/325/18 115/326/18 97/327/18 98/328/18
f 109/329/19 110/330/19 117/331/19 118/332/19
f 102/333/20 115/334/20 116/335/20 101/336/20
f 114/319/6 103/276/6 101/275/6 116/320/6
f 119/337/21 120/338/21 100/339/21 99/340/21
f 120/317/6 111/304/6 109/303/6 118/318/6
f 104/341/22 103/342/22 114/343/22 113/344/22
f 104/283/3 113/310/3 115/309/3 102/284/3
f 110/302/3 112/301/3 119/312/3 117/311/3
