# Blender v2.76 (sub 0) OBJ File: 'cube4.blend'
# www.blender.org
o Cube
v 0.500000 -0.375000 -0.375000
v 0.500000 -0.375000 0.375000
v -0.500000 -0.375000 0.375000
v -0.375000 -0.375000 -0.500000
v 0.500000 0.375000 -0.375000
v 0.499999 0.375000 0.375000
v -0.500000 0.375000 0.375000
v -0.375000 0.375000 -0.500000
v 0.375000 -0.375000 -0.500000
v 0.375000 -0.375000 0.500000
v 0.375000 0.375000 -0.500000
v 0.375000 0.375000 0.500000
v 0.375000 -0.500000 -0.375000
v -0.500000 -0.375000 -0.375000
v 0.375000 0.500000 -0.375000
v -0.500000 0.375000 -0.375000
v -0.375000 -0.375000 0.500000
v -0.375000 -0.500000 -0.375000
v -0.375000 0.375000 0.500000
v -0.375000 0.500000 -0.375000
v 0.375000 -0.500000 0.375000
v -0.375000 -0.500000 0.375000
v 0.375000 0.500000 0.375000
v -0.375000 0.500000 0.375000
v 0.500000 0.500000 -0.499999
v 0.499999 0.500000 0.500000
v -0.500000 0.500000 -0.500000
v -0.500000 0.500000 0.500000
v 0.500000 -0.500000 -0.500000
v 0.500000 -0.500000 0.500000
v -0.500000 -0.500000 -0.500000
v -0.500000 -0.500000 0.500000
v 0.375000 0.400000 -0.375000
v 0.375000 0.400000 0.375000
v -0.375000 0.400000 -0.375000
v -0.375000 0.400000 0.375000
v 0.400000 -0.375000 -0.375000
v 0.400000 -0.375000 0.375000
v 0.400000 0.375000 -0.375000
v 0.399999 0.375000 0.375000
v 0.375000 -0.375000 -0.400000
v -0.375000 -0.375000 -0.400000
v 0.375000 0.375000 -0.400000
v -0.375000 0.375000 -0.400000
v -0.400000 -0.375000 0.375000
v -0.400000 -0.375000 -0.375000
v -0.400000 0.375000 0.375000
v -0.400000 0.375000 -0.375000
v 0.375000 -0.375000 0.400000
v -0.375000 -0.375000 0.400000
v 0.375000 0.375000 0.400000
v -0.375000 0.375000 0.400000
v 0.375000 -0.400000 -0.375000
v 0.375000 -0.400000 0.375000
v -0.375000 -0.400000 -0.375000
v -0.375000 -0.400000 0.375000
vt 0.961436 0.788674
vt 0.961436 0.995856
vt 0.934840 0.995856
vt 0.934840 0.788674
vt 0.961436 0.573204
vt 0.961436 0.780387
vt 0.934840 0.780387
vt 0.934840 0.573204
vt 0.996010 0.573204
vt 0.996010 0.780387
vt 0.969415 0.780387
vt 0.969415 0.573204
vt 0.894947 0.211326
vt 0.894947 0.004144
vt 0.921542 0.004144
vt 0.921542 0.211326
vt 0.964096 0.211326
vt 0.964096 0.004144
vt 0.990691 0.004144
vt 0.990691 0.211326
vt 0.692819 0.995856
vt 0.692819 0.788674
vt 0.719415 0.788674
vt 0.719415 0.995856
vt 0.236702 0.530387
vt 0.236702 0.323204
vt 0.269947 0.288674
vt 0.269947 0.564917
vt 0.037234 0.530387
vt 0.003989 0.564917
vt 0.037234 0.323205
vt 0.003989 0.288674
vt 0.236702 0.814917
vt 0.236702 0.607735
vt 0.269947 0.573205
vt 0.269947 0.849447
vt 0.037234 0.607735
vt 0.003989 0.573205
vt 0.037234 0.814917
vt 0.003989 0.849448
vt 0.236702 0.245856
vt 0.236702 0.038674
vt 0.269947 0.004144
vt 0.269947 0.280387
vt 0.037234 0.245856
vt 0.003989 0.280387
vt 0.037234 0.038674
vt 0.003989 0.004144
vt 0.510638 0.530387
vt 0.510638 0.323204
vt 0.543883 0.288674
vt 0.543883 0.564917
vt 0.311170 0.530387
vt 0.277926 0.564917
vt 0.311170 0.323204
vt 0.277925 0.288674
vt 0.510638 0.038674
vt 0.311170 0.038674
vt 0.277925 0.004144
vt 0.543883 0.004144
vt 0.510638 0.245856
vt 0.543883 0.280387
vt 0.311170 0.245856
vt 0.277926 0.280387
vt 0.784574 0.038674
vt 0.585106 0.038674
vt 0.551861 0.004144
vt 0.817819 0.004144
vt 0.585106 0.245856
vt 0.551861 0.280387
vt 0.784574 0.245856
vt 0.817819 0.280387
vt 0.692819 0.780387
vt 0.692819 0.573204
vt 0.892287 0.573205
vt 0.892287 0.780387
vt 0.900266 0.995856
vt 0.900266 0.788674
vt 0.926862 0.788674
vt 0.926862 0.995856
vt 0.788564 0.788674
vt 0.788564 0.995856
vt 0.761968 0.995856
vt 0.761968 0.788674
vt 0.511968 0.788674
vt 0.511968 0.995856
vt 0.485372 0.995856
vt 0.485372 0.788674
vt 0.751329 0.495856
vt 0.551861 0.495856
vt 0.551861 0.288674
vt 0.751329 0.288674
vt 0.823138 0.788674
vt 0.823138 0.995856
vt 0.796543 0.995856
vt 0.796543 0.788674
vt 0.852393 0.004144
vt 0.852393 0.211326
vt 0.825797 0.211326
vt 0.825798 0.004144
vt 0.581117 0.788674
vt 0.581117 0.995856
vt 0.554521 0.995856
vt 0.554521 0.788674
vt 0.485372 0.780387
vt 0.485372 0.573204
vt 0.684840 0.573205
vt 0.684840 0.780387
vt 0.546542 0.788674
vt 0.546542 0.995856
vt 0.519947 0.995856
vt 0.519947 0.788674
vt 0.658245 0.995856
vt 0.658245 0.788674
vt 0.684840 0.788674
vt 0.684840 0.995856
vt 0.969415 0.995856
vt 0.969415 0.788674
vt 0.996011 0.788674
vt 0.996011 0.995856
vt 0.477393 0.780387
vt 0.277925 0.780387
vt 0.277926 0.573204
vt 0.477393 0.573204
vt 0.727394 0.995856
vt 0.727394 0.788674
vt 0.753989 0.788674
vt 0.753989 0.995856
vt 0.831117 0.995856
vt 0.831117 0.788674
vt 0.857713 0.788674
vt 0.857713 0.995856
vt 0.650266 0.788674
vt 0.650266 0.995856
vt 0.623670 0.995856
vt 0.623670 0.788674
vt 0.277925 0.788674
vt 0.477393 0.788674
vt 0.477393 0.995856
vt 0.277925 0.995856
vt 0.900266 0.780387
vt 0.900266 0.573204
vt 0.926861 0.573204
vt 0.926861 0.780387
vt 0.886968 0.004144
vt 0.886968 0.211326
vt 0.860372 0.211326
vt 0.860372 0.004144
vt 0.615691 0.788674
vt 0.615691 0.995856
vt 0.589096 0.995856
vt 0.589096 0.788674
vt 0.958776 0.495856
vt 0.759308 0.495856
vt 0.759308 0.288674
vt 0.958776 0.288674
vt 0.966755 0.495856
vt 0.966755 0.288674
vt 0.993351 0.288674
vt 0.993351 0.495856
vt 0.929521 0.211326
vt 0.929521 0.004144
vt 0.956117 0.004144
vt 0.956117 0.211326
vt 0.892287 0.788674
vt 0.892287 0.995856
vt 0.865691 0.995856
vt 0.865691 0.788674
vn 0.000000 0.000000 -1.000000
vn 1.000000 0.000000 0.000000
vn 0.000000 -1.000000 0.000000
vn -1.000000 0.000000 -0.000000
vn -0.000000 -0.000000 1.000000
vn 0.000000 1.000000 0.000000
s off
f 21/1/1 22/2/1 56/3/1 54/4/1
f 20/5/2 24/6/2 36/7/2 35/8/2
f 6/9/1 2/10/1 38/11/1 40/12/1
f 19/13/2 17/14/2 50/15/2 52/16/2
f 3/17/1 7/18/1 47/19/1 45/20/1
f 8/21/3 11/22/3 43/23/3 44/24/3
f 1/25/2 2/26/2 30/27/2 29/28/2
f 5/29/2 1/25/2 29/28/2 25/30/2
f 2/26/2 6/31/2 26/32/2 30/27/2
f 6/31/2 5/29/2 25/30/2 26/32/2
f 4/33/1 9/34/1 29/35/1 31/36/1
f 9/34/1 11/37/1 25/38/1 29/35/1
f 8/39/1 4/33/1 31/36/1 27/40/1
f 11/37/1 8/39/1 27/40/1 25/38/1
f 3/41/4 14/42/4 31/43/4 32/44/4
f 7/45/4 3/41/4 32/44/4 28/46/4
f 14/42/4 16/47/4 27/48/4 31/43/4
f 16/47/4 7/45/4 28/46/4 27/48/4
f 10/49/5 17/50/5 32/51/5 30/52/5
f 12/53/5 10/49/5 30/52/5 26/54/5
f 17/50/5 19/55/5 28/56/5 32/51/5
f 19/55/5 12/53/5 26/54/5 28/56/5
f 15/57/6 23/58/6 26/59/6 25/60/6
f 20/61/6 15/57/6 25/60/6 27/62/6
f 23/58/6 24/63/6 28/64/6 26/59/6
f 24/63/6 20/61/6 27/62/6 28/64/6
f 21/65/3 13/66/3 29/67/3 30/68/3
f 13/66/3 18/69/3 31/70/3 29/67/3
f 22/71/3 21/65/3 30/68/3 32/72/3
f 18/69/3 22/71/3 32/72/3 31/70/3
f 33/73/6 35/74/6 36/75/6 34/76/6
f 15/77/5 20/78/5 35/79/5 33/80/5
f 24/81/1 23/82/1 34/83/1 36/84/1
f 23/85/4 15/86/4 33/87/4 34/88/4
f 37/89/2 39/90/2 40/91/2 38/92/2
f 2/93/6 1/94/6 37/95/6 38/96/6
f 5/97/3 6/98/3 40/99/3 39/100/3
f 1/101/5 5/102/5 39/103/5 37/104/5
f 43/105/1 41/106/1 42/107/1 44/108/1
f 11/109/4 9/110/4 41/111/4 43/112/4
f 4/113/2 8/114/2 44/115/2 42/116/2
f 9/117/6 4/118/6 42/119/6 41/120/6
f 45/121/4 47/122/4 48/123/4 46/124/4
f 16/125/5 14/126/5 46/127/5 48/128/5
f 14/129/6 3/130/6 45/131/6 46/132/6
f 7/133/3 16/134/3 48/135/3 47/136/3
f 49/137/5 51/138/5 52/139/5 50/140/5
f 17/141/6 10/142/6 49/143/6 50/144/6
f 12/145/3 19/146/3 52/147/3 51/148/3
f 10/149/4 12/150/4 51/151/4 49/152/4
f 53/153/3 54/154/3 56/155/3 55/156/3
f 13/157/4 21/158/4 54/159/4 53/160/4
f 22/161/2 18/162/2 55/163/2 56/164/2
f 18/165/5 13/166/5 53/167/5 55/168/5
