# Blender v2.76 (sub 0) OBJ File: 'cube3.blend'
# www.blender.org
o Cube
v 0.500000 -0.500000 -0.500000
v 0.500000 -0.500000 0.500000
v -0.500000 -0.500000 0.500000
v -0.500000 -0.500000 -0.500000
v 0.500000 -0.500000 0.375000
v -0.375000 -0.500000 -0.500000
v -0.375000 -0.500000 0.500000
v -0.500000 -0.500000 -0.375000
v 0.500000 -0.500000 -0.375000
v 0.375000 -0.500000 -0.500000
v 0.375000 -0.375000 0.500000
v 0.375000 -0.500000 0.500000
v 0.375000 -0.375000 -0.500000
v -0.500000 -0.500000 0.375000
v 0.500000 -0.375000 -0.375000
v 0.500000 -0.375000 -0.500000
v -0.500000 -0.375000 -0.375000
v -0.375000 -0.375000 0.500000
v -0.500000 -0.375000 -0.500000
v -0.375000 -0.375000 -0.500000
v 0.500000 -0.375000 0.500000
v -0.375000 -0.500000 -0.375000
v 0.375000 -0.500000 -0.375000
v 0.375000 -0.500000 0.375000
v 0.500000 -0.375000 0.375000
v -0.375000 -0.500000 0.375000
v -0.500000 -0.375000 0.500000
v -0.500000 -0.375000 0.375000
v -0.375000 -0.375000 0.375000
v -0.375000 -0.375000 -0.375000
v 0.375000 -0.375000 -0.375000
v 0.375000 -0.375000 0.375000
v 0.500000 0.500000 -0.500000
v 0.500000 0.500000 0.500000
v -0.500000 0.500000 0.500000
v -0.500000 0.500000 -0.500000
v 0.500000 0.500000 0.375000
v -0.375000 0.500000 -0.500000
v -0.375000 0.500000 0.500000
v -0.500000 0.500000 -0.375000
v 0.500000 0.500000 -0.375000
v 0.375000 0.500000 -0.500000
v 0.375000 0.375000 0.500000
v 0.375000 0.500000 0.500000
v 0.375000 0.375000 -0.500000
v -0.500000 0.500000 0.375000
v 0.500000 0.375000 -0.375000
v 0.500000 0.375000 -0.500000
v -0.500000 0.375000 -0.375000
v -0.375000 0.375000 0.500000
v -0.500000 0.375000 -0.500000
v -0.375000 0.375000 -0.500000
v 0.500000 0.375000 0.500000
v -0.375000 0.500000 -0.375000
v 0.375000 0.500000 -0.375000
v 0.375000 0.500000 0.375000
v 0.500000 0.375000 0.375000
v -0.375000 0.500000 0.375000
v -0.500000 0.375000 0.500000
v -0.500000 0.375000 0.375000
v -0.375000 0.375000 0.375000
v -0.375000 0.375000 -0.375000
v 0.375000 0.375000 -0.375000
v 0.375000 0.375000 0.375000
vt 0.236607 0.263393
vt 0.236607 0.291295
vt 0.208705 0.291295
vt 0.208705 0.263393
vt 0.236607 0.041295
vt 0.208705 0.041295
vt 0.208705 0.013393
vt 0.236607 0.013393
vt 0.986607 0.041295
vt 0.986607 0.208705
vt 0.958705 0.208705
vt 0.958705 0.041295
vt 0.708705 0.236607
vt 0.708705 0.208705
vt 0.736607 0.208705
vt 0.736607 0.236607
vt 0.541295 0.708705
vt 0.708705 0.708705
vt 0.708705 0.736607
vt 0.541295 0.736607
vt 0.791295 0.208705
vt 0.958705 0.236607
vt 0.791295 0.236607
vt 0.763393 0.208705
vt 0.763393 0.236607
vt 0.763393 0.013393
vt 0.791295 0.013393
vt 0.791295 0.041295
vt 0.763393 0.041295
vt 0.958705 0.013393
vt 0.986607 0.013393
vt 0.513393 0.236607
vt 0.513393 0.208705
vt 0.541295 0.208705
vt 0.541295 0.236607
vt 0.263393 0.236607
vt 0.263393 0.208705
vt 0.291295 0.208705
vt 0.291295 0.236607
vt 0.458705 0.208705
vt 0.458705 0.236607
vt 0.041295 0.263393
vt 0.041295 0.291295
vt 0.013393 0.291295
vt 0.013393 0.263393
vt 0.236607 0.236607
vt 0.208705 0.236607
vt 0.208705 0.208705
vt 0.236607 0.208705
vt 0.041295 0.041295
vt 0.041295 0.013393
vt 0.486607 0.208705
vt 0.486607 0.236607
vt 0.763393 0.819197
vt 0.763393 0.651786
vt 0.791295 0.651786
vt 0.791295 0.819197
vt 0.986607 0.236607
vt 0.236607 0.486607
vt 0.208705 0.486607
vt 0.208705 0.458705
vt 0.236607 0.458705
vt 0.013393 0.041295
vt 0.013393 0.013393
vt 0.708705 0.013393
vt 0.736607 0.013393
vt 0.736607 0.041295
vt 0.708705 0.041295
vt 0.845982 0.651786
vt 0.845982 0.819197
vt 0.818080 0.819197
vt 0.818080 0.651786
vt 0.041295 0.541295
vt 0.041295 0.708705
vt 0.013393 0.708705
vt 0.013393 0.541295
vt 0.708705 0.513393
vt 0.736607 0.513393
vt 0.736607 0.541295
vt 0.708705 0.541295
vt 0.513393 0.513393
vt 0.541295 0.513393
vt 0.541295 0.541295
vt 0.513393 0.541295
vt 0.513393 0.708705
vt 0.513393 0.736607
vt 0.041295 0.458705
vt 0.013393 0.458705
vt 0.013393 0.208705
vt 0.041295 0.208705
vt 0.458705 0.291295
vt 0.291295 0.291295
vt 0.291295 0.263393
vt 0.458706 0.263393
vt 0.513393 0.013393
vt 0.541295 0.013393
vt 0.541295 0.041295
vt 0.513393 0.041295
vt 0.263393 0.013393
vt 0.291295 0.013393
vt 0.291295 0.041295
vt 0.263393 0.041295
vt 0.041295 0.486607
vt 0.013393 0.486607
vt 0.013393 0.236607
vt 0.041295 0.236607
vt 0.458705 0.013393
vt 0.486607 0.013393
vt 0.486607 0.041295
vt 0.458705 0.041295
vt 0.041295 0.791295
vt 0.041295 0.958705
vt 0.013393 0.958705
vt 0.013393 0.791295
vt 0.736607 0.736607
vt 0.736607 0.708705
vt 0.763393 0.625000
vt 0.763393 0.457589
vt 0.791295 0.457589
vt 0.791295 0.625000
vt 0.208705 0.708705
vt 0.208705 0.736607
vt 0.041295 0.736607
vt 0.236607 0.541295
vt 0.236607 0.708705
vt 0.208705 0.541295
vt 0.208705 0.958705
vt 0.208705 0.986607
vt 0.041295 0.986607
vt 0.041295 0.513393
vt 0.208705 0.513393
vt 0.486607 0.541295
vt 0.486607 0.708705
vt 0.458705 0.708705
vt 0.458705 0.541295
vt 0.291295 0.541295
vt 0.291295 0.708705
vt 0.263393 0.708705
vt 0.263393 0.541295
vt 0.541295 0.263393
vt 0.708705 0.263393
vt 0.708705 0.291295
vt 0.541295 0.291295
vt 0.845982 0.457589
vt 0.845982 0.625000
vt 0.818080 0.625000
vt 0.818080 0.457589
vt 0.458705 0.736607
vt 0.291295 0.736607
vt 0.736607 0.291295
vt 0.736607 0.458705
vt 0.708705 0.458705
vt 0.236607 0.791295
vt 0.236607 0.958705
vt 0.208705 0.791295
vt 0.263393 0.458705
vt 0.263393 0.291295
vt 0.291295 0.458705
vt 0.041295 0.763393
vt 0.208705 0.763393
vt 0.541295 0.458705
vt 0.708705 0.486607
vt 0.541295 0.486607
vt 0.291295 0.513393
vt 0.458705 0.513393
vt 0.458706 0.458705
vt 0.486607 0.291295
vt 0.486607 0.458705
vt 0.458706 0.486607
vt 0.291295 0.486607
vt 0.513393 0.458705
vt 0.513393 0.291295
vt 0.763393 0.263393
vt 0.930804 0.263393
vt 0.930804 0.430804
vt 0.763393 0.430804
vn -1.000000 0.000000 -0.000000
vn 1.000000 0.000000 0.000000
vn 0.000000 -1.000000 0.000000
vn 0.000000 0.000000 -1.000000
vn 0.000000 1.000000 -0.000000
vn 0.000000 0.000000 1.000000
s off
f 3/1/1 27/2/1 28/3/1 14/4/1
f 5/5/2 25/6/2 21/7/2 2/8/2
f 12/9/3 7/10/3 26/11/3 24/12/3
f 10/13/4 13/14/4 16/15/4 1/16/4
f 56/17/5 58/18/5 39/19/5 44/20/5
f 22/21/3 26/11/3 14/22/3 8/23/3
f 6/24/3 22/21/3 8/23/3 4/25/3
f 1/26/3 9/27/3 23/28/3 10/29/3
f 5/30/3 2/31/3 12/9/3 24/12/3
f 4/32/4 19/33/4 20/34/4 6/35/4
f 2/36/6 21/37/6 11/38/6 12/39/6
f 11/38/6 18/40/6 7/41/6 12/39/6
f 8/42/1 17/43/1 19/44/1 4/45/1
f 1/46/2 16/47/2 15/48/2 9/49/2
f 25/6/2 57/50/2 53/51/2 21/7/2
f 7/41/6 18/40/6 27/52/6 3/53/6
f 32/54/4 64/55/4 57/56/4 25/57/4
f 3/58/3 14/22/3 26/11/3 7/10/3
f 35/59/1 46/60/1 60/61/1 59/62/1
f 37/63/2 34/64/2 53/51/2 57/50/2
f 10/13/4 6/35/4 20/34/4 13/14/4
f 42/65/4 33/66/4 48/67/4 45/68/4
f 64/69/4 61/70/4 58/71/4 56/72/4
f 30/73/2 29/74/2 26/75/2 22/76/2
f 38/77/5 36/78/5 40/79/5 54/80/5
f 33/81/5 42/82/5 55/83/5 41/84/5
f 37/85/5 56/17/5 44/20/5 34/86/5
f 17/43/1 49/87/1 51/88/1 19/44/1
f 41/89/2 37/63/2 57/50/2 47/90/2
f 30/91/6 62/92/6 49/93/6 17/94/6
f 36/95/4 38/96/4 52/97/4 51/98/4
f 34/99/6 44/100/6 43/101/6 53/102/6
f 23/28/3 22/21/3 6/24/3 10/29/3
f 40/103/1 36/104/1 51/88/1 49/87/1
f 33/105/2 41/89/2 47/90/2 48/106/2
f 55/83/5 56/17/5 37/85/5 41/84/5
f 45/68/4 52/97/4 38/96/4 42/65/4
f 39/107/6 35/108/6 59/109/6 50/110/6
f 63/111/3 62/112/3 52/113/3 45/114/3
f 35/115/5 39/19/5 58/18/5 46/116/5
f 28/117/4 60/118/4 61/119/4 29/120/4
f 29/74/2 61/121/2 50/122/2 18/123/2
f 18/40/6 50/110/6 59/109/6 27/52/6
f 27/2/1 59/62/1 60/61/1 28/3/1
f 49/87/1 60/61/1 46/60/1 40/103/1
f 40/79/5 46/116/5 58/18/5 54/80/5
f 54/124/2 58/125/2 61/121/2 62/126/2
f 62/112/3 61/127/3 60/128/3 49/129/3
f 19/33/4 51/98/4 52/97/4 20/34/4
f 20/130/2 52/131/2 62/126/2 30/73/2
f 8/42/1 14/4/1 28/3/1 17/43/1
f 17/132/5 28/133/5 29/134/5 30/135/5
f 31/136/5 32/137/5 25/138/5 15/139/5
f 15/48/2 25/6/2 5/5/2 9/49/2
f 9/27/3 5/30/3 24/12/3 23/28/3
f 23/140/1 24/141/1 32/142/1 31/143/1
f 24/144/4 26/145/4 29/146/4 32/147/4
f 32/137/5 29/134/5 18/148/5 11/149/5
f 21/37/6 53/102/6 43/101/6 11/38/6
f 11/150/1 43/151/1 64/152/1 32/142/1
f 44/100/6 39/107/6 50/110/6 43/101/6
f 43/153/3 50/154/3 61/127/3 64/155/3
f 42/82/5 38/77/5 54/80/5 55/83/5
f 55/156/6 54/157/6 62/92/6 63/158/6
f 47/159/3 57/160/3 64/155/3 63/111/3
f 63/161/1 64/152/1 56/162/1 55/163/1
f 13/164/5 20/165/5 30/135/5 31/136/5
f 31/166/6 30/91/6 22/167/6 23/168/6
f 13/14/4 45/68/4 48/67/4 16/15/4
f 16/47/2 48/106/2 47/90/2 15/48/2
f 15/169/6 47/170/6 63/158/6 31/166/6
f 31/143/1 63/161/1 45/171/1 13/172/1
f 63/161/1 31/143/1 32/142/1 64/152/1
f 30/91/6 31/166/6 63/158/6 62/92/6
f 62/126/2 61/121/2 29/74/2 30/73/2
f 64/173/6 61/174/6 29/175/6 32/176/6
f 64/155/3 61/127/3 62/112/3 63/111/3
f 31/136/5 30/135/5 29/134/5 32/137/5
