# Blender v2.76 (sub 0) OBJ File: 'cube3.blend'
# www.blender.org
o Cube
v 0.500000 -0.500000 -0.500000
v 0.500000 -0.500000 0.500000
v -0.500000 -0.500000 0.500000
v -0.500000 -0.500000 -0.500000
v 0.500000 -0.500000 0.375000
v -0.375000 -0.500000 -0.500000
v -0.375000 -0.500000 0.500000
v -0.500000 -0.500000 -0.375000
v 0.500000 -0.500000 -0.375000
v 0.375000 -0.500000 -0.500000
v 0.375000 -0.375000 0.500000
v 0.375000 -0.500000 0.500000
v 0.375000 -0.375000 -0.500000
v -0.500000 -0.500000 0.375000
v 0.500000 -0.375000 -0.375000
v 0.500000 -0.375000 -0.500000
v -0.500000 -0.375000 -0.375000
v -0.375000 -0.375000 0.500000
v -0.500000 -0.375000 -0.500000
v -0.375000 -0.375000 -0.500000
v 0.500000 -0.375000 0.500000
v -0.375000 -0.500000 -0.375000
v 0.375000 -0.500000 -0.375000
v 0.375000 -0.500000 0.375000
v 0.500000 -0.375000 0.375000
v -0.375000 -0.500000 0.375000
v -0.500000 -0.375000 0.500000
v -0.500000 -0.375000 0.375000
v -0.375000 -0.375000 0.375000
v -0.375000 -0.375000 -0.375000
v 0.375000 -0.375000 -0.375000
v 0.375000 -0.375000 0.375000
v 0.500000 0.500000 -0.500000
v 0.500000 0.500000 0.500000
v -0.500000 0.500000 0.500000
v -0.500000 0.500000 -0.500000
v 0.500000 0.500000 0.375000
v -0.375000 0.500000 -0.500000
v -0.375000 0.500000 0.500000
v -0.500000 0.500000 -0.375000
v 0.500000 0.500000 -0.375000
v 0.375000 0.500000 -0.500000
v 0.375000 0.375000 0.500000
v 0.375000 0.500000 0.500000
v 0.375000 0.375000 -0.500000
v -0.500000 0.500000 0.375000
v 0.500000 0.375000 -0.375000
v 0.500000 0.375000 -0.500000
v -0.500000 0.375000 -0.375000
v -0.375000 0.375000 0.500000
v -0.500000 0.375000 -0.500000
v -0.375000 0.375000 -0.500000
v 0.500000 0.375000 0.500000
v -0.375000 0.500000 -0.375000
v 0.375000 0.500000 -0.375000
v 0.375000 0.500000 0.375000
v 0.500000 0.375000 0.375000
v -0.375000 0.500000 0.375000
v -0.500000 0.375000 0.500000
v -0.500000 0.375000 0.375000
v -0.375000 0.375000 0.375000
v -0.375000 0.375000 -0.375000
v 0.375000 0.375000 -0.375000
v 0.375000 0.375000 0.375000
vt 0.517327 0.007519
vt 0.517327 0.038847
vt 0.486386 0.038847
vt 0.486386 0.007519
vt 0.254950 0.038847
vt 0.224010 0.038847
vt 0.224010 0.007519
vt 0.254950 0.007519
vt 0.517327 0.570175
vt 0.517327 0.758145
vt 0.486386 0.758145
vt 0.486386 0.570175
vt 0.748762 0.258145
vt 0.748762 0.226817
vt 0.779703 0.226817
vt 0.779703 0.258145
vt 0.038366 0.758145
vt 0.224010 0.758145
vt 0.224010 0.789474
vt 0.038366 0.789474
vt 0.300742 0.758145
vt 0.486386 0.789474
vt 0.300742 0.789474
vt 0.269802 0.758145
vt 0.269802 0.789474
vt 0.269802 0.538847
vt 0.300742 0.538847
vt 0.300742 0.570175
vt 0.269802 0.570175
vt 0.486386 0.538847
vt 0.517327 0.538847
vt 0.532178 0.258145
vt 0.532178 0.226817
vt 0.563119 0.226817
vt 0.563119 0.258145
vt 0.007426 0.523810
vt 0.007426 0.492481
vt 0.038366 0.492481
vt 0.038366 0.523810
vt 0.224010 0.492481
vt 0.224010 0.523810
vt 0.300743 0.007519
vt 0.300743 0.038847
vt 0.269802 0.038847
vt 0.269802 0.007519
vt 0.254951 0.258145
vt 0.224010 0.258145
vt 0.224010 0.226817
vt 0.254951 0.226817
vt 0.038366 0.038847
vt 0.038366 0.007519
vt 0.254950 0.492481
vt 0.254950 0.523810
vt 0.870049 0.867168
vt 0.870049 0.679198
vt 0.900990 0.679198
vt 0.900990 0.867168
vt 0.517327 0.789474
vt 0.517327 0.258145
vt 0.486386 0.258145
vt 0.486386 0.226817
vt 0.517327 0.226817
vt 0.007426 0.038847
vt 0.007426 0.007519
vt 0.748762 0.007519
vt 0.779703 0.007519
vt 0.779703 0.038847
vt 0.748762 0.038847
vt 0.946782 0.679198
vt 0.946782 0.867168
vt 0.915842 0.867168
vt 0.915842 0.679198
vt 0.285891 0.461153
vt 0.285891 0.273183
vt 0.316832 0.273183
vt 0.316832 0.461153
vt 0.224010 0.538847
vt 0.254950 0.538847
vt 0.254950 0.570175
vt 0.224010 0.570175
vt 0.007426 0.538847
vt 0.038366 0.538847
vt 0.038366 0.570175
vt 0.007426 0.570175
vt 0.007426 0.758145
vt 0.007426 0.789474
vt 0.300743 0.226817
vt 0.269802 0.226817
vt 0.007426 0.226817
vt 0.038366 0.226817
vt 0.053218 0.992481
vt 0.053218 0.804511
vt 0.084158 0.804511
vt 0.084158 0.992481
vt 0.532178 0.007519
vt 0.563119 0.007519
vt 0.563119 0.038847
vt 0.532178 0.038847
vt 0.007426 0.273183
vt 0.038366 0.273183
vt 0.038366 0.304511
vt 0.007426 0.304511
vt 0.300743 0.258145
vt 0.269802 0.258145
vt 0.007426 0.258145
vt 0.038366 0.258145
vt 0.224010 0.273183
vt 0.254950 0.273183
vt 0.254950 0.304511
vt 0.224010 0.304511
vt 0.496287 0.804511
vt 0.496287 0.992481
vt 0.465346 0.992481
vt 0.465346 0.804511
vt 0.254950 0.789474
vt 0.254950 0.758145
vt 0.778465 0.867168
vt 0.778465 0.679198
vt 0.809406 0.679198
vt 0.809406 0.867168
vt 0.267327 0.804511
vt 0.267327 0.992481
vt 0.236386 0.992481
vt 0.236386 0.804511
vt 0.794554 0.195489
vt 0.794554 0.007519
vt 0.825495 0.007519
vt 0.825495 0.195489
vt 0.373762 0.992481
vt 0.373762 0.804511
vt 0.404703 0.804511
vt 0.404703 0.992481
vt 0.038366 0.804511
vt 0.038366 0.992481
vt 0.007426 0.992481
vt 0.007426 0.804511
vt 0.313119 0.804511
vt 0.313119 0.992481
vt 0.282178 0.992481
vt 0.282178 0.804511
vt 0.358911 0.804511
vt 0.358911 0.992481
vt 0.327970 0.992481
vt 0.327970 0.804511
vt 0.763614 0.679198
vt 0.763614 0.867168
vt 0.732673 0.867168
vt 0.732673 0.679198
vt 0.964109 0.273183
vt 0.964109 0.461153
vt 0.933168 0.461153
vt 0.933168 0.273183
vt 0.221535 0.804511
vt 0.221535 0.992481
vt 0.190594 0.992481
vt 0.190594 0.804511
vt 0.824257 0.867168
vt 0.824257 0.679198
vt 0.855198 0.679198
vt 0.855198 0.867168
vt 0.175743 0.804511
vt 0.175743 0.992481
vt 0.144802 0.992481
vt 0.144802 0.804511
vt 0.099010 0.992481
vt 0.099010 0.804511
vt 0.129950 0.804511
vt 0.129950 0.992481
vt 0.450495 0.804511
vt 0.450495 0.992481
vt 0.419554 0.992481
vt 0.419554 0.804511
vt 0.917079 0.007519
vt 0.917079 0.195489
vt 0.886139 0.195489
vt 0.886139 0.007519
vt 0.992574 0.679198
vt 0.992574 0.867168
vt 0.961634 0.867168
vt 0.961634 0.679198
vt 0.871287 0.007519
vt 0.871287 0.195489
vt 0.840346 0.195489
vt 0.840346 0.007519
vt 0.933168 0.664160
vt 0.933168 0.476190
vt 0.964109 0.476190
vt 0.964109 0.664160
vt 0.962871 0.007519
vt 0.962871 0.195489
vt 0.931931 0.195489
vt 0.931931 0.007519
vt 0.532178 0.461153
vt 0.532178 0.273183
vt 0.717822 0.273183
vt 0.717822 0.461153
vt 0.532178 0.476191
vt 0.717822 0.476191
vt 0.717822 0.664161
vt 0.532178 0.664161
vt 0.517327 0.461153
vt 0.331683 0.461153
vt 0.331683 0.273183
vt 0.517327 0.273183
vt 0.717822 0.867168
vt 0.532178 0.867168
vt 0.532178 0.679198
vt 0.717822 0.679198
vt 0.918317 0.476191
vt 0.918317 0.664160
vt 0.732673 0.664160
vt 0.732673 0.476191
vt 0.732673 0.273183
vt 0.918317 0.273183
vt 0.918317 0.461153
vt 0.732673 0.461153
vn -1.000000 0.000000 -0.000000
vn 1.000000 0.000000 0.000000
vn 0.000000 -1.000000 0.000000
vn 0.000000 0.000000 -1.000000
vn 0.000000 1.000000 -0.000000
vn 0.000000 0.000000 1.000000
s off
f 3/1/1 27/2/1 28/3/1 14/4/1
f 5/5/2 25/6/2 21/7/2 2/8/2
f 12/9/3 7/10/3 26/11/3 24/12/3
f 10/13/4 13/14/4 16/15/4 1/16/4
f 56/17/5 58/18/5 39/19/5 44/20/5
f 22/21/3 26/11/3 14/22/3 8/23/3
f 6/24/3 22/21/3 8/23/3 4/25/3
f 1/26/3 9/27/3 23/28/3 10/29/3
f 5/30/3 2/31/3 12/9/3 24/12/3
f 4/32/4 19/33/4 20/34/4 6/35/4
f 2/36/6 21/37/6 11/38/6 12/39/6
f 11/38/6 18/40/6 7/41/6 12/39/6
f 8/42/1 17/43/1 19/44/1 4/45/1
f 1/46/2 16/47/2 15/48/2 9/49/2
f 25/6/2 57/50/2 53/51/2 21/7/2
f 7/41/6 18/40/6 27/52/6 3/53/6
f 32/54/4 64/55/4 57/56/4 25/57/4
f 3/58/3 14/22/3 26/11/3 7/10/3
f 35/59/1 46/60/1 60/61/1 59/62/1
f 37/63/2 34/64/2 53/51/2 57/50/2
f 10/13/4 6/35/4 20/34/4 13/14/4
f 42/65/4 33/66/4 48/67/4 45/68/4
f 64/69/4 61/70/4 58/71/4 56/72/4
f 30/73/2 29/74/2 26/75/2 22/76/2
f 38/77/5 36/78/5 40/79/5 54/80/5
f 33/81/5 42/82/5 55/83/5 41/84/5
f 37/85/5 56/17/5 44/20/5 34/86/5
f 17/43/1 49/87/1 51/88/1 19/44/1
f 41/89/2 37/63/2 57/50/2 47/90/2
f 30/91/6 62/92/6 49/93/6 17/94/6
f 36/95/4 38/96/4 52/97/4 51/98/4
f 34/99/6 44/100/6 43/101/6 53/102/6
f 23/28/3 22/21/3 6/24/3 10/29/3
f 40/103/1 36/104/1 51/88/1 49/87/1
f 33/105/2 41/89/2 47/90/2 48/106/2
f 55/83/5 56/17/5 37/85/5 41/84/5
f 45/68/4 52/97/4 38/96/4 42/65/4
f 39/107/6 35/108/6 59/109/6 50/110/6
f 63/111/3 62/112/3 52/113/3 45/114/3
f 35/115/5 39/19/5 58/18/5 46/116/5
f 28/117/4 60/118/4 61/119/4 29/120/4
f 29/121/2 61/122/2 50/123/2 18/124/2
f 18/40/6 50/110/6 59/109/6 27/52/6
f 27/2/1 59/62/1 60/61/1 28/3/1
f 49/87/1 60/61/1 46/60/1 40/103/1
f 40/79/5 46/116/5 58/18/5 54/80/5
f 54/125/2 58/126/2 61/127/2 62/128/2
f 62/129/3 61/130/3 60/131/3 49/132/3
f 19/33/4 51/98/4 52/97/4 20/34/4
f 20/133/2 52/134/2 62/135/2 30/136/2
f 8/42/1 14/4/1 28/3/1 17/43/1
f 17/137/5 28/138/5 29/139/5 30/140/5
f 31/141/5 32/142/5 25/143/5 15/144/5
f 15/48/2 25/6/2 5/5/2 9/49/2
f 9/27/3 5/30/3 24/12/3 23/28/3
f 23/145/1 24/146/1 32/147/1 31/148/1
f 24/149/4 26/150/4 29/151/4 32/152/4
f 32/153/5 29/154/5 18/155/5 11/156/5
f 21/37/6 53/102/6 43/101/6 11/38/6
f 11/157/1 43/158/1 64/159/1 32/160/1
f 44/100/6 39/107/6 50/110/6 43/101/6
f 43/161/3 50/162/3 61/163/3 64/164/3
f 42/82/5 38/77/5 54/80/5 55/83/5
f 55/165/6 54/166/6 62/167/6 63/168/6
f 47/169/3 57/170/3 64/171/3 63/172/3
f 63/173/1 64/174/1 56/175/1 55/176/1
f 13/177/5 20/178/5 30/179/5 31/180/5
f 31/181/6 30/182/6 22/183/6 23/184/6
f 13/14/4 45/68/4 48/67/4 16/15/4
f 16/47/2 48/106/2 47/90/2 15/48/2
f 15/185/6 47/186/6 63/187/6 31/188/6
f 31/189/1 63/190/1 45/191/1 13/192/1
f 63/193/1 31/194/1 32/195/1 64/196/1
f 64/197/6 61/198/6 29/199/6 32/200/6
f 61/201/1 62/202/1 30/203/1 29/204/1
f 30/205/6 31/206/6 63/207/6 62/208/6
f 31/209/5 30/210/5 29/211/5 32/212/5
f 64/213/3 61/214/3 62/215/3 63/216/3
