# Blender v2.76 (sub 0) OBJ File: 'cube14.blend'
# www.blender.org
o Circle
v -0.308405 0.000000 -0.496742
v -0.364787 0.000000 -0.475374
v -0.414412 0.000000 -0.441142
v -0.454398 0.000000 -0.396037
v -0.482421 0.000000 -0.342679
v -0.496852 0.000000 -0.284170
v -0.500442 0.000000 0.278589
v -0.486011 0.000000 0.337098
v -0.457989 0.000000 0.390456
v -0.418003 0.000000 0.435561
v -0.368377 0.000000 0.469793
v -0.311996 0.000000 0.491161
v -0.252136 0.000000 0.498425
v 0.311112 0.000000 0.500935
v 0.367493 0.000000 0.479566
v 0.417119 0.000000 0.445335
v 0.457105 0.000000 0.400229
v 0.485127 0.000000 0.346871
v 0.499558 0.000000 0.288362
v 0.499074 0.000000 -0.286493
v 0.484643 0.000000 -0.345002
v 0.456620 0.000000 -0.398360
v 0.416634 0.000000 -0.443465
v 0.367008 0.000000 -0.477697
v 0.310627 0.000000 -0.499065
v -0.308405 1.000000 -0.496742
v -0.364787 1.000000 -0.475374
v -0.414412 1.000000 -0.441142
v -0.454398 1.000000 -0.396037
v -0.482421 1.000000 -0.342679
v -0.496852 1.000000 -0.284170
v -0.500442 1.000000 0.278589
v -0.486011 1.000000 0.337098
v -0.457989 1.000000 0.390456
v -0.418003 1.000000 0.435561
v -0.368377 1.000000 0.469793
v -0.311996 1.000000 0.491161
v -0.252136 1.000000 0.498425
v 0.311112 1.000000 0.500935
v 0.367493 1.000000 0.479566
v 0.417119 1.000000 0.445335
v 0.457105 1.000000 0.400229
v 0.485127 1.000000 0.346871
v 0.499558 1.000000 0.288362
v 0.499074 1.000000 -0.286493
v 0.484643 1.000000 -0.345002
v 0.456620 1.000000 -0.398360
v 0.416634 1.000000 -0.443465
v 0.367008 1.000000 -0.477697
v 0.310627 1.000000 -0.499065
v -0.009764 1.000000 0.019046
v -0.009764 0.000000 0.019046
vt 0.729277 0.061102
vt 0.729277 0.327137
vt 0.721317 0.327137
vt 0.721318 0.061102
vt 0.507957 0.061095
vt 0.507957 0.327130
vt 0.499997 0.327130
vt 0.499997 0.061095
vt 0.859328 0.061105
vt 0.859328 0.327140
vt 0.851369 0.327140
vt 0.851369 0.061105
vt 0.713358 0.061101
vt 0.713358 0.327136
vt 0.631645 0.327134
vt 0.631645 0.061099
vt 0.737237 0.061102
vt 0.737237 0.327137
vt 0.515916 0.061096
vt 0.515916 0.327130
vt 0.867288 0.061105
vt 0.867288 0.327140
vt 0.745196 0.061102
vt 0.745196 0.327137
vt 0.591847 0.061098
vt 0.591847 0.327132
vt 0.875248 0.061106
vt 0.875247 0.327140
vt 0.753156 0.061103
vt 0.753156 0.327138
vt 0.599807 0.061098
vt 0.599807 0.327133
vt 0.949597 0.061107
vt 0.949597 0.327142
vt 0.827490 0.061105
vt 0.827490 0.327139
vt 0.607766 0.061098
vt 0.607766 0.327133
vt 0.484078 0.061094
vt 0.484078 0.327129
vt 0.476118 0.327129
vt 0.476119 0.061094
vt 0.835450 0.061105
vt 0.835450 0.327139
vt 0.615726 0.061099
vt 0.615726 0.327133
vt 0.492038 0.061095
vt 0.492038 0.327130
vt 0.843409 0.061105
vt 0.843409 0.327139
vt 0.623685 0.061099
vt 0.623685 0.327134
vt 0.365258 0.325364
vt 0.264952 0.193166
vt 0.380176 0.317619
vt 0.350806 0.051713
vt 0.190466 0.050863
vt 0.130942 0.260129
vt 0.132893 0.276823
vt 0.348921 0.329314
vt 0.367107 0.055808
vt 0.130942 0.103126
vt 0.191951 0.329615
vt 0.381955 0.063685
vt 0.136972 0.087437
vt 0.175649 0.325520
vt 0.394486 0.074887
vt 0.146581 0.073647
vt 0.160801 0.317642
vt 0.403973 0.088762
vt 0.402416 0.292740
vt 0.408446 0.277050
vt 0.159212 0.062558
vt 0.148270 0.306441
vt 0.409863 0.104505
vt 0.392806 0.306530
vt 0.174129 0.054813
vt 0.138784 0.292565
vt 0.129343 0.276811
vt 0.263822 0.187473
vt 0.135291 0.292532
vt 0.380147 0.317564
vt 0.348501 0.051767
vt 0.191535 0.050645
vt 0.130164 0.119811
vt 0.348935 0.329374
vt 0.364818 0.055802
vt 0.132203 0.103127
vt 0.188594 0.329385
vt 0.379695 0.063625
vt 0.138175 0.087416
vt 0.172277 0.325350
vt 0.392267 0.074780
vt 0.408267 0.276892
vt 0.407753 0.104341
vt 0.147734 0.073591
vt 0.157400 0.317527
vt 0.401805 0.088620
vt 0.402295 0.292603
vt 0.160324 0.062454
vt 0.144828 0.306372
vt 0.392736 0.306428
vt 0.175212 0.054655
vn -0.567800 0.000000 -0.823200
vn 0.885300 0.000000 0.465000
vn -0.567800 0.000000 0.823200
vn -0.003800 0.000000 -1.000000
vn -0.748300 0.000000 -0.663400
vn 0.970900 0.000000 0.239500
vn -0.354400 0.000000 0.935100
vn -0.885300 0.000000 -0.465000
vn 1.000000 0.000000 -0.000800
vn -0.120500 0.000000 0.992700
vn -0.970900 0.000000 -0.239500
vn 0.970900 0.000000 -0.239500
vn -0.004500 0.000000 1.000000
vn -1.000000 0.000000 -0.006400
vn 0.885300 0.000000 -0.465000
vn 0.354400 0.000000 0.935100
vn -0.970900 0.000000 0.239500
vn 0.748300 0.000000 -0.663400
vn 0.567800 0.000000 0.823200
vn -0.885300 0.000000 0.465000
vn 0.567800 0.000000 -0.823200
vn -0.354400 0.000000 -0.935100
vn 0.748300 0.000000 0.663400
vn -0.748300 0.000000 0.663400
vn 0.354400 0.000000 -0.935100
vn 0.000000 1.000000 0.000000
vn 0.000000 -1.000000 0.000000
s off
f 3/1/1 28/2/1 27/3/1 2/4/1
f 18/5/2 43/6/2 42/7/2 17/8/2
f 11/9/3 36/10/3 35/11/3 10/12/3
f 1/13/4 26/14/4 50/15/4 25/16/4
f 4/17/5 29/18/5 28/2/5 3/1/5
f 19/19/6 44/20/6 43/6/6 18/5/6
f 12/21/7 37/22/7 36/10/7 11/9/7
f 5/23/8 30/24/8 29/18/8 4/17/8
f 20/25/9 45/26/9 44/20/9 19/19/9
f 13/27/10 38/28/10 37/22/10 12/21/10
f 6/29/11 31/30/11 30/24/11 5/23/11
f 21/31/12 46/32/12 45/26/12 20/25/12
f 14/33/13 39/34/13 38/28/13 13/27/13
f 7/35/14 32/36/14 31/30/14 6/29/14
f 22/37/15 47/38/15 46/32/15 21/31/15
f 15/39/16 40/40/16 39/41/16 14/42/16
f 8/43/17 33/44/17 32/36/17 7/35/17
f 23/45/18 48/46/18 47/38/18 22/37/18
f 16/47/19 41/48/19 40/40/19 15/39/19
f 9/49/20 34/50/20 33/44/20 8/43/20
f 24/51/21 49/52/21 48/46/21 23/45/21
f 2/4/22 27/3/22 26/14/22 1/13/22
f 17/8/23 42/7/23 41/48/23 16/47/23
f 10/12/24 35/11/24 34/50/24 9/49/24
f 25/16/25 50/15/25 49/52/25 24/51/25
f 30/53/26 51/54/26 29/55/26
f 45/56/26 51/54/26 44/57/26
f 38/58/26 51/54/26 37/59/26
f 31/60/26 51/54/26 30/53/26
f 46/61/26 51/54/26 45/56/26
f 39/62/26 51/54/26 38/58/26
f 32/63/26 51/54/26 31/60/26
f 47/64/26 51/54/26 46/61/26
f 40/65/26 51/54/26 39/62/26
f 33/66/26 51/54/26 32/63/26
f 48/67/26 51/54/26 47/64/26
f 41/68/26 51/54/26 40/65/26
f 34/69/26 51/54/26 33/66/26
f 49/70/26 51/54/26 48/67/26
f 27/71/26 51/54/26 26/72/26
f 42/73/26 51/54/26 41/68/26
f 35/74/26 51/54/26 34/69/26
f 50/75/26 51/54/26 49/70/26
f 28/76/26 51/54/26 27/71/26
f 43/77/26 51/54/26 42/73/26
f 36/78/26 51/54/26 35/74/26
f 26/72/26 51/54/26 50/75/26
f 29/55/26 51/54/26 28/76/26
f 44/57/26 51/54/26 43/77/26
f 37/59/26 51/54/26 36/78/26
f 14/79/27 52/80/27 15/81/27
f 21/53/27 52/80/27 22/82/27
f 6/83/27 52/80/27 7/84/27
f 13/85/27 52/80/27 14/79/27
f 20/86/27 52/80/27 21/53/27
f 5/87/27 52/80/27 6/83/27
f 12/88/27 52/80/27 13/85/27
f 19/89/27 52/80/27 20/86/27
f 4/90/27 52/80/27 5/87/27
f 11/91/27 52/80/27 12/88/27
f 18/92/27 52/80/27 19/89/27
f 3/93/27 52/80/27 4/90/27
f 25/94/27 52/80/27 1/95/27
f 10/96/27 52/80/27 11/91/27
f 17/97/27 52/80/27 18/92/27
f 2/98/27 52/80/27 3/93/27
f 24/99/27 52/80/27 25/94/27
f 9/100/27 52/80/27 10/96/27
f 16/101/27 52/80/27 17/97/27
f 1/95/27 52/80/27 2/98/27
f 23/102/27 52/80/27 24/99/27
f 8/103/27 52/80/27 9/100/27
f 15/81/27 52/80/27 16/101/27
f 22/82/27 52/80/27 23/102/27
f 7/84/27 52/80/27 8/103/27
