# Blender v2.76 (sub 0) OBJ File: 'cube3.blend'
# www.blender.org
o Cube
v 0.500000 -0.500000 -0.500000
v 0.500000 -0.500000 0.500000
v -0.500000 -0.500000 0.500000
v -0.500000 -0.500000 -0.500000
v 0.500000 -0.500000 0.375000
v -0.375000 -0.500000 -0.500000
v -0.375000 -0.500000 0.500000
v -0.500000 -0.500000 -0.375000
v 0.500000 -0.500000 -0.375000
v 0.375000 -0.500000 -0.500000
v 0.375000 -0.375000 0.500000
v 0.375000 -0.500000 0.500000
v 0.375000 -0.375000 -0.500000
v -0.500000 -0.500000 0.375000
v 0.500000 -0.375000 -0.375000
v 0.500000 -0.375000 -0.500000
v -0.500000 -0.375000 -0.375000
v -0.375000 -0.375000 0.500000
v -0.500000 -0.375000 -0.500000
v -0.375000 -0.375000 -0.500000
v 0.500000 -0.375000 0.500000
v -0.375000 -0.500000 -0.375000
v 0.375000 -0.500000 -0.375000
v 0.375000 -0.500000 0.375000
v 0.500000 -0.375000 0.375000
v -0.375000 -0.500000 0.375000
v -0.500000 -0.375000 0.500000
v -0.500000 -0.375000 0.375000
v -0.375000 -0.375000 0.375000
v -0.375000 -0.375000 -0.375000
v 0.375000 -0.375000 -0.375000
v 0.375000 -0.375000 0.375000
v 0.500000 0.500000 -0.500000
v 0.500000 0.500000 0.500000
v -0.500000 0.500000 0.500000
v -0.500000 0.500000 -0.500000
v 0.500000 0.500000 0.375000
v -0.375000 0.500000 -0.500000
v -0.375000 0.500000 0.500000
v -0.500000 0.500000 -0.375000
v 0.500000 0.500000 -0.375000
v 0.375000 0.500000 -0.500000
v 0.375000 0.375000 0.500000
v 0.375000 0.500000 0.500000
v 0.375000 0.375000 -0.500000
v -0.500000 0.500000 0.375000
v 0.500000 0.375000 -0.375000
v 0.500000 0.375000 -0.500000
v -0.500000 0.375000 -0.375000
v -0.375000 0.375000 0.500000
v -0.500000 0.375000 -0.500000
v -0.375000 0.375000 -0.500000
v 0.500000 0.375000 0.500000
v -0.375000 0.500000 -0.375000
v 0.375000 0.500000 -0.375000
v 0.375000 0.500000 0.375000
v 0.500000 0.375000 0.375000
v -0.375000 0.500000 0.375000
v -0.500000 0.375000 0.500000
v -0.500000 0.375000 0.375000
v -0.375000 0.375000 0.375000
v -0.375000 0.375000 -0.375000
v 0.375000 0.375000 -0.375000
v 0.375000 0.375000 0.375000
v 0.375000 -0.125000 0.500000
v 0.375000 -0.250000 0.375000
v 0.500000 -0.250000 0.375000
v 0.500000 -0.125000 0.500000
v 0.375000 0.125000 -0.500000
v 0.500000 0.250000 -0.375000
v 0.500000 0.125000 -0.500000
v 0.375000 0.250000 -0.375000
v 0.375000 0.250000 0.500000
v 0.500000 0.125000 0.500000
v 0.500000 0.125000 0.375000
v 0.375000 0.250000 0.375000
v -0.375000 -0.250000 0.500000
v -0.500000 -0.125000 0.500000
v -0.500000 -0.125000 0.375000
v -0.375000 -0.250000 0.375000
v 0.375000 -0.250000 -0.500000
v 0.500000 -0.125000 -0.375000
v 0.500000 -0.125000 -0.500000
v 0.375000 -0.250000 -0.375000
v -0.500000 -0.250000 -0.375000
v -0.500000 -0.125000 -0.500000
v -0.375000 -0.125000 -0.500000
v -0.375000 -0.250000 -0.375000
v -0.375000 0.125000 0.500000
v -0.500000 0.125000 0.500000
v -0.500000 0.250000 0.375000
v -0.375000 0.250000 0.375000
v -0.500000 0.125000 -0.375000
v -0.500000 0.125000 -0.500000
v -0.375000 0.250000 -0.500000
v -0.375000 0.250000 -0.375000
vt 0.000000 0.000000
vt 1.000000 0.000000
vt 1.000000 1.000000
vt 0.000000 1.000000
vn -1.000000 0.000000 -0.000000
vn 1.000000 0.000000 0.000000
vn 0.000000 -1.000000 0.000000
vn 0.000000 0.000000 -1.000000
vn 0.000000 0.000000 1.000000
vn 0.000000 1.000000 0.000000
vn -0.000000 0.919100 0.393900
vn 0.000000 -0.919100 -0.393900
vn 0.393900 -0.919100 0.000000
vn -0.393900 0.919100 -0.000000
vn -0.000000 -0.919100 0.393900
vn 0.000000 0.919100 -0.393900
vn -0.393900 -0.919100 -0.000000
vn 0.393900 0.919100 0.000000
s off
f 3/1/1 27/2/1 28/3/1 14/4/1
f 5/1/2 25/2/2 21/3/2 2/4/2
f 12/1/3 7/2/3 26/3/3 24/4/3
f 10/1/4 13/2/4 16/3/4 1/4/4
f 22/1/3 26/2/3 14/3/3 8/4/3
f 6/1/3 22/2/3 8/3/3 4/4/3
f 1/1/3 9/2/3 23/3/3 10/4/3
f 5/1/3 2/2/3 12/3/3 24/4/3
f 4/1/4 19/2/4 20/3/4 6/4/4
f 2/1/5 21/2/5 11/3/5 12/4/5
f 11/1/5 18/2/5 7/3/5 12/4/5
f 8/1/1 17/2/1 19/3/1 4/4/1
f 1/1/2 16/2/2 15/3/2 9/4/2
f 7/1/5 18/2/5 27/3/5 3/4/5
f 3/1/3 14/2/3 26/3/3 7/4/3
f 35/1/1 46/2/1 60/3/1 59/4/1
f 37/1/2 34/2/2 53/3/2 57/4/2
f 10/1/4 6/2/4 20/3/4 13/4/4
f 42/1/4 33/2/4 48/3/4 45/4/4
f 30/1/2 29/2/2 26/3/2 22/4/2
f 38/1/6 36/2/6 40/3/6 54/4/6
f 33/1/6 42/2/6 55/3/6 41/4/6
f 37/1/6 56/2/6 44/3/6 34/4/6
f 36/1/4 38/2/4 52/3/4 51/4/4
f 34/1/5 44/2/5 43/3/5 53/4/5
f 23/1/3 22/2/3 6/3/3 10/4/3
f 40/1/1 36/2/1 51/3/1 49/4/1
f 33/1/2 41/2/2 47/3/2 48/4/2
f 39/1/5 35/2/5 59/3/5 50/4/5
f 35/1/6 39/2/6 58/3/6 46/4/6
f 63/1/1 45/4/1 69/4/1 72/1/1
f 25/3/4 32/2/4 66/2/4 67/3/4
f 21/3/2 25/2/2 67/2/2 68/3/2
f 8/1/1 14/2/1 28/3/1 17/4/1
f 17/1/6 28/2/6 29/3/6 30/4/6
f 31/1/6 32/2/6 25/3/6 15/4/6
f 15/1/2 25/2/2 5/3/2 9/4/2
f 9/1/3 5/2/3 24/3/3 23/4/3
f 23/1/1 24/2/1 32/3/1 31/4/1
f 24/1/4 26/2/4 29/3/4 32/4/4
f 32/1/6 29/2/6 18/3/6 11/4/6
f 11/3/5 21/2/5 68/2/5 65/3/5
f 13/1/6 20/2/6 30/3/6 31/4/6
f 31/1/5 30/2/5 22/3/5 23/4/5
f 65/1/7 68/2/7 70/1/7 72/4/7
f 32/1/1 11/4/1 65/4/1 66/1/1
f 66/1/8 69/3/8 71/1/8 67/2/8
f 48/4/2 47/3/2 70/3/2 71/4/2
f 47/1/5 63/4/5 72/4/5 70/1/5
f 45/4/4 48/3/4 71/3/4 69/4/4
f 68/2/2 67/2/2 71/1/2 70/3/2
f 66/1/1 65/4/1 72/4/1 69/4/1
f 43/1/1 64/4/1 76/4/1 73/1/1
f 53/4/5 43/3/5 73/3/5 74/4/5
f 57/4/2 53/3/2 74/3/2 75/4/2
f 64/3/4 57/2/4 75/2/4 76/3/4
f 28/3/1 27/2/1 78/2/1 79/3/1
f 27/3/5 18/2/5 77/2/5 78/3/5
f 29/3/4 28/2/4 79/2/4 80/3/4
f 18/3/2 29/2/2 80/2/2 77/3/2
f 16/3/4 13/2/4 81/2/4 83/3/4
f 13/1/1 31/4/1 84/4/1 81/1/1
f 15/3/2 16/2/2 83/2/2 82/3/2
f 31/1/5 15/4/5 82/4/5 84/1/5
f 19/3/1 17/2/1 85/2/1 86/3/1
f 17/1/5 30/4/5 88/4/5 85/1/5
f 20/3/4 19/2/4 86/2/4 87/3/4
f 30/3/2 20/2/2 87/2/2 88/3/2
f 50/4/5 59/3/5 90/3/5 89/4/5
f 60/3/4 61/2/4 92/2/4 91/3/4
f 61/3/2 50/2/2 89/2/2 92/3/2
f 59/4/1 60/3/1 91/3/1 90/4/1
f 62/1/5 49/4/5 93/4/5 96/1/5
f 51/4/4 52/3/4 95/3/4 94/4/4
f 52/3/2 62/2/2 96/2/2 95/3/2
f 49/4/1 51/3/1 94/3/1 93/4/1
f 76/1/4 75/2/4 80/1/4 79/2/4
f 75/2/9 74/3/9 77/1/9 80/2/9
f 73/1/5 78/2/5 77/3/5 74/3/5
f 76/2/10 79/2/10 78/1/10 73/4/10
f 87/1/2 92/2/2 89/1/2 88/2/2
f 85/1/11 88/4/11 89/1/11 90/3/11
f 86/1/1 85/2/1 90/3/1 91/3/1
f 86/3/12 91/2/12 92/1/12 87/2/12
f 81/1/13 84/4/13 93/1/13 94/3/13
f 84/4/5 82/4/5 96/1/5 93/4/5
f 81/3/4 94/3/4 95/1/4 83/2/4
f 83/1/14 95/2/14 96/4/14 82/2/14
f 56/1/6 58/2/6 39/1/6 44/2/6
f 50/1/5 43/2/5 44/1/5 39/4/5
f 64/1/3 43/1/3 50/1/3 61/3/3
f 49/1/3 62/1/3 61/1/3 60/3/3
f 60/3/1 46/2/1 40/1/1 49/4/1
f 40/2/6 46/3/6 58/1/6 54/3/6
f 45/1/4 52/2/4 38/1/4 42/4/4
f 38/1/6 54/4/6 55/1/6 42/2/6
f 41/1/2 37/4/2 57/1/2 47/2/2
f 55/1/6 56/1/6 37/1/6 41/3/6
f 64/1/3 63/1/3 47/1/3 57/3/3
f 45/1/3 63/1/3 62/1/3 52/3/3
f 58/1/4 56/1/4 64/1/4 61/3/4
f 61/3/2 62/1/2 54/1/2 58/1/2
f 54/1/5 62/1/5 63/1/5 55/4/5
f 55/1/1 63/1/1 64/1/1 56/1/1
