# Blender v2.76 (sub 0) OBJ File: 'cube2.blend'
# www.blender.org
o Cube
v 0.500000 -0.500000 -0.500000
v 0.500000 -0.500000 0.500000
v -0.500000 -0.500000 0.500000
v -0.500000 -0.500000 -0.500000
v 0.500000 0.500000 -0.499999
v 0.499999 0.500000 0.500000
v -0.500000 0.500000 0.500000
v -0.500000 0.500000 -0.500000
vn 0.577300 -0.577300 -0.577300
vn 0.577300 -0.577300 0.577300
vn -0.577300 -0.577300 0.577300
vn -0.577300 -0.577300 -0.577300
vn 0.577300 0.577300 -0.577300
vn -0.577300 0.577300 -0.577300
vn -0.577300 0.577300 0.577300
vn 0.577300 0.577300 0.577300
s 1
f 1//1 2//2 3//3 4//4
f 5//5 8//6 7//7 6//8
f 1//1 5//5 6//8 2//2
f 2//2 6//8 7//7 3//3
f 3//3 7//7 8//6 4//4
f 5//5 1//1 4//4 8//6
