# Blender v2.76 (sub 0) OBJ File: 'diamond.blend'
# www.blender.org
o Icosphere
v 0.000000 0.834158 -0.000000
v 0.128831 0.959404 0.093600
v -0.049208 0.959404 0.151450
v -0.159244 0.959405 -0.000000
v -0.049208 0.959404 -0.151450
v 0.128831 0.959404 -0.093600
v 0.071588 1.153264 0.220328
v -0.180111 1.176898 0.136169
v -0.187423 1.153264 -0.136169
v 0.071588 1.176623 -0.197418
v 0.216294 1.153263 0.000000
v 0.000000 1.379297 0.000000
v -0.024019 0.863373 0.073924
v 0.062884 0.863373 0.045687
v 0.046801 0.940908 0.144037
v 0.151450 0.940908 -0.000000
v 0.062884 0.863373 -0.045687
v -0.077729 0.863374 -0.000000
v -0.122525 0.940908 0.089020
v -0.024019 0.863373 -0.073924
v -0.122525 0.940908 -0.089020
v 0.046801 0.940908 -0.144037
v 0.198167 1.053089 0.064387
v 0.198167 1.053089 -0.064387
v 0.000000 1.053089 0.208365
v 0.122474 1.053089 0.168571
v -0.198167 1.053089 0.064387
v -0.122474 1.053089 0.168571
v -0.122474 1.053089 -0.168571
v -0.198167 1.053089 -0.064387
v 0.122474 1.053089 -0.168571
v 0.000000 1.053089 -0.208365
v 0.178249 1.180172 0.129505
v -0.068086 1.180173 0.209544
v -0.220328 1.180172 0.000000
v -0.068086 1.180173 -0.209544
v 0.178249 1.180172 -0.129505
v 0.042078 1.291523 0.129505
v 0.136170 1.291522 0.000000
v -0.110164 1.291523 0.080038
v -0.110164 1.291523 -0.080038
v 0.042078 1.291523 -0.129505
vt 0.556367 0.416008
vt 0.481105 0.445680
vt 0.493754 0.349247
vt 0.903696 0.332162
vt 0.982465 0.406201
vt 0.860830 0.427988
vt 0.588989 0.324226
vt 0.635197 0.405197
vt 0.700686 0.469344
vt 0.786606 0.465237
vt 0.729964 0.541067
vt 0.793815 0.322013
vt 0.421703 0.245466
vt 0.386783 0.352556
vt 0.335645 0.224106
vt 0.616812 0.194206
vt 0.516698 0.206300
vt 0.563828 0.083058
vt 0.113038 0.883984
vt 0.067965 0.773780
vt 0.186319 0.793106
vt 0.779260 0.661825
vt 0.849754 0.576109
vt 0.878356 0.717669
vt 0.888476 0.207709
vt 0.429612 0.118319
vt 0.687024 0.131791
vt 0.209300 0.946860
vt 0.754439 0.787924
vt 0.892789 0.078389
vt 0.767079 0.177287
vt 0.806632 0.045245
vt 0.029635 0.253198
vt 0.056015 0.104795
vt 0.160059 0.231878
vt 0.185442 0.539165
vt 0.091072 0.415960
vt 0.260528 0.393264
vt 0.382588 0.569433
vt 0.478194 0.465237
vt 0.490710 0.628548
vt 0.344769 0.874823
vt 0.335645 0.712250
vt 0.474623 0.829074
vt 0.617172 0.744237
vt 0.617172 0.582063
vt 0.319050 0.527313
vt 0.319050 0.215766
vt 0.225472 0.082100
vt 0.125801 0.009778
vt 0.591146 0.906519
vt 0.436081 0.990222
vt 0.858507 0.855949
vt 0.716287 0.876597
vt 0.958182 0.758649
vt 0.299664 0.843940
vt 0.296668 0.986353
vt 0.241698 0.680380
vt 0.135268 0.651299
vt 0.196985 0.558722
vt 0.623127 0.019935
vt 0.008297 0.371992
vt 0.353178 0.090856
vt 0.474822 0.009778
vt 0.991703 0.124427
vt 0.974702 0.009778
vt 0.703618 0.313611
vt 0.958182 0.610801
vt 0.099737 0.986353
vt 0.038827 0.677838
vt 0.991703 0.269960
vt 0.633767 0.794730
vt 0.678436 0.673239
vt 0.008297 0.888758
vt 0.687024 0.273675
vt 0.644339 0.545896
vn 0.130200 -0.906900 0.400700
vn 0.711100 -0.636900 0.297700
vn -0.340900 -0.906900 0.247700
vn -0.340900 -0.906900 -0.247700
vn 0.130200 -0.906900 -0.400700
vn 0.809600 -0.507000 0.295800
vn -0.031200 -0.507000 0.861400
vn -0.828900 -0.507000 0.236600
vn -0.481100 -0.507000 -0.715200
vn 0.531500 -0.507000 -0.678600
vn 0.747100 -0.383700 0.542800
vn -0.285400 -0.383700 0.878300
vn -0.923500 -0.383700 0.000000
vn -0.285400 -0.383700 -0.878300
vn 0.747100 -0.383700 -0.542800
vn 0.453800 0.554900 0.697300
vn -0.450900 0.599100 0.661600
vn -0.776900 0.554900 -0.297400
vn 0.086900 0.523300 -0.847700
vn 0.855600 0.495900 -0.148300
vn 0.504100 0.782100 -0.366300
vn 0.575100 0.703300 -0.417800
vn 0.439900 0.538000 -0.719000
vn -0.192600 0.782100 -0.592600
vn -0.219700 0.703300 -0.676100
vn -0.522900 0.554900 -0.647000
vn -0.623100 0.782100 0.000000
vn -0.710900 0.703300 0.000000
vn -0.771100 0.589000 0.241900
vn -0.192600 0.782100 0.592600
vn -0.219700 0.703300 0.676100
vn 0.042800 0.554900 0.830800
vn 0.504100 0.782100 0.366300
vn 0.575100 0.703300 0.417800
vn 0.855600 0.495900 0.148300
vn 0.959800 0.006700 -0.280600
vn 0.797000 -0.171800 -0.579000
vn 0.536400 0.023900 -0.843600
vn 0.087400 0.037600 -0.995500
vn -0.304400 -0.171800 -0.936900
vn -0.513700 -0.056200 -0.856100
vn -0.973000 -0.056200 -0.224000
vn -0.985100 -0.171800 0.000000
vn -0.958900 -0.024000 0.282600
vn -0.546800 -0.035700 0.836500
vn -0.304400 -0.171800 0.936900
vn -0.087600 -0.056200 0.994600
vn 0.655500 -0.056200 0.753100
vn 0.797000 -0.171800 0.579000
vn 0.959800 0.006700 0.280600
vn 0.307600 -0.094400 -0.946800
vn 0.285300 -0.384400 -0.878000
vn -0.031200 -0.507000 -0.861400
vn -0.767300 -0.317200 -0.557400
vn -0.746800 -0.384400 -0.542600
vn -0.828900 -0.507000 -0.236600
vn -0.789700 -0.217500 0.573700
vn -0.746800 -0.384400 0.542600
vn -0.481100 -0.507000 0.715200
vn 0.293100 -0.317100 0.902000
vn 0.285300 -0.384400 0.878000
vn 0.531500 -0.507000 0.678600
vn 0.984000 -0.178100 0.000000
vn 0.923100 -0.384400 0.000000
vn 0.809600 -0.507000 -0.295800
vn 0.502900 -0.636900 -0.584300
vn 0.203600 -0.752400 -0.626500
vn -0.063400 -0.636900 -0.768300
vn -0.400300 -0.636900 -0.658800
vn -0.532900 -0.752400 -0.387200
vn -0.750300 -0.636900 -0.177100
vn -0.750300 -0.636900 0.177100
vn -0.532900 -0.752400 0.387200
vn -0.400300 -0.636900 0.658800
vn 0.711100 -0.636900 -0.297700
vn 0.658700 -0.752400 0.000000
vn 0.421300 -0.906900 0.000000
vn -0.063400 -0.636900 0.768300
vn 0.203600 -0.752400 0.626500
vn 0.502900 -0.636900 0.584300
s off
f 1/1/1 14/2/1 13/3/1
f 2/4/2 14/5/2 16/6/2
f 1/1/3 13/3/3 18/7/3
f 1/1/4 18/7/4 20/8/4
f 1/9/5 20/10/5 17/11/5
f 2/4/6 16/6/6 23/12/6
f 3/13/7 15/14/7 25/15/7
f 4/16/8 19/17/8 27/18/8
f 5/19/9 21/20/9 29/21/9
f 6/22/10 22/23/10 31/24/10
f 2/4/11 23/12/11 26/25/11
f 3/13/12 25/15/12 28/26/12
f 4/16/13 27/18/13 30/27/13
f 5/19/14 29/21/14 32/28/14
f 6/22/15 31/24/15 24/29/15
f 7/30/16 33/31/16 38/32/16
f 8/33/17 34/34/17 40/35/17
f 9/36/18 35/37/18 41/38/18
f 10/39/19 36/40/19 42/41/19
f 11/42/20 37/43/20 39/44/20
f 39/44/21 42/41/21 12/45/21
f 39/44/22 37/43/22 42/41/22
f 37/43/23 10/39/23 42/41/23
f 42/41/24 41/46/24 12/45/24
f 42/41/25 36/40/25 41/46/25
f 36/47/26 9/36/26 41/38/26
f 41/38/27 40/35/27 12/48/27
f 41/38/28 35/37/28 40/35/28
f 35/37/29 8/33/29 40/35/29
f 40/35/30 38/49/30 12/48/30
f 40/35/31 34/34/31 38/49/31
f 34/34/32 7/50/32 38/49/32
f 38/51/33 39/44/33 12/45/33
f 38/51/34 33/52/34 39/44/34
f 33/52/35 11/42/35 39/44/35
f 24/29/36 37/53/36 11/54/36
f 24/29/37 31/24/37 37/53/37
f 31/24/38 10/55/38 37/53/38
f 32/28/39 36/56/39 10/57/39
f 32/28/40 29/21/40 36/56/40
f 29/21/41 9/58/41 36/56/41
f 30/59/42 35/60/42 9/58/42
f 30/27/43 27/18/43 35/61/43
f 27/62/44 8/33/44 35/37/44
f 28/26/45 34/63/45 8/64/45
f 28/26/46 25/15/46 34/63/46
f 25/65/47 7/30/47 34/66/47
f 26/25/48 33/31/48 7/30/48
f 26/25/49 23/12/49 33/31/49
f 23/12/50 11/67/50 33/31/50
f 31/24/51 32/68/51 10/55/51
f 31/24/52 22/23/52 32/68/52
f 22/69/53 5/19/53 32/28/53
f 29/21/54 30/59/54 9/58/54
f 29/21/55 21/20/55 30/59/55
f 21/20/56 4/70/56 30/59/56
f 27/18/57 28/26/57 8/64/57
f 27/18/58 19/17/58 28/26/58
f 19/17/59 3/13/59 28/26/59
f 25/65/60 26/25/60 7/30/60
f 25/65/61 15/71/61 26/25/61
f 15/71/62 2/4/62 26/25/62
f 23/72/63 24/29/63 11/54/63
f 23/72/64 16/73/64 24/29/64
f 16/73/65 6/22/65 24/29/65
f 17/11/66 22/23/66 6/22/66
f 17/11/67 20/10/67 22/23/67
f 20/74/68 5/19/68 22/69/68
f 20/74/69 21/20/69 5/19/69
f 20/8/70 18/7/70 21/75/70
f 18/7/71 4/16/71 21/75/71
f 18/7/72 19/17/72 4/16/72
f 18/7/73 13/3/73 19/17/73
f 13/3/74 3/13/74 19/17/74
f 16/73/75 17/11/75 6/22/75
f 16/73/76 14/76/76 17/11/76
f 14/76/77 1/9/77 17/11/77
f 13/3/78 15/14/78 3/13/78
f 13/3/79 14/2/79 15/14/79
f 14/5/80 2/4/80 15/71/80
