# Blender v2.75 (sub 0) OBJ File: 'diamond.blend'
# www.blender.org
o Cone.001
v 0.000000 1.000000 -0.311092
v 0.311092 1.000000 0.000000
v 0.000000 1.497748 0.000000
v -0.000000 1.000000 0.311092
v -0.311092 1.000000 0.000000
v 0.000000 1.000000 0.311092
v 0.311092 1.000000 -0.000000
v 0.000000 0.502252 0.000000
v -0.000000 1.000000 -0.311092
v -0.311092 1.000000 0.000000
vn -0.646800 0.404200 0.646800
vn 0.646800 0.404200 -0.646800
vn -0.646800 0.404200 -0.646800
vn 0.646800 0.404200 0.646800
vn 0.000000 -1.000000 0.000000
vn -0.646800 -0.404200 -0.646800
vn 0.646800 -0.404200 0.646800
vn -0.646800 -0.404200 0.646800
vn 0.646800 -0.404200 -0.646800
vn 0.000000 1.000000 0.000000
s off
f 4//1 3//1 5//1
f 1//2 3//2 2//2
f 5//3 3//3 1//3
f 2//4 3//4 4//4
f 1//5 2//5 4//5 5//5
f 9//6 8//6 10//6
f 6//7 8//7 7//7
f 10//8 8//8 6//8
f 7//9 8//9 9//9
f 6//10 7//10 9//10 10//10
