# Blender v2.75 (sub 0) OBJ File: 'gate-star.blend'
# www.blender.org
o Circle
v -0.000000 0.249657 0.096445
v -0.195190 0.155659 0.096445
v -0.243398 -0.055554 0.096445
v -0.108322 -0.224933 0.096445
v 0.108322 -0.224933 0.096445
v 0.243398 -0.055554 0.096445
v 0.195190 0.155659 0.096445
v -0.000000 0.249657 -0.096445
v -0.195190 0.155659 -0.096445
v -0.243398 -0.055554 -0.096445
v -0.108322 -0.224933 -0.096445
v 0.108322 -0.224933 -0.096445
v 0.243398 -0.055554 -0.096445
v 0.195190 0.155659 -0.096445
v -0.000000 0.000000 -0.096445
v -0.000000 0.000000 0.096445
v -0.433562 0.010072 0.077156
v -0.394996 0.179042 0.077156
v -0.433562 0.010072 -0.077156
v -0.394996 0.179042 -0.077156
v -0.262448 0.345252 0.077156
v -0.106296 0.420451 0.077156
v -0.262448 0.345252 -0.077156
v -0.106296 0.420451 -0.077156
v 0.106296 0.420451 0.077156
v 0.262447 0.345252 0.077156
v 0.106296 0.420451 -0.077156
v 0.262447 0.345252 -0.077156
v 0.394996 0.179042 0.077156
v 0.433562 0.010072 0.077156
v 0.394996 0.179042 -0.077156
v 0.433562 0.010072 -0.077156
v 0.386256 -0.197190 0.077156
v 0.278196 -0.332693 0.077156
v 0.386256 -0.197190 -0.077156
v 0.278196 -0.332693 -0.077156
v 0.086658 -0.424933 0.077156
v -0.086658 -0.424933 0.077156
v 0.086658 -0.424933 -0.077156
v -0.086658 -0.424933 -0.077156
v -0.278196 -0.332693 0.077156
v -0.386256 -0.197190 0.077156
v -0.278196 -0.332693 -0.077156
v -0.386256 -0.197190 -0.077156
vn 0.942500 -0.334300 0.000000
vn -0.535700 -0.844400 0.000000
vn -0.704100 0.710100 0.000000
vn -0.041700 0.086500 -0.995400
vn 0.093600 0.021400 0.995400
vn 0.994200 -0.107700 0.000000
vn -0.326200 -0.945300 0.000000
vn 0.000000 0.000000 -1.000000
vn 0.000000 0.000000 1.000000
vn -0.974900 0.222500 0.000000
vn -0.093600 0.021400 0.995400
vn -0.093600 0.021400 -0.995400
vn 0.116200 0.993200 0.000000
vn -0.433900 0.901000 0.000000
vn 0.849000 0.528400 0.000000
vn -0.041700 0.086500 0.995400
vn -0.942500 -0.334300 0.000000
vn 0.433900 0.901000 0.000000
vn 0.041700 0.086500 0.995400
vn -0.849000 0.528400 0.000000
vn 0.041700 0.086500 -0.995400
vn 0.974900 0.222500 0.000000
vn -0.116200 0.993200 0.000000
vn 0.093600 0.021400 -0.995400
vn 0.326200 -0.945300 0.000000
vn 0.781800 -0.623500 0.000000
vn 0.704100 0.710100 0.000000
vn 0.075100 -0.059900 0.995400
vn 0.075100 -0.059900 -0.995400
vn 0.000000 -1.000000 0.000000
vn 0.000000 -0.096000 0.995400
vn 0.000000 -0.096000 -0.995400
vn -0.994200 -0.107700 0.000000
vn -0.781800 -0.623500 0.000000
vn 0.535700 -0.844400 0.000000
vn -0.075100 -0.059900 0.995400
vn -0.075100 -0.059900 -0.995400
s off
f 14//1 28//1 26//1 7//1
f 12//2 36//2 34//2 5//2
f 10//3 44//3 42//3 3//3
f 9//4 23//4 24//4 8//4
f 6//5 30//5 29//5 7//5
f 5//6 37//6 39//6 12//6
f 3//7 17//7 19//7 10//7
f 8//8 14//8 15//8
f 13//8 12//8 15//8
f 11//8 10//8 15//8
f 9//8 8//8 15//8
f 14//8 13//8 15//8
f 12//8 11//8 15//8
f 10//8 9//8 15//8
f 2//9 3//9 16//9
f 4//9 5//9 16//9
f 6//9 7//9 16//9
f 1//9 2//9 16//9
f 3//9 4//9 16//9
f 5//9 6//9 16//9
f 7//9 1//9 16//9
f 17//10 18//10 20//10 19//10
f 2//11 18//11 17//11 3//11
f 10//12 19//12 20//12 9//12
f 9//13 20//13 18//13 2//13
f 21//14 22//14 24//14 23//14
f 8//15 24//15 22//15 1//15
f 1//16 22//16 21//16 2//16
f 2//17 21//17 23//17 9//17
f 25//18 26//18 28//18 27//18
f 7//19 26//19 25//19 1//19
f 1//20 25//20 27//20 8//20
f 8//21 27//21 28//21 14//21
f 29//22 30//22 32//22 31//22
f 7//23 29//23 31//23 14//23
f 14//24 31//24 32//24 13//24
f 13//25 32//25 30//25 6//25
f 33//26 34//26 36//26 35//26
f 6//27 33//27 35//27 13//27
f 5//28 34//28 33//28 6//28
f 13//29 35//29 36//29 12//29
f 37//30 38//30 40//30 39//30
f 4//31 38//31 37//31 5//31
f 12//32 39//32 40//32 11//32
f 11//33 40//33 38//33 4//33
f 41//34 42//34 44//34 43//34
f 4//35 41//35 43//35 11//35
f 3//36 42//36 41//36 4//36
f 11//37 43//37 44//37 10//37
