# Blender v2.75 (sub 0) OBJ File: 'fish-shadow.blend'
# www.blender.org
o Cone
v -0.124151 -0.010000 -0.189446
v 0.124151 -0.010000 0.000000
v -0.124151 -0.010000 0.008985
v 0.507581 -0.010000 -0.311000
v 0.009833 -0.010000 -0.000000
v 0.507581 -0.010000 0.000000
v 0.507581 -0.010000 0.311000
v 0.507581 -0.010000 0.000000
v 0.507581 -0.010000 -0.311000
v 0.507581 -0.010000 0.311000
v 0.826212 -0.010000 0.108232
v 0.826212 -0.010000 0.000000
v 0.826212 -0.010000 -0.108232
v -0.124151 -0.010000 0.189446
v -0.124151 -0.010000 0.189446
v -0.124151 -0.010000 0.189446
vn 0.000000 1.000000 0.000000
s off
f 3//1 2//1 1//1
f 6//1 5//1 7//1
f 4//1 5//1 6//1
f 13//1 4//1 6//1 12//1
f 12//1 8//1 7//1 11//1
f 3//1 14//1 2//1
l 8 9
l 10 8
l 9 13
l 3 15
l 2 16
