# Blender v2.76 (sub 0) OBJ File: 'fish.blend'
# www.blender.org
o Cone
v -0.417440 -0.000000 0.186425
v 0.225808 -0.256681 0.000000
v 0.225808 0.256681 0.000000
v 0.225808 -0.000000 0.311000
v 0.225808 -0.000000 -0.311000
v 0.544438 -0.108264 0.000000
v 0.544438 -0.000000 0.108232
v 0.544438 0.108264 0.000000
v 0.544438 -0.000000 -0.108232
v -0.417440 0.153864 0.000000
v -0.417440 -0.000000 -0.186425
v -0.417440 -0.153864 0.000000
v -0.310327 -0.039053 0.000000
v -0.310327 -0.000000 -0.047317
v -0.310327 0.039053 0.000000
v -0.310327 -0.000000 0.047317
vt 0.288533 0.866065
vt 0.330212 0.862054
vt 0.444429 0.965629
vt 0.280218 0.981434
vt 0.869818 0.265058
vt 0.957556 0.224426
vt 0.957556 0.308593
vt 0.869818 0.349226
vt 0.444429 0.611993
vt 0.712624 0.665789
vt 0.591655 0.980448
vt 0.494226 0.961806
vt 0.000000 0.333374
vt 0.100790 0.006566
vt 0.156305 0.010425
vt 0.170487 0.340875
vt 0.869818 0.721741
vt 0.642266 1.000000
vt 0.262595 0.864924
vt 0.444429 0.314508
vt 0.255457 0.000000
vt 0.774311 0.130113
vt 0.815116 0.138298
vt 0.178022 0.976938
vt 0.709052 0.000000
vt 0.869818 0.032247
vt 0.304274 0.860913
vt 0.342233 0.961133
vt 0.869818 0.138862
vt 0.869818 0.000000
vt 1.000000 0.085564
vt 1.000000 0.224426
vt 0.839032 0.146811
vn 0.637100 0.594400 -0.490600
vn 1.000000 -0.000000 0.000000
vn 0.359000 -0.704000 0.612800
vn 0.359000 0.704000 0.612800
vn 0.359000 -0.704000 -0.612800
vn -0.298800 0.736000 0.607500
vn 0.359000 0.704000 -0.612800
vn -0.298800 -0.736000 0.607500
vn 0.637100 0.594400 0.490600
vn 0.637200 -0.594400 0.490600
vn -0.637200 0.594400 0.490600
vn -1.000000 0.000000 0.000000
vn -0.298800 0.736000 -0.607500
vn -0.298800 -0.736000 -0.607500
s off
f 15/1/1 14/2/1 11/3/1 10/4/1
f 8/5/2 7/6/2 6/7/2 9/8/2
f 4/9/3 2/10/3 6/11/3 7/12/3
f 4/13/4 7/14/4 8/15/4 3/16/4
f 6/11/5 2/10/5 5/17/5 9/18/5
f 4/13/6 3/16/6 15/1/6 16/19/6
f 5/20/7 3/16/7 8/15/7 9/21/7
f 2/10/8 4/9/8 16/22/8 13/23/8
f 16/19/9 15/1/9 10/4/9 1/24/9
f 13/23/10 16/22/10 1/25/10 12/26/10
f 13/27/11 14/2/11 11/3/11 12/28/11
f 10/29/12 11/30/12 12/31/12 1/32/12
f 3/16/13 5/20/13 14/2/13 15/1/13
f 5/17/14 2/10/14 13/23/14 14/33/14
