# Blender v2.76 (sub 0) OBJ File: 'gate.blend'
# www.blender.org
o Cube.004
v 0.100000 2.400000 -1.499999
v 0.100000 2.400000 1.499999
v -0.100000 2.400000 1.499999
v -0.100000 2.400000 -1.500000
v 0.100000 2.500000 -1.499998
v 0.100000 2.500000 1.500000
v -0.100000 2.500000 1.499999
v -0.100000 2.500000 -1.499999
v 0.100000 2.400000 -1.333333
v 0.100000 2.400000 -1.166666
v 0.100000 2.400000 -0.999999
v 0.100000 2.400000 -0.833333
v 0.100000 2.400000 -0.666666
v 0.100000 2.400000 -0.500000
v 0.100000 2.400000 -0.333333
v 0.100000 2.400000 -0.166667
v 0.100000 2.400000 0.000000
v 0.100000 2.400000 0.166667
v 0.100000 2.400000 0.333333
v 0.100000 2.400000 0.500000
v 0.100000 2.400000 0.666666
v 0.100000 2.400000 0.833333
v 0.100000 2.400000 1.000000
v 0.100000 2.400000 1.166666
v 0.100000 2.400000 1.333333
v -0.100000 2.400000 1.333332
v -0.100000 2.400000 1.166666
v -0.100000 2.400000 0.999999
v -0.100000 2.400000 0.833333
v -0.100000 2.400000 0.666666
v -0.100000 2.400000 0.499999
v -0.100000 2.400000 0.333333
v -0.100000 2.400000 0.166666
v -0.100000 2.400000 -0.000000
v -0.100000 2.400000 -0.166667
v -0.100000 2.400000 -0.333334
v -0.100000 2.400000 -0.500000
v -0.100000 2.400000 -0.666667
v -0.100000 2.400000 -0.833333
v -0.100000 2.400000 -1.000000
v -0.100000 2.400000 -1.166667
v -0.100000 2.400000 -1.333333
v 0.100000 2.500000 -1.333332
v 0.100000 2.500000 -1.166665
v 0.100000 2.500000 -0.999999
v 0.100000 2.500000 -0.833332
v 0.100000 2.500000 -0.666666
v 0.100000 2.500000 -0.499999
v 0.100000 2.500000 -0.333332
v 0.100000 2.500000 -0.166666
v 0.100000 2.500000 0.000001
v 0.100000 2.500000 0.166667
v 0.100000 2.500000 0.333334
v 0.100000 2.500000 0.500001
v 0.100000 2.500000 0.666667
v 0.100000 2.500000 0.833334
v 0.100000 2.500000 1.000000
v 0.100000 2.500000 1.166667
v 0.100000 2.500000 1.333333
v -0.100000 2.500000 1.333332
v -0.100000 2.500000 1.166666
v -0.100000 2.500000 0.999999
v -0.100000 2.500000 0.833332
v -0.100000 2.500000 0.666666
v -0.100000 2.500000 0.499999
v -0.100000 2.500000 0.333333
v -0.100000 2.500000 0.166666
v -0.100000 2.500000 -0.000000
v -0.100000 2.500000 -0.166667
v -0.100000 2.500000 -0.333333
v -0.100000 2.500000 -0.500000
v -0.100000 2.500000 -0.666667
v -0.100000 2.500000 -0.833333
v -0.100000 2.500000 -1.000000
v -0.100000 2.500000 -1.166666
v -0.100000 2.500000 -1.333333
v -0.300000 2.400000 1.499999
v -0.300000 2.500000 1.499999
v -0.300000 2.400000 1.333332
v -0.300000 2.500000 1.333332
v 0.300000 2.400000 1.333333
v 0.300000 2.400000 1.499999
v 0.300000 2.400000 -1.499999
v 0.300000 2.500000 -1.499998
v 0.300000 2.500000 1.500000
v 0.300000 2.500000 1.333333
v 0.300000 2.400000 -1.333333
v 0.300000 2.500000 -1.333332
v -0.300000 2.400000 -1.333333
v -0.300000 2.400000 -1.500000
v -0.300000 2.500000 -1.499999
v -0.300000 2.500000 -1.333333
v 0.100000 0.400000 1.333333
v 0.100000 0.400000 1.499999
v -0.100000 0.400000 -1.333335
v -0.100000 0.400000 -1.500000
v 0.100000 0.400000 -1.499999
v 0.100000 0.400000 -1.333334
v -0.100000 0.400000 1.499999
v -0.100000 0.400000 1.333332
v -0.300000 0.400000 1.499999
v -0.300000 0.400000 1.333332
v 0.300000 0.400000 1.333333
v 0.300000 0.400000 1.499999
v 0.300000 0.400000 -1.499999
v 0.300000 0.400000 -1.333334
v -0.300000 0.400000 -1.333333
v -0.300000 0.400000 -1.500000
v 0.100000 0.200000 1.333333
v 0.100000 0.200000 1.499999
v -0.100000 0.200000 -1.333335
v -0.100000 0.200000 -1.500000
v 0.100000 0.200000 -1.499999
v 0.100000 0.200000 -1.333334
v -0.100000 0.200000 1.499999
v -0.100000 0.200000 1.333332
v -0.300000 0.200000 1.499999
v -0.300000 0.200000 1.333332
v 0.300000 0.200000 1.333333
v 0.300000 0.200000 1.499999
v 0.300000 0.200000 -1.499999
v 0.300000 0.200000 -1.333334
v -0.300000 0.200000 -1.333333
v -0.300000 0.200000 -1.500000
v 0.099999 0.400000 -0.753334
v 0.099999 0.200000 -0.753334
v -0.100001 0.200000 -0.753335
v -0.100001 0.400000 -0.753335
v -0.099999 0.200000 0.753332
v -0.099999 0.400000 0.753332
v 0.100001 0.200000 0.753333
v 0.100001 0.400000 0.753333
v -0.000000 2.673926 1.333333
v 0.000000 2.673926 -1.333332
v 0.000000 2.673926 -0.749999
v -0.000000 2.673926 -0.250000
v -0.000000 2.673926 0.250000
v -0.000000 2.673926 0.750000
vt 0.532697 0.601920
vt 0.532697 0.636592
vt 0.490215 0.636592
vt 0.490215 0.601920
vt 0.951854 0.645626
vt 0.987255 0.645626
vt 0.987255 0.687233
vt 0.951854 0.687233
vt 0.250644 0.468223
vt 0.250644 0.488939
vt 0.208162 0.488939
vt 0.208162 0.468223
vt 0.987255 0.620661
vt 0.951854 0.620661
vt 0.951854 0.579054
vt 0.987255 0.579054
vt 0.055227 0.488939
vt 0.055227 0.468223
vt 0.097709 0.468223
vt 0.097709 0.488939
vt 0.890963 0.512482
vt 0.926364 0.512482
vt 0.926364 0.925557
vt 0.890963 0.925557
vt 0.318615 0.047155
vt 0.339703 0.047155
vt 0.339703 0.081828
vt 0.318615 0.081828
vt 0.339703 0.116501
vt 0.318615 0.116501
vt 0.339703 0.151173
vt 0.318615 0.151173
vt 0.339703 0.185846
vt 0.318615 0.185846
vt 0.339703 0.220519
vt 0.318615 0.220519
vt 0.339703 0.255192
vt 0.318615 0.255192
vt 0.339703 0.289864
vt 0.318615 0.289864
vt 0.339703 0.324537
vt 0.318615 0.324537
vt 0.339703 0.359210
vt 0.318615 0.359210
vt 0.339703 0.393883
vt 0.318615 0.393883
vt 0.339703 0.428556
vt 0.318615 0.428556
vt 0.339703 0.463228
vt 0.318615 0.463228
vt 0.339703 0.497901
vt 0.318615 0.497901
vt 0.339703 0.532574
vt 0.318615 0.532574
vt 0.339703 0.567247
vt 0.318615 0.567247
vt 0.339703 0.601919
vt 0.318615 0.601920
vt 0.293126 0.468223
vt 0.293126 0.488939
vt 0.404415 0.047155
vt 0.425503 0.047155
vt 0.425503 0.081828
vt 0.404415 0.081828
vt 0.425503 0.116501
vt 0.404415 0.116500
vt 0.425503 0.151173
vt 0.404415 0.151173
vt 0.425503 0.185846
vt 0.404415 0.185846
vt 0.425503 0.220519
vt 0.404415 0.220519
vt 0.425503 0.255192
vt 0.404415 0.255192
vt 0.425503 0.289864
vt 0.404415 0.289864
vt 0.425503 0.324537
vt 0.404415 0.324537
vt 0.425503 0.359210
vt 0.404415 0.359210
vt 0.425503 0.393883
vt 0.404415 0.393883
vt 0.425503 0.428556
vt 0.404415 0.428555
vt 0.425503 0.463228
vt 0.404415 0.463228
vt 0.425503 0.497901
vt 0.404415 0.497901
vt 0.425503 0.532574
vt 0.404415 0.532574
vt 0.425503 0.567247
vt 0.404415 0.567247
vt 0.425503 0.601919
vt 0.404415 0.601919
vt 0.490215 0.807183
vt 0.532697 0.807183
vt 0.532697 0.841855
vt 0.490215 0.841856
vt 0.532697 0.876528
vt 0.490215 0.876528
vt 0.386586 0.807183
vt 0.429068 0.807182
vt 0.429068 0.841855
vt 0.386586 0.841855
vt 0.429068 0.876528
vt 0.386586 0.876528
vt 0.233651 0.733420
vt 0.276133 0.733420
vt 0.276133 0.768093
vt 0.233651 0.768093
vt 0.276133 0.802766
vt 0.233651 0.802766
vt 0.165680 0.733420
vt 0.208162 0.733420
vt 0.208162 0.768093
vt 0.165680 0.768093
vt 0.208162 0.802766
vt 0.165680 0.802766
vt 0.080410 0.733421
vt 0.122892 0.733420
vt 0.122892 0.768093
vt 0.080410 0.768093
vt 0.122892 0.802766
vt 0.080410 0.802766
vt 0.532697 0.012482
vt 0.532697 0.047155
vt 0.490215 0.047155
vt 0.490215 0.012482
vt 0.532697 0.081828
vt 0.490215 0.081828
vt 0.532697 0.116501
vt 0.490215 0.116501
vt 0.532697 0.151173
vt 0.490215 0.151173
vt 0.532697 0.185846
vt 0.490215 0.185846
vt 0.532697 0.220519
vt 0.490215 0.220519
vt 0.532697 0.255192
vt 0.490215 0.255192
vt 0.532697 0.289865
vt 0.490215 0.289864
vt 0.532697 0.324537
vt 0.490215 0.324537
vt 0.532697 0.359210
vt 0.490215 0.359210
vt 0.532697 0.393883
vt 0.490215 0.393883
vt 0.532697 0.428556
vt 0.490215 0.428556
vt 0.532697 0.463228
vt 0.490215 0.463228
vt 0.532697 0.497901
vt 0.490215 0.497901
vt 0.532697 0.532574
vt 0.490215 0.532574
vt 0.532697 0.567247
vt 0.490215 0.567247
vt 0.830072 0.033136
vt 0.830072 0.012482
vt 0.865473 0.012482
vt 0.865473 0.033136
vt 0.558187 0.488939
vt 0.558187 0.468223
vt 0.600669 0.468223
vt 0.600669 0.488939
vt 0.987255 0.554090
vt 0.951854 0.554090
vt 0.951854 0.512482
vt 0.987255 0.512482
vt 0.165680 0.488939
vt 0.165680 0.468223
vt 0.926364 0.466864
vt 0.926364 0.487518
vt 0.890963 0.487518
vt 0.890963 0.466864
vt 0.987255 0.466864
vt 0.987255 0.487518
vt 0.951854 0.487518
vt 0.951854 0.466864
vt 0.012745 0.488939
vt 0.012745 0.468223
vt 0.668640 0.468223
vt 0.626158 0.468223
vt 0.626158 0.053913
vt 0.668640 0.053913
vt 0.626158 0.488939
vt 0.668640 0.488939
vt 0.762100 0.033198
vt 0.762100 0.012482
vt 0.804582 0.012482
vt 0.804582 0.033198
vt 0.558187 0.513903
vt 0.593588 0.513903
vt 0.593588 0.926978
vt 0.558187 0.926978
vt 0.318615 0.909812
vt 0.354017 0.909812
vt 0.354017 0.951419
vt 0.318615 0.951419
vt 0.830072 0.533136
vt 0.830072 0.512482
vt 0.865473 0.512482
vt 0.865473 0.533136
vt 0.140191 0.468223
vt 0.140191 0.488939
vt 0.804582 0.447508
vt 0.762100 0.447508
vt 0.736611 0.468223
vt 0.736611 0.488939
vt 0.694129 0.488939
vt 0.694129 0.468223
vt 0.830072 0.446210
vt 0.865474 0.446210
vt 0.865474 0.487518
vt 0.830072 0.487518
vt 0.804582 0.488939
vt 0.762100 0.488939
vt 0.208162 0.053913
vt 0.208162 0.012482
vt 0.250644 0.012482
vt 0.250644 0.053913
vt 0.055227 0.053913
vt 0.012745 0.053913
vt 0.012745 0.012482
vt 0.055227 0.012482
vt 0.097709 0.053913
vt 0.140191 0.053913
vt 0.890963 0.053790
vt 0.926364 0.053790
vt 0.293126 0.053913
vt 0.694129 0.053913
vt 0.736611 0.053913
vt 0.865473 0.946210
vt 0.830072 0.946210
vt 0.165680 0.053913
vt 0.951854 0.053790
vt 0.987255 0.053790
vt 0.729531 0.926978
vt 0.694129 0.926978
vt 0.694129 0.513903
vt 0.729531 0.513903
vt 0.558187 0.053913
vt 0.600669 0.053913
vt 0.668640 0.926978
vt 0.633238 0.926978
vt 0.633239 0.513903
vt 0.668640 0.513903
vt 0.055227 0.673783
vt 0.055227 0.708456
vt 0.012745 0.708456
vt 0.012745 0.673783
vt 0.097709 0.708456
vt 0.097709 0.673783
vt 0.140191 0.673783
vt 0.140191 0.708456
vt 0.208162 0.673783
vt 0.208162 0.708456
vt 0.165680 0.708456
vt 0.165680 0.673783
vt 0.250644 0.708456
vt 0.250644 0.673783
vt 0.293126 0.673783
vt 0.293126 0.708456
vt 0.626158 0.012482
vt 0.668640 0.012482
vt 0.165680 0.012482
vt 0.865473 0.987518
vt 0.830072 0.987518
vt 0.558187 0.012482
vt 0.600669 0.012482
vt 0.097709 0.012482
vt 0.140191 0.012482
vt 0.890963 0.012482
vt 0.926364 0.012482
vt 0.694129 0.012482
vt 0.736611 0.012482
vt 0.951854 0.012482
vt 0.987255 0.012482
vt 0.361097 0.696229
vt 0.318615 0.696229
vt 0.318615 0.661557
vt 0.361097 0.661557
vt 0.293126 0.012482
vt 0.797502 0.548576
vt 0.755020 0.548576
vt 0.755020 0.513903
vt 0.797502 0.513903
vt 0.532697 0.782218
vt 0.490522 0.782218
vt 0.490522 0.661557
vt 0.532697 0.661557
vt 0.054920 0.854082
vt 0.012745 0.854082
vt 0.012745 0.733420
vt 0.054920 0.733420
vt 0.165680 0.869338
vt 0.165680 0.827730
vt 0.207982 0.827730
vt 0.207982 0.869338
vt 0.361097 0.816890
vt 0.318615 0.816890
vt 0.208162 0.553122
vt 0.250644 0.553122
vt 0.755020 0.694202
vt 0.797196 0.694202
vt 0.797196 0.814863
vt 0.755020 0.814863
vt 0.122711 0.827731
vt 0.122711 0.869338
vt 0.080410 0.869338
vt 0.080410 0.827731
vt 0.055227 0.553122
vt 0.097709 0.553122
vt 0.428762 0.782218
vt 0.386586 0.782218
vt 0.386586 0.661557
vt 0.428762 0.661557
vt 0.797502 0.669237
vt 0.755020 0.669237
vt 0.528630 0.901493
vt 0.528630 0.943100
vt 0.490215 0.922296
vt 0.464726 0.480565
vt 0.270828 0.940082
vt 0.233651 0.919949
vt 0.270828 0.897090
vt 0.117587 0.937295
vt 0.080410 0.917162
vt 0.117587 0.894302
vt 0.464726 0.168510
vt 0.202857 0.937295
vt 0.165680 0.917161
vt 0.202857 0.894302
vt 0.012745 0.899180
vt 0.049922 0.879046
vt 0.049922 0.922039
vt 0.378926 0.376546
vt 0.386586 0.921626
vt 0.423764 0.901493
vt 0.423764 0.944485
vt 0.464726 0.272528
vt 0.318615 0.861988
vt 0.355792 0.841855
vt 0.355792 0.884848
vt 0.378926 0.272528
vt 0.464726 0.376546
vt 0.378926 0.480565
vt 0.793435 0.909187
vt 0.793435 0.950794
vt 0.755020 0.929990
vt 0.378926 0.168510
vt 0.339703 0.012482
vt 0.378926 0.047155
vt 0.464726 0.601919
vt 0.233651 0.847228
vt 0.271180 0.827730
vt 0.271180 0.872125
vt 0.425503 0.636592
vt 0.229403 0.528157
vt 0.076468 0.528157
vt 0.755020 0.859325
vt 0.792549 0.839827
vt 0.792549 0.884222
vt 0.464726 0.047155
vt 0.339703 0.636592
vt 0.378926 0.601919
vt 0.425503 0.012482
vn 0.000000 -1.000000 0.000000
vn 0.000000 1.000000 0.000000
vn -0.000000 -0.000000 1.000000
vn 0.000000 0.000000 -1.000000
vn -1.000000 -0.000000 0.000000
vn 1.000000 -0.000000 0.000000
vn -0.000000 0.432100 0.901800
vn 0.866900 0.498400 0.000000
vn 0.000000 0.432100 -0.901800
vn -0.866900 0.498400 0.000000
vn 0.000000 0.691900 -0.722000
vn -0.000000 0.691900 0.722000
s off
f 25/1/1 2/2/1 3/3/1 26/4/1
f 5/5/2 43/6/2 88/7/2 84/8/2
f 2/9/3 6/10/3 7/11/3 3/12/3
f 76/13/2 8/14/2 91/15/2 92/16/2
f 5/17/4 1/18/4 4/19/4 8/20/4
f 2/21/5 25/22/5 93/23/5 94/24/5
f 26/25/5 60/26/5 61/27/5 27/28/5
f 27/28/5 61/27/5 62/29/5 28/30/5
f 28/30/5 62/29/5 63/31/5 29/32/5
f 29/32/5 63/31/5 64/33/5 30/34/5
f 30/34/5 64/33/5 65/35/5 31/36/5
f 31/36/5 65/35/5 66/37/5 32/38/5
f 32/38/5 66/37/5 67/39/5 33/40/5
f 33/40/5 67/39/5 68/41/5 34/42/5
f 34/42/5 68/41/5 69/43/5 35/44/5
f 35/44/5 69/43/5 70/45/5 36/46/5
f 36/46/5 70/45/5 71/47/5 37/48/5
f 37/48/5 71/47/5 72/49/5 38/50/5
f 38/50/5 72/49/5 73/51/5 39/52/5
f 39/52/5 73/51/5 74/53/5 40/54/5
f 40/54/5 74/53/5 75/55/5 41/56/5
f 41/56/5 75/55/5 76/57/5 42/58/5
f 6/10/3 2/9/3 82/59/3 85/60/3
f 9/61/6 43/62/6 44/63/6 10/64/6
f 10/64/6 44/63/6 45/65/6 11/66/6
f 11/66/6 45/65/6 46/67/6 12/68/6
f 12/68/6 46/67/6 47/69/6 13/70/6
f 13/70/6 47/69/6 48/71/6 14/72/6
f 14/72/6 48/71/6 49/73/6 15/74/6
f 15/74/6 49/73/6 50/75/6 16/76/6
f 16/76/6 50/75/6 51/77/6 17/78/6
f 17/78/6 51/77/6 52/79/6 18/80/6
f 18/80/6 52/79/6 53/81/6 19/82/6
f 19/82/6 53/81/6 54/83/6 20/84/6
f 20/84/6 54/83/6 55/85/6 21/86/6
f 21/86/6 55/85/6 56/87/6 22/88/6
f 22/88/6 56/87/6 57/89/6 23/90/6
f 23/90/6 57/89/6 58/91/6 24/92/6
f 24/92/6 58/91/6 59/93/6 25/94/6
f 44/95/2 75/96/2 74/97/2 45/98/2
f 45/98/2 74/97/2 73/99/2 46/100/2
f 47/101/2 72/102/2 71/103/2 48/104/2
f 48/104/2 71/103/2 70/105/2 49/106/2
f 50/107/2 69/108/2 68/109/2 51/110/2
f 51/110/2 68/109/2 67/111/2 52/112/2
f 53/113/2 66/114/2 65/115/2 54/116/2
f 54/116/2 65/115/2 64/117/2 55/118/2
f 56/119/2 63/120/2 62/121/2 57/122/2
f 57/122/2 62/121/2 61/123/2 58/124/2
f 1/125/1 9/126/1 42/127/1 4/128/1
f 9/126/1 10/129/1 41/130/1 42/127/1
f 10/129/1 11/131/1 40/132/1 41/130/1
f 11/131/1 12/133/1 39/134/1 40/132/1
f 12/133/1 13/135/1 38/136/1 39/134/1
f 13/135/1 14/137/1 37/138/1 38/136/1
f 14/137/1 15/139/1 36/140/1 37/138/1
f 15/139/1 16/141/1 35/142/1 36/140/1
f 16/141/1 17/143/1 34/144/1 35/142/1
f 17/143/1 18/145/1 33/146/1 34/144/1
f 18/145/1 19/147/1 32/148/1 33/146/1
f 19/147/1 20/149/1 31/150/1 32/148/1
f 20/149/1 21/151/1 30/152/1 31/150/1
f 21/151/1 22/153/1 29/154/1 30/152/1
f 22/153/1 23/155/1 28/156/1 29/154/1
f 23/155/1 24/157/1 27/158/1 28/156/1
f 24/157/1 25/1/1 26/4/1 27/158/1
f 77/159/5 78/160/5 80/161/5 79/162/5
f 60/163/4 26/164/4 79/165/4 80/166/4
f 7/167/2 60/168/2 80/169/2 78/170/2
f 3/12/3 7/11/3 78/171/3 77/172/3
f 81/173/6 86/174/6 85/175/6 82/176/6
f 83/177/6 84/178/6 88/179/6 87/180/6
f 1/18/4 5/17/4 84/181/4 83/182/4
f 87/183/3 9/184/3 98/185/3 106/186/3
f 43/187/3 9/184/3 87/183/3 88/188/3
f 25/189/4 59/190/4 86/191/4 81/192/4
f 26/193/6 3/194/6 99/195/6 100/196/6
f 59/197/2 6/198/2 85/199/2 86/200/2
f 89/201/5 92/202/5 91/203/5 90/204/5
f 8/20/4 4/19/4 90/205/4 91/206/4
f 25/189/4 81/192/4 103/207/4 93/208/4
f 42/209/3 76/210/3 92/211/3 89/212/3
f 101/213/5 102/214/5 118/215/5 117/216/5
f 93/208/4 103/207/4 119/217/4 109/218/4
f 99/219/3 115/220/3 110/221/3 94/222/3
f 97/223/4 105/224/4 121/225/4 113/226/4
f 90/205/4 4/19/4 96/227/4 108/228/4
f 81/173/6 82/176/6 104/229/6 103/230/6
f 77/159/5 79/162/5 102/214/5 101/213/5
f 82/59/3 2/9/3 94/222/3 104/231/3
f 42/209/3 89/212/3 107/232/3 95/233/3
f 89/201/5 90/204/5 108/234/5 107/235/5
f 3/12/3 77/172/3 101/236/3 99/219/3
f 83/177/6 87/180/6 106/237/6 105/238/6
f 9/239/5 1/240/5 97/241/5 98/242/5
f 79/165/4 26/164/4 100/243/4 102/244/4
f 4/245/6 42/246/6 95/247/6 96/248/6
f 1/18/4 83/182/4 105/224/4 97/223/4
f 116/249/1 115/250/1 117/251/1 118/252/1
f 110/253/1 109/254/1 119/255/1 120/256/1
f 114/257/1 113/258/1 121/259/1 122/260/1
f 112/261/1 111/262/1 123/263/1 124/264/1
f 106/186/3 98/185/3 114/265/3 122/266/3
f 99/219/3 101/236/3 117/267/3 115/220/3
f 107/235/5 108/234/5 124/268/5 123/269/5
f 102/244/4 100/243/4 116/270/4 118/271/4
f 108/228/4 96/227/4 112/272/4 124/273/4
f 103/230/6 104/229/6 120/274/6 119/275/6
f 109/254/1 110/253/1 115/250/1 116/249/1
f 95/233/3 107/232/3 123/276/3 111/277/3
f 105/238/6 106/237/6 122/278/6 121/279/6
f 95/280/2 98/281/2 97/282/2 96/283/2
f 104/231/3 94/222/3 110/221/3 120/284/3
f 111/262/1 112/261/1 113/258/1 114/257/1
f 93/285/2 100/286/2 99/287/2 94/288/2
f 93/289/6 109/290/6 131/291/6 132/292/6
f 113/226/4 112/272/4 96/227/4 97/223/4
f 95/293/5 111/294/5 127/295/5 128/296/5
f 125/297/3 128/298/3 127/299/3 126/300/3
f 98/281/2 95/280/2 128/301/2 125/302/2
f 111/262/1 114/257/1 126/303/1 127/304/1
f 114/305/6 98/306/6 125/307/6 126/308/6
f 130/309/4 132/310/4 131/311/4 129/312/4
f 109/254/1 116/249/1 129/313/1 131/314/1
f 116/315/5 100/316/5 130/317/5 129/318/5
f 100/286/2 93/285/2 132/319/2 130/320/2
f 63/321/7 56/322/7 138/323/7
f 56/87/8 55/85/8 138/324/8
f 55/325/9 64/326/9 138/327/9
f 72/328/7 47/329/7 135/330/7
f 47/69/8 46/67/8 135/331/8
f 66/332/7 53/333/7 137/334/7
f 46/335/9 73/336/9 135/337/9
f 70/45/10 69/43/10 136/338/10
f 69/339/7 50/340/7 136/341/7
f 50/75/8 49/73/8 136/342/8
f 49/343/9 70/344/9 136/345/9
f 67/39/10 66/37/10 137/346/10
f 53/81/8 52/79/8 137/347/8
f 73/51/10 72/49/10 135/348/10
f 52/349/9 67/350/9 137/351/9
f 64/33/10 63/31/10 138/352/10
f 60/26/10 7/353/10 133/354/10
f 59/93/8 58/91/8 133/355/8
f 58/356/11 61/357/11 133/358/11
f 6/359/8 59/93/8 133/355/8
f 7/11/12 6/10/12 133/360/12
f 61/27/10 60/26/10 133/354/10
f 5/17/11 8/20/11 134/361/11
f 75/362/12 44/363/12 134/364/12
f 44/63/8 43/62/8 134/365/8
f 8/366/10 76/57/10 134/367/10
f 76/57/10 75/55/10 134/367/10
f 43/62/8 5/368/8 134/365/8
