# Blender v2.76 (sub 0) OBJ File: 'gate-door.blend'
# www.blender.org
o Cube.002
v 0.100000 0.900000 -0.375000
v 0.100000 0.900000 0.375000
v -0.100000 0.900000 0.375000
v -0.100000 0.900000 -0.375000
v 0.100000 1.900000 -0.375000
v 0.100000 1.900000 0.375000
v -0.100000 1.900000 0.375000
v -0.100000 1.900000 -0.375000
v -0.100000 0.400000 0.750000
v -0.100000 0.400000 -0.750000
v -0.100000 2.400000 0.749999
v -0.100000 2.400000 -0.750000
v 0.100000 0.400000 -0.750000
v 0.100000 0.400000 0.750000
v 0.100000 2.400000 -0.749999
v 0.100000 2.400000 0.750000
v -0.100000 0.550000 0.637500
v -0.100000 0.550000 -0.637500
v -0.100000 2.250000 0.637500
v -0.100000 2.250000 -0.637500
v 0.100000 0.550000 -0.637500
v 0.100000 0.550000 0.637500
v 0.100000 2.250000 -0.637499
v 0.100000 2.250000 0.637500
v -0.050000 0.650000 0.562500
v -0.050000 0.650000 -0.562500
v -0.050000 2.150000 0.562500
v -0.050000 2.150000 -0.562500
v 0.050000 0.650000 -0.562500
v 0.050000 0.650000 0.562500
v 0.050000 2.150000 -0.562499
v 0.050000 2.150000 0.562500
vt 0.027778 0.694444
vt 0.305556 0.694444
vt 0.305556 0.972222
vt 0.027778 0.972222
vt 0.638889 0.027778
vt 0.638889 0.305556
vt 0.361111 0.305556
vt 0.361111 0.027778
vt 0.951389 0.618056
vt 0.951389 0.381944
vt 0.972222 0.361111
vt 0.972222 0.638889
vt 0.715278 0.381945
vt 0.715278 0.618056
vt 0.694444 0.638889
vt 0.694444 0.361111
vt 0.284722 0.618056
vt 0.284722 0.381944
vt 0.305556 0.361111
vt 0.305556 0.638889
vt 0.048611 0.381945
vt 0.048611 0.618056
vt 0.027778 0.638889
vt 0.027778 0.361111
vt 0.937500 0.604167
vt 0.937500 0.395833
vt 0.729167 0.395833
vt 0.729167 0.604167
vt 0.270833 0.604167
vt 0.270833 0.395833
vt 0.062500 0.395833
vt 0.062500 0.604167
vt 0.902778 0.569444
vt 0.902778 0.430556
vt 0.763889 0.430556
vt 0.763889 0.569444
vt 0.236111 0.569444
vt 0.236111 0.430556
vt 0.097222 0.430556
vt 0.097222 0.569444
vn 0.000000 -1.000000 0.000000
vn 0.000000 1.000000 0.000000
vn -1.000000 0.000000 -0.000000
vn 1.000000 0.000000 -0.000000
vn -0.894400 0.447200 -0.000000
vn -0.894400 -0.447200 -0.000000
vn 0.894400 0.447200 -0.000000
vn 0.894400 -0.447200 0.000000
vn -0.980600 -0.196100 -0.000000
vn -0.980600 0.196100 -0.000000
vn 0.980600 -0.196100 -0.000000
vn 0.980600 0.196100 0.000000
vn 0.966200 -0.000000 0.257700
vn 0.966200 0.000000 -0.257700
vn -0.966200 0.000000 -0.257700
vn -0.966200 0.000000 0.257700
vn 0.832100 0.000000 -0.554700
vn 0.832100 -0.000000 0.554700
vn -0.832100 -0.000000 0.554700
vn -0.832100 -0.000000 -0.554700
vn 0.000000 0.000000 -1.000000
vn -0.000000 -0.000000 1.000000
s off
f 13/1/1 14/2/1 9/3/1 10/4/1
f 15/5/2 12/6/2 11/7/2 16/8/2
f 17/9/3 18/10/3 10/11/3 9/12/3
f 20/13/3 19/14/3 11/15/3 12/16/3
f 21/17/4 22/18/4 14/19/4 13/20/4
f 24/21/4 23/22/4 15/23/4 16/24/4
f 25/25/5 26/26/5 18/10/5 17/9/5
f 28/27/6 27/28/6 19/14/6 20/13/6
f 29/29/7 30/30/7 22/18/7 21/17/7
f 32/31/8 31/32/8 23/22/8 24/21/8
f 3/33/9 4/34/9 26/26/9 25/25/9
f 8/35/10 7/36/10 27/28/10 28/27/10
f 1/37/11 2/38/11 30/30/11 29/29/11
f 6/39/12 5/40/12 31/32/12 32/31/12
f 2/38/13 6/39/13 32/31/13 30/30/13
f 5/40/14 1/37/14 29/29/14 31/32/14
f 4/34/15 8/35/15 28/27/15 26/26/15
f 7/36/16 3/33/16 25/25/16 27/28/16
f 30/30/17 32/31/17 24/21/17 22/18/17
f 31/32/18 29/29/18 21/17/18 23/22/18
f 26/26/19 28/27/19 20/13/19 18/10/19
f 27/28/20 25/25/20 17/9/20 19/14/20
f 22/18/4 24/21/4 16/24/4 14/19/4
f 23/22/4 21/17/4 13/20/4 15/23/4
f 18/10/3 20/13/3 12/16/3 10/11/3
f 19/14/3 17/9/3 9/12/3 11/15/3
f 3/33/3 7/36/3 8/35/3 4/34/3
f 1/37/4 5/40/4 6/39/4 2/38/4
f 10/16/21 12/5/21 15/20/21 13/4/21
f 9/12/22 14/2/22 16/24/22 11/7/22
