# Blender v2.76 (sub 0) OBJ File: 'plate-trap-spike-platform.blend'
# www.blender.org
o Cube
v 0.562500 0.200000 0.000000
v -0.000000 0.200000 0.562500
v -0.562500 0.200000 -0.000000
v 0.000000 0.200000 -0.562500
v 0.187500 0.200000 0.375000
v 0.187500 0.200000 -0.375000
v -0.187500 0.200000 -0.375000
v -0.187500 0.200000 0.375000
v -0.187500 0.200000 0.187500
v -0.187500 0.200000 0.562500
v -0.187500 0.200000 -0.562500
v -0.187500 0.200000 -0.187500
v 0.187500 0.200000 -0.562500
v 0.187500 0.200000 0.187500
v 0.187500 0.200000 0.562500
v 0.187500 0.200000 -0.187500
v 0.375000 0.200000 -0.093750
v -0.375000 0.200000 -0.093750
v 0.093750 0.400000 -0.093750
v -0.093750 0.400000 0.093750
v -0.093750 0.400000 -0.093750
v 0.093750 0.400000 0.093750
v -0.187500 0.400000 -0.187500
v 0.187500 0.400000 -0.187500
v 0.093750 0.400000 -0.187500
v 0.375000 0.200000 0.093750
v 0.187500 0.400000 -0.093750
v 0.093750 0.400000 0.187500
v -0.375000 0.200000 0.093750
v -0.562500 0.200000 0.093750
v -0.187500 0.200000 0.281250
v -0.187500 0.200000 0.093750
v 0.187500 0.400000 0.187500
v -0.187500 0.200000 0.468750
v -0.093750 0.200000 0.562500
v -0.187500 0.200000 -0.468750
v -0.093750 0.200000 -0.562500
v -0.187500 0.200000 -0.093750
v -0.187500 0.200000 -0.281250
v 0.187500 0.400000 0.093750
v 0.187500 0.200000 -0.468750
v 0.093750 0.200000 -0.562500
v 0.562500 0.200000 -0.093750
v 0.187500 0.200000 0.281250
v 0.187500 0.200000 0.093750
v 0.000000 0.400000 -0.187500
v 0.187500 0.200000 0.468750
v 0.093750 0.200000 0.562500
v 0.187500 0.200000 -0.093750
v 0.187500 0.200000 -0.281250
v -0.093750 0.400000 -0.187500
v -0.562500 0.200000 -0.093750
v 0.562500 0.200000 0.093750
v 0.468750 0.200000 0.093750
v -0.468750 0.200000 -0.093750
v -0.187500 0.400000 -0.000000
v 0.281250 0.200000 -0.093750
v -0.187500 0.400000 -0.093750
v -0.093750 0.400000 0.187500
v 0.281250 0.200000 0.093750
v -0.187500 0.400000 0.187500
v -0.187500 0.400000 0.093750
v -0.000000 0.400000 0.187500
v -0.000000 0.400000 0.093750
v -0.281250 0.200000 0.093750
v 0.187500 0.400000 0.000000
v 0.093750 0.400000 0.000000
v -0.468750 0.200000 0.093750
v -0.281250 0.200000 -0.093750
v 0.000000 0.400000 -0.093750
v 0.468750 0.200000 -0.093750
v 0.000000 0.400000 0.000000
v -0.093750 0.400000 -0.000000
v -0.468750 0.300000 -0.000000
v -0.375000 0.300000 -0.000000
v 0.281250 0.300000 0.000000
v 0.375000 0.300000 0.000000
v 0.000000 0.300000 -0.468750
v 0.000000 0.300000 -0.375000
v -0.000000 0.300000 0.281250
v -0.000000 0.300000 0.375000
v 0.375000 0.300000 -0.093750
v -0.375000 0.300000 -0.093750
v -0.093750 0.300000 -0.375000
v -0.093750 0.300000 0.375000
v -0.281250 0.300000 -0.000000
v -0.187500 0.300000 -0.000000
v 0.468750 0.300000 0.000000
v 0.562500 0.300000 0.000000
v 0.000000 0.300000 -0.281250
v 0.000000 0.300000 -0.187500
v -0.000000 0.300000 0.468750
v -0.000000 0.300000 0.562500
v 0.187500 0.300000 0.000000
v -0.000000 0.300000 0.187500
v 0.093750 0.300000 0.375000
v 0.187500 0.300000 0.375000
v 0.093750 0.300000 -0.375000
v 0.187500 0.300000 -0.375000
v -0.187500 0.300000 0.281250
v -0.187500 0.300000 0.375000
v -0.187500 0.300000 0.093750
v -0.187500 0.300000 0.187500
v -0.093750 0.300000 0.187500
v -0.187500 0.300000 0.468750
v -0.187500 0.300000 0.562500
v -0.093750 0.300000 0.562500
v -0.187500 0.300000 -0.468750
v -0.187500 0.300000 -0.375000
v -0.093750 0.300000 -0.562500
v 0.000000 0.300000 -0.562500
v -0.187500 0.300000 -0.093750
v -0.187500 0.300000 -0.281250
v -0.187500 0.300000 -0.187500
v -0.093750 0.300000 -0.187500
v 0.187500 0.300000 -0.468750
v 0.093750 0.300000 -0.562500
v 0.187500 0.300000 -0.562500
v 0.562500 0.300000 -0.093750
v 0.187500 0.300000 0.281250
v 0.187500 0.300000 0.093750
v 0.187500 0.300000 0.187500
v 0.093750 0.300000 0.187500
v 0.187500 0.300000 0.468750
v 0.187500 0.300000 0.562500
v 0.093750 0.300000 0.562500
v 0.187500 0.300000 -0.093750
v 0.187500 0.300000 -0.281250
v 0.187500 0.300000 -0.187500
v 0.093750 0.300000 -0.187500
v -0.562500 0.300000 -0.093750
v -0.562500 0.300000 -0.000000
v 0.375000 0.300000 0.093750
v -0.375000 0.300000 0.093750
v -0.562500 0.300000 0.093750
v -0.187500 0.300000 -0.562500
v 0.562500 0.300000 0.093750
v 0.468750 0.300000 0.093750
v -0.468750 0.300000 -0.093750
v 0.093750 0.300000 -0.281250
v 0.281250 0.300000 -0.093750
v 0.093750 0.300000 0.468750
v 0.281250 0.300000 0.093750
v -0.093750 0.300000 -0.281250
v -0.093750 0.300000 -0.468750
v -0.093750 0.300000 0.468750
v -0.281250 0.300000 0.093750
v -0.093750 0.300000 0.281250
v -0.468750 0.300000 0.093750
v -0.281250 0.300000 -0.093750
v 0.093750 0.300000 -0.468750
v 0.468750 0.300000 -0.093750
v 0.093750 0.300000 0.281250
vt 0.204225 0.634681
vt 0.204225 0.680576
vt 0.156951 0.680576
vt 0.156951 0.634681
vt 0.204225 0.588787
vt 0.156951 0.588787
vt 0.109676 0.634681
vt 0.109676 0.588787
vt 0.109676 0.726470
vt 0.109676 0.772364
vt 0.062402 0.772364
vt 0.062402 0.726470
vt 0.109676 0.680576
vt 0.062402 0.680576
vt 0.015128 0.726470
vt 0.015128 0.680576
vt 0.204225 0.726470
vt 0.204225 0.772364
vt 0.156951 0.772364
vt 0.156951 0.726470
vt 0.062402 0.634681
vt 0.062402 0.588787
vt 0.015128 0.634681
vt 0.015128 0.588787
vt 0.015128 0.772364
vt 0.779387 0.473629
vt 0.779387 0.519523
vt 0.728961 0.519523
vt 0.728961 0.473629
vt 0.942010 0.594790
vt 0.942010 0.640684
vt 0.891584 0.640684
vt 0.891584 0.594790
vt 0.065554 0.847631
vt 0.065554 0.893525
vt 0.015128 0.893525
vt 0.015128 0.847631
vt 0.809642 0.486479
vt 0.809642 0.440585
vt 0.860068 0.440585
vt 0.860068 0.486479
vt 0.146235 0.801737
vt 0.146235 0.847631
vt 0.095809 0.847631
vt 0.095809 0.801737
vt 0.779387 0.335946
vt 0.779387 0.381840
vt 0.728961 0.381840
vt 0.728961 0.335946
vt 0.648279 0.381840
vt 0.648279 0.427735
vt 0.597853 0.427735
vt 0.597853 0.381840
vt 0.504259 0.680576
vt 0.504259 0.726470
vt 0.453833 0.726470
vt 0.453833 0.680576
vt 0.942010 0.686578
vt 0.891584 0.686578
vt 0.779387 0.106475
vt 0.779387 0.152369
vt 0.728961 0.152369
vt 0.728961 0.106475
vt 0.779387 0.427735
vt 0.728961 0.427735
vt 0.809642 0.532374
vt 0.860068 0.532374
vt 0.065554 0.939420
vt 0.015128 0.939420
vt 0.779387 0.198263
vt 0.779387 0.244158
vt 0.728961 0.244158
vt 0.728961 0.198263
vt 0.860068 0.365318
vt 0.860068 0.411213
vt 0.809642 0.411213
vt 0.809642 0.365318
vt 0.065554 0.985314
vt 0.015128 0.985314
vt 0.779387 0.060580
vt 0.728961 0.060580
vt 0.648279 0.473629
vt 0.597853 0.473629
vt 0.504259 0.772364
vt 0.453833 0.772364
vt 0.648279 0.014686
vt 0.648279 0.060580
vt 0.597853 0.060580
vt 0.597853 0.014686
vt 0.648279 0.335946
vt 0.597853 0.335946
vt 0.984872 0.152369
vt 0.984872 0.198263
vt 0.934446 0.198263
vt 0.934446 0.152369
vt 0.504259 0.588787
vt 0.504259 0.634681
vt 0.453833 0.634681
vt 0.453833 0.588787
vt 0.860068 0.319424
vt 0.809642 0.319424
vt 0.984872 0.106475
vt 0.934446 0.106475
vt 0.779387 0.014686
vt 0.728961 0.014686
vt 0.146235 0.939420
vt 0.146235 0.985314
vt 0.095809 0.985314
vt 0.095809 0.939420
vt 0.146235 0.893525
vt 0.095809 0.893525
vt 0.307598 0.847631
vt 0.307598 0.893525
vt 0.257172 0.893525
vt 0.257172 0.847631
vt 0.648279 0.106475
vt 0.597853 0.106475
vt 0.648279 0.519523
vt 0.597853 0.519523
vt 0.648279 0.198263
vt 0.648279 0.244158
vt 0.597853 0.244158
vt 0.597853 0.198263
vt 0.860068 0.273530
vt 0.809642 0.273530
vt 0.942010 0.732473
vt 0.891584 0.732473
vt 0.648279 0.152369
vt 0.597853 0.152369
vt 0.779387 0.565418
vt 0.728961 0.565418
vt 0.942010 0.778367
vt 0.891584 0.778367
vt 0.307598 0.801737
vt 0.257172 0.801737
vt 0.984872 0.060580
vt 0.934446 0.060580
vt 0.648279 0.565418
vt 0.597853 0.565418
vt 0.860068 0.227636
vt 0.809642 0.227636
vt 0.984872 0.014686
vt 0.934446 0.014686
vt 0.065554 0.801737
vt 0.015128 0.801737
vt 0.310448 0.487740
vt 0.280916 0.451903
vt 0.251384 0.416065
vt 0.221852 0.380228
vt 0.184937 0.408898
vt 0.148022 0.437568
vt 0.111107 0.466238
vt 0.074192 0.494907
vt 0.044660 0.459070
vt 0.015128 0.423233
vt 0.052043 0.394563
vt 0.088958 0.365893
vt 0.125873 0.337223
vt 0.162788 0.308553
vt 0.133256 0.272716
vt 0.103724 0.236878
vt 0.074192 0.201041
vt 0.044660 0.165203
vt 0.015128 0.129366
vt 0.052043 0.100696
vt 0.088958 0.072026
vt 0.125873 0.043356
vt 0.162788 0.014686
vt 0.192320 0.050524
vt 0.221852 0.086361
vt 0.251384 0.122198
vt 0.280916 0.158036
vt 0.310448 0.193873
vt 0.347363 0.165203
vt 0.384278 0.136533
vt 0.421193 0.107863
vt 0.458108 0.079193
vt 0.487640 0.115031
vt 0.517172 0.150868
vt 0.480257 0.179538
vt 0.443342 0.208208
vt 0.406427 0.236878
vt 0.369512 0.265548
vt 0.399044 0.301385
vt 0.428576 0.337223
vt 0.458108 0.373060
vt 0.487640 0.408898
vt 0.517172 0.444735
vt 0.480257 0.473405
vt 0.443342 0.502075
vt 0.406427 0.530745
vt 0.369512 0.559415
vt 0.339980 0.523577
vt 0.678535 0.244158
vt 0.678535 0.198263
vt 0.594702 0.732473
vt 0.594702 0.686578
vt 0.641976 0.686578
vt 0.641976 0.732473
vt 0.904191 0.060580
vt 0.904191 0.106475
vt 0.856916 0.106475
vt 0.856916 0.060580
vt 0.376303 0.634681
vt 0.376303 0.680576
vt 0.329029 0.680576
vt 0.329029 0.634681
vt 0.766780 0.732473
vt 0.766780 0.686578
vt 0.814054 0.686578
vt 0.814054 0.732473
vt 0.594702 0.640684
vt 0.594702 0.594790
vt 0.641976 0.594790
vt 0.641976 0.640684
vt 0.597853 0.290052
vt 0.547427 0.335946
vt 0.547427 0.290052
vt 0.689250 0.640684
vt 0.689250 0.594790
vt 0.736524 0.594790
vt 0.736524 0.640684
vt 0.376303 0.726470
vt 0.376303 0.772364
vt 0.329029 0.772364
vt 0.329029 0.726470
vt 0.176491 0.893525
vt 0.176491 0.847631
vt 0.226917 0.847631
vt 0.226917 0.893525
vt 0.281755 0.726470
vt 0.281755 0.772364
vt 0.234480 0.772364
vt 0.234480 0.726470
vt 0.547427 0.244158
vt 0.689250 0.732473
vt 0.689250 0.686578
vt 0.736524 0.686578
vt 0.736524 0.732473
vt 0.904191 0.152369
vt 0.904191 0.198263
vt 0.856916 0.198263
vt 0.856916 0.152369
vt 0.281755 0.634681
vt 0.281755 0.680576
vt 0.234480 0.680576
vt 0.234480 0.634681
vt 0.766780 0.640684
vt 0.766780 0.594790
vt 0.814054 0.594790
vt 0.814054 0.640684
vt 0.856916 0.014686
vt 0.809642 0.060580
vt 0.809642 0.014686
vt 0.809642 0.106475
vt 0.281755 0.588787
vt 0.234480 0.588787
vt 0.329029 0.588787
vt 0.689250 0.778367
vt 0.736524 0.778367
vt 0.641976 0.778367
vt 0.176491 0.939419
vt 0.226917 0.939419
vt 0.940750 0.319424
vt 0.940750 0.365318
vt 0.890324 0.365319
vt 0.890324 0.319424
vt 0.678535 0.381840
vt 0.678535 0.335946
vt 0.809642 0.152369
vt 0.809642 0.198263
vt 0.940750 0.273530
vt 0.890324 0.273530
vt 0.176491 0.801737
vt 0.226917 0.801737
vt 0.728961 0.290052
vt 0.678535 0.290052
vt 0.423578 0.680576
vt 0.423578 0.726470
vt 0.423578 0.772364
vt 0.814054 0.778367
vt 0.861328 0.732473
vt 0.861328 0.778367
vt 0.861328 0.686578
vt 0.547427 0.198263
vt 0.547427 0.381840
vt 0.176491 0.985314
vt 0.226917 0.985314
vt 0.547427 0.686578
vt 0.547427 0.640684
vt 0.547427 0.594790
vt 0.861328 0.640684
vt 0.861328 0.594790
vt 0.766780 0.778367
vt 0.376303 0.588787
vt 0.423578 0.588787
vt 0.423578 0.634681
vt 0.904191 0.014686
vt 0.594702 0.778367
vt 0.547427 0.778367
vt 0.547427 0.732473
vt 0.940750 0.411213
vt 0.890324 0.411213
vt 0.940750 0.227636
vt 0.890324 0.227636
vn 0.000000 1.000000 0.000000
vn -1.000000 0.000000 -0.000000
vn -0.000000 0.000000 1.000000
vn 1.000000 0.000000 0.000000
vn 0.000000 0.000000 -1.000000
vn 0.000000 -1.000000 0.000000
s off
f 25/1/1 46/2/1 70/3/1 19/4/1
f 24/5/1 25/1/1 19/4/1 27/6/1
f 27/6/1 19/4/1 67/7/1 66/8/1
f 73/9/1 56/10/1 62/11/1 20/12/1
f 72/13/1 73/9/1 20/12/1 64/14/1
f 64/14/1 20/12/1 59/15/1 63/16/1
f 51/17/1 23/18/1 58/19/1 21/20/1
f 46/2/1 51/17/1 21/20/1 70/3/1
f 70/3/1 21/20/1 73/9/1 72/13/1
f 67/7/1 72/13/1 64/14/1 22/21/1
f 66/8/1 67/7/1 22/21/1 40/22/1
f 40/22/1 22/21/1 28/23/1 33/24/1
f 22/21/1 64/14/1 63/16/1 28/23/1
f 21/20/1 58/19/1 56/10/1 73/9/1
f 20/12/1 62/11/1 61/25/1 59/15/1
f 19/4/1 70/3/1 72/13/1 67/7/1
f 8/26/2 34/27/2 105/28/2 101/29/2
f 45/30/3 60/31/3 143/32/3 121/33/3
f 68/34/3 29/35/3 134/36/3 149/37/3
f 1/38/4 43/39/4 119/40/4 89/41/4
f 43/42/5 71/43/5 152/44/5 119/45/5
f 32/46/2 9/47/2 103/48/2 102/49/2
f 16/50/4 50/51/4 128/52/4 129/53/4
f 4/54/5 37/55/5 110/56/5 111/57/5
f 60/31/3 26/58/3 133/59/3 143/32/3
f 7/60/2 39/61/2 113/62/2 109/63/2
f 31/64/2 8/26/2 101/29/2 100/65/2
f 53/66/4 1/38/4 89/41/4 137/67/4
f 29/35/3 65/68/3 147/69/3 134/36/3
f 12/70/2 38/71/2 112/72/2 114/73/2
f 48/74/3 15/75/3 125/76/3 126/77/3
f 65/68/3 32/78/3 102/79/3 147/69/3
f 36/80/2 7/60/2 109/63/2 108/81/2
f 50/51/4 6/82/4 99/83/4 128/52/4
f 37/55/5 11/84/5 136/85/5 110/56/5
f 15/86/4 47/87/4 124/88/4 125/89/4
f 9/47/2 31/64/2 100/65/2 103/48/2
f 49/90/4 16/50/4 129/53/4 127/91/4
f 55/92/5 52/93/5 131/94/5 139/95/5
f 13/96/5 42/97/5 117/98/5 118/99/5
f 2/100/3 48/74/3 126/77/3 93/101/3
f 18/102/5 55/92/5 139/95/5 83/103/5
f 11/104/2 36/80/2 108/81/2 136/105/2
f 57/106/5 49/107/5 127/108/5 141/109/5
f 17/110/5 57/106/5 141/109/5 82/111/5
f 3/112/2 30/113/2 135/114/2 132/115/2
f 47/87/4 5/116/4 97/117/4 124/88/4
f 6/82/4 41/118/4 116/119/4 99/83/4
f 14/120/4 45/121/4 121/122/4 122/123/4
f 42/97/5 4/54/5 111/57/5 117/98/5
f 35/124/3 2/100/3 93/101/3 107/125/3
f 26/58/3 54/126/3 138/127/3 133/59/3
f 5/116/4 44/128/4 120/129/4 97/117/4
f 34/27/2 10/130/2 106/131/2 105/28/2
f 54/126/3 53/132/3 137/133/3 138/127/3
f 52/134/2 3/112/2 132/115/2 131/135/2
f 39/61/2 12/70/2 114/73/2 113/62/2
f 69/136/5 18/102/5 83/103/5 150/137/5
f 41/118/4 13/138/4 118/139/4 116/119/4
f 10/140/3 35/124/3 107/125/3 106/141/3
f 38/142/5 69/136/5 150/137/5 112/143/5
f 30/144/3 68/34/3 149/37/3 135/145/3
f 71/43/5 17/110/5 82/111/5 152/44/5
f 44/128/4 14/120/4 122/123/4 120/129/4
f 8/146/6 31/147/6 9/148/6 32/149/6 65/150/6 29/151/6 68/152/6 30/153/6 3/154/6 52/155/6 55/156/6 18/157/6 69/158/6 38/159/6 12/160/6 39/161/6 7/162/6 36/163/6 11/164/6 37/165/6 4/166/6 42/167/6 13/168/6 41/169/6 6/170/6 50/171/6 16/172/6 49/173/6 57/174/6 17/175/6 71/176/6 43/177/6 1/178/6 53/179/6 54/180/6 26/181/6 60/182/6 45/183/6 14/184/6 44/185/6 5/186/6 47/187/6 15/188/6 48/189/6 2/190/6 35/191/6 10/192/6 34/193/6
f 114/73/2 112/72/2 58/194/2 23/195/2
f 153/196/1 80/197/1 81/198/1 96/199/1
f 152/200/1 82/201/1 77/202/1 88/203/1
f 151/204/1 78/205/1 79/206/1 98/207/1
f 150/208/1 83/209/1 75/210/1 86/211/1
f 148/212/1 100/213/1 101/214/1 85/215/1
f 94/216/4 127/91/4 27/217/4 66/218/4
f 146/219/1 105/220/1 106/221/1 107/222/1
f 145/223/1 108/224/1 109/225/1 84/226/1
f 95/227/3 123/228/3 28/229/3 63/230/3
f 144/231/1 113/232/1 114/233/1 115/234/1
f 121/122/4 94/216/4 66/218/4 40/235/4
f 142/236/1 92/237/1 93/238/1 126/239/1
f 141/240/1 127/241/1 94/242/1 76/243/1
f 140/244/1 90/245/1 91/246/1 130/247/1
f 139/248/1 131/249/1 132/250/1 74/251/1
f 89/252/1 88/203/1 138/253/1 137/254/1
f 88/203/1 77/202/1 133/255/1 138/253/1
f 83/209/1 139/248/1 74/251/1 75/210/1
f 128/256/1 140/244/1 130/247/1 129/257/1
f 99/258/1 98/207/1 140/244/1 128/256/1
f 98/207/1 79/206/1 90/245/1 140/244/1
f 82/201/1 141/240/1 76/243/1 77/202/1
f 124/259/1 142/236/1 126/239/1 125/260/1
f 97/261/1 96/199/1 142/236/1 124/259/1
f 96/199/1 81/198/1 92/237/1 142/236/1
f 104/262/3 95/227/3 63/230/3 59/263/3
f 91/264/5 115/265/5 51/266/5 46/267/5
f 102/49/2 103/48/2 61/268/2 62/269/2
f 77/202/1 76/243/1 143/270/1 133/255/1
f 76/243/1 94/242/1 121/271/1 143/270/1
f 90/245/1 144/231/1 115/234/1 91/246/1
f 79/206/1 84/226/1 144/231/1 90/245/1
f 84/226/1 109/225/1 113/232/1 144/231/1
f 130/272/5 91/264/5 46/267/5 25/273/5
f 123/228/3 122/274/3 33/275/3 28/229/3
f 112/72/2 87/276/2 56/277/2 58/194/2
f 78/205/1 145/223/1 84/226/1 79/206/1
f 111/278/1 110/279/1 145/223/1 78/205/1
f 110/279/1 136/280/1 108/224/1 145/223/1
f 92/237/1 146/219/1 107/222/1 93/238/1
f 81/198/1 85/215/1 146/219/1 92/237/1
f 85/215/1 101/214/1 105/220/1 146/219/1
f 87/281/1 86/211/1 147/282/1 102/283/1
f 86/211/1 75/210/1 134/284/1 147/282/1
f 122/123/4 121/122/4 40/235/4 33/285/4
f 127/91/4 129/53/4 24/286/4 27/217/4
f 103/287/3 104/262/3 59/263/3 61/288/3
f 80/197/1 148/212/1 85/215/1 81/198/1
f 95/289/1 104/290/1 148/212/1 80/197/1
f 104/290/1 103/291/1 100/213/1 148/212/1
f 75/210/1 74/251/1 149/292/1 134/284/1
f 74/251/1 132/250/1 135/293/1 149/292/1
f 112/294/1 150/208/1 86/211/1 87/281/1
f 116/295/1 151/204/1 98/207/1 99/258/1
f 118/296/1 117/297/1 151/204/1 116/295/1
f 117/297/1 111/278/1 78/205/1 151/204/1
f 119/298/1 152/200/1 88/203/1 89/252/1
f 120/299/1 153/196/1 96/199/1 97/261/1
f 122/300/1 123/301/1 153/196/1 120/299/1
f 123/301/1 95/289/1 80/197/1 153/196/1
f 115/265/5 114/302/5 23/303/5 51/266/5
f 129/304/5 130/272/5 25/273/5 24/305/5
f 87/276/2 102/49/2 62/269/2 56/277/2
