# Blender v2.76 (sub 0) OBJ File: 'plate-saw.blend'
# www.blender.org
o Cube
v 0.750000 -0.400000 -2.249999
v 0.750000 -0.400000 2.249999
v -0.750000 -0.400000 2.249999
v -0.749999 -0.400000 -2.250000
v 0.750000 0.400000 -2.249998
v 0.749999 0.400000 2.250000
v -0.750000 0.400000 2.249998
v -0.750000 0.400000 -2.249999
v 0.450000 -0.400000 -2.249999
v 0.150000 -0.400000 -2.249999
v -0.150000 -0.400000 -2.249999
v -0.450000 -0.400000 -2.250000
v 0.450000 -0.400000 2.249999
v 0.150000 -0.400000 2.249999
v -0.150000 -0.400000 2.249999
v -0.450000 -0.400000 2.249999
v 0.450000 0.400000 -2.249998
v 0.150000 0.400000 -2.249998
v -0.150000 0.400000 -2.249998
v -0.450000 0.400000 -2.249999
v 0.449999 0.400000 2.250000
v 0.150000 0.400000 2.250000
v -0.150000 0.400000 2.249999
v -0.450000 0.400000 2.249999
v -0.450000 0.400000 -2.050000
v -0.150000 0.400000 -2.050000
v 0.150000 0.400000 -2.049999
v 0.450000 0.400000 -2.049999
v -0.450000 0.400000 2.050000
v -0.150000 0.400000 2.050000
v 0.150000 0.400000 2.050000
v 0.449999 0.400000 2.050001
v 0.450000 -0.400000 -2.050000
v 0.150000 -0.400000 -2.050000
v -0.150000 -0.400000 -2.050000
v -0.450000 -0.400000 -2.050000
v 0.450000 -0.400000 2.050000
v 0.150000 -0.400000 2.050000
v -0.150000 -0.400000 2.050000
v -0.450000 -0.400000 2.050000
vn -1.000000 -0.000000 -0.000000
vn 1.000000 0.000000 0.000000
vn 0.000000 1.000000 0.000000
vn 0.000000 -1.000000 0.000000
vn 0.000000 0.000000 -1.000000
vn -0.000000 -0.000000 1.000000
s off
f 7//1 8//1 4//1 3//1
f 5//2 6//2 2//2 1//2
f 29//3 25//3 20//3 8//3 7//3 24//3
f 40//2 36//2 25//2 29//2
f 36//4 40//4 16//4 3//4 4//4 12//4
f 29//5 30//5 39//5 40//5
f 34//4 38//4 39//4 35//4
f 39//1 30//1 26//1 35//1
f 37//1 32//1 28//1 33//1
f 27//6 34//6 33//6 28//6
f 38//2 34//2 27//2 31//2
f 31//5 32//5 37//5 38//5
f 1//4 2//4 13//4 37//4 33//4 9//4
f 9//4 33//4 34//4 10//4
f 10//4 34//4 35//4 11//4
f 11//4 35//4 36//4 12//4
f 25//6 36//6 35//6 26//6
f 26//3 30//3 31//3 27//3
f 5//3 17//3 28//3 32//3 21//3 6//3
f 17//3 18//3 27//3 28//3
f 18//3 19//3 26//3 27//3
f 19//3 20//3 25//3 26//3
f 9//5 10//5 11//5 12//5 4//5 8//5 20//5 19//5 18//5 17//5 5//5 1//5
f 21//6 22//6 23//6 24//6 7//6 3//6 16//6 15//6 14//6 13//6 2//6 6//6
f 32//3 31//3 22//3 21//3
f 31//3 30//3 23//3 22//3
f 30//3 29//3 24//3 23//3
f 37//4 13//4 14//4 38//4
f 38//4 14//4 15//4 39//4
f 39//4 15//4 16//4 40//4
