# Blender v2.76 (sub 0) OBJ File: 'plate-down.blend'
# www.blender.org
o Cube
v 0.750000 0.000000 -0.750000
v 0.750000 0.000000 0.750000
v -0.750000 0.000000 0.750000
v -0.749999 0.000000 -0.750000
v 0.750000 0.400000 -0.749999
v 0.749999 0.400000 0.750000
v -0.750000 0.400000 0.749999
v -0.750000 0.400000 -0.750000
v 0.535714 0.000000 -0.750000
v 0.321428 0.000000 -0.750000
v 0.107143 0.000000 -0.750000
v -0.107143 0.000000 -0.750000
v -0.321428 0.000000 -0.750000
v -0.535714 0.000000 -0.750000
v 0.535714 0.000000 0.750000
v 0.321428 0.000000 0.750000
v 0.107143 0.000000 0.750000
v -0.107143 0.000000 0.750000
v -0.321428 0.000000 0.750000
v -0.535714 0.000000 0.750000
v 0.535714 0.400000 -0.749999
v 0.321429 0.400000 -0.749999
v 0.107143 0.400000 -0.749999
v -0.107143 0.400000 -0.749999
v -0.321428 0.400000 -0.750000
v -0.535714 0.400000 -0.750000
v 0.535714 0.400000 0.750000
v 0.321428 0.400000 0.750000
v 0.107142 0.400000 0.750000
v -0.107143 0.400000 0.750000
v -0.321429 0.400000 0.750000
v -0.535714 0.400000 0.749999
v 0.750000 0.000000 -0.535714
v 0.750000 0.000000 -0.321428
v 0.750000 0.000000 -0.107143
v 0.750000 0.000000 0.107143
v 0.750000 0.000000 0.321428
v 0.750000 0.000000 0.535714
v -0.750000 0.000000 0.535714
v -0.750000 0.000000 0.321428
v -0.750000 0.000000 0.107143
v -0.750000 0.000000 -0.107143
v -0.749999 0.000000 -0.321429
v -0.749999 0.000000 -0.535714
v 0.750000 0.400000 -0.535714
v 0.750000 0.400000 -0.321428
v 0.750000 0.400000 -0.107142
v 0.750000 0.400000 0.107143
v 0.749999 0.400000 0.321429
v 0.749999 0.400000 0.535715
v -0.750000 0.400000 0.535714
v -0.750000 0.400000 0.321428
v -0.750000 0.400000 0.107143
v -0.750000 0.400000 -0.107143
v -0.750000 0.400000 -0.321429
v -0.750000 0.400000 -0.535714
v 0.535714 0.400000 -0.535714
v 0.535714 0.400000 -0.321428
v 0.535714 0.400000 -0.107142
v 0.535714 0.400000 0.107143
v 0.535714 0.400000 0.321429
v 0.535714 0.400000 0.535714
v 0.321429 0.400000 -0.535714
v 0.321428 0.400000 -0.321428
v 0.321428 0.400000 -0.107142
v 0.321428 0.400000 0.107143
v 0.321428 0.400000 0.321429
v 0.321428 0.400000 0.535714
v 0.107143 0.400000 -0.535714
v 0.107143 0.400000 -0.321428
v 0.107143 0.400000 -0.107143
v 0.107143 0.400000 0.107143
v 0.107143 0.400000 0.321429
v 0.107142 0.400000 0.535714
v -0.107143 0.400000 -0.535714
v -0.107143 0.400000 -0.321428
v -0.107143 0.400000 -0.107143
v -0.107143 0.400000 0.107143
v -0.107143 0.400000 0.321429
v -0.107143 0.400000 0.535714
v -0.321428 0.400000 -0.535714
v -0.321428 0.400000 -0.321428
v -0.321429 0.400000 -0.107143
v -0.321429 0.400000 0.107143
v -0.321429 0.400000 0.321428
v -0.321429 0.400000 0.535714
v -0.535714 0.400000 -0.535714
v -0.535714 0.400000 -0.321428
v -0.535714 0.400000 -0.107143
v -0.535714 0.400000 0.107143
v -0.535714 0.400000 0.321428
v -0.535714 0.400000 0.535714
v 0.535714 0.000000 0.535714
v 0.535714 0.000000 0.321428
v 0.535714 0.000000 0.107143
v 0.535714 0.000000 -0.107143
v 0.535714 0.000000 -0.321428
v 0.535714 0.000000 -0.535714
v 0.321428 0.000000 0.535714
v 0.321428 0.000000 0.321428
v 0.321428 0.000000 0.107143
v 0.321428 0.000000 -0.107143
v 0.321428 0.000000 -0.321428
v 0.321428 0.000000 -0.535714
v 0.107143 0.000000 0.535714
v 0.107143 0.000000 0.321428
v 0.107143 0.000000 0.107143
v 0.107143 0.000000 -0.107143
v 0.107143 0.000000 -0.321429
v 0.107143 0.000000 -0.535714
v -0.107143 0.000000 0.535714
v -0.107143 0.000000 0.321428
v -0.107143 0.000000 0.107143
v -0.107143 0.000000 -0.107143
v -0.107143 0.000000 -0.321429
v -0.107143 0.000000 -0.535714
v -0.321428 0.000000 0.535714
v -0.321428 0.000000 0.321428
v -0.321428 0.000000 0.107143
v -0.321428 0.000000 -0.107143
v -0.321428 0.000000 -0.321429
v -0.321428 0.000000 -0.535714
v -0.535714 0.000000 0.535714
v -0.535714 0.000000 0.321428
v -0.535714 0.000000 0.107143
v -0.535714 0.000000 -0.107143
v -0.535714 0.000000 -0.321429
v -0.535714 0.000000 -0.535714
v 0.750000 0.133333 -0.749999
v 0.750000 0.266667 -0.749999
v 0.749999 0.133333 0.750000
v 0.749999 0.266667 0.750000
v -0.750000 0.133333 0.749999
v -0.750000 0.266667 0.749999
v -0.749999 0.133333 -0.750000
v -0.750000 0.266667 -0.750000
v 0.535714 0.133333 -0.750000
v 0.535714 0.266667 -0.749999
v 0.321429 0.133333 -0.750000
v 0.321429 0.266667 -0.749999
v 0.107143 0.133333 -0.750000
v 0.107143 0.266667 -0.749999
v -0.107143 0.133333 -0.750000
v -0.107143 0.266667 -0.750000
v -0.321428 0.133333 -0.750000
v -0.321428 0.266667 -0.750000
v -0.535714 0.133333 -0.750000
v -0.535714 0.266667 -0.750000
v 0.535714 0.266667 0.750000
v 0.535714 0.133333 0.750000
v 0.321428 0.266667 0.750000
v 0.321428 0.133333 0.750000
v 0.107143 0.266667 0.750000
v 0.107143 0.133333 0.750000
v -0.107143 0.266667 0.750000
v -0.107143 0.133333 0.750000
v -0.321429 0.266667 0.750000
v -0.321429 0.133333 0.750000
v -0.535714 0.266667 0.750000
v -0.535714 0.133333 0.750000
v -0.750000 0.266667 0.535714
v -0.750000 0.133333 0.535714
v -0.750000 0.266667 0.321428
v -0.750000 0.133333 0.321428
v -0.750000 0.266667 0.107143
v -0.750000 0.133333 0.107143
v -0.750000 0.266667 -0.107143
v -0.750000 0.133333 -0.107143
v -0.750000 0.266667 -0.321429
v -0.750000 0.133333 -0.321429
v -0.750000 0.266667 -0.535714
v -0.749999 0.133333 -0.535714
v 0.750000 0.266667 -0.535714
v 0.750000 0.133333 -0.535714
v 0.750000 0.266667 -0.321428
v 0.750000 0.133333 -0.321428
v 0.750000 0.266667 -0.107142
v 0.750000 0.133333 -0.107143
v 0.750000 0.266667 0.107143
v 0.750000 0.133333 0.107143
v 0.749999 0.266667 0.321429
v 0.750000 0.133333 0.321429
v 0.749999 0.266667 0.535714
v 0.750000 0.133333 0.535714
v 0.900000 0.200000 -0.428571
v 0.900000 0.200000 0.000000
v 0.899999 0.200000 0.428572
v 0.428571 0.200000 -0.899999
v 0.000000 0.200000 -0.900000
v -0.428571 0.200000 -0.900000
v -0.900000 0.200000 0.428571
v -0.900000 0.200000 -0.000000
v -0.900000 0.200000 -0.428571
v 0.428571 0.200000 0.900000
v -0.000000 0.200000 0.900000
v -0.428571 0.200000 0.900000
vt 0.599784 0.565047
vt 0.639671 0.565047
vt 0.639671 0.604768
vt 0.599784 0.604768
vt 0.401041 0.267404
vt 0.401041 0.307125
vt 0.361154 0.307125
vt 0.361154 0.267404
vt 0.128423 0.367815
vt 0.035355 0.367815
vt 0.035355 0.328094
vt 0.128423 0.328094
vt 0.773995 0.062604
vt 0.680926 0.062604
vt 0.680926 0.022884
vt 0.773995 0.022884
vt 0.767541 0.366265
vt 0.674726 0.366265
vt 0.674726 0.326544
vt 0.767541 0.326544
vt 0.202889 0.255008
vt 0.295957 0.255008
vt 0.295957 0.294728
vt 0.202889 0.294728
vt 0.202889 0.016683
vt 0.295957 0.016683
vt 0.295957 0.056404
vt 0.202889 0.056404
vt 0.295957 0.096124
vt 0.202889 0.096124
vt 0.295957 0.135845
vt 0.202889 0.135845
vt 0.295957 0.175566
vt 0.202889 0.175566
vt 0.295957 0.215287
vt 0.202889 0.215287
vt 0.773995 0.300929
vt 0.680926 0.300929
vt 0.680926 0.261208
vt 0.773995 0.261208
vt 0.680926 0.221487
vt 0.773995 0.221488
vt 0.680926 0.181767
vt 0.773995 0.181767
vt 0.680926 0.142046
vt 0.773995 0.142046
vt 0.680926 0.102325
vt 0.773995 0.102325
vt 0.401041 0.029079
vt 0.401041 0.068800
vt 0.361154 0.068800
vt 0.361154 0.029079
vt 0.401041 0.108521
vt 0.361154 0.108521
vt 0.401041 0.148242
vt 0.361154 0.148242
vt 0.401041 0.187963
vt 0.361154 0.187963
vt 0.401041 0.227683
vt 0.361154 0.227683
vt 0.599784 0.326722
vt 0.639671 0.326722
vt 0.639671 0.366443
vt 0.599784 0.366443
vt 0.639671 0.406164
vt 0.599784 0.406164
vt 0.639671 0.445884
vt 0.599784 0.445884
vt 0.639671 0.485605
vt 0.599784 0.485605
vt 0.639671 0.525326
vt 0.599784 0.525326
vt 0.360466 0.525326
vt 0.400352 0.525326
vt 0.400352 0.565047
vt 0.360466 0.565047
vt 0.440239 0.525326
vt 0.440239 0.565047
vt 0.480125 0.525326
vt 0.480125 0.565047
vt 0.520012 0.525326
vt 0.520012 0.565047
vt 0.559898 0.525326
vt 0.559898 0.565047
vt 0.360466 0.485605
vt 0.400352 0.485605
vt 0.440239 0.485605
vt 0.480125 0.485605
vt 0.520012 0.485605
vt 0.559898 0.485605
vt 0.360466 0.445884
vt 0.400352 0.445884
vt 0.440239 0.445884
vt 0.480125 0.445884
vt 0.520012 0.445884
vt 0.559898 0.445884
vt 0.360466 0.406164
vt 0.400352 0.406164
vt 0.440239 0.406164
vt 0.480125 0.406164
vt 0.520012 0.406164
vt 0.559898 0.406164
vt 0.360466 0.366443
vt 0.400352 0.366443
vt 0.440239 0.366443
vt 0.480125 0.366443
vt 0.520012 0.366443
vt 0.559898 0.366443
vt 0.360466 0.326722
vt 0.400352 0.326722
vt 0.440239 0.326722
vt 0.480125 0.326722
vt 0.520012 0.326722
vt 0.559898 0.326722
vt 0.640359 0.227683
vt 0.640359 0.267404
vt 0.600473 0.267404
vt 0.600473 0.227683
vt 0.560586 0.267404
vt 0.560586 0.227683
vt 0.520700 0.267404
vt 0.520700 0.227683
vt 0.480814 0.267404
vt 0.480814 0.227683
vt 0.440927 0.267404
vt 0.440927 0.227683
vt 0.640359 0.187963
vt 0.600473 0.187963
vt 0.560586 0.187963
vt 0.520700 0.187963
vt 0.480814 0.187963
vt 0.440927 0.187963
vt 0.640359 0.148242
vt 0.600473 0.148242
vt 0.560586 0.148242
vt 0.520700 0.148242
vt 0.480814 0.148242
vt 0.440927 0.148242
vt 0.640359 0.108521
vt 0.600473 0.108521
vt 0.560586 0.108521
vt 0.520700 0.108521
vt 0.480814 0.108521
vt 0.440927 0.108521
vt 0.640359 0.068800
vt 0.600473 0.068800
vt 0.560586 0.068800
vt 0.520700 0.068800
vt 0.480814 0.068800
vt 0.440927 0.068800
vt 0.640359 0.029079
vt 0.600473 0.029079
vt 0.560586 0.029079
vt 0.520700 0.029079
vt 0.480814 0.029079
vt 0.440927 0.029079
vt 0.767541 0.604589
vt 0.674726 0.604589
vt 0.674726 0.564869
vt 0.767541 0.564869
vt 0.674726 0.525148
vt 0.767541 0.525148
vt 0.674726 0.485427
vt 0.767541 0.485427
vt 0.674726 0.445706
vt 0.767541 0.445706
vt 0.674726 0.405985
vt 0.767541 0.405985
vt 0.128423 0.606140
vt 0.035355 0.606140
vt 0.035355 0.566419
vt 0.128423 0.566419
vt 0.035355 0.526698
vt 0.128423 0.526698
vt 0.035355 0.486977
vt 0.128423 0.486977
vt 0.035355 0.447256
vt 0.128423 0.447256
vt 0.035355 0.407535
vt 0.128423 0.407535
vt 0.640359 0.307125
vt 0.600473 0.307125
vt 0.560586 0.307125
vt 0.520700 0.307125
vt 0.480814 0.307125
vt 0.440927 0.307125
vt 0.400352 0.604768
vt 0.360466 0.604768
vt 0.440239 0.604768
vt 0.480125 0.604768
vt 0.520012 0.604768
vt 0.559898 0.604768
vt 0.314560 0.407535
vt 0.221491 0.407535
vt 0.221491 0.367815
vt 0.314560 0.367815
vt 0.314560 0.447256
vt 0.221491 0.447256
vt 0.314560 0.486977
vt 0.221491 0.486977
vt 0.314560 0.526698
vt 0.221491 0.526698
vt 0.314560 0.566419
vt 0.221491 0.566419
vt 0.881836 0.815970
vt 0.845175 0.800323
vt 0.881836 0.765552
vt 0.314560 0.606139
vt 0.221491 0.606139
vt 0.953172 0.405985
vt 0.860357 0.405985
vt 0.860357 0.366265
vt 0.953172 0.366264
vt 0.953172 0.445706
vt 0.860357 0.445706
vt 0.953172 0.485427
vt 0.860357 0.485427
vt 0.228948 0.765552
vt 0.228948 0.858234
vt 0.201028 0.811893
vt 0.953172 0.525148
vt 0.860357 0.525148
vt 0.953172 0.564869
vt 0.860357 0.564869
vt 0.953172 0.604589
vt 0.860357 0.604589
vt 0.960131 0.102325
vt 0.867063 0.102325
vt 0.867063 0.062604
vt 0.960131 0.062604
vt 0.960131 0.142046
vt 0.867063 0.142046
vt 0.960131 0.181767
vt 0.867063 0.181767
vt 0.960131 0.221488
vt 0.867063 0.221488
vt 0.960131 0.261208
vt 0.867063 0.261208
vt 0.960131 0.300929
vt 0.867063 0.300929
vt 0.016752 0.215287
vt 0.109821 0.215287
vt 0.109821 0.255008
vt 0.016752 0.255008
vt 0.016752 0.175566
vt 0.109821 0.175566
vt 0.016752 0.135845
vt 0.109821 0.135845
vt 0.290373 0.639505
vt 0.290373 0.732187
vt 0.262453 0.685846
vt 0.016752 0.096124
vt 0.109821 0.096124
vt 0.016752 0.056404
vt 0.109821 0.056404
vt 0.016752 0.016683
vt 0.109821 0.016683
vt 0.109821 0.294728
vt 0.016752 0.294728
vt 0.860357 0.326544
vt 0.953172 0.326544
vt 0.867063 0.022884
vt 0.960131 0.022884
vt 0.221491 0.328094
vt 0.314560 0.328094
vt 0.228948 0.639505
vt 0.228948 0.732187
vt 0.201028 0.685846
vt 0.413224 0.639505
vt 0.413224 0.732187
vt 0.385303 0.685846
vt 0.876704 0.655152
vt 0.913365 0.639505
vt 0.913365 0.689922
vt 0.193746 0.942017
vt 0.157084 0.926370
vt 0.193746 0.891600
vt 0.811670 0.977304
vt 0.771784 0.977304
vt 0.791727 0.930963
vt 0.597499 0.765552
vt 0.597499 0.857982
vt 0.569578 0.810305
vt 0.955227 0.891600
vt 0.915341 0.891600
vt 0.935284 0.845259
vt 0.658924 0.639505
vt 0.658924 0.732187
vt 0.631003 0.685846
vt 0.781774 0.639505
vt 0.781774 0.732187
vt 0.753854 0.685846
vt 0.106098 0.639505
vt 0.106098 0.732187
vt 0.078177 0.685846
vt 0.299114 0.941765
vt 0.262453 0.926119
vt 0.299114 0.891348
vt 0.667381 0.983317
vt 0.631003 0.967027
vt 0.667381 0.934890
vt 0.351798 0.765552
vt 0.351798 0.857982
vt 0.323878 0.810305
vt 0.845175 0.864982
vt 0.881836 0.849335
vt 0.881836 0.899753
vt 0.808445 0.897598
vt 0.771784 0.881951
vt 0.808445 0.847180
vt 0.631003 0.780668
vt 0.667889 0.765552
vt 0.667889 0.817742
vt 0.413224 0.765552
vt 0.413224 0.857982
vt 0.385303 0.810305
vt 0.597499 0.639505
vt 0.597499 0.732187
vt 0.569578 0.685846
vt 0.123580 0.942017
vt 0.086918 0.926370
vt 0.123580 0.891600
vt 0.106098 0.765552
vt 0.106098 0.858234
vt 0.078177 0.811893
vt 0.053414 0.942017
vt 0.016752 0.926370
vt 0.053414 0.891600
vt 0.351798 0.639505
vt 0.351798 0.732187
vt 0.323878 0.685846
vt 0.983248 0.687932
vt 0.946870 0.671642
vt 0.983248 0.639505
vt 0.474649 0.639505
vt 0.474649 0.732187
vt 0.446728 0.685846
vt 0.845175 0.949408
vt 0.881553 0.933118
vt 0.881553 0.981546
vt 0.811670 0.813815
vt 0.771784 0.813815
vt 0.791727 0.765552
vt 0.738279 0.817742
vt 0.701394 0.802626
vt 0.738279 0.765552
vt 0.536074 0.639505
vt 0.536074 0.732187
vt 0.508153 0.685846
vt 0.720349 0.639505
vt 0.720349 0.732187
vt 0.692429 0.685846
vt 0.543117 0.906995
vt 0.579778 0.891348
vt 0.579778 0.941765
vt 0.536074 0.765552
vt 0.536074 0.857982
vt 0.508153 0.813230
vt 0.332619 0.906995
vt 0.369280 0.891348
vt 0.369280 0.941765
vt 0.044673 0.639505
vt 0.044673 0.732187
vt 0.016752 0.685846
vt 0.167523 0.765552
vt 0.167523 0.858234
vt 0.139603 0.811893
vt 0.843199 0.639505
vt 0.843199 0.732187
vt 0.815279 0.685846
vt 0.955227 0.971306
vt 0.915341 0.971306
vt 0.935284 0.924965
vt 0.955227 0.811893
vt 0.915341 0.811893
vt 0.935284 0.765552
vt 0.701394 0.866754
vt 0.738055 0.851107
vt 0.738055 0.901525
vt 0.474649 0.765552
vt 0.474649 0.857982
vt 0.446728 0.813230
vt 0.472951 0.906995
vt 0.509612 0.891348
vt 0.509612 0.941765
vt 0.044673 0.765552
vt 0.044673 0.858234
vt 0.016752 0.811893
vt 0.667665 0.901525
vt 0.631003 0.885878
vt 0.667665 0.851107
vt 0.290373 0.765552
vt 0.290373 0.857982
vt 0.262453 0.813230
vt 0.439446 0.941765
vt 0.402785 0.926119
vt 0.439446 0.891348
vt 0.167523 0.639505
vt 0.167523 0.732187
vt 0.139603 0.685846
vn 0.000000 -1.000000 0.000000
vn 0.000000 1.000000 0.000000
vn 1.000000 0.000000 0.000000
vn -0.000000 0.000000 1.000000
vn -1.000000 -0.000000 -0.000000
vn 0.000000 0.000000 -1.000000
vn 0.000000 -0.913800 -0.406100
vn -0.581200 -0.000000 -0.813700
vn 0.581200 0.000000 -0.813700
vn 0.813700 0.000000 -0.581200
vn 0.406100 0.913800 0.000000
vn 0.000000 0.913800 -0.406100
vn 0.406100 -0.913800 0.000000
vn -0.813700 0.000000 -0.581200
vn 0.581200 -0.000000 0.813700
vn -0.406100 0.913800 0.000000
vn -0.406100 -0.913800 -0.000000
vn -0.581200 0.000000 0.813700
vn -0.000000 -0.913800 0.406100
vn -0.813700 -0.000000 0.581200
vn 0.813700 0.000000 0.581200
vn 0.000000 0.913800 0.406100
s off
f 123/1/1 20/2/1 3/3/1 39/4/1
f 92/5/2 51/6/2 7/7/2 32/8/2
f 183/9/3 50/10/3 6/11/3 132/12/3
f 159/13/4 32/14/4 7/15/4 134/16/4
f 171/17/5 56/18/5 8/19/5 136/20/5
f 147/21/6 14/22/6 4/23/6 135/24/6
f 129/25/6 1/26/6 9/27/6 137/28/6
f 137/28/6 9/27/6 10/29/6 139/30/6
f 139/30/6 10/29/6 11/31/6 141/32/6
f 141/32/6 11/31/6 12/33/6 143/34/6
f 143/34/6 12/33/6 13/35/6 145/36/6
f 145/36/6 13/35/6 14/22/6 147/21/6
f 132/37/4 6/38/4 27/39/4 149/40/4
f 149/40/4 27/39/4 28/41/4 151/42/4
f 151/42/4 28/41/4 29/43/4 153/44/4
f 153/44/4 29/43/4 30/45/4 155/46/4
f 155/46/4 30/45/4 31/47/4 157/48/4
f 157/48/4 31/47/4 32/14/4 159/13/4
f 50/49/2 62/50/2 27/51/2 6/52/2
f 62/50/2 68/53/2 28/54/2 27/51/2
f 68/53/2 74/55/2 29/56/2 28/54/2
f 74/55/2 80/57/2 30/58/2 29/56/2
f 80/57/2 86/59/2 31/60/2 30/58/2
f 86/59/2 92/5/2 32/8/2 31/60/2
f 38/61/1 2/62/1 15/63/1 93/64/1
f 93/64/1 15/63/1 16/65/1 99/66/1
f 99/66/1 16/65/1 17/67/1 105/68/1
f 105/68/1 17/67/1 18/69/1 111/70/1
f 111/70/1 18/69/1 19/71/1 117/72/1
f 117/72/1 19/71/1 20/2/1 123/1/1
f 13/73/1 122/74/1 128/75/1 14/76/1
f 122/74/1 121/77/1 127/78/1 128/75/1
f 121/77/1 120/79/1 126/80/1 127/78/1
f 120/79/1 119/81/1 125/82/1 126/80/1
f 119/81/1 118/83/1 124/84/1 125/82/1
f 118/83/1 117/72/1 123/1/1 124/84/1
f 12/85/1 116/86/1 122/74/1 13/73/1
f 116/86/1 115/87/1 121/77/1 122/74/1
f 115/87/1 114/88/1 120/79/1 121/77/1
f 114/88/1 113/89/1 119/81/1 120/79/1
f 113/89/1 112/90/1 118/83/1 119/81/1
f 112/90/1 111/70/1 117/72/1 118/83/1
f 11/91/1 110/92/1 116/86/1 12/85/1
f 110/92/1 109/93/1 115/87/1 116/86/1
f 109/93/1 108/94/1 114/88/1 115/87/1
f 108/94/1 107/95/1 113/89/1 114/88/1
f 107/95/1 106/96/1 112/90/1 113/89/1
f 106/96/1 105/68/1 111/70/1 112/90/1
f 10/97/1 104/98/1 110/92/1 11/91/1
f 104/98/1 103/99/1 109/93/1 110/92/1
f 103/99/1 102/100/1 108/94/1 109/93/1
f 102/100/1 101/101/1 107/95/1 108/94/1
f 101/101/1 100/102/1 106/96/1 107/95/1
f 100/102/1 99/66/1 105/68/1 106/96/1
f 9/103/1 98/104/1 104/98/1 10/97/1
f 98/104/1 97/105/1 103/99/1 104/98/1
f 97/105/1 96/106/1 102/100/1 103/99/1
f 96/106/1 95/107/1 101/101/1 102/100/1
f 95/107/1 94/108/1 100/102/1 101/101/1
f 94/108/1 93/64/1 99/66/1 100/102/1
f 1/109/1 33/110/1 98/104/1 9/103/1
f 33/110/1 34/111/1 97/105/1 98/104/1
f 34/111/1 35/112/1 96/106/1 97/105/1
f 35/112/1 36/113/1 95/107/1 96/106/1
f 36/113/1 37/114/1 94/108/1 95/107/1
f 37/114/1 38/61/1 93/64/1 94/108/1
f 25/115/2 26/116/2 87/117/2 81/118/2
f 81/118/2 87/117/2 88/119/2 82/120/2
f 82/120/2 88/119/2 89/121/2 83/122/2
f 83/122/2 89/121/2 90/123/2 84/124/2
f 84/124/2 90/123/2 91/125/2 85/126/2
f 85/126/2 91/125/2 92/5/2 86/59/2
f 24/127/2 25/115/2 81/118/2 75/128/2
f 75/128/2 81/118/2 82/120/2 76/129/2
f 76/129/2 82/120/2 83/122/2 77/130/2
f 77/130/2 83/122/2 84/124/2 78/131/2
f 78/131/2 84/124/2 85/126/2 79/132/2
f 79/132/2 85/126/2 86/59/2 80/57/2
f 23/133/2 24/127/2 75/128/2 69/134/2
f 69/134/2 75/128/2 76/129/2 70/135/2
f 70/135/2 76/129/2 77/130/2 71/136/2
f 71/136/2 77/130/2 78/131/2 72/137/2
f 72/137/2 78/131/2 79/132/2 73/138/2
f 73/138/2 79/132/2 80/57/2 74/55/2
f 22/139/2 23/133/2 69/134/2 63/140/2
f 63/140/2 69/134/2 70/135/2 64/141/2
f 64/141/2 70/135/2 71/136/2 65/142/2
f 65/142/2 71/136/2 72/137/2 66/143/2
f 66/143/2 72/137/2 73/138/2 67/144/2
f 67/144/2 73/138/2 74/55/2 68/53/2
f 21/145/2 22/139/2 63/140/2 57/146/2
f 57/146/2 63/140/2 64/141/2 58/147/2
f 58/147/2 64/141/2 65/142/2 59/148/2
f 59/148/2 65/142/2 66/143/2 60/149/2
f 60/149/2 66/143/2 67/144/2 61/150/2
f 61/150/2 67/144/2 68/53/2 62/50/2
f 5/151/2 21/145/2 57/146/2 45/152/2
f 45/152/2 57/146/2 58/147/2 46/153/2
f 46/153/2 58/147/2 59/148/2 47/154/2
f 47/154/2 59/148/2 60/149/2 48/155/2
f 48/155/2 60/149/2 61/150/2 49/156/2
f 49/156/2 61/150/2 62/50/2 50/49/2
f 134/157/5 7/158/5 51/159/5 161/160/5
f 161/160/5 51/159/5 52/161/5 163/162/5
f 163/162/5 52/161/5 53/163/5 165/164/5
f 165/164/5 53/163/5 54/165/5 167/166/5
f 167/166/5 54/165/5 55/167/5 169/168/5
f 169/168/5 55/167/5 56/18/5 171/17/5
f 130/169/3 5/170/3 45/171/3 173/172/3
f 173/172/3 45/171/3 46/173/3 175/174/3
f 175/174/3 46/173/3 47/175/3 177/176/3
f 177/176/3 47/175/3 48/177/3 179/178/3
f 179/178/3 48/177/3 49/179/3 181/180/3
f 181/180/3 49/179/3 50/10/3 183/9/3
f 26/116/2 8/181/2 56/182/2 87/117/2
f 87/117/2 56/182/2 55/183/2 88/119/2
f 88/119/2 55/183/2 54/184/2 89/121/2
f 89/121/2 54/184/2 53/185/2 90/123/2
f 90/123/2 53/185/2 52/186/2 91/125/2
f 91/125/2 52/186/2 51/6/2 92/5/2
f 14/76/1 128/75/1 44/187/1 4/188/1
f 128/75/1 127/78/1 43/189/1 44/187/1
f 127/78/1 126/80/1 42/190/1 43/189/1
f 126/80/1 125/82/1 41/191/1 42/190/1
f 125/82/1 124/84/1 40/192/1 41/191/1
f 124/84/1 123/1/1 39/4/1 40/192/1
f 37/193/3 182/194/3 184/195/3 38/196/3
f 36/197/3 180/198/3 182/194/3 37/193/3
f 180/198/3 179/178/3 181/180/3 182/194/3
f 35/199/3 178/200/3 180/198/3 36/197/3
f 34/201/3 176/202/3 178/200/3 35/199/3
f 176/202/3 175/174/3 177/176/3 178/200/3
f 33/203/3 174/204/3 176/202/3 34/201/3
f 137/205/7 139/206/7 188/207/7
f 1/208/3 129/209/3 174/204/3 33/203/3
f 129/209/3 130/169/3 173/172/3 174/204/3
f 43/210/5 170/211/5 172/212/5 44/213/5
f 42/214/5 168/215/5 170/211/5 43/210/5
f 168/215/5 167/166/5 169/168/5 170/211/5
f 41/216/5 166/217/5 168/215/5 42/214/5
f 167/218/8 168/219/8 192/220/8
f 40/221/5 164/222/5 166/217/5 41/216/5
f 164/222/5 163/162/5 165/164/5 166/217/5
f 39/223/5 162/224/5 164/222/5 40/221/5
f 3/225/5 133/226/5 162/224/5 39/223/5
f 133/226/5 134/157/5 161/160/5 162/224/5
f 19/227/4 158/228/4 160/229/4 20/230/4
f 18/231/4 156/232/4 158/228/4 19/227/4
f 156/232/4 155/46/4 157/48/4 158/228/4
f 17/233/4 154/234/4 156/232/4 18/231/4
f 16/235/4 152/236/4 154/234/4 17/233/4
f 152/236/4 151/42/4 153/44/4 154/234/4
f 15/237/4 150/238/4 152/236/4 16/235/4
f 2/239/4 131/240/4 150/238/4 15/237/4
f 131/240/4 132/37/4 149/40/4 150/238/4
f 25/241/6 146/242/6 148/243/6 26/244/6
f 24/245/6 144/246/6 146/242/6 25/241/6
f 144/246/6 143/34/6 145/36/6 146/242/6
f 23/247/6 142/248/6 144/246/6 24/245/6
f 171/249/8 172/250/8 193/251/8
f 22/252/6 140/253/6 142/248/6 23/247/6
f 140/253/6 139/30/6 141/32/6 142/248/6
f 21/254/6 138/255/6 140/253/6 22/252/6
f 5/256/6 130/257/6 138/255/6 21/254/6
f 130/257/6 129/25/6 137/28/6 138/255/6
f 26/244/6 148/243/6 136/258/6 8/259/6
f 148/243/6 147/21/6 135/24/6 136/258/6
f 44/213/5 172/212/5 135/260/5 4/261/5
f 172/212/5 171/17/5 136/20/5 135/260/5
f 20/230/4 160/229/4 133/262/4 3/263/4
f 160/229/4 159/13/4 134/16/4 133/262/4
f 38/196/3 184/195/3 131/264/3 2/265/3
f 184/195/3 183/9/3 132/12/3 131/264/3
f 174/266/9 173/267/9 185/268/9
f 138/269/10 137/270/10 188/271/10
f 173/272/11 175/273/11 185/274/11
f 140/275/12 138/276/12 188/277/12
f 180/278/13 178/279/13 186/280/13
f 139/281/14 140/282/14 188/283/14
f 176/284/13 174/285/13 185/286/13
f 178/287/9 177/288/9 186/289/9
f 179/290/15 180/291/15 186/292/15
f 175/293/15 176/294/15 185/295/15
f 177/296/11 179/297/11 186/298/11
f 169/299/16 171/300/16 193/301/16
f 147/302/14 148/303/14 190/304/14
f 145/305/7 147/306/7 190/307/7
f 141/308/7 143/309/7 189/310/7
f 172/311/17 170/312/17 193/313/17
f 143/314/14 144/315/14 189/316/14
f 146/317/10 145/318/10 190/319/10
f 148/320/12 146/321/12 190/322/12
f 170/323/18 169/324/18 193/325/18
f 144/326/12 142/327/12 189/328/12
f 142/329/10 141/330/10 189/331/10
f 165/332/16 167/333/16 192/334/16
f 162/335/18 161/336/18 191/337/18
f 161/338/16 163/339/16 191/340/16
f 168/341/17 166/342/17 192/343/17
f 164/344/17 162/345/17 191/346/17
f 163/347/8 164/348/8 191/349/8
f 166/350/18 165/351/18 192/352/18
f 156/353/19 154/354/19 195/355/19
f 151/356/20 152/357/20 194/358/20
f 181/359/11 183/360/11 187/361/11
f 150/362/21 149/363/21 194/364/21
f 154/365/21 153/366/21 195/367/21
f 182/368/9 181/369/9 187/370/9
f 184/371/13 182/372/13 187/373/13
f 149/374/22 151/375/22 194/376/22
f 153/377/22 155/378/22 195/379/22
f 155/380/20 156/381/20 195/382/20
f 152/383/19 150/384/19 194/385/19
f 183/386/15 184/387/15 187/388/15
f 157/389/22 159/390/22 196/391/22
f 159/392/20 160/393/20 196/394/20
f 160/395/19 158/396/19 196/397/19
f 158/398/21 157/399/21 196/400/21
