# Blender v2.76 (sub 0) OBJ File: 'untitled.blend'
# www.blender.org
o Cube.001
v 0.375000 0.400000 0.375000
v 0.562500 -1.400000 0.187500
v 0.187500 -1.400000 0.562500
v 0.562500 -0.400000 0.562500
v 0.187500 -0.400000 0.187500
v 0.187500 -1.400000 0.187500
v 0.187500 -0.400000 0.562500
v 0.562500 -0.400000 0.187500
v 0.562500 -1.400000 0.562500
v -0.375000 0.400000 0.375000
v -0.562500 -1.400000 0.187500
v -0.187500 -1.400000 0.562500
v -0.562500 -0.400000 0.562500
v -0.187500 -0.400000 0.187500
v -0.187500 -1.400000 0.187500
v -0.187500 -0.400000 0.562500
v -0.562500 -0.400000 0.187500
v -0.562500 -1.400000 0.562500
v 0.375000 0.400000 -0.375000
v 0.562500 -1.400000 -0.187500
v 0.187500 -1.400000 -0.562500
v 0.562500 -0.400000 -0.562500
v 0.187500 -0.400000 -0.187500
v 0.187500 -1.400000 -0.187500
v 0.187500 -0.400000 -0.562500
v 0.562500 -0.400000 -0.187500
v 0.562500 -1.400000 -0.562500
v -0.375000 0.400000 -0.375000
v -0.562500 -1.400000 -0.187500
v -0.187500 -1.400000 -0.562500
v -0.562500 -0.400000 -0.562500
v -0.187500 -0.400000 -0.187500
v -0.187500 -1.400000 -0.187500
v -0.187500 -0.400000 -0.562500
v -0.562500 -0.400000 -0.187500
v -0.562500 -1.400000 -0.562500
vt 0.970431 0.599381
vt 0.900865 0.599381
vt 0.935648 0.455142
vt 0.902608 0.170569
vt 0.937391 0.026331
vt 0.972174 0.170569
vt 0.502942 0.752607
vt 0.502942 0.900553
vt 0.435120 0.767252
vt 0.203575 0.289895
vt 0.135753 0.275250
vt 0.203575 0.141949
vt 0.120447 0.427047
vt 0.190013 0.427047
vt 0.190013 0.602588
vt 0.120447 0.602588
vt 0.246715 0.802131
vt 0.246715 0.867958
vt 0.177149 0.867958
vt 0.177149 0.802131
vt 0.137975 0.731034
vt 0.207540 0.731034
vt 0.207540 0.906575
vt 0.137975 0.906575
vt 0.278262 0.026331
vt 0.347828 0.026331
vt 0.347828 0.201872
vt 0.278262 0.201872
vt 0.222610 0.658278
vt 0.153044 0.658278
vt 0.153044 0.482737
vt 0.222610 0.482737
vt 0.403480 0.855179
vt 0.438263 0.710940
vt 0.473046 0.855179
vt 0.178991 0.299228
vt 0.111169 0.284583
vt 0.178991 0.151282
vt 0.452329 0.758897
vt 0.520151 0.744252
vt 0.520151 0.892198
vt 0.346084 0.710940
vt 0.346084 0.858886
vt 0.278262 0.725585
vt 0.153044 0.201872
vt 0.153044 0.026331
vt 0.222610 0.026331
vt 0.222610 0.201872
vt 0.157642 0.789839
vt 0.227207 0.789839
vt 0.227207 0.855667
vt 0.157642 0.855667
vt 0.140274 0.895136
vt 0.140274 0.719595
vt 0.209839 0.719595
vt 0.209839 0.895136
vt 0.212297 0.428653
vt 0.212297 0.604194
vt 0.142732 0.604194
vt 0.142732 0.428653
vt 0.347828 0.482737
vt 0.347828 0.658278
vt 0.278262 0.658278
vt 0.278262 0.482737
vt 0.372555 0.881117
vt 0.440377 0.747816
vt 0.440377 0.895762
vt 0.970431 0.799989
vt 0.900865 0.799989
vt 0.935648 0.655751
vt 0.721738 0.402480
vt 0.653916 0.387835
vt 0.721738 0.254534
vt 0.091744 0.246855
vt 0.159566 0.113554
vt 0.159566 0.261500
vt 0.209999 0.419672
vt 0.209999 0.595213
vt 0.140433 0.595213
vt 0.140433 0.419672
vt 0.259958 0.866853
vt 0.190393 0.866853
vt 0.190393 0.801025
vt 0.259958 0.801025
vt 0.153044 0.430075
vt 0.153044 0.254534
vt 0.222610 0.254534
vt 0.222610 0.430075
vt 0.097392 0.254534
vt 0.097392 0.430075
vt 0.027826 0.430075
vt 0.027826 0.254534
vt 0.222131 0.729002
vt 0.222131 0.904543
vt 0.152566 0.904543
vt 0.152566 0.729002
vt 0.514678 0.874846
vt 0.445113 0.874846
vt 0.479896 0.730608
vt 0.135038 0.270259
vt 0.202860 0.136958
vt 0.202860 0.284904
vt 0.900865 0.398773
vt 0.935648 0.254534
vt 0.970431 0.398773
vt 0.777390 0.469787
vt 0.845213 0.455142
vt 0.845213 0.603088
vt 0.097392 0.201872
vt 0.027826 0.201872
vt 0.027826 0.026331
vt 0.097392 0.026331
vt 0.157323 0.845977
vt 0.157323 0.780149
vt 0.226888 0.780149
vt 0.226888 0.845977
vt 0.403480 0.254534
vt 0.473046 0.254534
vt 0.473046 0.430075
vt 0.403480 0.430075
vt 0.145510 0.419246
vt 0.215075 0.419246
vt 0.215075 0.594787
vt 0.145510 0.594787
vt 0.176060 0.911492
vt 0.106494 0.911492
vt 0.106494 0.735951
vt 0.176060 0.735951
vn 0.000000 0.228200 -0.973600
vn 0.973600 0.228200 0.000000
vn 0.000000 0.228200 0.973600
vn -0.973600 0.228200 0.000000
vn -1.000000 0.000000 0.000000
vn 0.000000 -1.000000 -0.000000
vn 0.000000 -0.000000 1.000000
vn 1.000000 0.000000 0.000000
vn 0.000000 0.000000 -1.000000
s off
f 8/1/1 5/2/1 1/3/1
f 8/4/2 1/5/2 4/6/2
f 4/7/3 1/8/3 7/9/3
f 5/10/4 7/11/4 1/12/4
f 7/13/5 5/14/5 6/15/5 3/16/5
f 3/17/6 6/18/6 2/19/6 9/20/6
f 4/21/7 7/22/7 3/23/7 9/24/7
f 8/25/8 4/26/8 9/27/8 2/28/8
f 5/29/9 8/30/9 2/31/9 6/32/9
f 17/33/1 10/34/1 14/35/1
f 17/36/4 13/37/4 10/38/4
f 13/39/3 16/40/3 10/41/3
f 14/42/2 10/43/2 16/44/2
f 16/45/8 12/46/8 15/47/8 14/48/8
f 12/49/6 18/50/6 11/51/6 15/52/6
f 13/53/7 18/54/7 12/55/7 16/56/7
f 17/57/5 11/58/5 18/59/5 13/60/5
f 14/61/9 15/62/9 11/63/9 17/64/9
f 26/65/3 19/66/3 23/67/3
f 26/68/2 22/69/2 19/70/2
f 22/71/1 25/72/1 19/73/1
f 23/74/4 19/75/4 25/76/4
f 25/77/5 21/78/5 24/79/5 23/80/5
f 21/81/6 27/82/6 20/83/6 24/84/6
f 22/85/9 27/86/9 21/87/9 25/88/9
f 26/89/8 20/90/8 27/91/8 22/92/8
f 23/93/7 24/94/7 20/95/7 26/96/7
f 35/97/3 32/98/3 28/99/3
f 35/100/4 28/101/4 31/102/4
f 31/103/1 28/104/1 34/105/1
f 32/106/2 34/107/2 28/108/2
f 34/109/8 32/110/8 33/111/8 30/112/8
f 30/113/6 33/114/6 29/115/6 36/116/6
f 31/117/9 34/118/9 30/119/9 36/120/9
f 35/121/5 31/122/5 36/123/5 29/124/5
f 32/125/7 35/126/7 29/127/7 33/128/7
