# Blender v2.76 (sub 0) OBJ File: 'spikes.blend'
# www.blender.org
o Cube.001
v 0.375000 0.400000 0.375000
v 0.562500 -0.400000 0.562500
v 0.187500 -0.400000 0.187500
v 0.187500 -0.400000 0.562500
v 0.562500 -0.400000 0.187500
v -0.375000 0.400000 0.375000
v -0.562500 -0.400000 0.562500
v -0.187500 -0.400000 0.187500
v -0.187500 -0.400000 0.562500
v -0.562500 -0.400000 0.187500
v 0.375000 0.400000 -0.375000
v 0.562500 -0.400000 -0.562500
v 0.187500 -0.400000 -0.187500
v 0.187500 -0.400000 -0.562500
v 0.562500 -0.400000 -0.187500
v -0.375000 0.400000 -0.375000
v -0.562500 -0.400000 -0.562500
v -0.187500 -0.400000 -0.187500
v -0.187500 -0.400000 -0.562500
v -0.562500 -0.400000 -0.187500
vt 0.145461 0.655435
vt 0.000000 0.655435
vt 0.072730 0.327717
vt 0.145461 1.000000
vt 0.218191 0.672283
vt 0.290922 1.000000
vt 0.429092 0.000000
vt 0.429092 0.336141
vt 0.287277 0.033274
vt 0.712723 0.663859
vt 0.570908 0.630585
vt 0.712723 0.327717
vt 0.000000 0.327717
vt 0.072731 0.000000
vt 0.145461 0.327717
vt 0.287277 0.672283
vt 0.145461 0.639009
vt 0.287277 0.336141
vt 0.000000 0.688709
vt 0.141816 0.655435
vt 0.141816 0.991576
vt 0.854539 0.663859
vt 0.854539 1.000000
vt 0.712723 0.697133
vt 0.287277 0.639009
vt 0.429092 0.672283
vt 0.865475 0.327717
vt 0.720014 0.327717
vt 0.792745 0.000000
vt 0.145461 0.302867
vt 0.287277 0.000000
vt 0.429092 0.966726
vt 0.570908 0.663859
vt 0.570908 1.000000
vt 0.574553 0.327717
vt 0.647284 0.000000
vt 0.712723 0.630585
vt 0.854539 0.327717
vt 0.429092 0.327717
vt 0.501823 0.000000
vt 0.429092 0.360991
vt 0.570908 0.327717
vt 0.854539 0.962988
vt 0.854539 0.813423
vt 1.000000 0.813423
vt 1.000000 0.962988
vt 1.000000 0.663859
vt 1.000000 0.327717
vt 1.000000 0.477282
vt 0.854539 0.477282
vt 1.000000 0.626846
vt 0.854539 0.626846
vn 0.000000 0.228200 -0.973600
vn 0.973600 0.228200 0.000000
vn 0.000000 0.228200 0.973600
vn -0.973600 0.228200 0.000000
vn 0.000000 -1.000000 -0.000000
s off
f 5/1/1 3/2/1 1/3/1
f 5/4/2 1/5/2 2/6/2
f 2/7/3 1/8/3 4/9/3
f 3/10/4 4/11/4 1/12/4
f 10/13/1 6/14/1 8/15/1
f 10/16/4 7/17/4 6/18/4
f 7/19/3 9/20/3 6/21/3
f 8/22/2 6/23/2 9/24/2
f 15/25/3 11/8/3 13/26/3
f 15/27/2 12/28/2 11/29/2
f 12/18/1 14/30/1 11/31/1
f 13/32/4 11/33/4 14/34/4
f 20/28/3 18/35/3 16/36/3
f 20/37/4 16/38/4 17/22/4
f 17/39/1 16/40/1 19/35/1
f 18/41/2 19/42/2 16/33/2
f 19/43/5 18/44/5 20/45/5 17/46/5
f 14/45/5 12/44/5 15/22/5 13/47/5
f 9/38/5 7/48/5 10/49/5 8/50/5
f 4/49/5 3/51/5 5/52/5 2/50/5
