# Blender v2.76 (sub 0) OBJ File: 'untitled.blend'
# www.blender.org
o Cube.001
v 0.375000 0.400000 0.375000
v 0.562500 -1.400000 0.187500
v 0.187500 -1.400000 0.562500
v 0.562500 -0.400000 0.562500
v 0.187500 -0.400000 0.187500
v 0.187500 -1.400000 0.187500
v 0.187500 -0.400000 0.562500
v 0.562500 -0.400000 0.187500
v 0.562500 -1.400000 0.562500
v -0.375000 0.400000 0.375000
v -0.562500 -1.400000 0.187500
v -0.187500 -1.400000 0.562500
v -0.562500 -0.400000 0.562500
v -0.187500 -0.400000 0.187500
v -0.187500 -1.400000 0.187500
v -0.187500 -0.400000 0.562500
v -0.562500 -0.400000 0.187500
v -0.562500 -1.400000 0.562500
v 0.375000 0.400000 -0.375000
v 0.562500 -1.400000 -0.187500
v 0.187500 -1.400000 -0.562500
v 0.562500 -0.400000 -0.562500
v 0.187500 -0.400000 -0.187500
v 0.187500 -1.400000 -0.187500
v 0.187500 -0.400000 -0.562500
v 0.562500 -0.400000 -0.187500
v 0.562500 -1.400000 -0.562500
v -0.375000 0.400000 -0.375000
v -0.562500 -1.400000 -0.187500
v -0.187500 -1.400000 -0.562500
v -0.562500 -0.400000 -0.562500
v -0.187500 -0.400000 -0.187500
v -0.187500 -1.400000 -0.187500
v -0.187500 -0.400000 -0.562500
v -0.562500 -0.400000 -0.187500
v -0.562500 -1.400000 -0.562500
vt 0.000000 0.000000
vn 0.000000 0.228200 -0.973600
vn 0.973600 0.228200 0.000000
vn 0.000000 0.228200 0.973600
vn -0.973600 0.228200 0.000000
vn -1.000000 0.000000 0.000000
vn 0.000000 -1.000000 -0.000000
vn 0.000000 -0.000000 1.000000
vn 1.000000 0.000000 0.000000
vn 0.000000 0.000000 -1.000000
s off
f 8/1/1 5/1/1 1/1/1
f 8/1/2 1/1/2 4/1/2
f 4/1/3 1/1/3 7/1/3
f 5/1/4 7/1/4 1/1/4
f 7/1/5 5/1/5 6/1/5 3/1/5
f 3/1/6 6/1/6 2/1/6 9/1/6
f 4/1/7 7/1/7 3/1/7 9/1/7
f 8/1/8 4/1/8 9/1/8 2/1/8
f 5/1/9 8/1/9 2/1/9 6/1/9
f 17/1/1 10/1/1 14/1/1
f 17/1/4 13/1/4 10/1/4
f 13/1/3 16/1/3 10/1/3
f 14/1/2 10/1/2 16/1/2
f 16/1/8 12/1/8 15/1/8 14/1/8
f 12/1/6 18/1/6 11/1/6 15/1/6
f 13/1/7 18/1/7 12/1/7 16/1/7
f 17/1/5 11/1/5 18/1/5 13/1/5
f 14/1/9 15/1/9 11/1/9 17/1/9
f 26/1/3 19/1/3 23/1/3
f 26/1/2 22/1/2 19/1/2
f 22/1/1 25/1/1 19/1/1
f 23/1/4 19/1/4 25/1/4
f 25/1/5 21/1/5 24/1/5 23/1/5
f 21/1/6 27/1/6 20/1/6 24/1/6
f 22/1/9 27/1/9 21/1/9 25/1/9
f 26/1/8 20/1/8 27/1/8 22/1/8
f 23/1/7 24/1/7 20/1/7 26/1/7
f 35/1/3 32/1/3 28/1/3
f 35/1/4 28/1/4 31/1/4
f 31/1/1 28/1/1 34/1/1
f 32/1/2 34/1/2 28/1/2
f 34/1/8 32/1/8 33/1/8 30/1/8
f 30/1/6 33/1/6 29/1/6 36/1/6
f 31/1/9 34/1/9 30/1/9 36/1/9
f 35/1/5 31/1/5 36/1/5 29/1/5
f 32/1/7 35/1/7 29/1/7 33/1/7
