# Blender v2.76 (sub 0) OBJ File: 'spike-test.blend'
# www.blender.org
o Cube.001
v 0.562500 -0.400000 -0.562500
v 0.187500 -0.400000 -0.562500
v 0.375000 0.400000 -0.375000
v 0.562500 -0.400000 -0.187500
v 0.562500 -1.400000 -0.562500
v 0.562500 -1.400000 -0.187500
v 0.187500 -1.400000 -0.562500
v 0.187500 -0.400000 -0.187500
v 0.187500 -1.400000 -0.187500
vt 0.712871 0.215250
vt 0.726452 0.155735
vt 0.850067 0.215250
vt 0.421792 0.032073
vt 0.421792 0.093118
vt 0.259006 0.093118
vt 0.259006 0.032073
vt 0.045654 0.842735
vt 0.032073 0.783220
vt 0.169269 0.783220
vt 0.700862 0.593883
vt 0.687281 0.534368
vt 0.824477 0.534368
vt 0.712871 0.091588
vt 0.726452 0.032073
vt 0.850067 0.091588
vt 0.226826 0.229000
vt 0.287871 0.229000
vt 0.287871 0.391786
vt 0.226826 0.391786
vt 0.115139 0.532536
vt 0.176184 0.532536
vt 0.176184 0.695322
vt 0.115139 0.695322
vt 0.194859 0.282456
vt 0.194859 0.343500
vt 0.032073 0.343500
vt 0.032073 0.282456
vn 0.000000 -0.228200 -0.973600
vn 0.000000 -0.000000 1.000000
vn 0.973600 -0.228200 -0.000000
vn -0.973600 -0.228200 -0.000000
vn 0.000000 -0.228200 0.973600
vn 0.000000 0.000000 -1.000000
vn 1.000000 0.000000 0.000000
vn -1.000000 0.000000 0.000000
s off
f 4/1/1 8/2/1 3/3/1
f 1/4/2 2/5/2 7/6/2 5/7/2
f 8/8/3 2/9/3 3/10/3
f 1/11/4 4/12/4 3/13/4
f 2/14/5 1/15/5 3/16/5
f 8/17/6 4/18/6 6/19/6 9/20/6
f 2/21/7 8/22/7 9/23/7 7/24/7
f 4/25/8 1/26/8 5/27/8 6/28/8
