# Blender v2.75 (sub 0) OBJ File: 'star.blend'
# www.blender.org
o Cube_Cube.001
v 0.127658 0.191572 0.087241
v 0.408317 0.155903 0.087241
v 0.206505 -0.043093 0.087241
v 0.260009 -0.333139 0.087241
v -0.000939 -0.193279 0.087241
v 0.000000 0.444072 0.087241
v -0.127658 0.191572 0.087241
v -0.408317 0.155903 0.087241
v -0.206505 -0.043093 0.087241
v -0.260009 -0.333139 0.087241
v 0.000939 -0.193279 0.087241
v 0.127658 0.191572 -0.087241
v 0.408317 0.155903 -0.087241
v 0.206505 -0.043093 -0.087241
v 0.260009 -0.333139 -0.087241
v -0.000939 -0.193279 -0.087241
v 0.000000 0.444072 -0.087241
v -0.127658 0.191572 -0.087241
v -0.408317 0.155903 -0.087241
v -0.206505 -0.043093 -0.087241
v -0.260009 -0.333139 -0.087241
v 0.000939 -0.193279 -0.087241
vt 0.162440 0.434818
vt 0.000000 0.331253
vt 0.162440 0.227689
vt 0.185386 0.000000
vt 0.313406 0.163723
vt 0.500000 0.120317
vt 0.410024 0.332015
vt 0.410024 0.330492
vt 0.500000 0.542190
vt 0.313406 0.498784
vt 0.185387 0.662507
vt 0.662440 0.227689
vt 0.685386 0.000000
vt 0.813406 0.163723
vt 1.000000 0.120317
vt 0.910024 0.332015
vt 0.910024 0.330492
vt 1.000000 0.542190
vt 0.813406 0.498784
vt 0.685387 0.662507
vt 0.662440 0.434818
vt 0.500000 0.331253
vt 0.254309 0.662507
vt 0.254309 0.765593
vt 0.226052 0.765593
vt 0.226052 0.662507
vt 0.084770 0.890196
vt 0.084770 0.662507
vt 0.113026 0.662507
vt 0.113026 0.890196
vt 0.028256 0.763163
vt 0.028257 1.000000
vt 0.000000 1.000000
vt 0.000000 0.763163
vt 0.255516 0.662507
vt 0.255516 0.698140
vt 0.254309 0.698140
vt 0.197796 0.889705
vt 0.197796 0.662507
vt 0.226052 0.889705
vt 0.169539 0.662507
vt 0.169539 0.890083
vt 0.141283 0.890083
vt 0.141283 0.662507
vt 0.056513 0.662507
vt 0.056513 0.900236
vt 0.028257 0.900236
vt 0.028257 0.662507
vt 0.141283 0.890196
vt 0.084770 0.899344
vt 0.056513 0.899344
vt 0.169539 0.889705
vt 0.000000 0.662507
vn 0.000000 -0.000000 1.000000
vn 0.000000 0.000000 -1.000000
vn 0.472400 -0.881400 0.000000
vn -0.126100 0.992000 0.000000
vn 0.983400 0.181400 0.000000
vn 0.000000 1.000000 0.000000
vn 0.892400 0.451200 0.000000
vn -0.702100 -0.712100 0.000000
vn -0.472400 -0.881400 0.000000
vn 0.126100 0.992000 0.000000
vn -0.983400 0.181400 0.000000
vn -0.892400 0.451200 0.000000
vn 0.702100 -0.712100 0.000000
s off
f 1/1/1 6/2/1 7/3/1 8/4/1 9/5/1 10/6/1 11/7/1 5/8/1 4/9/1 3/10/1 2/11/1
f 12/12/2 13/13/2 14/14/2 15/15/2 16/16/2 22/17/2 21/18/2 20/19/2 19/20/2 18/21/2 17/22/2
f 11/23/3 10/24/3 21/25/3 22/26/3
f 8/27/4 7/28/4 18/29/4 19/30/4
f 3/31/5 4/32/5 15/33/5 14/34/5
f 5/23/6 11/35/6 22/36/6 16/37/6
f 6/38/7 1/39/7 12/26/7 17/40/7
f 9/41/8 8/42/8 19/43/8 20/44/8
f 4/45/9 5/46/9 16/47/9 15/48/9
f 1/30/10 2/29/10 13/44/10 12/49/10
f 10/28/11 9/50/11 20/51/11 21/45/11
f 7/39/12 6/38/12 17/52/12 18/41/12
f 2/48/13 3/31/13 14/34/13 13/53/13
