# Blender v2.75 (sub 0) OBJ File: 'star.blend'
# www.blender.org
o Cube_Cube.001
v 0.127658 0.191572 0.087241
v 0.408317 0.155903 0.087241
v 0.206505 -0.043093 0.087241
v 0.260009 -0.333139 0.087241
v -0.000939 -0.193279 0.087241
v 0.000000 0.444072 0.087241
v -0.127658 0.191572 0.087241
v -0.408317 0.155903 0.087241
v -0.206505 -0.043093 0.087241
v -0.260009 -0.333139 0.087241
v 0.000939 -0.193279 0.087241
v 0.127658 0.191572 -0.087241
v 0.408317 0.155903 -0.087241
v 0.206505 -0.043093 -0.087241
v 0.260009 -0.333139 -0.087241
v -0.000939 -0.193279 -0.087241
v 0.000000 0.444072 -0.087241
v -0.127658 0.191572 -0.087241
v -0.408317 0.155903 -0.087241
v -0.206505 -0.043093 -0.087241
v -0.260009 -0.333139 -0.087241
v 0.000939 -0.193279 -0.087241
vn 0.000000 -0.000000 1.000000
vn 0.000000 0.000000 -1.000000
vn 0.472400 -0.881400 0.000000
vn -0.126100 0.992000 0.000000
vn 0.983400 0.181400 0.000000
vn 0.000000 1.000000 0.000000
vn 0.892400 0.451200 0.000000
vn -0.702100 -0.712100 0.000000
vn -0.472400 -0.881400 0.000000
vn 0.126100 0.992000 0.000000
vn -0.983400 0.181400 0.000000
vn -0.892400 0.451200 0.000000
vn 0.702100 -0.712100 0.000000
s off
f 1//1 6//1 7//1 8//1 9//1 10//1 11//1 5//1 4//1 3//1 2//1
f 12//2 13//2 14//2 15//2 16//2 22//2 21//2 20//2 19//2 18//2 17//2
f 11//3 10//3 21//3 22//3
f 8//4 7//4 18//4 19//4
f 3//5 4//5 15//5 14//5
f 5//6 11//6 22//6 16//6
f 6//7 1//7 12//7 17//7
f 9//8 8//8 19//8 20//8
f 4//9 5//9 16//9 15//9
f 1//10 2//10 13//10 12//10
f 10//11 9//11 20//11 21//11
f 7//12 6//12 17//12 18//12
f 2//13 3//13 14//13 13//13
