# Blender v2.76 (sub 0) OBJ File: 'tunnel-part2.blend'
# www.blender.org
o Cube.005
v 0.750000 0.000000 -1.050000
v 0.750000 0.000000 -0.750000
v -0.750000 0.000000 -0.750000
v -0.749999 0.000000 -1.050000
v 0.750000 1.680000 -1.050000
v 0.749999 1.680000 -0.750000
v -0.750000 1.680000 -0.750000
v -0.750000 1.680000 -1.050000
v 0.750000 1.980000 -1.050000
v 0.749999 1.980000 -0.750000
v 0.291898 1.980000 -1.050000
v -0.750000 1.980000 -0.750000
v 0.749999 1.680000 0.750000
v -0.750000 1.680000 0.750000
v 0.749999 1.980000 0.750000
v -0.750000 1.980000 0.750000
v 0.749999 1.680000 1.050000
v -0.750000 1.680000 1.050000
v 0.749999 1.980000 1.050000
v 0.291898 1.980000 1.050000
v 0.749999 0.000000 0.750000
v -0.750000 0.000000 0.750000
v 0.749999 0.000000 1.050000
v -0.750000 0.000000 1.050000
v 0.749999 2.280000 -0.750000
v -0.039228 2.280000 -0.750000
v 0.749999 2.280000 0.750000
v -0.039228 2.280000 0.750000
vn 0.000000 -1.000000 0.000000
vn 1.000000 -0.000000 0.000000
vn -0.000000 0.000000 1.000000
vn -1.000000 -0.000000 -0.000000
vn 0.000000 0.000000 -1.000000
vn 0.000000 1.000000 0.000000
vn -0.377100 0.654900 -0.654900
vn -0.377100 0.654900 0.654900
vn -0.388900 0.921300 -0.000000
s off
f 1//1 2//1 3//1 4//1
f 7//1 6//1 13//1 14//1
f 1//2 5//2 6//2 2//2
f 2//3 6//3 7//3 3//3
f 3//4 7//4 8//4 4//4
f 5//5 1//5 4//5 8//5
f 9//6 11//6 12//6 10//6
f 6//2 5//2 9//2 10//2
f 8//7 7//7 12//7 11//7
f 5//5 8//5 11//5 9//5
f 15//6 16//6 20//6 19//6
f 12//4 7//4 14//4 16//4
f 6//2 10//2 15//2 13//2
f 16//3 15//3 27//3 28//3
f 18//3 17//3 19//3 20//3
f 13//2 15//2 19//2 17//2
f 17//3 18//3 24//3 23//3
f 16//8 14//8 18//8 20//8
f 22//1 21//1 23//1 24//1
f 18//4 14//4 22//4 24//4
f 14//5 13//5 21//5 22//5
f 13//2 17//2 23//2 21//2
f 25//6 26//6 28//6 27//6
f 12//9 16//9 28//9 26//9
f 15//2 10//2 25//2 27//2
f 10//5 12//5 26//5 25//5
