# Blender v2.76 (sub 0) OBJ File: 'tunnel-part1.blend'
# www.blender.org
o Cube.014
v 0.750000 0.000000 -0.750000
v 0.749999 1.680000 -0.750000
v -0.750000 1.680000 -0.750000
v 0.749999 1.980000 -0.750000
v -0.750000 1.980000 -0.750000
v 0.749999 1.680000 0.750000
v -0.750000 1.680000 0.750000
v 0.749999 1.980000 0.750000
v -0.750000 1.980000 0.750000
v 0.749999 1.680000 1.050000
v -0.750000 1.680000 1.050000
v 0.749999 1.980000 1.050000
v -0.750000 1.980000 1.050000
v 0.749999 0.000000 0.750000
v -0.750000 0.000000 0.750000
v 0.749999 0.000000 1.050000
v -0.750000 0.000000 1.050000
v 0.749999 2.280000 -0.750000
v -0.750000 2.280000 -0.750000
v 0.749999 2.280000 0.750000
v -0.750000 2.280000 0.750000
v 1.050000 -0.000000 -0.750000
v 1.049999 1.680000 -0.750000
v 1.049999 1.980000 -0.750000
v 1.049999 1.680000 0.750000
v 1.049999 1.980000 0.750000
v 1.049999 1.680000 1.050000
v 1.049999 1.980000 1.050000
v 1.049999 -0.000000 1.050000
v 1.049999 -0.000000 0.750000
v 0.750000 0.000000 -1.050000
v 0.749999 1.680000 -1.050000
v -0.750000 1.680000 -1.050000
v 0.749999 1.980000 -1.050000
v -0.750000 1.980000 -1.050000
v 0.749999 2.280000 -1.050000
v -0.750000 2.280000 -1.050000
v 1.050000 0.000000 -1.050000
v 1.049999 1.680000 -1.050000
v 1.049999 1.980000 -1.050000
v 0.750000 0.000000 -2.250000
v 0.750000 1.680000 -2.250000
v -0.749999 1.680000 -2.250000
v 0.750000 1.980000 -2.250000
v -0.749999 1.980000 -2.250000
v 0.750000 2.280000 -2.250000
v -0.749999 2.280000 -2.250000
v 1.050000 0.000000 -2.250000
v 1.050000 1.680000 -2.250000
v 1.050000 1.980000 -2.250000
v -1.050000 1.980000 -0.750000
v -1.050000 1.680000 -0.750000
v -1.050000 1.980000 0.750000
v -1.050000 1.680000 0.750000
v -1.050000 1.980000 1.050000
v -1.050000 1.680000 1.050000
v -1.050000 0.000000 1.050000
v -1.050000 0.000000 0.750000
v -1.050000 2.280000 0.750000
v -1.050000 2.280000 -0.750000
v -1.050000 1.680000 -1.050000
v -1.050000 1.980000 -1.050000
v -1.049999 1.980000 -2.250000
v -1.049999 1.680000 -2.250000
v -2.250000 1.980000 -0.750000
v -2.250000 1.680000 -0.750000
v -2.250000 1.980000 0.750000
v -2.250000 1.680000 0.750000
v -2.250000 1.980000 1.050000
v -2.250000 1.680000 1.050000
v -2.250000 0.000000 1.050000
v -2.250000 0.000000 0.750000
v -2.250000 2.280000 0.750000
v -2.250000 2.280000 -0.750000
v -2.250000 1.680000 -1.050000
v -2.250000 1.980000 -1.050000
v -0.750000 0.000000 -1.050000
v -0.750000 0.000000 -0.750000
v -1.050000 0.000000 -1.050000
v -1.050000 0.000000 -0.750000
v -0.749999 0.000000 -2.250000
v -1.049999 -0.000000 -2.250000
v -2.250000 0.000000 -0.750000
v -2.250000 0.000000 -1.050000
v 0.749999 1.680000 -0.450000
v 0.749999 1.680000 -0.150000
v 0.749999 1.680000 0.150000
v 0.749999 1.680000 0.450000
v -0.750000 1.680000 0.450000
v -0.750000 1.680000 0.150000
v -0.750000 1.680000 -0.150000
v -0.750000 1.680000 -0.450000
v -0.750000 2.280000 0.450000
v -0.750000 2.280000 0.150000
v -0.750000 2.280000 -0.150000
v -0.750000 2.280000 -0.450000
v 0.749999 2.280000 -0.450000
v 0.749999 2.280000 -0.150000
v 0.749999 2.280000 0.150000
v 0.749999 2.280000 0.450000
v 1.049999 1.680000 -0.450000
v 1.049999 1.680000 -0.150000
v 1.049999 1.680000 0.150000
v 1.049999 1.680000 0.450000
v 1.049999 1.980000 -0.450000
v 1.049999 1.980000 -0.150000
v 1.049999 1.980000 0.150000
v 1.049999 1.980000 0.450000
v 0.749999 1.980000 0.450000
v 0.749999 1.980000 0.150000
v 0.749999 1.980000 -0.150000
v 0.749999 1.980000 -0.450000
v 1.049999 -0.000000 0.450000
v 1.049999 -0.000000 0.150000
v 1.050000 -0.000000 -0.150000
v 1.050000 -0.000000 -0.450000
v 0.749999 0.000000 0.450000
v 0.749999 0.000000 0.150000
v 0.750000 0.000000 -0.150000
v 0.750000 0.000000 -0.450000
v -1.050000 1.680000 0.450000
v -1.050000 1.680000 0.150000
v -1.050000 1.680000 -0.150000
v -1.050000 1.680000 -0.450000
v -1.050000 2.280000 0.450000
v -1.050000 2.280000 0.150000
v -1.050000 2.280000 -0.150000
v -1.050000 2.280000 -0.450000
v -2.250000 1.680000 0.450000
v -2.250000 1.680000 0.150000
v -2.250000 1.680000 -0.150000
v -2.250000 1.680000 -0.450000
v -2.250000 1.980000 0.450000
v -2.250000 1.980000 0.150000
v -2.250000 1.980000 -0.150000
v -2.250000 1.980000 -0.450000
v -2.250000 2.280000 0.450000
v -2.250000 2.280000 0.150000
v -2.250000 2.280000 -0.150000
v -2.250000 2.280000 -0.450000
v 0.449999 1.680000 -0.750000
v 0.150000 1.680000 -0.750000
v -0.150000 1.680000 -0.750000
v -0.450000 1.680000 -0.750000
v 0.449999 1.680000 0.750000
v 0.149999 1.680000 0.750000
v -0.150000 1.680000 0.750000
v -0.450000 1.680000 0.750000
v 0.449999 1.980000 0.750000
v 0.149999 1.980000 0.750000
v -0.150000 1.980000 0.750000
v -0.450000 1.980000 0.750000
v 0.449999 1.680000 1.050000
v 0.149999 1.680000 1.050000
v -0.150000 1.680000 1.050000
v -0.450000 1.680000 1.050000
v 0.449999 1.980000 1.050000
v 0.150000 1.980000 1.050000
v -0.150000 1.980000 1.050000
v -0.450000 1.980000 1.050000
v 0.449999 0.000000 0.750000
v 0.149999 0.000000 0.750000
v -0.150000 0.000000 0.750000
v -0.450000 0.000000 0.750000
v 0.449999 0.000000 1.050000
v 0.149999 0.000000 1.050000
v -0.150000 0.000000 1.050000
v -0.450000 0.000000 1.050000
v 0.450000 2.280000 -0.750000
v 0.150000 2.280000 -0.750000
v -0.150000 2.280000 -0.750000
v -0.450000 2.280000 -0.750000
v 0.449999 2.280000 0.750000
v 0.150000 2.280000 0.750000
v -0.150000 2.280000 0.750000
v -0.450000 2.280000 0.750000
v 0.450000 1.680000 -1.050000
v 0.150000 1.680000 -1.050000
v -0.150000 1.680000 -1.050000
v -0.450000 1.680000 -1.050000
v 0.450000 2.280000 -1.050000
v 0.150000 2.280000 -1.050000
v -0.150000 2.280000 -1.050000
v -0.450000 2.280000 -1.050000
v 0.450000 1.680000 -2.250000
v 0.150000 1.680000 -2.250000
v -0.150000 1.680000 -2.250000
v -0.450000 1.680000 -2.250000
v 0.450000 1.980000 -2.250000
v 0.150000 1.980000 -2.250000
v -0.150000 1.980000 -2.250000
v -0.450000 1.980000 -2.250000
v 0.450000 2.280000 -2.250000
v 0.150000 2.280000 -2.250000
v -0.150000 2.280000 -2.250000
v -0.449999 2.280000 -2.250000
v -0.450000 2.280000 -0.450000
v -0.150000 2.280000 -0.450000
v 0.150000 2.280000 -0.450000
v 0.450000 2.280000 -0.450000
v -0.450000 2.280000 -0.150000
v -0.150000 2.280000 -0.150000
v 0.150000 2.280000 -0.150000
v 0.449999 2.280000 -0.150000
v -0.450000 2.280000 0.150000
v -0.150000 2.280000 0.150000
v 0.150000 2.280000 0.150000
v 0.449999 2.280000 0.150000
v -0.450000 2.280000 0.450000
v -0.150000 2.280000 0.450000
v 0.150000 2.280000 0.450000
v 0.449999 2.280000 0.450000
v 0.449999 1.680000 -0.450000
v 0.150000 1.680000 -0.450000
v -0.150000 1.680000 -0.450000
v -0.450000 1.680000 -0.450000
v 0.449999 1.680000 -0.150000
v 0.150000 1.680000 -0.150000
v -0.150000 1.680000 -0.150000
v -0.450000 1.680000 -0.150000
v 0.449999 1.680000 0.150000
v 0.150000 1.680000 0.150000
v -0.150000 1.680000 0.150000
v -0.450000 1.680000 0.150000
v 0.449999 1.680000 0.450000
v 0.150000 1.680000 0.450000
v -0.150000 1.680000 0.450000
v -0.450000 1.680000 0.450000
v -1.950000 1.980000 -0.750000
v -1.650000 1.980000 -0.750000
v -1.350000 1.980000 -0.750000
v -1.350000 1.980000 -1.050000
v -1.650000 1.980000 -1.050000
v -1.950000 1.980000 -1.050000
v -1.950000 0.000000 0.750000
v -1.650000 0.000000 0.750000
v -1.350000 0.000000 0.750000
v -1.350000 0.000000 1.050000
v -1.650000 0.000000 1.050000
v -1.950000 0.000000 1.050000
v -1.350000 1.980000 1.050000
v -1.650000 1.980000 1.050000
v -1.950000 1.980000 1.050000
v -1.950000 1.680000 1.050000
v -1.650000 1.680000 1.050000
v -1.350000 1.680000 1.050000
v -1.350000 2.280000 0.750000
v -1.650000 2.280000 0.750000
v -1.950000 2.280000 0.750000
v -1.950000 1.980000 0.750000
v -1.650000 1.980000 0.750000
v -1.350000 1.980000 0.750000
v -1.950000 2.280000 -0.750000
v -1.650000 2.280000 -0.750000
v -1.350000 2.280000 -0.750000
v -1.350000 1.680000 0.750000
v -1.650000 1.680000 0.750000
v -1.950000 1.680000 0.750000
v -1.350000 2.280000 0.450000
v -1.650000 2.280000 0.450000
v -1.950000 2.280000 0.450000
v -1.350000 2.280000 0.150000
v -1.650000 2.280000 0.150000
v -1.950000 2.280000 0.150000
v -1.350000 2.280000 -0.150000
v -1.650000 2.280000 -0.150000
v -1.950000 2.280000 -0.150000
v -1.350000 2.280000 -0.450000
v -1.650000 2.280000 -0.450000
v -1.950000 2.280000 -0.450000
v -1.350000 1.680000 -0.450000
v -1.650000 1.680000 -0.450000
v -1.950000 1.680000 -0.450000
v -1.350000 1.680000 -0.150000
v -1.650000 1.680000 -0.150000
v -1.950000 1.680000 -0.150000
v -1.350000 1.680000 0.150000
v -1.650000 1.680000 0.150000
v -1.950000 1.680000 0.150000
v -1.350000 1.680000 0.450000
v -1.650000 1.680000 0.450000
v -1.950000 1.680000 0.450000
v 1.050000 1.980000 -1.350000
v 1.050000 1.980000 -1.650000
v 1.050000 1.980000 -1.950000
v -0.750000 1.980000 -1.950001
v -0.750000 1.980000 -1.650000
v -0.750000 1.980000 -1.350000
v -0.749999 2.280000 -1.350000
v -0.749999 2.280000 -1.650000
v -0.749999 2.280000 -1.950001
v 0.750000 1.980000 -1.950001
v 0.750000 1.980000 -1.650000
v 0.750000 1.980000 -1.350000
v 0.750000 2.280000 -1.950001
v 0.750000 2.280000 -1.650000
v 0.750000 2.280000 -1.350000
v 0.750000 1.680000 -1.350000
v 0.750000 1.680000 -1.650000
v 0.750000 1.680000 -1.950001
v 0.750000 0.000000 -1.950001
v 0.750000 0.000000 -1.650000
v 0.750000 0.000000 -1.350000
v 1.050000 0.000000 -1.350000
v 1.050000 0.000000 -1.650000
v 1.050000 0.000000 -1.950000
v 1.050000 1.680000 -1.950000
v 1.050000 1.680000 -1.650000
v 1.050000 1.680000 -1.350000
v -1.050000 1.980000 -1.950001
v -1.050000 1.980000 -1.650000
v -1.050000 1.980000 -1.350000
v 0.450000 1.680000 -1.350000
v 0.450000 1.680000 -1.650000
v 0.450000 1.680000 -1.950001
v 0.150000 1.680000 -1.350000
v 0.150000 1.680000 -1.650000
v 0.150000 1.680000 -1.950001
v -0.150000 1.680000 -1.350000
v -0.150000 1.680000 -1.650000
v -0.150000 1.680000 -1.950001
v -0.450000 1.680000 -1.350000
v -0.450000 1.680000 -1.650000
v -0.450000 1.680000 -1.950001
v -0.450000 2.280000 -1.350000
v -0.450000 2.280000 -1.650000
v -0.449999 2.280000 -1.950001
v -0.150000 2.280000 -1.350000
v -0.150000 2.280000 -1.650000
v -0.150000 2.280000 -1.950001
v 0.150000 2.280000 -1.350000
v 0.150000 2.280000 -1.650000
v 0.150000 2.280000 -1.950001
v 0.450000 2.280000 -1.350000
v 0.450000 2.280000 -1.650000
v 0.450000 2.280000 -1.950001
v -0.000000 2.580000 -0.000000
v -1.500000 2.580000 -0.000000
v 0.000000 2.580000 -1.500000
vn 0.000000 -1.000000 0.000000
vn 0.000000 1.000000 0.000000
vn 0.000000 0.000000 -1.000000
vn -0.000000 0.000000 1.000000
vn -1.000000 -0.000000 -0.000000
vn 1.000000 0.000000 0.000000
vn -0.000000 0.447200 0.894400
vn -0.894400 0.447200 0.000000
vn 0.000000 0.447200 -0.894400
vn 0.894400 0.447200 0.000000
s off
f 225//1 88//1 6//1 145//1
f 8//2 12//2 28//2 26//2
f 152//2 9//2 13//2 160//2
f 45//3 43//3 64//3 63//3
f 149//4 8//4 20//4 173//4
f 153//4 10//4 12//4 157//4
f 156//4 11//4 17//4 168//4
f 5//2 35//2 62//2 51//2
f 161//1 14//1 16//1 165//1
f 19//3 5//3 51//3 60//3
f 145//3 6//3 14//3 161//3
f 209//2 93//2 21//2 176//2
f 7//3 15//3 58//3 54//3
f 16//1 14//1 30//1 29//1
f 1//5 2//5 32//5 31//5
f 18//6 4//6 34//6 36//6
f 104//6 108//6 26//6 25//6
f 25//6 26//6 28//6 27//6
f 25//6 27//6 29//6 30//6
f 100//6 20//6 8//6 109//6
f 10//4 16//4 29//4 27//4
f 169//2 18//2 36//2 181//2
f 108//2 109//2 8//2 26//2
f 9//4 21//4 59//4 53//4
f 12//4 10//4 27//4 28//4
f 104//6 25//6 30//6 113//6
f 113//1 30//1 14//1 117//1
f 117//5 14//5 6//5 88//5
f 295//6 292//6 44//6 46//6
f 292//2 285//2 50//2 44//2
f 286//5 291//5 47//5 45//5
f 22//1 1//1 31//1 38//1
f 144//1 3//1 33//1 180//1
f 23//6 22//6 38//6 39//6
f 4//2 24//2 40//2 34//2
f 24//6 23//6 39//6 40//6
f 5//5 19//5 37//5 35//5
f 192//3 45//3 47//3 196//3
f 185//3 189//3 44//3 42//3
f 50//3 49//3 42//3 44//3
f 42//3 49//3 48//3 41//3
f 301//5 300//5 42//5 41//5
f 307//6 306//6 48//6 49//6
f 336//2 295//2 46//2 193//2
f 306//1 301//1 41//1 48//1
f 180//1 33//1 43//1 188//1 324//1 323//1 322//1
f 285//6 307//6 49//6 50//6
f 240//4 244//4 70//4 71//4
f 250//4 249//4 73//4 67//4
f 244//4 243//4 69//4 70//4
f 229//2 234//2 76//2 65//2
f 235//1 240//1 71//1 72//1
f 61//5 62//5 312//5 311//5 310//5 63//5 64//5
f 286//2 45//2 63//2 310//2
f 11//4 13//4 55//4 56//4
f 96//2 19//2 60//2 128//2
f 15//1 17//1 57//1 58//1
f 13//2 9//2 53//2 55//2
f 89//1 7//1 54//1 121//1
f 17//4 11//4 56//4 57//4
f 133//5 129//5 68//5 67//5
f 67//5 68//5 70//5 69//5
f 70//5 68//5 72//5 71//5
f 133//5 67//5 73//5 137//5
f 66//5 65//5 76//5 75//5
f 62//3 61//3 75//3 76//3 234//3 233//3 232//3
f 243//2 250//2 67//2 69//2
f 253//3 229//3 65//3 74//3
f 282//1 258//1 68//1 129//1
f 258//3 235//3 72//3 68//3
f 61//2 75//2 66//2 52//2
f 270//2 253//2 74//2 140//2
f 80//1 83//1 84//1 79//1
f 64//2 61//2 33//2 43//2
f 78//1 80//1 79//1 77//1
f 33//6 3//6 78//6 77//6
f 3//4 52//4 80//4 78//4
f 83//4 80//4 52//4 66//4
f 75//5 84//5 83//5 66//5
f 81//6 43//6 33//6 77//6
f 82//3 64//3 43//3 81//3
f 64//5 82//5 79//5 61//5
f 79//3 84//3 75//3 61//3
f 79//1 82//1 81//1 77//1
f 249//2 261//2 137//2 73//2
f 261//2 264//2 138//2 137//2
f 264//2 267//2 139//2 138//2
f 267//2 270//2 140//2 139//2
f 52//1 124//1 271//1 272//1 273//1 132//1 66//1
f 273//1 276//1 131//1 132//1
f 276//1 279//1 130//1 131//1
f 279//1 282//1 129//1 130//1
f 65//5 136//5 140//5 74//5
f 136//5 135//5 139//5 140//5
f 135//5 134//5 138//5 139//5
f 134//5 133//5 137//5 138//5
f 65//5 66//5 132//5 136//5
f 136//5 132//5 131//5 135//5
f 135//5 131//5 130//5 134//5
f 134//5 130//5 129//5 133//5
f 3//1 92//1 124//1 52//1
f 92//1 91//1 123//1 124//1
f 91//1 90//1 122//1 123//1
f 90//1 89//1 121//1 122//1
f 21//2 93//2 125//2 59//2
f 93//2 94//2 126//2 125//2
f 94//2 95//2 127//2 126//2
f 95//2 96//2 128//2 127//2
f 1//5 120//5 85//5 2//5
f 120//5 119//5 86//5 85//5
f 119//5 118//5 87//5 86//5
f 118//5 117//5 88//5 87//5
f 22//1 116//1 120//1 1//1
f 116//1 115//1 119//1 120//1
f 115//1 114//1 118//1 119//1
f 114//1 113//1 117//1 118//1
f 23//6 101//6 116//6 22//6
f 101//6 102//6 115//6 116//6
f 102//6 103//6 114//6 115//6
f 103//6 104//6 113//6 114//6
f 24//2 4//2 112//2 105//2
f 105//2 112//2 111//2 106//2
f 106//2 111//2 110//2 107//2
f 107//2 110//2 109//2 108//2
f 18//6 97//6 112//6 4//6
f 97//6 98//6 111//6 112//6
f 98//6 99//6 110//6 111//6
f 99//6 100//6 109//6 110//6
f 23//6 24//6 105//6 101//6
f 101//6 105//6 106//6 102//6
f 102//6 106//6 107//6 103//6
f 103//6 107//6 108//6 104//6
f 172//2 19//2 96//2 197//2
f 197//2 96//2 95//2 201//2
f 201//2 95//2 94//2 205//2
f 205//2 94//2 93//2 209//2
f 141//1 2//1 85//1 213//1
f 213//1 85//1 86//1 217//1
f 217//1 86//1 87//1 221//1
f 221//1 87//1 88//1 225//1
f 90//1 224//1 228//1 89//1
f 224//1 223//1 227//1 228//1
f 223//1 222//1 226//1 227//1
f 222//1 221//1 225//1 226//1
f 91//1 220//1 224//1 90//1
f 220//1 219//1 223//1 224//1
f 219//1 218//1 222//1 223//1
f 218//1 217//1 221//1 222//1
f 92//1 216//1 220//1 91//1
f 216//1 215//1 219//1 220//1
f 215//1 214//1 218//1 219//1
f 214//1 213//1 217//1 218//1
f 3//1 144//1 216//1 92//1
f 144//1 143//1 215//1 216//1
f 143//1 142//1 214//1 215//1
f 142//1 141//1 213//1 214//1
f 99//2 208//2 212//2 100//2
f 208//2 207//2 211//2 212//2
f 207//2 206//2 210//2 211//2
f 206//2 205//2 209//2 210//2
f 98//2 204//2 208//2 99//2
f 204//2 203//2 207//2 208//2
f 202//2 201//2 205//2 206//2
f 97//2 200//2 204//2 98//2
f 200//2 199//2 203//2 204//2
f 199//2 198//2 202//2 203//2
f 198//2 197//2 201//2 202//2
f 18//2 169//2 200//2 97//2
f 169//2 170//2 199//2 200//2
f 170//2 171//2 198//2 199//2
f 171//2 172//2 197//2 198//2
f 300//1 315//1 185//1 42//1
f 315//1 318//1 186//1 185//1
f 318//1 321//1 187//1 186//1
f 321//1 324//1 188//1 187//1
f 291//2 327//2 196//2 47//2
f 327//2 330//2 195//2 196//2
f 330//2 333//2 194//2 195//2
f 333//2 336//2 193//2 194//2
f 43//3 45//3 192//3 188//3
f 188//3 192//3 191//3 187//3
f 187//3 191//3 190//3 186//3
f 186//3 190//3 189//3 185//3
f 44//3 189//3 193//3 46//3
f 189//3 190//3 194//3 193//3
f 190//3 191//3 195//3 194//3
f 191//3 192//3 196//3 195//3
f 2//1 141//1 177//1 32//1
f 141//1 142//1 178//1 177//1
f 142//1 143//1 179//1 178//1
f 143//1 144//1 180//1 179//1
f 19//2 172//2 184//2 37//2
f 172//2 171//2 183//2 184//2
f 171//2 170//2 182//2 183//2
f 170//2 169//2 181//2 182//2
f 100//2 212//2 173//2 20//2
f 212//2 211//2 174//2 173//2
f 211//2 210//2 175//2 174//2
f 210//2 209//2 176//2 175//2
f 7//3 148//3 164//3 15//3
f 148//3 147//3 163//3 164//3
f 147//3 146//3 162//3 163//3
f 146//3 145//3 161//3 162//3
f 15//1 164//1 168//1 17//1
f 164//1 163//1 167//1 168//1
f 163//1 162//1 166//1 167//1
f 162//1 161//1 165//1 166//1
f 10//4 153//4 165//4 16//4
f 153//4 154//4 166//4 165//4
f 154//4 155//4 167//4 166//4
f 155//4 156//4 168//4 167//4
f 11//4 156//4 160//4 13//4
f 156//4 155//4 159//4 160//4
f 155//4 154//4 158//4 159//4
f 154//4 153//4 157//4 158//4
f 9//4 152//4 176//4 21//4
f 152//4 151//4 175//4 176//4
f 151//4 150//4 174//4 175//4
f 150//4 149//4 173//4 174//4
f 8//2 149//2 157//2 12//2
f 149//2 150//2 158//2 157//2
f 150//2 151//2 159//2 158//2
f 151//2 152//2 160//2 159//2
f 89//1 228//1 148//1 7//1
f 228//1 227//1 147//1 148//1
f 227//1 226//1 146//1 147//1
f 226//1 225//1 145//1 146//1
f 122//1 121//1 280//1 277//1
f 277//1 280//1 281//1 278//1
f 278//1 281//1 282//1 279//1
f 123//1 122//1 277//1 274//1
f 274//1 277//1 278//1 275//1
f 275//1 278//1 279//1 276//1
f 124//1 123//1 274//1 271//1
f 271//1 274//1 275//1 272//1
f 272//1 275//1 276//1 273//1
f 127//2 128//2 268//2 265//2
f 265//2 268//2 269//2 266//2
f 266//2 269//2 270//2 267//2
f 126//2 127//2 265//2 262//2
f 263//2 266//2 267//2 264//2
f 125//2 126//2 262//2 259//2
f 259//2 262//2 263//2 260//2
f 260//2 263//2 264//2 261//2
f 59//2 125//2 259//2 247//2
f 247//2 259//2 260//2 248//2
f 248//2 260//2 261//2 249//2
f 128//2 60//2 255//2 268//2
f 268//2 255//2 254//2 269//2
f 269//2 254//2 253//2 270//2
f 54//3 58//3 237//3 256//3
f 256//3 237//3 236//3 257//3
f 257//3 236//3 235//3 258//3
f 121//1 54//1 256//1 280//1
f 280//1 256//1 257//1 281//1
f 281//1 257//1 258//1 282//1
f 60//3 51//3 231//3 255//3
f 255//3 231//3 230//3 254//3
f 254//3 230//3 229//3 253//3
f 55//2 53//2 252//2 241//2
f 241//2 252//2 251//2 242//2
f 242//2 251//2 250//2 243//2
f 58//1 57//1 238//1 237//1
f 237//1 238//1 239//1 236//1
f 236//1 239//1 240//1 235//1
f 51//2 62//2 232//2 231//2
f 231//2 232//2 233//2 230//2
f 230//2 233//2 234//2 229//2
f 56//4 55//4 241//4 246//4
f 246//4 241//4 242//4 245//4
f 245//4 242//4 243//4 244//4
f 53//4 59//4 247//4 252//4
f 252//4 247//4 248//4 251//4
f 251//4 248//4 249//4 250//4
f 57//4 56//4 246//4 238//4
f 238//4 246//4 245//4 239//4
f 239//4 245//4 244//4 240//4
f 182//2 181//2 334//2 331//2
f 331//2 334//2 335//2 332//2
f 332//2 335//2 336//2 333//2
f 183//2 182//2 331//2 328//2
f 206//7 207//7 337//7
f 329//2 332//2 333//2 330//2
f 184//2 183//2 328//2 325//2
f 325//2 328//2 329//2 326//2
f 326//2 329//2 330//2 327//2
f 37//2 184//2 325//2 289//2
f 289//2 325//2 326//2 290//2
f 290//2 326//2 327//2 291//2
f 179//1 180//1 322//1 319//1
f 319//1 322//1 323//1 320//1
f 320//1 323//1 324//1 321//1
f 178//1 179//1 319//1 316//1
f 316//1 319//1 320//1 317//1
f 317//1 320//1 321//1 318//1
f 177//1 178//1 316//1 313//1
f 313//1 316//1 317//1 314//1
f 314//1 317//1 318//1 315//1
f 32//1 177//1 313//1 298//1
f 298//1 313//1 314//1 299//1
f 299//1 314//1 315//1 300//1
f 35//2 288//2 312//2 62//2
f 288//2 287//2 311//2 312//2
f 287//2 286//2 310//2 311//2
f 40//6 39//6 309//6 283//6
f 283//6 309//6 308//6 284//6
f 284//6 308//6 307//6 285//6
f 38//1 31//1 303//1 304//1
f 304//1 303//1 302//1 305//1
f 305//1 302//1 301//1 306//1
f 181//2 36//2 297//2 334//2
f 334//2 297//2 296//2 335//2
f 335//2 296//2 295//2 336//2
f 39//6 38//6 304//6 309//6
f 309//6 304//6 305//6 308//6
f 308//6 305//6 306//6 307//6
f 31//5 32//5 298//5 303//5
f 303//5 298//5 299//5 302//5
f 302//5 299//5 300//5 301//5
f 35//5 37//5 289//5 288//5
f 288//5 289//5 290//5 287//5
f 287//5 290//5 291//5 286//5
f 34//2 40//2 283//2 294//2
f 294//2 283//2 284//2 293//2
f 293//2 284//2 285//2 292//2
f 36//6 34//6 294//6 297//6
f 297//6 294//6 293//6 296//6
f 296//6 293//6 292//6 295//6
f 202//8 206//8 337//8
f 328//7 331//7 339//7
f 203//9 202//9 337//9
f 329//8 328//8 339//8
f 331//10 332//10 339//10
f 332//9 329//9 339//9
f 207//10 203//10 337//10
f 263//7 262//7 338//7
f 265//9 266//9 338//9
f 262//10 265//10 338//10
f 266//8 263//8 338//8
