# Blender v2.77 (sub 0) OBJ File: 'character31.blend'
# www.blender.org
o Cube.002_Cube.003
v -0.022611 -0.114085 -0.509551
v -0.022611 -0.068862 -0.509551
v -0.022611 -0.114085 -0.554774
v -0.022611 -0.068862 -0.554774
v 0.022611 -0.114085 -0.509551
v 0.022611 -0.068862 -0.509551
v 0.022611 -0.114085 -0.554774
v 0.022611 -0.068862 -0.554774
v -0.017979 -0.067242 -0.571288
v -0.017979 -0.098476 -0.589101
v 0.017979 -0.067242 -0.571288
v 0.017979 -0.098476 -0.589101
v -0.011969 -0.049162 -0.611603
v -0.011867 -0.075295 -0.623891
v 0.011867 -0.056023 -0.596814
v 0.011969 -0.082156 -0.609102
v 0.007250 -0.044053 -0.632085
v 0.007322 -0.062657 -0.640832
v 0.024218 -0.048937 -0.621556
v 0.024291 -0.067541 -0.630304
v 0.035869 -0.030525 -0.664096
v 0.033519 -0.050030 -0.670150
v 0.037638 -0.036790 -0.644596
v 0.035288 -0.056295 -0.650649
v 0.051501 -0.037789 -0.662851
v 0.050235 -0.048301 -0.666114
v 0.052454 -0.041165 -0.652342
v 0.051188 -0.051678 -0.655604
v 0.364680 -0.572092 0.435320
v 0.359407 -0.617687 0.440593
v 0.364680 -0.572092 0.364680
v 0.359407 -0.617687 0.359407
v 0.435320 -0.572092 0.435320
v 0.440593 -0.617687 0.440593
v 0.435320 -0.572092 0.364680
v 0.440593 -0.617687 0.359407
v 0.350095 -0.300274 0.350095
v 0.350095 -0.300274 0.449905
v 0.449905 -0.300274 0.350095
v 0.449905 -0.300274 0.449905
v -0.364680 -0.572092 0.435320
v -0.359407 -0.617687 0.440593
v -0.364680 -0.572092 0.364680
v -0.359407 -0.617687 0.359407
v -0.435320 -0.572092 0.435320
v -0.440593 -0.617687 0.440593
v -0.435320 -0.572092 0.364680
v -0.440593 -0.617687 0.359407
v -0.350095 -0.300274 0.350095
v -0.350095 -0.300274 0.449905
v -0.449905 -0.300274 0.350095
v -0.449905 -0.300274 0.449905
v 0.364680 -0.572092 -0.435320
v 0.359407 -0.617687 -0.440593
v 0.364680 -0.572092 -0.364680
v 0.359407 -0.617687 -0.359407
v 0.435320 -0.572092 -0.435320
v 0.440593 -0.617687 -0.440593
v 0.435320 -0.572092 -0.364680
v 0.440593 -0.617687 -0.359407
v 0.350095 -0.300274 -0.350095
v 0.350095 -0.300274 -0.449905
v 0.449905 -0.300274 -0.350095
v 0.449905 -0.300274 -0.449905
v -0.364680 -0.572092 -0.435320
v -0.359407 -0.617687 -0.440593
v -0.364680 -0.572092 -0.364680
v -0.359407 -0.617687 -0.359407
v -0.435320 -0.572092 -0.435320
v -0.440593 -0.617687 -0.440593
v -0.435320 -0.572092 -0.364680
v -0.440593 -0.617687 -0.359407
v -0.350095 -0.300274 -0.350095
v -0.350095 -0.300274 -0.449905
v -0.449905 -0.300274 -0.350095
v -0.449905 -0.300274 -0.449905
v 0.239246 0.313741 0.208266
v 0.185172 0.694591 0.277597
v 0.239246 0.326282 0.087406
v 0.209592 0.593346 0.141781
v 0.360754 0.313741 0.208266
v 0.414828 0.694591 0.277597
v 0.360754 0.326282 0.087406
v 0.390408 0.593346 0.141781
v -0.239246 0.313741 0.208266
v -0.185172 0.694591 0.277597
v -0.239246 0.326282 0.087406
v -0.209592 0.593346 0.141781
v -0.360754 0.313741 0.208266
v -0.414828 0.694591 0.277597
v -0.360754 0.326282 0.087406
v -0.390408 0.593346 0.141781
v -0.221967 -0.266477 0.649818
v -0.221967 0.135024 0.649818
v -0.120431 -0.174646 0.300353
v -0.120431 0.043193 0.300353
v 0.221967 -0.266477 0.649818
v 0.221967 0.135024 0.649818
v 0.120431 -0.174646 0.300353
v 0.120431 0.043193 0.300353
v -0.500000 -0.500000 0.500000
v -0.500000 0.500000 0.500000
v -0.500000 -0.500000 -0.500000
v -0.500000 0.500000 -0.500000
v 0.500000 -0.500000 0.500000
v 0.500000 0.500000 0.500000
v 0.500000 -0.500000 -0.500000
v 0.500000 0.500000 -0.500000
vt 0.9740 0.0278
vt 0.9727 0.0408
vt 0.9667 0.0391
vt 0.9681 0.0262
vt 0.9657 0.7862
vt 0.9529 0.7887
vt 0.9523 0.7783
vt 0.9625 0.7764
vt 0.9727 0.2480
vt 0.9741 0.2609
vt 0.9682 0.2627
vt 0.9667 0.2497
vt 0.8925 0.3150
vt 0.8925 0.3281
vt 0.8863 0.3281
vt 0.8863 0.3150
vt 0.9553 0.8015
vt 0.9681 0.7990
vt 0.9678 0.8564
vt 0.9652 0.8692
vt 0.9525 0.8665
vt 0.9551 0.8538
vt 0.9521 0.7676
vt 0.9596 0.7706
vt 0.9629 0.8736
vt 0.9528 0.8715
vt 0.9724 0.0456
vt 0.9677 0.0496
vt 0.9676 0.2393
vt 0.9723 0.2432
vt 0.9729 0.2354
vt 0.9691 0.2329
vt 0.9704 0.2263
vt 0.9731 0.2281
vt 0.9597 0.8807
vt 0.9521 0.8836
vt 0.9735 0.0579
vt 0.9697 0.0604
vt 0.9707 0.0659
vt 0.9734 0.0641
vt 0.9740 0.0740
vt 0.9713 0.0750
vt 0.9566 0.7614
vt 0.9619 0.7636
vt 0.9617 0.8885
vt 0.9563 0.8906
vt 0.9639 0.7570
vt 0.9623 0.7514
vt 0.9672 0.7516
vt 0.9681 0.7546
vt 0.9641 0.8960
vt 0.9624 0.9015
vt 0.9713 0.2202
vt 0.9741 0.2212
vt 0.2667 0.9598
vt 0.2667 0.9567
vt 0.2682 0.9572
vt 0.2682 0.9603
vt 0.9678 0.8990
vt 0.9669 0.9020
vt 0.9468 0.3193
vt 0.9443 0.3198
vt 0.9455 0.3153
vt 0.9468 0.3150
vt 0.2124 0.9567
vt 0.2149 0.9568
vt 0.2149 0.9614
vt 0.2135 0.9614
vt 0.0542 0.8503
vt 0.0523 0.8567
vt 0.0322 0.8589
vt 0.0312 0.8528
vt 0.8890 0.1669
vt 0.8905 0.1608
vt 0.9107 0.1608
vt 0.9123 0.1669
vt 0.1197 0.8873
vt 0.1208 0.8812
vt 0.1408 0.8834
vt 0.1428 0.8898
vt 0.8890 0.2627
vt 0.8905 0.2562
vt 0.9107 0.2562
vt 0.9123 0.2627
vt 0.8863 0.1227
vt 0.9149 0.1227
vt 0.8720 0.9727
vt 0.8720 0.9492
vt 0.8952 0.9492
vt 0.8952 0.9727
vt 0.8495 0.6984
vt 0.8495 0.6695
vt 0.8780 0.6695
vt 0.8780 0.6984
vt 0.8863 0.2192
vt 0.9149 0.2192
vt 0.1145 0.8432
vt 0.1428 0.8463
vt 0.0542 0.8938
vt 0.0259 0.8969
vt 0.6424 0.8781
vt 0.6194 0.8756
vt 0.6204 0.8695
vt 0.6405 0.8717
vt 0.7258 0.9073
vt 0.7025 0.9073
vt 0.7040 0.9012
vt 0.7242 0.9012
vt 0.8773 0.7539
vt 0.9003 0.7514
vt 0.8984 0.7578
vt 0.8784 0.7600
vt 0.6400 0.9738
vt 0.6168 0.9738
vt 0.6183 0.9674
vt 0.6385 0.9674
vt 0.6998 0.8631
vt 0.7284 0.8631
vt 0.1376 0.9656
vt 0.1145 0.9656
vt 0.1145 0.9421
vt 0.1376 0.9421
vt 0.9298 0.6695
vt 0.9582 0.6695
vt 0.9582 0.6984
vt 0.9298 0.6984
vt 0.6141 0.9304
vt 0.6427 0.9304
vt 0.9003 0.7949
vt 0.8720 0.7980
vt 0.6141 0.8315
vt 0.6424 0.8346
vt 0.2177 0.8603
vt 0.2407 0.8578
vt 0.2388 0.8642
vt 0.2187 0.8664
vt 0.9555 0.6141
vt 0.9323 0.6141
vt 0.9338 0.6076
vt 0.9540 0.6076
vt 0.8819 0.4365
vt 0.8589 0.4340
vt 0.8599 0.4279
vt 0.8800 0.4300
vt 0.8119 0.9073
vt 0.7886 0.9073
vt 0.7901 0.9012
vt 0.8103 0.9012
vt 0.9296 0.5706
vt 0.9582 0.5706
vt 0.9570 0.5123
vt 0.9338 0.5123
vt 0.9338 0.4888
vt 0.9570 0.4888
vt 0.8821 0.5177
vt 0.8536 0.5177
vt 0.8536 0.4888
vt 0.8821 0.4888
vt 0.7859 0.8631
vt 0.8145 0.8631
vt 0.8536 0.3899
vt 0.8819 0.3929
vt 0.2407 0.9013
vt 0.2124 0.9044
vt 0.8548 0.6147
vt 0.8558 0.6086
vt 0.8759 0.6108
vt 0.8778 0.6172
vt 0.9364 0.4333
vt 0.9379 0.4268
vt 0.9581 0.4268
vt 0.9596 0.4333
vt 0.9003 0.8503
vt 0.8984 0.8567
vt 0.8784 0.8589
vt 0.8773 0.8528
vt 0.9123 0.0262
vt 0.9107 0.0322
vt 0.8905 0.0322
vt 0.8890 0.0262
vt 0.9337 0.3899
vt 0.9623 0.3899
vt 0.0259 0.9727
vt 0.0259 0.9492
vt 0.0491 0.9492
vt 0.0491 0.9727
vt 0.3230 0.9688
vt 0.3230 0.9399
vt 0.3514 0.9399
vt 0.3514 0.9688
vt 0.9149 0.0704
vt 0.8863 0.0704
vt 0.9003 0.8938
vt 0.8720 0.8969
vt 0.8495 0.5706
vt 0.8778 0.5737
vt 0.3573 0.8876
vt 0.3245 0.8660
vt 0.3230 0.8282
vt 0.3573 0.8341
vt 0.5293 0.8282
vt 0.5293 0.8806
vt 0.4951 0.8720
vt 0.4951 0.8368
vt 0.1160 0.7531
vt 0.1488 0.7315
vt 0.1488 0.7850
vt 0.1145 0.7909
vt 0.3230 0.7759
vt 0.3230 0.7095
vt 0.3725 0.7251
vt 0.3725 0.7603
vt 0.4439 0.9680
vt 0.4091 0.9680
vt 0.4091 0.9329
vt 0.4439 0.9329
vt 0.0627 0.7980
vt 0.0259 0.7909
vt 0.0259 0.7386
vt 0.0627 0.7315
vt 0.7341 0.7514
vt 0.7341 0.8049
vt 0.6998 0.8108
vt 0.7014 0.7730
vt 0.4091 0.8282
vt 0.4433 0.8368
vt 0.4433 0.8720
vt 0.4091 0.8806
vt 0.7875 0.7892
vt 0.7859 0.7514
vt 0.8202 0.7573
vt 0.8202 0.8108
vt 0.4242 0.7095
vt 0.4737 0.7251
vt 0.4737 0.7603
vt 0.4242 0.7759
vt 0.4957 0.9680
vt 0.4957 0.9329
vt 0.5304 0.9329
vt 0.5304 0.9680
vt 0.5623 0.7095
vt 0.5623 0.7759
vt 0.5255 0.7689
vt 0.5255 0.7165
vt 0.2672 0.5507
vt 0.2672 0.6509
vt 0.2375 0.6497
vt 0.2124 0.5486
vt 0.6141 0.7792
vt 0.6141 0.7095
vt 0.6439 0.7095
vt 0.6439 0.7792
vt 0.2672 0.7032
vt 0.2672 0.8034
vt 0.2124 0.8055
vt 0.2375 0.7043
vt 0.2124 0.4963
vt 0.2124 0.3678
vt 0.2672 0.3678
vt 0.2672 0.4963
vt 0.6998 0.3899
vt 0.8018 0.4192
vt 0.8018 0.4889
vt 0.6998 0.5183
vt 0.6998 0.5706
vt 0.7977 0.6000
vt 0.7977 0.6697
vt 0.6998 0.6991
vt 0.8345 0.0495
vt 0.8345 0.3375
vt 0.6998 0.3142
vt 0.6998 0.0262
vt 0.5114 0.6572
vt 0.5114 0.3678
vt 0.6480 0.3678
vt 0.6480 0.6572
vt 0.1606 0.3678
vt 0.1606 0.6558
vt 0.0259 0.6792
vt 0.0259 0.3912
vt 0.4596 0.3678
vt 0.4596 0.6572
vt 0.3230 0.6572
vt 0.3230 0.3678
vt 0.3111 0.3155
vt 0.0259 0.3155
vt 0.0259 0.0262
vt 0.3111 0.0262
vt 0.6480 0.3155
vt 0.3629 0.3155
vt 0.3629 0.0262
vt 0.6480 0.0262
vn -1.0000 0.0000 0.0000
vn 0.0000 -0.9103 -0.4139
vn 1.0000 0.0000 0.0000
vn 0.0000 0.0000 1.0000
vn 0.0000 -1.0000 -0.0000
vn 0.0000 1.0000 0.0000
vn 0.0515 -0.8101 -0.5840
vn 0.0000 0.9952 0.0977
vn -0.9853 0.0388 -0.1664
vn 0.9853 0.0388 -0.1664
vn 0.8995 -0.1830 0.3967
vn 0.0043 0.9136 0.4065
vn 0.9749 0.1047 -0.1962
vn -0.9901 0.0637 -0.1248
vn -0.7723 0.2696 -0.5753
vn -0.7332 0.2870 -0.6164
vn 0.0867 -0.8431 -0.5308
vn 0.0796 0.9471 0.3110
vn 0.1727 -0.9331 -0.3154
vn 0.0733 -0.9192 -0.3870
vn -0.0632 0.9221 0.3818
vn 0.8961 -0.2062 0.3931
vn 0.9897 -0.0831 -0.1165
vn 0.3918 0.8857 0.2490
vn 0.3647 -0.3158 0.8759
vn 0.1998 0.2684 -0.9424
vn -0.9934 0.1149 0.0000
vn 0.0000 0.1149 -0.9934
vn 0.9934 0.1149 0.0000
vn 0.0000 0.1149 0.9934
vn 0.0000 -0.0536 -0.9986
vn 0.0000 -0.0536 0.9986
vn 0.9986 -0.0536 0.0000
vn -0.9986 -0.0536 0.0000
vn -0.9916 -0.1179 -0.0536
vn 0.0000 0.1995 -0.9799
vn 0.9916 -0.1179 -0.0536
vn 0.0000 -0.1791 0.9838
vn 0.0000 -0.9947 -0.1032
vn 0.0000 0.8017 -0.5977
vn -0.9603 0.0000 -0.2790
vn 0.0000 0.0000 -1.0000
vn 0.9603 0.0000 -0.2790
vn 0.0000 -0.9672 -0.2541
vn 0.0000 0.9672 -0.2541
s off
f 2/1/1 4/2/1 3/3/1 1/4/1
f 7/5/2 3/6/2 10/7/2 12/8/2
f 8/9/3 6/10/3 5/11/3 7/12/3
f 6/13/4 2/14/4 1/15/4 5/16/4
f 1/17/5 3/6/5 7/5/5 5/18/5
f 6/19/6 8/20/6 4/21/6 2/22/6
f 12/8/7 10/7/7 14/23/7 16/24/7
f 4/21/8 8/20/8 11/25/8 9/26/8
f 3/3/9 4/2/9 9/27/9 10/28/9
f 8/9/10 7/12/10 12/29/10 11/30/10
f 15/31/11 16/32/11 20/33/11 19/34/11
f 9/26/12 11/25/12 15/35/12 13/36/12
f 11/30/13 12/29/13 16/32/13 15/31/13
f 10/28/14 9/27/14 13/37/14 14/38/14
f 18/39/15 17/40/15 21/41/15 22/42/15
f 14/38/16 13/37/16 17/40/16 18/39/16
f 16/24/17 14/23/17 18/43/17 20/44/17
f 13/36/18 15/35/18 19/45/18 17/46/18
f 24/47/19 22/48/19 26/49/19 28/50/19
f 20/44/20 18/43/20 22/48/20 24/47/20
f 17/46/21 19/45/21 23/51/21 21/52/21
f 19/34/22 20/33/22 24/53/22 23/54/22
f 25/55/23 27/56/23 28/57/23 26/58/23
f 21/52/24 23/51/24 27/59/24 25/60/24
f 23/61/25 24/62/25 28/63/25 27/64/25
f 22/65/26 21/66/26 25/67/26 26/68/26
f 30/69/27 29/70/27 31/71/27 32/72/27
f 32/73/28 31/74/28 35/75/28 36/76/28
f 36/77/29 35/78/29 33/79/29 34/80/29
f 34/81/30 33/82/30 29/83/30 30/84/30
f 31/74/31 37/85/31 39/86/31 35/75/31
f 34/87/5 30/88/5 32/89/5 36/90/5
f 38/91/6 40/92/6 39/93/6 37/94/6
f 33/82/32 40/95/32 38/96/32 29/83/32
f 35/78/33 39/97/33 40/98/33 33/79/33
f 29/70/34 38/99/34 37/100/34 31/71/34
f 42/101/29 44/102/29 43/103/29 41/104/29
f 44/105/28 48/106/28 47/107/28 43/108/28
f 48/109/27 46/110/27 45/111/27 47/112/27
f 46/113/30 42/114/30 41/115/30 45/116/30
f 43/108/31 47/107/31 51/117/31 49/118/31
f 46/119/5 48/120/5 44/121/5 42/122/5
f 50/123/6 49/124/6 51/125/6 52/126/6
f 45/116/32 41/115/32 50/127/32 52/128/32
f 47/112/34 45/111/34 52/129/34 51/130/34
f 41/104/33 43/103/33 49/131/33 50/132/33
f 54/133/27 56/134/27 55/135/27 53/136/27
f 56/137/30 60/138/30 59/139/30 55/140/30
f 60/141/29 58/142/29 57/143/29 59/144/29
f 58/145/28 54/146/28 53/147/28 57/148/28
f 55/140/32 59/139/32 63/149/32 61/150/32
f 58/151/5 60/152/5 56/153/5 54/154/5
f 62/155/6 61/156/6 63/157/6 64/158/6
f 57/148/31 53/147/31 62/159/31 64/160/31
f 59/144/33 57/143/33 64/161/33 63/162/33
f 53/136/34 55/135/34 61/163/34 62/164/34
f 66/165/29 65/166/29 67/167/29 68/168/29
f 68/169/30 67/170/30 71/171/30 72/172/30
f 72/173/27 71/174/27 69/175/27 70/176/27
f 70/177/28 69/178/28 65/179/28 66/180/28
f 67/170/32 73/181/32 75/182/32 71/171/32
f 70/183/5 66/184/5 68/185/5 72/186/5
f 74/187/6 76/188/6 75/189/6 73/190/6
f 69/178/31 76/191/31 74/192/31 65/179/31
f 71/174/34 75/193/34 76/194/34 69/175/34
f 65/166/33 74/195/33 73/196/33 67/167/33
f 78/197/35 80/198/35 79/199/35 77/200/35
f 80/201/36 84/202/36 83/203/36 79/204/36
f 84/205/37 82/206/37 81/207/37 83/208/37
f 82/209/38 78/210/38 77/211/38 81/212/38
f 77/213/39 79/214/39 83/215/39 81/216/39
f 82/217/40 84/218/40 80/219/40 78/220/40
f 86/221/37 85/222/37 87/223/37 88/224/37
f 88/225/36 87/226/36 91/227/36 92/228/36
f 92/229/35 91/230/35 89/231/35 90/232/35
f 90/233/38 89/234/38 85/235/38 86/236/38
f 85/237/39 89/238/39 91/239/39 87/240/39
f 90/241/40 86/242/40 88/243/40 92/244/40
f 94/245/41 96/246/41 95/247/41 93/248/41
f 96/249/42 100/250/42 99/251/42 95/252/42
f 100/253/43 98/254/43 97/255/43 99/256/43
f 98/257/4 94/258/4 93/259/4 97/260/4
f 93/261/44 95/262/44 99/263/44 97/264/44
f 98/265/45 100/266/45 96/267/45 94/268/45
f 102/269/1 104/270/1 103/271/1 101/272/1
f 104/273/42 108/274/42 107/275/42 103/276/42
f 108/277/3 106/278/3 105/279/3 107/280/3
f 106/281/4 102/282/4 101/283/4 105/284/4
f 101/285/5 103/286/5 107/287/5 105/288/5
f 106/289/6 108/290/6 104/291/6 102/292/6
