# Blender v2.76 (sub 0) OBJ File: 'character8.blend'
# www.blender.org
o Circle
v -0.308405 -0.500000 -0.496742
v -0.364787 -0.500000 -0.475374
v -0.414412 -0.500000 -0.441142
v -0.454398 -0.500000 -0.396037
v -0.482421 -0.500000 -0.342679
v -0.496852 -0.500000 -0.284170
v -0.500442 -0.500000 0.278589
v -0.486011 -0.500000 0.337098
v -0.457989 -0.500000 0.390456
v -0.418003 -0.500000 0.435561
v -0.368377 -0.500000 0.469793
v -0.311996 -0.500000 0.491161
v -0.252136 -0.500000 0.498425
v 0.311112 -0.500000 0.500935
v 0.367493 -0.500000 0.479566
v 0.417119 -0.500000 0.445335
v 0.457105 -0.500000 0.400229
v 0.485127 -0.500000 0.346871
v 0.499558 -0.500000 0.288362
v 0.499074 -0.500000 -0.286493
v 0.484643 -0.500000 -0.345002
v 0.456620 -0.500000 -0.398360
v 0.416634 -0.500000 -0.443465
v 0.367008 -0.500000 -0.477697
v 0.310627 -0.500000 -0.499065
v -0.308405 0.500000 -0.496742
v -0.364787 0.500000 -0.475374
v -0.414412 0.500000 -0.441142
v -0.454398 0.500000 -0.396037
v -0.482421 0.500000 -0.342679
v -0.496852 0.500000 -0.284170
v -0.500442 0.500000 0.278589
v -0.486011 0.500000 0.337098
v -0.457989 0.500000 0.390456
v -0.418003 0.500000 0.435561
v -0.368377 0.500000 0.469793
v -0.311996 0.500000 0.491161
v -0.252136 0.500000 0.498425
v 0.311112 0.500000 0.500935
v 0.367493 0.500000 0.479566
v 0.417119 0.500000 0.445335
v 0.457105 0.500000 0.400229
v 0.485127 0.500000 0.346871
v 0.499558 0.500000 0.288362
v 0.499074 0.500000 -0.286493
v 0.484643 0.500000 -0.345002
v 0.456620 0.500000 -0.398360
v 0.416634 0.500000 -0.443465
v 0.367008 0.500000 -0.477697
v 0.310627 0.500000 -0.499065
v -0.009764 0.500000 0.019046
v -0.009764 -0.500000 0.019046
vt 0.319320 0.026724
vt 0.319320 0.038922
vt 0.318955 0.038922
vt 0.318955 0.026724
vt 0.309172 0.026723
vt 0.309172 0.038921
vt 0.308807 0.038921
vt 0.308807 0.026723
vt 0.325283 0.026724
vt 0.325283 0.038922
vt 0.324918 0.038922
vt 0.324918 0.026724
vt 0.318590 0.026724
vt 0.318590 0.038922
vt 0.314843 0.038921
vt 0.314843 0.026724
vt 0.319685 0.026724
vt 0.319685 0.038922
vt 0.309537 0.026724
vt 0.309537 0.038921
vt 0.325648 0.026724
vt 0.325648 0.038922
vt 0.320050 0.026724
vt 0.320050 0.038922
vt 0.313019 0.026724
vt 0.313019 0.038921
vt 0.326012 0.026724
vt 0.326012 0.038922
vt 0.320415 0.026724
vt 0.320415 0.038922
vt 0.313383 0.026724
vt 0.313383 0.038921
vt 0.329421 0.026724
vt 0.329421 0.038922
vt 0.323823 0.026724
vt 0.323823 0.038922
vt 0.313748 0.026724
vt 0.313748 0.038921
vt 0.308077 0.026723
vt 0.308077 0.038921
vt 0.307712 0.038921
vt 0.307712 0.026723
vt 0.324188 0.026724
vt 0.324188 0.038922
vt 0.314113 0.026724
vt 0.314113 0.038921
vt 0.308442 0.026723
vt 0.308442 0.038921
vt 0.324553 0.026724
vt 0.324553 0.038922
vt 0.314478 0.026724
vt 0.314478 0.038921
vt 0.302629 0.038840
vt 0.298030 0.032779
vt 0.303313 0.038485
vt 0.301967 0.026293
vt 0.294615 0.026254
vt 0.291886 0.035849
vt 0.291975 0.036615
vt 0.301880 0.039021
vt 0.302714 0.026481
vt 0.291886 0.028651
vt 0.294683 0.039035
vt 0.303395 0.026842
vt 0.292162 0.027931
vt 0.293936 0.038847
vt 0.303969 0.027356
vt 0.292603 0.027299
vt 0.293255 0.038486
vt 0.304404 0.027992
vt 0.304333 0.037344
vt 0.304610 0.036625
vt 0.293182 0.026791
vt 0.292680 0.037973
vt 0.304674 0.028714
vt 0.303892 0.037977
vt 0.293866 0.026435
vt 0.292245 0.037336
vt 0.291812 0.036614
vt 0.297978 0.032518
vt 0.292085 0.037335
vt 0.301861 0.026296
vt 0.294664 0.026244
vt 0.291850 0.029416
vt 0.302609 0.026481
vt 0.294529 0.039025
vt 0.303291 0.026839
vt 0.293781 0.038840
vt 0.303868 0.027351
vt 0.304578 0.028706
vt 0.292656 0.027296
vt 0.293099 0.038481
vt 0.304305 0.027986
vt 0.292522 0.037970
vn -0.567800 0.000000 -0.823200
vn 0.885300 0.000000 0.465000
vn -0.567800 0.000000 0.823200
vn -0.003800 0.000000 -1.000000
vn -0.748300 0.000000 -0.663400
vn 0.970900 0.000000 0.239500
vn -0.354400 0.000000 0.935100
vn -0.885300 0.000000 -0.465000
vn 1.000000 0.000000 -0.000800
vn -0.120500 0.000000 0.992700
vn -0.970900 0.000000 -0.239500
vn 0.970900 0.000000 -0.239500
vn -0.004500 0.000000 1.000000
vn -1.000000 0.000000 -0.006400
vn 0.885300 0.000000 -0.465000
vn 0.354400 0.000000 0.935100
vn -0.970900 0.000000 0.239500
vn 0.748300 0.000000 -0.663400
vn 0.567800 0.000000 0.823200
vn -0.885300 0.000000 0.465000
vn 0.567800 0.000000 -0.823200
vn -0.354400 0.000000 -0.935100
vn 0.748300 0.000000 0.663400
vn -0.748300 0.000000 0.663400
vn 0.354400 0.000000 -0.935100
vn 0.000000 1.000000 0.000000
vn 0.000000 -1.000000 0.000000
s off
f 3/1/1 28/2/1 27/3/1 2/4/1
f 18/5/2 43/6/2 42/7/2 17/8/2
f 11/9/3 36/10/3 35/11/3 10/12/3
f 1/13/4 26/14/4 50/15/4 25/16/4
f 4/17/5 29/18/5 28/2/5 3/1/5
f 19/19/6 44/20/6 43/6/6 18/5/6
f 12/21/7 37/22/7 36/10/7 11/9/7
f 5/23/8 30/24/8 29/18/8 4/17/8
f 20/25/9 45/26/9 44/20/9 19/19/9
f 13/27/10 38/28/10 37/22/10 12/21/10
f 6/29/11 31/30/11 30/24/11 5/23/11
f 21/31/12 46/32/12 45/26/12 20/25/12
f 14/33/13 39/34/13 38/28/13 13/27/13
f 7/35/14 32/36/14 31/30/14 6/29/14
f 22/37/15 47/38/15 46/32/15 21/31/15
f 15/39/16 40/40/16 39/41/16 14/42/16
f 8/43/17 33/44/17 32/36/17 7/35/17
f 23/45/18 48/46/18 47/38/18 22/37/18
f 16/47/19 41/48/19 40/40/19 15/39/19
f 9/49/20 34/50/20 33/44/20 8/43/20
f 24/51/21 49/52/21 48/46/21 23/45/21
f 2/4/22 27/3/22 26/14/22 1/13/22
f 17/8/23 42/7/23 41/48/23 16/47/23
f 10/12/24 35/11/24 34/50/24 9/49/24
f 25/16/25 50/15/25 49/52/25 24/51/25
f 30/53/26 51/54/26 29/55/26
f 45/56/26 51/54/26 44/57/26
f 38/58/26 51/54/26 37/59/26
f 31/60/26 51/54/26 30/53/26
f 46/61/26 51/54/26 45/56/26
f 39/62/26 51/54/26 38/58/26
f 32/63/26 51/54/26 31/60/26
f 47/64/26 51/54/26 46/61/26
f 40/65/26 51/54/26 39/62/26
f 33/66/26 51/54/26 32/63/26
f 48/67/26 51/54/26 47/64/26
f 41/68/26 51/54/26 40/65/26
f 34/69/26 51/54/26 33/66/26
f 49/70/26 51/54/26 48/67/26
f 27/71/26 51/54/26 26/72/26
f 42/73/26 51/54/26 41/68/26
f 35/74/26 51/54/26 34/69/26
f 50/75/26 51/54/26 49/70/26
f 28/76/26 51/54/26 27/71/26
f 43/77/26 51/54/26 42/73/26
f 36/78/26 51/54/26 35/74/26
f 26/72/26 51/54/26 50/75/26
f 29/55/26 51/54/26 28/76/26
f 44/57/26 51/54/26 43/77/26
f 37/59/26 51/54/26 36/78/26
f 14/79/27 52/80/27 15/81/27
f 21/53/27 52/80/27 22/55/27
f 6/82/27 52/80/27 7/83/27
f 13/84/27 52/80/27 14/79/27
f 20/60/27 52/80/27 21/53/27
f 5/85/27 52/80/27 6/82/27
f 12/62/27 52/80/27 13/84/27
f 19/86/27 52/80/27 20/60/27
f 4/87/27 52/80/27 5/85/27
f 11/65/27 52/80/27 12/62/27
f 18/88/27 52/80/27 19/86/27
f 3/89/27 52/80/27 4/87/27
f 25/72/27 52/80/27 1/90/27
f 10/91/27 52/80/27 11/65/27
f 17/92/27 52/80/27 18/88/27
f 2/93/27 52/80/27 3/89/27
f 24/71/27 52/80/27 25/72/27
f 9/73/27 52/80/27 10/91/27
f 16/94/27 52/80/27 17/92/27
f 1/90/27 52/80/27 2/93/27
f 23/76/27 52/80/27 24/71/27
f 8/77/27 52/80/27 9/73/27
f 15/81/27 52/80/27 16/94/27
f 22/55/27 52/80/27 23/76/27
f 7/83/27 52/80/27 8/77/27
