# Blender v2.77 (sub 0) OBJ File: 'character28.blend'
# www.blender.org
o Cube
v -0.500000 -0.500000 0.500000
v -0.500000 0.500000 0.500000
v -0.500000 -0.500000 -0.500000
v -0.500000 0.500000 -0.500000
v 0.500000 -0.500000 0.500000
v 0.500000 0.500000 0.500000
v 0.500000 -0.500000 -0.500000
v 0.500000 0.500000 -0.500000
vt 0.6670 0.0000
vt 1.0000 0.0000
vt 1.0000 1.0000
vt 0.6670 1.0000
vt 0.0028 0.9995
vt 0.0028 0.0005
vt 0.3301 0.0005
vt 0.3301 0.9995
vt 0.6670 0.0000
vt 1.0000 0.0000
vt 1.0000 1.0000
vt 0.6670 1.0000
vt 0.0028 0.9995
vt 0.0028 0.0005
vt 0.3301 0.0005
vt 0.3301 0.9995
vt 0.3353 0.0000
vt 0.6656 0.0000
vt 0.6656 1.0000
vt 0.3353 1.0000
vt 0.3353 0.0000
vt 0.6656 0.0000
vt 0.6656 1.0000
vt 0.3353 1.0000
vn -1.0000 0.0000 0.0000
vn 0.0000 0.0000 -1.0000
vn 1.0000 0.0000 0.0000
vn 0.0000 0.0000 1.0000
vn 0.0000 -1.0000 0.0000
vn 0.0000 1.0000 0.0000
s off
f 2/1/1 4/2/1 3/3/1 1/4/1
f 4/5/2 8/6/2 7/7/2 3/8/2
f 8/9/3 6/10/3 5/11/3 7/12/3
f 6/13/4 2/14/4 1/15/4 5/16/4
f 1/17/5 3/18/5 7/19/5 5/20/5
f 6/21/6 8/22/6 4/23/6 2/24/6
