# Blender v2.77 (sub 0) OBJ File: 'character-21.blend'
# www.blender.org
o Cube.002_Cube.009
v -0.450000 -0.450000 0.450000
v -0.450000 0.450000 0.450000
v -0.450000 -0.450000 -0.450000
v -0.450000 0.450000 -0.450000
v 0.450000 -0.450000 0.450000
v 0.450000 0.450000 0.450000
v 0.450000 -0.450000 -0.450000
v 0.450000 0.450000 -0.450000
vt 0.8082 0.8144
vt 0.8082 0.7959
vt 0.8267 0.7959
vt 0.8267 0.8144
vt 0.7884 0.8342
vt 0.7884 0.8157
vt 0.8069 0.8157
vt 0.8069 0.8342
vt 0.8280 0.7946
vt 0.8280 0.7761
vt 0.8465 0.7761
vt 0.8465 0.7946
vt 0.7884 0.7761
vt 0.8069 0.7761
vt 0.8069 0.7946
vt 0.7884 0.7946
vt 0.8069 0.8144
vt 0.7884 0.8144
vt 0.7884 0.7959
vt 0.8069 0.7959
vt 0.8082 0.7761
vt 0.8267 0.7761
vt 0.8267 0.7946
vt 0.8082 0.7946
vn -1.0000 0.0000 0.0000
vn 0.0000 0.0000 -1.0000
vn 1.0000 0.0000 0.0000
vn 0.0000 0.0000 1.0000
vn 0.0000 -1.0000 0.0000
vn 0.0000 1.0000 0.0000
s off
f 2/1/1 4/2/1 3/3/1 1/4/1
f 4/5/2 8/6/2 7/7/2 3/8/2
f 8/9/3 6/10/3 5/11/3 7/12/3
f 6/13/4 2/14/4 1/15/4 5/16/4
f 1/17/5 3/18/5 7/19/5 5/20/5
f 6/21/6 8/22/6 4/23/6 2/24/6
o Cube.001_Cube.008
v -0.125000 -0.125000 0.500000
v -0.125000 0.125000 0.500000
v -0.125000 -0.125000 0.400000
v -0.125000 0.125000 0.400000
v 0.125000 -0.125000 0.500000
v 0.125000 0.125000 0.500000
v 0.125000 -0.125000 0.400000
v 0.125000 0.125000 0.400000
vn -1.0000 0.0000 0.0000
vn 0.0000 0.0000 -1.0000
vn 1.0000 0.0000 0.0000
vn 0.0000 0.0000 1.0000
vn 0.0000 -1.0000 0.0000
vn 0.0000 1.0000 0.0000
s off
f 10//7 12//7 11//7 9//7
f 12//8 16//8 15//8 11//8
f 16//9 14//9 13//9 15//9
f 14//10 10//10 9//10 13//10
f 9//11 11//11 15//11 13//11
f 14//12 16//12 12//12 10//12
o Cube_Cube.002
v -0.500000 0.500000 0.500000
v -0.500000 0.500000 -0.500000
v -0.500000 0.050000 -0.500000
v -0.500000 0.050000 0.500000
v 0.500000 0.500000 0.500000
v -0.200000 0.050000 0.500000
v -0.200000 0.200000 0.500000
v 0.200000 0.200000 0.500000
v 0.200000 0.050000 0.500000
v 0.500000 0.050000 0.500000
v 0.500000 0.500000 -0.500000
v 0.500000 0.050000 -0.500000
v 0.200000 0.050000 -0.296407
v -0.200000 0.050000 -0.296407
v -0.500000 -0.050000 -0.500000
v -0.500000 -0.500000 -0.500000
v -0.500000 -0.500000 0.500000
v -0.500000 -0.050000 0.500000
v -0.200000 -0.050000 0.500000
v -0.200000 -0.050000 -0.296407
v 0.200000 -0.050000 -0.296407
v 0.200000 -0.050000 0.500000
v 0.500000 -0.050000 0.500000
v 0.500000 -0.050000 -0.500000
v 0.500000 -0.500000 -0.500000
v 0.500000 -0.500000 0.500000
v 0.200000 -0.200000 0.500000
v -0.200000 -0.200000 0.500000
v -0.200000 0.200000 -0.296407
v 0.200000 0.200000 -0.296407
v -0.200000 -0.200000 -0.296407
v 0.200000 -0.200000 -0.296407
vt 0.4937 0.5053
vt 0.4937 0.5016
vt 0.4953 0.5016
vt 0.4953 0.5053
vt 0.5049 0.4937
vt 0.5049 0.4974
vt 0.5033 0.4974
vt 0.5033 0.4963
vt 0.5039 0.4963
vt 0.5039 0.4948
vt 0.5033 0.4948
vt 0.5033 0.4937
vt 0.4937 0.4977
vt 0.4974 0.4977
vt 0.4974 0.5014
vt 0.4937 0.5014
vt 0.4976 0.5053
vt 0.4976 0.5016
vt 0.4992 0.5016
vt 0.4992 0.5053
vt 0.4976 0.4974
vt 0.4976 0.4937
vt 0.4987 0.4937
vt 0.4987 0.4967
vt 0.5001 0.4967
vt 0.5001 0.4937
vt 0.5012 0.4937
vt 0.5012 0.4974
vt 0.4972 0.5016
vt 0.4972 0.5053
vt 0.4956 0.5053
vt 0.4956 0.5016
vt 0.5052 0.4937
vt 0.5057 0.4937
vt 0.5057 0.4967
vt 0.5052 0.4967
vt 0.5031 0.5046
vt 0.5016 0.5046
vt 0.5016 0.5016
vt 0.5031 0.5016
vt 0.5029 0.5063
vt 0.5024 0.5063
vt 0.5024 0.5048
vt 0.5029 0.5048
vt 0.5057 0.5016
vt 0.5063 0.5016
vt 0.5063 0.5046
vt 0.5057 0.5046
vt 0.4084 0.4961
vt 0.4100 0.4961
vt 0.4100 0.4996
vt 0.4084 0.4996
vt 0.4027 0.4958
vt 0.3992 0.4958
vt 0.3992 0.4948
vt 0.4020 0.4948
vt 0.4020 0.4933
vt 0.3992 0.4933
vt 0.3992 0.4922
vt 0.4027 0.4922
vt 0.4063 0.5035
vt 0.4047 0.5035
vt 0.4047 0.4999
vt 0.4063 0.4999
vt 0.4064 0.4961
vt 0.4064 0.4996
vt 0.4029 0.4996
vt 0.4029 0.4961
vt 0.4082 0.4996
vt 0.4066 0.4996
vt 0.4066 0.4961
vt 0.4082 0.4961
vt 0.4082 0.4971
vt 0.4077 0.4971
vt 0.4077 0.4986
vt 0.4082 0.4986
vt 0.4066 0.4922
vt 0.4082 0.4922
vt 0.4082 0.4958
vt 0.4066 0.4958
vt 0.4100 0.5027
vt 0.4100 0.4999
vt 0.4106 0.4999
vt 0.4106 0.5027
vt 0.5022 0.5048
vt 0.5022 0.5063
vt 0.5016 0.5063
vt 0.5016 0.5048
vt 0.4084 0.4999
vt 0.4098 0.4999
vt 0.4098 0.5027
vt 0.4084 0.5027
vt 0.4107 0.4982
vt 0.4102 0.4982
vt 0.4102 0.4953
vt 0.4107 0.4953
vn -1.0000 0.0000 0.0000
vn 0.0000 0.0000 1.0000
vn 0.0000 1.0000 0.0000
vn 0.0000 0.0000 -1.0000
vn 0.0000 -1.0000 0.0000
vn 1.0000 0.0000 0.0000
s off
f 17/25/13 18/26/13 19/27/13 20/28/13
f 21/29/14 17/30/14 20/31/14 22/32/14 23/33/14 24/34/14 25/35/14 26/36/14
f 21/37/15 27/38/15 18/39/15 17/40/15
f 18/41/16 27/42/16 28/43/16 19/44/16
f 28/45/17 26/46/17 25/47/17 29/48/17 30/49/17 22/50/17 20/51/17 19/52/17
f 27/53/18 21/54/18 26/55/18 28/56/18
f 23/57/18 22/58/18 30/59/18 45/60/18
f 24/61/17 23/62/17 45/63/17 46/64/17
f 45/65/14 30/66/14 29/67/14 46/68/14
f 46/69/13 29/70/13 25/71/13 24/72/13
f 31/73/13 32/74/13 33/75/13 34/76/13
f 31/77/15 34/78/15 35/79/15 36/80/15 37/81/15 38/82/15 39/83/15 40/84/15
f 40/85/16 41/86/16 32/87/16 31/88/16
f 33/89/17 32/90/17 41/91/17 42/92/17
f 34/93/14 33/94/14 42/95/14 39/96/14 38/97/14 43/98/14 44/99/14 35/100/14
f 39/101/18 42/102/18 41/103/18 40/104/18
f 36/105/18 35/106/18 44/107/18 47/108/18
f 37/109/14 36/110/14 47/111/14 48/112/14
f 44/113/15 43/114/15 48/115/15 47/116/15
f 43/117/13 38/118/13 37/119/13 48/120/13
