# Blender v2.76 (sub 0) OBJ File: 'character8.blend'
# www.blender.org
o Cube
v 0.500000 -0.500000 -0.500000
v 0.500000 -0.500000 0.500000
v -0.500000 -0.500000 0.500000
v -0.500000 -0.500000 -0.500000
v 0.500000 0.500000 -0.499999
v 0.499999 0.500000 0.500000
v -0.500000 0.500000 0.500000
v -0.500000 0.500000 -0.500000
v 0.166667 -0.500000 -0.500000
v -0.166666 -0.500000 -0.500000
v 0.166667 -0.500000 0.500000
v -0.166667 -0.500000 0.500000
v 0.166667 0.500000 -0.500000
v -0.166666 0.500000 -0.500000
v 0.166666 0.500000 0.500000
v -0.166667 0.500000 0.500000
v 0.500000 -0.500000 -0.166667
v 0.500000 -0.500000 0.166667
v -0.500000 -0.500000 0.166666
v -0.500000 -0.500000 -0.166667
v 0.500000 0.500000 -0.166666
v 0.500000 0.500000 0.166667
v -0.500000 0.500000 0.166666
v -0.500000 0.500000 -0.166667
v 0.166667 0.500000 -0.166666
v 0.166666 0.500000 0.166667
v -0.166667 0.500000 -0.166667
v -0.166667 0.500000 0.166667
v 0.166667 -0.500000 0.166667
v 0.166667 -0.500000 -0.166667
v -0.166667 -0.500000 0.166667
v -0.166667 -0.500000 -0.166667
v 0.500000 -0.166667 -0.500000
v 0.500000 0.166667 -0.500000
v 0.500000 -0.166667 0.500000
v 0.500000 0.166667 0.500000
v -0.500000 -0.166667 0.500000
v -0.500000 0.166667 0.500000
v -0.500000 -0.166667 -0.500000
v -0.500000 0.166667 -0.500000
v 0.166667 -0.166667 -0.500000
v 0.166667 0.166667 -0.500000
v -0.166666 -0.166667 -0.500000
v -0.166666 0.166667 -0.500000
v 0.166666 0.166667 0.500000
v 0.166666 -0.166667 0.500000
v -0.166667 0.166667 0.500000
v -0.166667 -0.166667 0.500000
v -0.500000 0.166667 0.166666
v -0.500000 -0.166667 0.166666
v -0.500000 0.166667 -0.166667
v -0.500000 -0.166667 -0.166667
v 0.500000 0.166667 -0.166666
v 0.500000 -0.166667 -0.166666
v 0.500000 0.166667 0.166667
v 0.500000 -0.166667 0.166667
v 0.396500 -0.396500 -0.396500
v 0.396500 -0.396500 0.396500
v -0.396500 -0.396500 0.396500
v -0.396500 -0.396500 -0.396500
v 0.396500 0.396500 -0.396500
v 0.396499 0.396500 0.396500
v -0.396500 0.396500 0.396500
v -0.396500 0.396500 -0.396500
v 0.166667 -0.396500 -0.396500
v -0.166666 -0.396500 -0.396500
v 0.166667 -0.396500 0.396500
v -0.166667 -0.396500 0.396500
v 0.166667 0.396500 -0.396500
v -0.166666 0.396500 -0.396500
v 0.166666 0.396500 0.396500
v -0.166667 0.396500 0.396500
v 0.396500 -0.396500 -0.166667
v 0.396500 -0.396500 0.166667
v -0.396500 -0.396500 0.166666
v -0.396500 -0.396500 -0.166667
v 0.396500 0.396500 -0.166666
v 0.396500 0.396500 0.166667
v -0.396500 0.396500 0.166666
v -0.396500 0.396500 -0.166667
v 0.166667 0.396500 -0.166666
v 0.166666 0.396500 0.166667
v -0.166667 0.396500 -0.166667
v -0.166667 0.396500 0.166667
v 0.166667 -0.396500 0.166667
v 0.166667 -0.396500 -0.166667
v -0.166667 -0.396500 0.166667
v -0.166667 -0.396500 -0.166667
v 0.396500 -0.166667 -0.396500
v 0.396500 0.166667 -0.396500
v 0.396500 -0.166667 0.396500
v 0.396500 0.166667 0.396500
v -0.396500 -0.166667 0.396500
v -0.396500 0.166667 0.396500
v -0.396500 -0.166667 -0.396500
v -0.396500 0.166667 -0.396500
v 0.166667 -0.166667 -0.396500
v 0.166667 0.166667 -0.396500
v -0.166666 -0.166667 -0.396500
v -0.166666 0.166667 -0.396500
v 0.166666 0.166667 0.396500
v 0.166666 -0.166667 0.396500
v -0.166667 0.166667 0.396500
v -0.166667 -0.166667 0.396500
v -0.396500 0.166667 0.166666
v -0.396500 -0.166667 0.166666
v -0.396500 0.166667 -0.166667
v -0.396500 -0.166667 -0.166667
v 0.396500 0.166667 -0.166666
v 0.396500 -0.166667 -0.166666
v 0.396500 0.166667 0.166667
v 0.396500 -0.166667 0.166667
vt 0.318476 0.040542
vt 0.318476 0.045642
vt 0.313509 0.045642
vt 0.313509 0.040542
vt 0.323444 0.035442
vt 0.318476 0.035442
vt 0.318476 0.030342
vt 0.323444 0.030342
vt 0.303574 0.030342
vt 0.298606 0.030342
vt 0.298606 0.025242
vt 0.303574 0.025242
vt 0.288671 0.025242
vt 0.288671 0.020141
vt 0.293638 0.020141
vt 0.293638 0.025242
vt 0.288671 0.035442
vt 0.293638 0.035442
vt 0.293638 0.040542
vt 0.288671 0.040542
vt 0.308541 0.030342
vt 0.308541 0.035442
vt 0.303574 0.035442
vt 0.303574 0.040542
vt 0.308541 0.040542
vt 0.298606 0.040542
vt 0.298606 0.045642
vt 0.293638 0.045642
vt 0.283703 0.050742
vt 0.283703 0.045642
vt 0.288671 0.045642
vt 0.288671 0.050742
vt 0.318476 0.025242
vt 0.313509 0.030342
vt 0.313509 0.025242
vt 0.303574 0.045642
vt 0.308541 0.045642
vt 0.293638 0.050742
vt 0.313509 0.035442
vt 0.308541 0.025242
vt 0.283703 0.020141
vt 0.283703 0.015041
vt 0.288671 0.015041
vt 0.308541 0.050742
vt 0.303574 0.050742
vt 0.308541 0.009941
vt 0.308541 0.015041
vt 0.303574 0.015041
vt 0.303574 0.009941
vt 0.303574 0.020141
vt 0.298606 0.020141
vt 0.288671 0.030342
vt 0.293638 0.030342
vt 0.308541 0.020141
vt 0.313509 0.020141
vt 0.313509 0.009941
vt 0.313509 0.015041
vt 0.288671 0.009941
vt 0.293638 0.009941
vt 0.293638 0.015041
vt 0.298606 0.009941
vt 0.298606 0.015041
vt 0.298606 0.035442
vt 0.323444 0.023658
vt 0.323444 0.020141
vt 0.326869 0.020141
vt 0.326869 0.023658
vt 0.300829 0.054259
vt 0.300829 0.050742
vt 0.304254 0.050742
vt 0.304254 0.054259
vt 0.321901 0.035442
vt 0.321901 0.038958
vt 0.318476 0.038958
vt 0.293979 0.050742
vt 0.297404 0.050742
vt 0.297404 0.054259
vt 0.293979 0.054259
vt 0.325327 0.049508
vt 0.325327 0.053025
vt 0.321901 0.053025
vt 0.321901 0.049508
vt 0.323444 0.033858
vt 0.326869 0.030342
vt 0.326869 0.033858
vt 0.326869 0.015041
vt 0.326869 0.018558
vt 0.323444 0.018558
vt 0.323444 0.015041
vt 0.321901 0.045991
vt 0.318476 0.045991
vt 0.318476 0.042475
vt 0.321901 0.042475
vt 0.326869 0.009941
vt 0.326869 0.013458
vt 0.323444 0.013458
vt 0.323444 0.009941
vt 0.290554 0.050742
vt 0.290554 0.054259
vt 0.326869 0.025242
vt 0.326869 0.028758
vt 0.323444 0.028758
vt 0.323444 0.025242
vt 0.318476 0.020141
vt 0.287128 0.050742
vt 0.287128 0.054259
vt 0.283703 0.054259
vt 0.318476 0.049508
vt 0.307679 0.050742
vt 0.307679 0.054259
vt 0.316934 0.049159
vt 0.316934 0.052675
vt 0.313509 0.052675
vt 0.313509 0.049159
vt 0.283703 0.009941
vt 0.325327 0.042475
vt 0.325327 0.038958
vt 0.318476 0.009941
vt 0.318476 0.015041
vt 0.325327 0.045991
vt 0.318476 0.053025
vt 0.325327 0.035442
vt 0.316934 0.045642
vt 0.290213 0.015041
vt 0.290213 0.018558
vt 0.283703 0.030342
vt 0.283703 0.025242
vt 0.285246 0.026825
vt 0.285246 0.030342
vt 0.283703 0.023658
vt 0.287128 0.023658
vt 0.302031 0.031925
vt 0.298606 0.031925
vt 0.303574 0.023658
vt 0.306999 0.023658
vt 0.297063 0.038958
vt 0.297063 0.035442
vt 0.306999 0.030342
vt 0.306999 0.026825
vt 0.287128 0.044058
vt 0.287128 0.040542
vt 0.293638 0.018558
vt 0.325327 0.056192
vt 0.325327 0.051092
vt 0.326869 0.051092
vt 0.326869 0.056192
vt 0.288671 0.026825
vt 0.328411 0.050742
vt 0.328411 0.055842
vt 0.326869 0.055842
vt 0.326869 0.050742
vt 0.287128 0.020141
vt 0.328411 0.035442
vt 0.328411 0.040542
vt 0.326869 0.040542
vt 0.326869 0.035442
vt 0.302031 0.035442
vt 0.328411 0.025242
vt 0.328411 0.030342
vt 0.326869 0.045642
vt 0.328411 0.045642
vt 0.310084 0.033858
vt 0.313509 0.033858
vt 0.287128 0.037025
vt 0.328411 0.009941
vt 0.328411 0.015041
vt 0.328411 0.020141
vt 0.329954 0.015041
vt 0.329954 0.020141
vt 0.283703 0.035442
vt 0.285246 0.033858
vt 0.302031 0.011525
vt 0.298606 0.011525
vt 0.308541 0.018558
vt 0.311966 0.018558
vt 0.316934 0.016625
vt 0.313509 0.016625
vt 0.310084 0.030342
vt 0.283703 0.037025
vt 0.302031 0.016625
vt 0.298606 0.016625
vt 0.311966 0.040542
vt 0.311966 0.037025
vt 0.316934 0.020141
vt 0.311966 0.015041
vt 0.303574 0.026825
vt 0.325327 0.040542
vt 0.283703 0.044058
vt 0.325327 0.045642
vt 0.306999 0.020141
vt 0.312307 0.050742
vt 0.312307 0.055842
vt 0.310764 0.055842
vt 0.310764 0.050742
vt 0.293638 0.038958
vt 0.326869 0.045991
vt 0.308541 0.037025
vt 0.309222 0.055842
vt 0.309222 0.050742
vt 0.302031 0.020141
vt 0.288671 0.033858
vt 0.318476 0.050742
vt 0.316934 0.050742
vt 0.302031 0.015041
vt 0.329954 0.025242
vt 0.298606 0.050742
vt 0.297063 0.049159
vt 0.297063 0.045642
vt 0.316934 0.040542
vt 0.316934 0.037025
vt 0.316934 0.055842
vt 0.318476 0.055842
vt 0.329954 0.035442
vt 0.329954 0.040542
vt 0.316934 0.021725
vt 0.313509 0.021725
vt 0.313509 0.050742
vt 0.311966 0.050742
vt 0.311966 0.047226
vt 0.329954 0.009941
vt 0.329954 0.030342
vt 0.321901 0.011525
vt 0.318476 0.011525
vt 0.321901 0.030342
vt 0.321901 0.026825
vt 0.307679 0.055842
vt 0.313509 0.037025
vt 0.293638 0.049159
vt 0.318476 0.018558
vt 0.321901 0.018558
vt 0.302031 0.049159
vt 0.302031 0.045642
vt 0.298606 0.049159
vt 0.321901 0.015041
vt 0.316934 0.025242
vt 0.308541 0.047226
vt 0.318476 0.026825
vn 0.000000 -1.000000 -0.000000
vn 0.000000 1.000000 0.000000
vn 1.000000 0.000000 0.000000
vn -0.000000 0.000000 1.000000
vn -1.000000 -0.000000 -0.000000
vn 0.000000 0.000000 -1.000000
s off
f 31/1/1 12/2/1 3/3/1 19/4/1
f 28/5/2 23/6/2 7/7/2 16/8/2
f 55/9/3 22/10/3 6/11/3 36/12/3
f 47/13/4 16/14/4 7/15/4 38/16/4
f 51/17/5 24/18/5 8/19/5 40/20/5
f 43/9/6 10/21/6 4/22/6 39/23/6
f 33/24/6 1/23/6 9/22/6 41/25/6
f 36/26/4 6/27/4 15/28/4 45/19/4
f 22/29/2 26/30/2 15/31/2 6/32/2
f 18/33/1 2/7/1 11/34/1 29/35/1
f 30/26/1 29/24/1 31/36/1 32/27/1
f 1/25/1 17/37/1 30/36/1 9/24/1
f 25/38/2 27/32/2 28/31/2 26/28/2
f 5/39/2 13/34/2 25/7/2 21/6/2
f 38/40/5 7/35/5 23/34/5 49/21/5
f 34/14/3 5/41/3 21/42/3 53/43/3
f 14/37/2 8/25/2 24/4/2 27/3/2
f 10/37/1 32/44/1 20/45/1 4/36/1
f 54/46/3 53/47/3 55/48/3 56/49/3
f 1/50/3 33/12/3 54/11/3 17/51/3
f 50/18/5 49/17/5 51/52/5 52/53/5
f 3/11/5 37/16/5 50/15/5 19/51/5
f 46/54/4 45/55/4 47/35/4 48/40/4
f 2/56/4 35/57/4 46/47/4 11/46/4
f 42/13/6 41/16/6 43/53/6 44/52/6
f 5/54/6 34/50/6 42/48/6 13/47/6
f 14/58/6 44/59/6 40/60/6 8/43/6
f 20/61/5 52/62/5 39/60/5 4/59/5
f 12/24/4 48/26/4 37/63/4 3/23/4
f 18/11/3 56/10/3 35/53/3 2/16/3
f 75/64/2 59/65/2 68/66/2 87/67/2
f 72/68/1 63/69/1 79/70/1 84/71/1
f 92/72/5 62/73/5 78/74/5 111/6/5
f 94/75/6 63/76/6 72/77/6 103/78/6
f 96/79/3 64/80/3 80/81/3 107/82/3
f 95/83/4 60/8/4 66/84/4 99/85/4
f 97/86/4 65/87/4 57/88/4 89/89/4
f 101/90/6 71/91/6 62/92/6 92/93/6
f 62/94/1 71/95/1 82/96/1 78/97/1
f 85/98/2 67/75/2 58/78/2 74/99/2
f 88/20/2 87/19/2 85/28/2 86/31/2
f 65/100/2 86/101/2 73/102/2 57/103/2
f 82/103/1 84/33/1 83/104/1 81/65/1
f 77/105/1 81/98/1 69/99/1 61/106/1
f 105/106/3 79/107/3 63/29/3 94/105/3
f 109/90/5 77/82/5 61/108/5 90/91/5
f 83/69/1 80/68/1 64/77/1 70/76/1
f 60/71/2 76/70/2 88/109/2 66/110/2
f 112/62/5 111/51/5 109/15/5 110/60/5
f 73/74/5 110/73/5 89/93/5 57/92/5
f 108/53/3 107/10/3 105/63/3 106/18/3
f 75/111/3 106/112/3 93/113/3 59/114/3
f 104/43/6 103/42/6 101/115/6 102/58/6
f 67/116/6 102/93/6 91/73/6 58/117/6
f 100/56/4 99/118/4 97/119/4 98/57/4
f 69/116/4 98/120/4 90/90/4 61/93/4
f 64/108/4 96/82/4 100/81/4 70/121/4
f 60/120/3 95/79/3 108/82/3 76/90/3
f 59/117/6 93/73/6 104/72/6 68/122/6
f 58/3/5 91/123/5 112/111/5 74/114/5
f 13/14/5 42/43/5 98/124/5 69/125/5
f 44/126/3 14/127/3 70/128/3 100/129/3
f 11/13/5 46/127/5 102/130/5 67/131/5
f 48/10/3 12/9/3 68/132/3 104/133/3
f 15/40/5 26/12/5 82/134/5 71/135/5
f 28/63/3 16/26/3 72/136/3 84/137/3
f 9/40/5 30/21/5 86/138/5 65/139/5
f 32/20/3 10/31/3 66/140/3 88/141/3
f 25/15/5 13/14/5 69/125/5 81/142/5
f 25/143/3 26/144/3 82/145/3 81/146/3
f 14/127/3 27/13/3 83/147/3 70/128/3
f 28/148/5 27/149/5 83/150/5 84/151/5
f 29/14/5 11/13/5 67/131/5 85/152/5
f 29/153/3 30/154/3 86/155/3 85/156/3
f 12/9/3 31/23/3 87/157/3 68/132/3
f 32/84/5 31/100/5 87/158/5 88/159/5
f 30/156/6 32/84/6 88/159/6 86/153/6
f 31/160/4 29/155/4 85/154/4 87/161/4
f 30/39/4 17/22/4 73/162/4 86/163/4
f 18/17/6 29/20/6 85/141/6 74/164/6
f 27/86/6 25/94/6 81/165/6 83/166/6
f 26/167/4 28/166/4 84/168/4 82/169/4
f 21/170/4 25/126/4 81/129/4 77/171/4
f 26/61/6 22/49/6 78/172/6 82/173/6
f 19/55/6 50/54/6 106/174/6 75/175/6
f 52/57/4 20/119/4 76/176/4 108/177/4
f 17/22/4 54/21/4 110/178/4 73/162/4
f 56/170/6 18/17/6 74/164/6 112/179/6
f 27/62/4 24/48/4 80/180/4 83/181/4
f 23/39/6 28/4/6 84/182/6 79/183/6
f 20/119/4 32/104/4 88/184/4 76/176/4
f 31/57/6 19/55/6 75/175/6 87/185/6
f 41/12/5 9/40/5 65/139/5 97/186/5
f 41/187/3 42/122/3 98/156/3 97/155/3
f 10/31/3 43/30/3 99/188/3 66/140/3
f 44/189/5 43/187/5 99/155/5 100/160/5
f 45/54/5 15/40/5 71/135/5 101/190/5
f 45/191/3 46/192/3 102/193/3 101/194/3
f 16/26/3 47/19/3 103/195/3 72/136/3
f 48/196/5 47/145/5 103/144/5 104/120/5
f 49/22/6 23/39/6 79/183/6 105/197/6
f 49/194/4 50/193/4 106/198/4 105/199/4
f 24/48/4 51/50/4 107/200/4 80/180/4
f 52/100/6 51/66/6 107/167/6 108/158/6
f 53/17/4 21/170/4 77/171/4 109/201/4
f 53/2/6 54/202/6 110/203/6 109/123/6
f 22/49/6 55/48/6 111/204/6 78/172/6
f 56/66/4 55/86/4 111/166/4 112/167/4
f 54/161/1 56/148/1 112/151/1 110/160/1
f 55/158/2 53/167/2 109/169/2 111/205/2
f 54/27/2 33/206/2 89/207/2 110/208/2
f 34/6/1 53/1/1 109/209/1 90/210/1
f 50/211/1 52/203/1 108/202/1 106/212/1
f 51/213/2 49/214/2 105/154/2 107/153/2
f 50/55/2 37/104/2 93/215/2 106/216/2
f 38/3/1 49/217/1 105/218/1 94/219/1
f 46/220/1 48/168/1 104/166/1 102/165/1
f 47/205/2 45/221/2 101/159/2 103/158/2
f 46/118/2 35/97/2 91/222/2 102/223/2
f 36/103/1 45/8/1 101/224/1 92/225/1
f 42/153/2 44/159/2 100/221/2 98/213/2
f 43/226/1 41/109/1 97/199/1 99/198/1
f 42/39/1 34/6/1 90/210/1 98/227/1
f 33/206/2 41/38/2 97/228/2 89/207/2
f 40/65/1 44/104/1 100/229/1 96/230/1
f 43/36/2 39/45/2 95/231/2 99/232/2
f 39/45/2 52/206/2 108/233/2 95/231/2
f 51/89/1 40/65/1 96/230/1 107/234/1
f 37/104/2 48/33/2 104/235/2 93/215/2
f 47/37/1 38/3/1 94/219/1 103/236/1
f 35/97/2 56/89/2 112/234/2 91/222/2
f 55/33/1 36/103/1 92/225/1 111/237/1
