# Blender v2.76 (sub 0) OBJ File: 'character12.blend'
# www.blender.org
o Plane.002
v -0.500000 0.236842 0.500000
v 0.500000 0.236842 0.500000
v -0.500000 0.236842 -0.500000
v 0.500000 0.236842 -0.500000
v -0.500000 0.236842 0.000000
v 0.000000 0.236842 0.500000
v 0.500000 0.236842 0.000000
v 0.000000 0.236842 -0.500000
v -0.500000 0.500000 0.250000
v -0.500000 0.236842 0.250000
v 0.250000 0.236842 0.500000
v 0.500000 0.236842 -0.250000
v -0.250000 0.236842 -0.500000
v -0.500000 0.236842 -0.250000
v -0.250000 0.236842 0.500000
v 0.500000 0.236842 0.250000
v 0.250000 0.236842 -0.500000
v 0.000000 0.236842 -0.250000
v 0.000000 0.236842 0.250000
v -0.250000 0.236842 0.000000
v 0.250000 0.236842 0.000000
v 0.250000 0.236842 0.250000
v -0.250000 0.236842 0.250000
v -0.250000 0.236842 -0.250000
v 0.250000 0.236842 -0.250000
v -0.500000 0.500000 0.500000
v 0.250000 0.500000 0.500000
v 0.500000 0.500000 0.500000
v 0.500000 0.500000 -0.250000
v 0.500000 0.500000 -0.500000
v -0.250000 0.500000 -0.500000
v -0.500000 0.500000 -0.500000
v -0.500000 0.500000 -0.250000
v -0.500000 0.500000 0.000000
v -0.250000 0.500000 0.500000
v 0.000000 0.500000 0.500000
v 0.500000 0.500000 0.250000
v 0.500000 0.500000 0.000000
v 0.250000 0.500000 -0.500000
v 0.000000 0.500000 -0.500000
v 0.000000 0.500000 -0.250000
v -0.250000 0.500000 0.000000
v 0.000000 0.500000 0.250000
v 0.250000 0.500000 0.000000
v 0.250000 0.500000 0.250000
v -0.250000 0.500000 0.250000
v -0.250000 0.500000 -0.250000
v 0.250000 0.500000 -0.250000
v -0.500000 -0.131579 0.500000
v 0.500000 -0.131579 0.500000
v -0.500000 -0.131579 -0.500000
v 0.500000 -0.131579 -0.500000
v -0.500000 -0.131579 0.000000
v 0.000000 -0.131579 0.500000
v 0.500000 -0.131579 0.000000
v 0.000000 -0.131579 -0.500000
v -0.500000 0.131579 0.250000
v -0.500000 -0.131579 0.250000
v 0.250000 -0.131579 0.500000
v 0.500000 -0.131579 -0.250000
v -0.250000 -0.131579 -0.500000
v -0.500000 -0.131579 -0.250000
v -0.250000 -0.131579 0.500000
v 0.500000 -0.131579 0.250000
v 0.250000 -0.131579 -0.500000
v 0.000000 -0.131579 -0.250000
v 0.000000 -0.131579 0.250000
v -0.250000 -0.131579 0.000000
v 0.250000 -0.131579 0.000000
v 0.250000 -0.131579 0.250000
v -0.250000 -0.131579 0.250000
v -0.250000 -0.131579 -0.250000
v 0.250000 -0.131579 -0.250000
v -0.500000 0.131579 0.500000
v 0.250000 0.131579 0.500000
v 0.500000 0.131579 0.500000
v 0.500000 0.131579 -0.250000
v 0.500000 0.131579 -0.500000
v -0.250000 0.131579 -0.500000
v -0.500000 0.131579 -0.500000
v -0.500000 0.131579 -0.250000
v -0.500000 0.131579 0.000000
v -0.250000 0.131579 0.500000
v 0.000000 0.131579 0.500000
v 0.500000 0.131579 0.250000
v 0.500000 0.131579 0.000000
v 0.250000 0.131579 -0.500000
v 0.000000 0.131579 -0.500000
v 0.000000 0.131579 -0.250000
v -0.250000 0.131579 0.000000
v 0.000000 0.131579 0.250000
v 0.250000 0.131579 0.000000
v 0.250000 0.131579 0.250000
v -0.250000 0.131579 0.250000
v -0.250000 0.131579 -0.250000
v 0.250000 0.131579 -0.250000
v -0.500000 -0.500000 0.500000
v 0.500000 -0.500000 0.500000
v -0.500000 -0.500000 -0.500000
v 0.500000 -0.500000 -0.500000
v -0.500000 -0.500000 0.000000
v 0.000000 -0.500000 0.500000
v 0.500000 -0.500000 0.000000
v 0.000000 -0.500000 -0.500000
v -0.500000 -0.236842 0.250000
v -0.500000 -0.500000 0.250000
v 0.250000 -0.500000 0.500000
v 0.500000 -0.500000 -0.250000
v -0.250000 -0.500000 -0.500000
v -0.500000 -0.500000 -0.250000
v -0.250000 -0.500000 0.500000
v 0.500000 -0.500000 0.250000
v 0.250000 -0.500000 -0.500000
v 0.000000 -0.500000 -0.250000
v 0.000000 -0.500000 0.250000
v -0.250000 -0.500000 0.000000
v 0.250000 -0.500000 0.000000
v 0.250000 -0.500000 0.250000
v -0.250000 -0.500000 0.250000
v -0.250000 -0.500000 -0.250000
v 0.250000 -0.500000 -0.250000
v -0.500000 -0.236842 0.500000
v 0.250000 -0.236842 0.500000
v 0.500000 -0.236842 0.500000
v 0.500000 -0.236842 -0.250000
v 0.500000 -0.236842 -0.500000
v -0.250000 -0.236842 -0.500000
v -0.500000 -0.236842 -0.500000
v -0.500000 -0.236842 -0.250000
v -0.500000 -0.236842 0.000000
v -0.250000 -0.236842 0.500000
v 0.000000 -0.236842 0.500000
v 0.500000 -0.236842 0.250000
v 0.500000 -0.236842 0.000000
v 0.250000 -0.236842 -0.500000
v 0.000000 -0.236842 -0.500000
v 0.000000 -0.236842 -0.250000
v -0.250000 -0.236842 0.000000
v 0.000000 -0.236842 0.250000
v 0.250000 -0.236842 0.000000
v 0.250000 -0.236842 0.250000
v -0.250000 -0.236842 0.250000
v -0.250000 -0.236842 -0.250000
v 0.250000 -0.236842 -0.250000
vt 0.289660 0.026567
vt 0.286812 0.026567
vt 0.286812 0.023869
vt 0.289660 0.023869
vt 0.289660 0.031964
vt 0.286812 0.031964
vt 0.286812 0.029266
vt 0.289660 0.029266
vt 0.298204 0.029266
vt 0.298204 0.026567
vt 0.301053 0.026567
vt 0.301053 0.029266
vt 0.295356 0.026567
vt 0.292508 0.026567
vt 0.292508 0.023869
vt 0.295356 0.023869
vt 0.301053 0.023869
vt 0.303901 0.023869
vt 0.303901 0.026567
vt 0.295356 0.029266
vt 0.298204 0.023869
vt 0.295356 0.034662
vt 0.292508 0.034662
vt 0.292508 0.031964
vt 0.295356 0.031964
vt 0.298204 0.034662
vt 0.298204 0.031964
vt 0.289660 0.034662
vt 0.286812 0.034662
vt 0.306749 0.031964
vt 0.306749 0.029266
vt 0.309597 0.029266
vt 0.309597 0.031964
vt 0.306749 0.026567
vt 0.306749 0.023869
vt 0.309597 0.023869
vt 0.309597 0.026567
vt 0.301053 0.034662
vt 0.301053 0.031964
vt 0.303901 0.031964
vt 0.303901 0.034662
vt 0.306749 0.034662
vt 0.309597 0.034662
vt 0.321589 0.023869
vt 0.321589 0.026567
vt 0.318591 0.026567
vt 0.318591 0.023869
vt 0.324587 0.037360
vt 0.324587 0.040059
vt 0.321589 0.040059
vt 0.321589 0.037360
vt 0.307798 0.048153
vt 0.307798 0.050852
vt 0.304800 0.050852
vt 0.304800 0.048153
vt 0.315593 0.031964
vt 0.315593 0.034662
vt 0.312595 0.034662
vt 0.312595 0.031964
vt 0.298204 0.045455
vt 0.298204 0.042757
vt 0.301202 0.042757
vt 0.301202 0.045455
vt 0.321589 0.042757
vt 0.321589 0.045455
vt 0.318591 0.045455
vt 0.318591 0.042757
vt 0.315593 0.023869
vt 0.315593 0.026567
vt 0.312595 0.026567
vt 0.312595 0.023869
vt 0.324587 0.026567
vt 0.324587 0.029266
vt 0.321589 0.029266
vt 0.324587 0.034662
vt 0.321589 0.034662
vt 0.318591 0.029266
vt 0.318591 0.037360
vt 0.318591 0.034662
vt 0.321589 0.031964
vt 0.318591 0.031964
vt 0.298204 0.040059
vt 0.301202 0.040059
vt 0.298804 0.050852
vt 0.298804 0.048153
vt 0.301802 0.048153
vt 0.301802 0.050852
vt 0.298204 0.037360
vt 0.301202 0.037360
vt 0.324587 0.023869
vt 0.315593 0.029266
vt 0.312595 0.029266
vt 0.318591 0.040059
vt 0.307798 0.045455
vt 0.304800 0.045455
vt 0.298804 0.045455
vt 0.301802 0.045455
vt 0.301202 0.034662
vt 0.289660 0.015774
vt 0.286812 0.015774
vt 0.286812 0.013076
vt 0.289660 0.013076
vt 0.289660 0.021171
vt 0.286812 0.021171
vt 0.286812 0.018473
vt 0.289660 0.018473
vt 0.298204 0.018473
vt 0.298204 0.015774
vt 0.301053 0.015774
vt 0.301053 0.018473
vt 0.295356 0.015774
vt 0.292508 0.015774
vt 0.292508 0.013076
vt 0.295356 0.013076
vt 0.301053 0.013076
vt 0.303901 0.013076
vt 0.303901 0.015774
vt 0.295356 0.018473
vt 0.298204 0.013076
vt 0.292508 0.021171
vt 0.295356 0.021171
vt 0.298204 0.021171
vt 0.306749 0.021171
vt 0.306749 0.018473
vt 0.309597 0.018473
vt 0.309597 0.021171
vt 0.306749 0.015774
vt 0.306749 0.013076
vt 0.309597 0.013076
vt 0.309597 0.015774
vt 0.301053 0.021171
vt 0.303901 0.021171
vt 0.323988 0.013076
vt 0.323988 0.015774
vt 0.320990 0.015774
vt 0.320990 0.013076
vt 0.324587 0.042757
vt 0.324587 0.045455
vt 0.295806 0.048153
vt 0.295806 0.050852
vt 0.292808 0.050852
vt 0.292808 0.048153
vt 0.312595 0.045455
vt 0.312595 0.042757
vt 0.315593 0.042757
vt 0.315593 0.045455
vt 0.324587 0.031964
vt 0.323988 0.018473
vt 0.320990 0.018473
vt 0.323988 0.021171
vt 0.320990 0.021171
vt 0.312595 0.040059
vt 0.315593 0.040059
vt 0.286812 0.050852
vt 0.286812 0.048153
vt 0.289810 0.048153
vt 0.289810 0.050852
vt 0.312595 0.037360
vt 0.315593 0.037360
vt 0.295806 0.045455
vt 0.292808 0.045455
vt 0.323988 0.023869
vt 0.320990 0.023869
vt 0.286812 0.045455
vt 0.289810 0.045455
vt 0.312445 0.015774
vt 0.312445 0.013076
vt 0.312445 0.021171
vt 0.312445 0.018473
vt 0.286812 0.040059
vt 0.286812 0.037360
vt 0.289660 0.037360
vt 0.289660 0.040059
vt 0.318141 0.015774
vt 0.315293 0.015774
vt 0.315293 0.013076
vt 0.318141 0.013076
vt 0.292508 0.037360
vt 0.318141 0.018473
vt 0.318141 0.023869
vt 0.315293 0.023869
vt 0.315293 0.021171
vt 0.318141 0.021171
vt 0.312445 0.023869
vt 0.295356 0.042757
vt 0.295356 0.040059
vt 0.295356 0.037360
vt 0.289660 0.045455
vt 0.289660 0.042757
vt 0.292508 0.042757
vt 0.292508 0.045455
vt 0.286812 0.042757
vt 0.295356 0.045455
vt 0.310796 0.048153
vt 0.310796 0.050852
vt 0.309597 0.045455
vt 0.309597 0.042757
vt 0.304201 0.042757
vt 0.304201 0.045455
vt 0.307199 0.042757
vt 0.307199 0.045455
vt 0.309597 0.037360
vt 0.307199 0.034662
vt 0.307199 0.037360
vt 0.304201 0.037360
vt 0.304201 0.034662
vt 0.304201 0.040059
vt 0.309597 0.040059
vt 0.307199 0.040059
vt 0.310796 0.045455
vn 0.000000 -1.000000 0.000000
vn 0.000000 1.000000 0.000000
vn -1.000000 0.000000 0.000000
vn 0.000000 0.000000 -1.000000
vn 1.000000 0.000000 0.000000
vn 0.000000 0.000000 1.000000
s off
f 25/1/1 17/2/1 4/3/1 12/4/1
f 24/5/1 13/6/1 8/7/1 18/8/1
f 36/9/2 27/10/2 45/11/2 43/12/2
f 22/13/1 21/14/1 7/15/1 16/16/1
f 45/11/2 37/17/2 38/18/2 44/19/2
f 6/9/1 19/20/1 22/13/1 11/10/1
f 11/10/1 22/13/1 16/16/1 2/21/1
f 10/22/1 5/23/1 20/24/1 23/25/1
f 1/26/1 10/22/1 23/25/1 15/27/1
f 15/27/1 23/25/1 19/20/1 6/9/1
f 14/28/1 3/29/1 13/6/1 24/5/1
f 5/23/1 14/28/1 24/5/1 20/24/1
f 47/30/2 41/31/2 40/32/2 31/33/2
f 18/8/1 8/7/1 17/2/1 25/1/1
f 48/34/2 29/35/2 30/36/2 39/37/2
f 21/14/1 25/1/1 12/4/1 7/15/1
f 27/10/2 28/21/2 37/17/2 45/11/2
f 9/38/2 46/39/2 42/40/2 34/41/2
f 26/26/2 35/27/2 46/39/2 9/38/2
f 35/27/2 36/9/2 43/12/2 46/39/2
f 33/42/2 47/30/2 31/33/2 32/43/2
f 34/41/2 42/40/2 47/30/2 33/42/2
f 41/31/2 48/34/2 39/37/2 40/32/2
f 44/19/2 38/18/2 29/35/2 48/34/2
f 3/44/3 14/45/3 33/46/3 32/47/3
f 19/48/4 23/49/4 46/50/4 43/51/4
f 21/52/3 22/53/3 45/54/3 44/55/3
f 12/56/5 4/57/5 30/58/5 29/59/5
f 1/60/6 15/61/6 35/62/6 26/63/6
f 13/64/4 3/65/4 32/66/4 31/67/4
f 2/68/5 16/69/5 37/70/5 28/71/5
f 20/72/5 24/73/5 47/74/5 42/45/5
f 22/75/4 19/48/4 43/51/4 45/76/4
f 14/45/3 5/74/3 34/77/3 33/46/3
f 4/76/4 17/51/4 39/78/4 30/79/4
f 5/74/3 10/80/3 9/81/3 34/77/3
f 15/61/6 6/82/6 36/83/6 35/62/6
f 24/84/6 18/85/6 41/86/6 47/87/6
f 6/82/6 11/88/6 27/89/6 36/83/6
f 23/90/5 20/72/5 42/45/5 46/44/5
f 16/69/5 7/91/5 38/92/5 37/70/5
f 7/91/5 12/56/5 29/59/5 38/92/5
f 17/51/4 8/50/4 40/93/4 39/78/4
f 25/94/3 21/52/3 44/55/3 48/95/3
f 10/80/3 1/76/3 26/79/3 9/81/3
f 8/50/4 13/64/4 31/67/4 40/93/4
f 18/85/6 25/96/6 48/97/6 41/86/6
f 11/88/6 2/26/6 28/98/6 27/89/6
f 73/99/1 65/100/1 52/101/1 60/102/1
f 72/103/1 61/104/1 56/105/1 66/106/1
f 84/107/2 75/108/2 93/109/2 91/110/2
f 70/111/1 69/112/1 55/113/1 64/114/1
f 93/109/2 85/115/2 86/116/2 92/117/2
f 54/107/1 67/118/1 70/111/1 59/108/1
f 59/108/1 70/111/1 64/114/1 50/119/1
f 58/16/1 53/15/1 68/120/1 71/121/1
f 49/21/1 58/16/1 71/121/1 63/122/1
f 63/122/1 71/121/1 67/118/1 54/107/1
f 62/4/1 51/3/1 61/104/1 72/103/1
f 53/15/1 62/4/1 72/103/1 68/120/1
f 95/123/2 89/124/2 88/125/2 79/126/2
f 66/106/1 56/105/1 65/100/1 73/99/1
f 96/127/2 77/128/2 78/129/2 87/130/2
f 69/112/1 73/99/1 60/102/1 55/113/1
f 75/108/2 76/119/2 85/115/2 93/109/2
f 57/17/2 94/131/2 90/132/2 82/18/2
f 74/21/2 83/122/2 94/131/2 57/17/2
f 83/122/2 84/107/2 91/110/2 94/131/2
f 81/35/2 95/123/2 79/126/2 80/36/2
f 82/18/2 90/132/2 95/123/2 81/35/2
f 89/124/2 96/127/2 87/130/2 88/125/2
f 92/117/2 86/116/2 77/128/2 96/127/2
f 51/133/3 62/134/3 81/135/3 80/136/3
f 67/137/4 71/138/4 94/65/4 91/64/4
f 69/139/3 70/140/3 93/141/3 92/142/3
f 60/59/5 52/58/5 78/43/5 77/33/5
f 49/143/6 63/144/6 83/145/6 74/146/6
f 61/81/4 51/79/4 80/57/4 79/56/4
f 50/71/5 64/70/5 85/37/5 76/36/5
f 68/147/5 72/75/5 95/76/5 90/80/5
f 70/49/4 67/137/4 91/64/4 93/50/4
f 62/134/3 53/148/3 82/149/3 81/135/3
f 52/47/4 65/46/4 87/69/4 78/68/4
f 53/148/3 58/150/3 57/151/3 82/149/3
f 63/144/6 54/152/6 84/153/6 83/145/6
f 72/154/6 66/155/6 89/156/6 95/157/6
f 54/152/6 59/158/6 75/159/6 84/153/6
f 71/73/5 68/147/5 90/80/5 94/74/5
f 64/70/5 55/92/5 86/32/5 85/37/5
f 55/92/5 60/59/5 77/33/5 86/32/5
f 65/46/4 56/77/4 88/91/4 87/69/4
f 73/160/3 69/139/3 92/142/3 96/161/3
f 58/150/3 49/162/3 74/163/3 57/151/3
f 56/77/4 61/81/4 79/56/4 88/91/4
f 66/155/6 73/164/6 96/165/6 89/156/6
f 59/158/6 50/58/6 76/57/6 75/159/6
f 121/166/1 113/130/1 100/129/1 108/167/1
f 120/168/1 109/126/1 104/125/1 114/169/1
f 132/170/2 123/171/2 141/172/2 139/173/2
f 118/174/1 117/175/1 103/176/1 112/177/1
f 141/172/2 133/28/2 134/23/2 140/178/2
f 102/149/1 115/179/1 118/174/1 107/135/1
f 107/135/1 118/174/1 112/177/1 98/136/1
f 106/180/1 101/181/1 116/182/1 119/183/1
f 97/163/1 106/180/1 119/183/1 111/151/1
f 111/151/1 119/183/1 115/179/1 102/149/1
f 110/184/1 99/36/1 109/126/1 120/168/1
f 101/181/1 110/184/1 120/168/1 116/182/1
f 143/185/2 137/186/2 136/82/2 127/61/2
f 114/169/1 104/125/1 113/130/1 121/166/1
f 144/187/2 125/22/2 126/26/2 135/88/2
f 117/175/1 121/166/1 108/167/1 103/176/1
f 123/171/2 124/29/2 133/28/2 141/172/2
f 105/188/2 142/189/2 138/190/2 130/191/2
f 122/164/2 131/192/2 142/189/2 105/188/2
f 131/192/2 132/170/2 139/173/2 142/189/2
f 129/193/2 143/185/2 127/61/2 128/60/2
f 130/191/2 138/190/2 143/185/2 129/193/2
f 137/186/2 144/187/2 135/88/2 136/82/2
f 140/178/2 134/23/2 125/22/2 144/187/2
f 99/79/3 110/78/3 129/159/3 128/57/3
f 115/55/4 119/54/4 142/87/4 139/86/4
f 117/194/3 118/195/3 141/53/3 140/52/3
f 108/144/5 100/143/5 126/196/5 125/197/5
f 97/63/6 111/62/6 131/198/6 122/199/6
f 109/200/4 99/201/4 128/199/4 127/198/4
f 98/58/5 112/158/5 133/202/5 124/43/5
f 116/156/5 120/165/5 143/161/5 138/142/5
f 118/95/4 115/55/4 139/86/4 141/97/4
f 110/78/3 101/93/3 130/153/3 129/159/3
f 100/203/4 113/204/4 135/205/4 126/206/4
f 101/93/3 106/67/3 105/145/3 130/153/3
f 111/62/6 102/83/6 132/207/6 131/198/6
f 120/140/6 114/139/6 137/85/6 143/84/6
f 102/83/6 107/89/6 123/205/6 132/207/6
f 119/157/5 116/156/5 138/142/5 142/141/5
f 112/158/5 103/152/5 134/208/5 133/202/5
f 103/152/5 108/144/5 125/197/5 134/208/5
f 113/204/4 104/209/4 136/207/4 135/205/4
f 121/210/3 117/194/3 140/52/3 144/94/3
f 106/67/3 97/66/3 122/146/3 105/145/3
f 104/209/4 109/200/4 127/198/4 136/207/4
f 114/139/6 121/160/6 144/96/6 137/85/6
f 107/89/6 98/98/6 124/206/6 123/205/6
