# Blender v2.77 (sub 0) OBJ File: 'character29.blend'
# www.blender.org
o Cube.003_Cube.004
v -0.397665 -0.469697 0.015098
v -0.397665 -0.643817 0.015098
v -0.397665 -0.469697 -0.080009
v -0.397665 -0.643817 -0.080009
v -0.302558 -0.469697 0.015098
v -0.302558 -0.643817 0.015098
v -0.302558 -0.469697 -0.080009
v -0.302558 -0.643817 -0.080009
v -0.397554 -0.469697 0.267787
v -0.397554 -0.643817 0.267787
v -0.397554 -0.469697 0.172680
v -0.397554 -0.643817 0.172680
v -0.302446 -0.469697 0.267787
v -0.302446 -0.643817 0.267787
v -0.302446 -0.469697 0.172680
v -0.302446 -0.643817 0.172680
v -0.397665 -0.469697 -0.219045
v -0.397665 -0.643817 -0.219045
v -0.397665 -0.469697 -0.314153
v -0.397665 -0.643817 -0.314153
v -0.302558 -0.469697 -0.219045
v -0.302558 -0.643817 -0.219045
v -0.302558 -0.469697 -0.314153
v -0.302558 -0.643817 -0.314153
v 0.302446 -0.469697 -0.219045
v 0.302446 -0.643817 -0.219045
v 0.302446 -0.469697 -0.314153
v 0.302446 -0.643817 -0.314153
v 0.397554 -0.469697 -0.219045
v 0.397554 -0.643817 -0.219045
v 0.397554 -0.469697 -0.314153
v 0.397554 -0.643817 -0.314153
v 0.302446 -0.469697 0.267787
v 0.302446 -0.643817 0.267787
v 0.302446 -0.469697 0.172680
v 0.302446 -0.643817 0.172680
v 0.397554 -0.469697 0.267787
v 0.397554 -0.643817 0.267787
v 0.397554 -0.469697 0.172680
v 0.397554 -0.643817 0.172680
v 0.302446 -0.469697 0.015098
v 0.302446 -0.643817 0.015098
v 0.302446 -0.469697 -0.080009
v 0.302446 -0.643817 -0.080009
v 0.397554 -0.469697 0.015098
v 0.397554 -0.643817 0.015098
v 0.397554 -0.469697 -0.080009
v 0.397554 -0.643817 -0.080009
v -0.236943 -0.117792 0.489935
v -0.293491 -0.136166 0.489935
v -0.328439 -0.184269 0.489935
v -0.328439 -0.243727 0.489935
v -0.293491 -0.291830 0.489935
v -0.236943 -0.310203 0.489935
v -0.180395 -0.291830 0.489935
v -0.145446 -0.243727 0.489935
v -0.145446 -0.184269 0.489935
v -0.180395 -0.136166 0.489935
v -0.277318 -0.158426 0.648218
v -0.236943 -0.145307 0.648218
v -0.302272 -0.192771 0.648218
v -0.302272 -0.235225 0.648218
v -0.277318 -0.269570 0.648218
v -0.236943 -0.282689 0.648218
v -0.196567 -0.269570 0.648218
v -0.171614 -0.235225 0.648218
v -0.171614 -0.192771 0.648218
v -0.196567 -0.158426 0.648218
v -0.293491 -0.136166 0.629935
v -0.236943 -0.117792 0.629935
v -0.328439 -0.184269 0.629935
v -0.328439 -0.243727 0.629935
v -0.293491 -0.291830 0.629935
v -0.236943 -0.310203 0.629935
v -0.180395 -0.291830 0.629935
v -0.145446 -0.243727 0.629935
v -0.145446 -0.184269 0.629935
v -0.180395 -0.136166 0.629935
v 0.236943 -0.117792 0.489935
v 0.293491 -0.136166 0.489935
v 0.328439 -0.184269 0.489935
v 0.328439 -0.243727 0.489935
v 0.293491 -0.291830 0.489935
v 0.236943 -0.310203 0.489935
v 0.180395 -0.291830 0.489935
v 0.145446 -0.243727 0.489935
v 0.145446 -0.184269 0.489935
v 0.180395 -0.136166 0.489935
v 0.277318 -0.158426 0.648218
v 0.236943 -0.145307 0.648218
v 0.302272 -0.192771 0.648218
v 0.302272 -0.235225 0.648218
v 0.277318 -0.269570 0.648218
v 0.236943 -0.282689 0.648218
v 0.196567 -0.269570 0.648218
v 0.171614 -0.235225 0.648218
v 0.171614 -0.192771 0.648218
v 0.196567 -0.158426 0.648218
v 0.293491 -0.136166 0.629935
v 0.236943 -0.117792 0.629935
v 0.328439 -0.184269 0.629935
v 0.328439 -0.243727 0.629935
v 0.293491 -0.291830 0.629935
v 0.236943 -0.310203 0.629935
v 0.180395 -0.291830 0.629935
v 0.145446 -0.243727 0.629935
v 0.145446 -0.184269 0.629935
v 0.180395 -0.136166 0.629935
v -0.425458 -0.462199 0.400000
v -0.425458 0.388716 0.400000
v -0.500000 -0.500000 -0.500000
v -0.500000 0.500000 -0.500000
v 0.425458 -0.462199 0.400000
v 0.425458 0.388716 0.400000
v 0.500000 -0.500000 -0.500000
v 0.500000 0.500000 -0.500000
v -0.500000 -0.500000 0.400000
v -0.500000 0.500000 0.400000
v 0.500000 0.500000 0.400000
v 0.500000 -0.500000 0.400000
v -0.425458 -0.462199 0.500000
v -0.425458 0.388716 0.500000
v 0.425458 0.388716 0.500000
v 0.425458 -0.462199 0.500000
v -0.021776 0.500000 -0.500000
v 0.021776 0.500000 -0.500000
v 0.021776 -0.500000 -0.500000
v -0.021776 -0.500000 -0.500000
v 0.021776 0.500000 0.400000
v -0.021776 0.500000 0.400000
v -0.021776 -0.500000 0.400000
v 0.021776 -0.500000 0.400000
v 0.018530 0.388716 0.400000
v -0.018530 0.388716 0.400000
v -0.018530 -0.462199 0.400000
v 0.018530 -0.462199 0.400000
v 0.018530 0.388716 0.500000
v -0.018530 0.388716 0.500000
v -0.018530 -0.462199 0.500000
v 0.018530 -0.462199 0.500000
vt 0.8752 0.8601
vt 0.8752 0.8526
vt 0.8827 0.8526
vt 0.8827 0.8601
vt 0.8509 0.3543
vt 0.8884 0.3543
vt 0.8884 0.3915
vt 0.8509 0.3915
vt 0.8856 0.8526
vt 0.8931 0.8526
vt 0.8931 0.8601
vt 0.8856 0.8601
vt 0.6757 0.8132
vt 0.7132 0.8132
vt 0.7132 0.8503
vt 0.6757 0.8503
vt 0.9069 0.7474
vt 0.8993 0.7474
vt 0.8993 0.7400
vt 0.9069 0.7400
vt 0.7926 0.8329
vt 0.8001 0.8329
vt 0.8001 0.8403
vt 0.7926 0.8403
vt 0.7671 0.8648
vt 0.7671 0.8276
vt 0.8046 0.8276
vt 0.8046 0.8648
vt 0.7408 0.8576
vt 0.7408 0.8501
vt 0.7483 0.8501
vt 0.7483 0.8576
vt 0.6939 0.8722
vt 0.6939 0.8350
vt 0.7314 0.8350
vt 0.7314 0.8722
vt 0.8438 0.8526
vt 0.8513 0.8526
vt 0.8513 0.8601
vt 0.8438 0.8601
vt 0.8334 0.8526
vt 0.8409 0.8526
vt 0.8409 0.8601
vt 0.8334 0.8601
vt 0.7408 0.8605
vt 0.7483 0.8605
vt 0.7483 0.8679
vt 0.7408 0.8679
vt 0.8647 0.8601
vt 0.8647 0.8526
vt 0.8722 0.8526
vt 0.8722 0.8601
vt 0.7987 0.3543
vt 0.8362 0.3543
vt 0.8362 0.3915
vt 0.7987 0.3915
vt 0.7617 0.8679
vt 0.7617 0.8605
vt 0.7692 0.8605
vt 0.7692 0.8679
vt 0.7800 0.8132
vt 0.8175 0.8132
vt 0.8175 0.8503
vt 0.7800 0.8503
vt 0.8618 0.8497
vt 0.8543 0.8497
vt 0.8543 0.8423
vt 0.8618 0.8423
vt 0.8643 0.8394
vt 0.8643 0.8319
vt 0.8718 0.8319
vt 0.8718 0.8394
vt 0.8851 0.8497
vt 0.8851 0.8423
vt 0.8927 0.8423
vt 0.8927 0.8497
vt 0.6259 0.9020
vt 0.6259 0.8648
vt 0.6634 0.8648
vt 0.6634 0.9020
vt 0.8543 0.8601
vt 0.8543 0.8526
vt 0.8618 0.8526
vt 0.8618 0.8601
vt 0.5216 0.8648
vt 0.5591 0.8648
vt 0.5591 0.9020
vt 0.5216 0.9020
vt 0.8680 0.7474
vt 0.8680 0.7400
vt 0.8755 0.7400
vt 0.8755 0.7474
vt 0.8409 0.8423
vt 0.8409 0.8497
vt 0.8334 0.8497
vt 0.8334 0.8423
vt 0.7512 0.8576
vt 0.7512 0.8501
vt 0.7588 0.8501
vt 0.7588 0.8576
vt 0.6083 0.9091
vt 0.5708 0.9091
vt 0.5708 0.8719
vt 0.6083 0.8719
vt 0.7721 0.8576
vt 0.7721 0.8501
vt 0.7796 0.8501
vt 0.7796 0.8576
vt 0.6230 0.8202
vt 0.6605 0.8202
vt 0.6605 0.8574
vt 0.6230 0.8574
vt 0.7926 0.8610
vt 0.7926 0.8536
vt 0.8001 0.8536
vt 0.8001 0.8610
vt 0.8647 0.8423
vt 0.8722 0.8423
vt 0.8722 0.8497
vt 0.8647 0.8497
vt 0.7926 0.8507
vt 0.7926 0.8432
vt 0.8001 0.8432
vt 0.8001 0.8507
vt 0.7648 0.9091
vt 0.7273 0.9091
vt 0.7273 0.8719
vt 0.7648 0.8719
vt 0.8304 0.8601
vt 0.8229 0.8601
vt 0.8229 0.8526
vt 0.8304 0.8526
vt 0.8321 0.8132
vt 0.8696 0.8132
vt 0.8696 0.8503
vt 0.8321 0.8503
vt 0.7379 0.8679
vt 0.7303 0.8679
vt 0.7303 0.8605
vt 0.7379 0.8605
vt 0.9173 0.7474
vt 0.9098 0.7474
vt 0.9098 0.7400
vt 0.9173 0.7400
vt 0.2215 0.8316
vt 0.2319 0.8179
vt 0.2447 0.8179
vt 0.2550 0.8316
vt 0.2590 0.8537
vt 0.2550 0.8758
vt 0.2447 0.8894
vt 0.2319 0.8894
vt 0.2215 0.8758
vt 0.2175 0.8537
vt 0.1860 0.8288
vt 0.1869 0.8340
vt 0.1860 0.8391
vt 0.1835 0.8423
vt 0.1806 0.8423
vt 0.1782 0.8391
vt 0.1772 0.8340
vt 0.1782 0.8288
vt 0.1806 0.8257
vt 0.1835 0.8257
vt 0.6445 0.8722
vt 0.6330 0.8722
vt 0.6330 0.8676
vt 0.6445 0.8676
vt 0.5923 0.8908
vt 0.5923 0.9022
vt 0.5896 0.9022
vt 0.5896 0.8908
vt 0.6606 0.8768
vt 0.6491 0.8768
vt 0.6491 0.8722
vt 0.6606 0.8722
vt 0.6330 0.8648
vt 0.6445 0.8648
vt 0.6445 0.8797
vt 0.6330 0.8797
vt 0.6330 0.8768
vt 0.6445 0.8768
vt 0.6491 0.8676
vt 0.6606 0.8676
vt 0.6108 0.8843
vt 0.6108 0.8729
vt 0.6135 0.8729
vt 0.6135 0.8843
vt 0.6491 0.8648
vt 0.6606 0.8648
vt 0.6606 0.8797
vt 0.6491 0.8797
vt 0.6476 0.8689
vt 0.6476 0.8722
vt 0.5944 0.8750
vt 0.5947 0.8729
vt 0.5969 0.8757
vt 0.5959 0.8771
vt 0.5925 0.8750
vt 0.5921 0.8729
vt 0.5909 0.8771
vt 0.5899 0.8757
vt 0.6315 0.8722
vt 0.6315 0.8755
vt 0.6315 0.8689
vt 0.5925 0.8857
vt 0.5921 0.8878
vt 0.5899 0.8850
vt 0.5909 0.8836
vt 0.5944 0.8857
vt 0.5947 0.8878
vt 0.5959 0.8836
vt 0.5969 0.8850
vt 0.6476 0.8755
vt 0.1989 0.8316
vt 0.2029 0.8537
vt 0.1989 0.8758
vt 0.1886 0.8894
vt 0.1758 0.8894
vt 0.1654 0.8758
vt 0.1614 0.8537
vt 0.1654 0.8316
vt 0.1758 0.8179
vt 0.1886 0.8179
vt 0.1625 0.8288
vt 0.1649 0.8257
vt 0.1679 0.8257
vt 0.1703 0.8288
vt 0.1712 0.8340
vt 0.1703 0.8391
vt 0.1679 0.8423
vt 0.1649 0.8423
vt 0.1625 0.8391
vt 0.1615 0.8340
vt 0.5535 0.8804
vt 0.5535 0.8850
vt 0.5420 0.8850
vt 0.5420 0.8804
vt 0.7097 0.8833
vt 0.7070 0.8833
vt 0.7070 0.8719
vt 0.7097 0.8719
vt 0.5374 0.8757
vt 0.5374 0.8804
vt 0.5259 0.8804
vt 0.5259 0.8757
vt 0.5535 0.8878
vt 0.5420 0.8878
vt 0.5535 0.8729
vt 0.5535 0.8757
vt 0.5420 0.8757
vt 0.5420 0.8729
vt 0.5374 0.8850
vt 0.5259 0.8850
vt 0.6108 0.8873
vt 0.6135 0.8873
vt 0.6135 0.8987
vt 0.6108 0.8987
vt 0.5374 0.8878
vt 0.5259 0.8878
vt 0.5374 0.8729
vt 0.5259 0.8729
vt 0.5244 0.8836
vt 0.5244 0.8804
vt 0.5824 0.8750
vt 0.5809 0.8771
vt 0.5799 0.8757
vt 0.5820 0.8729
vt 0.5843 0.8750
vt 0.5847 0.8729
vt 0.5859 0.8771
vt 0.5869 0.8757
vt 0.5405 0.8804
vt 0.5405 0.8771
vt 0.5405 0.8836
vt 0.5843 0.8857
vt 0.5859 0.8836
vt 0.5869 0.8850
vt 0.5847 0.8878
vt 0.5824 0.8857
vt 0.5820 0.8878
vt 0.5809 0.8836
vt 0.5799 0.8850
vt 0.5244 0.8771
vt 0.0879 0.1116
vt 0.5287 0.1116
vt 0.5287 0.5414
vt 0.0879 0.5414
vt 0.8257 0.0905
vt 0.9207 0.0905
vt 0.9207 0.1729
vt 0.8257 0.1729
vt 0.5057 0.5474
vt 0.1059 0.5474
vt 0.1059 0.1105
vt 0.5057 0.1105
vt 0.8498 0.7686
vt 0.8513 0.7686
vt 0.8513 0.7744
vt 0.8498 0.7744
vt 0.7720 0.1456
vt 0.7720 0.1413
vt 0.7803 0.1413
vt 0.7803 0.1456
vt 0.7445 0.1970
vt 0.7445 0.0976
vt 0.9332 0.0976
vt 0.9332 0.1970
vt 0.7768 0.1591
vt 0.7770 0.1597
vt 0.7720 0.1597
vt 0.7726 0.1591
vt 0.7726 0.1514
vt 0.7720 0.1507
vt 0.7770 0.1507
vt 0.7768 0.1514
vt 0.7726 0.1550
vt 0.7720 0.1550
vt 0.7768 0.1554
vt 0.7770 0.1554
vt 0.8389 0.3625
vt 0.8456 0.3625
vt 0.8456 0.3683
vt 0.8389 0.3683
vt 0.8666 0.7544
vt 0.8680 0.7544
vt 0.8680 0.7610
vt 0.8666 0.7610
vt 0.8507 0.7828
vt 0.8492 0.7828
vt 0.8492 0.7770
vt 0.8507 0.7770
vt 0.8513 0.7617
vt 0.8498 0.7617
vt 0.8498 0.7551
vt 0.8513 0.7551
vt 0.8507 0.7891
vt 0.8492 0.7891
vt 0.8492 0.7833
vt 0.8507 0.7833
vt 0.8389 0.3562
vt 0.8456 0.3562
vt 0.8456 0.3620
vt 0.8389 0.3620
vt 0.7770 0.1550
vt 0.7768 0.1550
vt 0.7720 0.1554
vt 0.7726 0.1554
vt 0.7486 0.8609
vt 0.7441 0.8611
vt 0.7441 0.8579
vt 0.7486 0.8581
vt 0.7445 0.1970
vt 0.7445 0.0976
vt 0.9332 0.0976
vt 0.9332 0.1970
vt 0.8810 0.7813
vt 0.8810 0.7845
vt 0.8140 0.7845
vt 0.8140 0.7813
vt 0.7720 0.1503
vt 0.7720 0.1460
vt 0.7803 0.1460
vt 0.7803 0.1503
vt 0.8498 0.7623
vt 0.8513 0.7623
vt 0.8513 0.7681
vt 0.8498 0.7681
vt 0.7205 0.0900
vt 0.8734 0.0900
vt 0.8734 0.2226
vt 0.7205 0.2226
vt 0.7074 0.8132
vt 0.7065 0.8132
vt 0.7065 0.8131
vt 0.7074 0.8131
vn 1.0000 0.0000 0.0000
vn -0.0000 0.0000 1.0000
vn -1.0000 0.0000 0.0000
vn 0.0000 0.0000 -1.0000
vn 0.0000 -1.0000 0.0000
vn 0.0000 1.0000 0.0000
vn -0.3090 0.9511 0.0000
vn -0.3090 -0.9511 0.0000
vn -0.8090 0.5878 0.0000
vn 0.8090 0.5878 0.0000
vn 0.3090 -0.9511 0.0000
vn 0.3090 0.9511 0.0000
vn 0.8090 -0.5878 0.0000
vn -0.8090 -0.5878 0.0000
vn 0.1770 -0.5447 -0.8197
vn 0.4634 -0.3367 -0.8197
vn 0.5727 0.0000 -0.8197
vn 0.4634 0.3367 -0.8197
vn 0.1770 0.5447 -0.8197
vn -0.1770 0.5447 -0.8197
vn -0.4634 0.3367 -0.8197
vn -0.5727 0.0000 -0.8197
vn -0.4634 -0.3367 -0.8197
vn -0.1770 -0.5447 -0.8197
s off
f 2/1/1 4/2/1 3/3/1 1/4/1
f 4/5/2 8/6/2 7/7/2 3/8/2
f 8/9/3 6/10/3 5/11/3 7/12/3
f 6/13/4 2/14/4 1/15/4 5/16/4
f 1/17/5 3/18/5 7/19/5 5/20/5
f 6/21/6 8/22/6 4/23/6 2/24/6
f 10/25/1 12/26/1 11/27/1 9/28/1
f 12/29/2 16/30/2 15/31/2 11/32/2
f 16/33/3 14/34/3 13/35/3 15/36/3
f 14/37/4 10/38/4 9/39/4 13/40/4
f 9/41/5 11/42/5 15/43/5 13/44/5
f 14/45/6 16/46/6 12/47/6 10/48/6
f 18/49/1 20/50/1 19/51/1 17/52/1
f 20/53/2 24/54/2 23/55/2 19/56/2
f 24/57/3 22/58/3 21/59/3 23/60/3
f 22/61/4 18/62/4 17/63/4 21/64/4
f 17/65/5 19/66/5 23/67/5 21/68/5
f 22/69/6 24/70/6 20/71/6 18/72/6
f 26/73/1 28/74/1 27/75/1 25/76/1
f 28/77/2 32/78/2 31/79/2 27/80/2
f 32/81/3 30/82/3 29/83/3 31/84/3
f 30/85/4 26/86/4 25/87/4 29/88/4
f 25/89/5 27/90/5 31/91/5 29/92/5
f 30/93/6 32/94/6 28/95/6 26/96/6
f 34/97/1 36/98/1 35/99/1 33/100/1
f 36/101/2 40/102/2 39/103/2 35/104/2
f 40/105/3 38/106/3 37/107/3 39/108/3
f 38/109/4 34/110/4 33/111/4 37/112/4
f 33/113/5 35/114/5 39/115/5 37/116/5
f 38/117/6 40/118/6 36/119/6 34/120/6
f 42/121/1 44/122/1 43/123/1 41/124/1
f 44/125/2 48/126/2 47/127/2 43/128/2
f 48/129/3 46/130/3 45/131/3 47/132/3
f 46/133/4 42/134/4 41/135/4 45/136/4
f 41/137/5 43/138/5 47/139/5 45/140/5
f 46/141/6 48/142/6 44/143/6 42/144/6
f 50/145/2 51/146/2 52/147/2 53/148/2 54/149/2 55/150/2 56/151/2 57/152/2 58/153/2 49/154/2
f 59/155/4 60/156/4 68/157/4 67/158/4 66/159/4 65/160/4 64/161/4 63/162/4 62/163/4 61/164/4
f 54/165/7 74/166/7 75/167/7 55/168/7
f 51/169/1 71/170/1 72/171/1 52/172/1
f 58/173/8 78/174/8 70/175/8 49/176/8
f 55/168/9 75/167/9 76/177/9 56/178/9
f 52/179/10 72/180/10 73/181/10 53/182/10
f 49/176/11 70/175/11 69/183/11 50/184/11
f 56/185/3 76/186/3 77/187/3 57/188/3
f 53/182/12 73/181/12 74/166/12 54/165/12
f 50/184/13 69/183/13 71/189/13 51/190/13
f 57/191/14 77/192/14 78/174/14 58/173/14
f 59/193/15 69/183/15 70/175/15 60/194/15
f 61/195/16 71/196/16 69/197/16 59/198/16
f 62/199/17 72/200/17 71/196/17 61/195/17
f 63/201/18 73/202/18 72/200/18 62/199/18
f 64/203/19 74/166/19 73/181/19 63/204/19
f 65/205/20 75/167/20 74/166/20 64/203/20
f 66/206/21 76/207/21 75/208/21 65/209/21
f 67/210/22 77/211/22 76/207/22 66/206/22
f 68/212/23 78/213/23 77/211/23 67/210/23
f 60/194/24 70/175/24 78/174/24 68/214/24
f 80/215/2 79/216/2 88/217/2 87/218/2 86/219/2 85/220/2 84/221/2 83/222/2 82/223/2 81/224/2
f 89/225/4 91/226/4 92/227/4 93/228/4 94/229/4 95/230/4 96/231/4 97/232/4 98/233/4 90/234/4
f 84/235/12 85/236/12 105/237/12 104/238/12
f 81/239/3 82/240/3 102/241/3 101/242/3
f 88/243/11 79/244/11 100/245/11 108/246/11
f 85/236/10 86/247/10 106/248/10 105/237/10
f 82/249/9 83/250/9 103/251/9 102/252/9
f 79/244/8 80/253/8 99/254/8 100/245/8
f 86/255/1 87/256/1 107/257/1 106/258/1
f 83/250/7 84/235/7 104/238/7 103/251/7
f 80/253/14 81/259/14 101/260/14 99/254/14
f 87/261/13 88/243/13 108/246/13 107/262/13
f 89/263/24 90/264/24 100/245/24 99/254/24
f 91/265/23 89/266/23 99/267/23 101/268/23
f 92/269/22 91/265/22 101/268/22 102/270/22
f 93/271/21 92/269/21 102/270/21 103/272/21
f 94/273/20 93/274/20 103/251/20 104/238/20
f 95/275/19 94/273/19 104/238/19 105/237/19
f 96/276/18 95/277/18 105/278/18 106/279/18
f 97/280/17 96/276/17 106/279/17 107/281/17
f 98/282/16 97/280/16 107/281/16 108/283/16
f 90/264/15 98/284/15 108/246/15 100/245/15
f 118/285/1 117/286/1 111/287/1 112/288/1
f 126/289/2 127/290/2 115/291/2 116/292/2
f 116/293/3 115/294/3 120/295/3 119/296/3
f 134/297/5 138/298/5 122/299/5 110/300/5
f 132/301/6 120/302/6 115/303/6 127/304/6
f 130/305/5 118/306/5 112/307/5 125/308/5
f 109/309/4 117/310/4 118/311/4 110/312/4
f 114/313/4 119/314/4 120/315/4 113/316/4
f 133/317/4 129/318/4 119/314/4 114/313/4
f 135/319/4 131/320/4 117/310/4 109/309/4
f 138/321/4 139/322/4 121/323/4 122/324/4
f 110/325/1 122/326/1 121/327/1 109/328/1
f 136/329/6 140/330/6 124/331/6 113/332/6
f 113/333/3 124/334/3 123/335/3 114/336/3
f 109/337/6 121/338/6 139/339/6 135/340/6
f 135/340/6 139/339/6 140/330/6 136/329/6
f 123/341/4 124/342/4 140/343/4 137/344/4
f 137/344/4 140/343/4 139/322/4 138/321/4
f 113/316/4 120/315/4 132/345/4 136/346/4
f 136/346/4 132/345/4 131/320/4 135/319/4
f 110/312/4 118/311/4 130/347/4 134/348/4
f 134/349/4 130/350/4 129/351/4 133/352/4
f 119/353/5 129/354/5 126/355/5 116/356/5
f 129/357/5 130/358/5 125/359/5 126/360/5
f 117/361/6 131/362/6 128/363/6 111/364/6
f 131/362/6 132/301/6 127/304/6 128/363/6
f 114/365/5 123/366/5 137/367/5 133/368/5
f 133/368/5 137/367/5 138/298/5 134/297/5
f 112/369/2 111/370/2 128/371/2 125/372/2
f 125/373/2 128/374/2 127/375/2 126/376/2
