# Blender v2.76 (sub 0) OBJ File: 'character11.blend'
# www.blender.org
o Cube
v -0.222223 -0.500000 0.218310
v -0.222223 -0.500000 0.500000
v -0.500000 -0.500000 0.500000
v -0.500000 -0.500000 0.218310
v -0.222223 -0.219101 0.218310
v -0.222224 -0.219101 0.500000
v -0.500000 -0.219101 0.500000
v -0.500000 -0.219101 0.218310
v 0.499996 -0.500000 0.218310
v 0.499996 -0.500000 0.500000
v 0.222219 -0.500000 0.500000
v 0.222219 -0.500000 0.218310
v 0.499996 -0.219101 0.218310
v 0.499996 -0.219101 0.500000
v 0.222219 -0.219101 0.500000
v 0.222219 -0.219101 0.218310
v -0.222222 0.219101 0.218310
v -0.222222 0.219101 0.500000
v -0.499999 0.219101 0.500000
v -0.499999 0.219101 0.218310
v -0.222222 0.500000 0.218310
v -0.222223 0.500000 0.500000
v -0.499999 0.500000 0.500000
v -0.499999 0.500000 0.218310
v 0.499997 0.219101 0.218310
v 0.499997 0.219101 0.500000
v 0.222220 0.219101 0.500000
v 0.222220 0.219101 0.218310
v 0.499997 0.500000 0.218310
v 0.499997 0.500000 0.500000
v 0.222220 0.500000 0.500000
v 0.222220 0.500000 0.218310
v -0.222220 -0.500000 -0.500000
v -0.222220 -0.500000 -0.218310
v -0.499997 -0.500000 -0.218310
v -0.499997 -0.500000 -0.500000
v -0.222220 -0.219101 -0.500000
v -0.222220 -0.219101 -0.218310
v -0.499997 -0.219101 -0.218310
v -0.499997 -0.219101 -0.500000
v 0.499999 -0.500000 -0.500000
v 0.499999 -0.500000 -0.218310
v 0.222222 -0.500000 -0.218310
v 0.222222 -0.500000 -0.500000
v 0.499999 -0.219101 -0.500000
v 0.499999 -0.219101 -0.218310
v 0.222222 -0.219101 -0.218310
v 0.222222 -0.219101 -0.500000
v -0.222219 0.219101 -0.500000
v -0.222219 0.219101 -0.218310
v -0.499996 0.219101 -0.218310
v -0.499996 0.219101 -0.500000
v -0.222219 0.500000 -0.500000
v -0.222219 0.500000 -0.218310
v -0.499996 0.500000 -0.218310
v -0.499996 0.500000 -0.500000
v 0.500000 0.219101 -0.500000
v 0.500000 0.219101 -0.218310
v 0.222223 0.219101 -0.218310
v 0.222224 0.219101 -0.500000
v 0.500000 0.500000 -0.500000
v 0.500000 0.500000 -0.218310
v 0.222223 0.500000 -0.218310
v 0.222223 0.500000 -0.500000
vt 0.306053 0.051139
vt 0.306053 0.047806
vt 0.309133 0.047806
vt 0.309133 0.051139
vt 0.306053 0.039271
vt 0.306053 0.042605
vt 0.302974 0.042605
vt 0.302974 0.039271
vt 0.290657 0.023935
vt 0.293737 0.023935
vt 0.293737 0.027269
vt 0.290657 0.027269
vt 0.323451 0.027269
vt 0.323451 0.030603
vt 0.320372 0.030603
vt 0.320372 0.027269
vt 0.302974 0.044472
vt 0.302974 0.047806
vt 0.299895 0.047806
vt 0.299895 0.044472
vt 0.309441 0.027269
vt 0.312520 0.027269
vt 0.312520 0.030603
vt 0.309441 0.030603
vt 0.321757 0.042471
vt 0.318678 0.042471
vt 0.318678 0.039137
vt 0.321757 0.039137
vt 0.315660 0.015267
vt 0.315660 0.018601
vt 0.312581 0.018601
vt 0.312581 0.015267
vt 0.321757 0.050973
vt 0.318678 0.050973
vt 0.318678 0.047639
vt 0.321757 0.047639
vt 0.326530 0.027269
vt 0.326530 0.030603
vt 0.299895 0.039271
vt 0.323451 0.035804
vt 0.320372 0.035804
vt 0.298540 0.023935
vt 0.298540 0.027269
vt 0.293737 0.035937
vt 0.293737 0.039271
vt 0.290657 0.039271
vt 0.290657 0.035937
vt 0.290657 0.030603
vt 0.293737 0.030603
vt 0.301619 0.023935
vt 0.301619 0.027269
vt 0.323451 0.039137
vt 0.320372 0.039137
vt 0.298509 0.035937
vt 0.298509 0.039271
vt 0.290657 0.047939
vt 0.290657 0.042605
vt 0.293737 0.042605
vt 0.293737 0.047939
vt 0.296816 0.042605
vt 0.296816 0.047939
vt 0.302974 0.051139
vt 0.298540 0.015267
vt 0.301619 0.015267
vt 0.301619 0.018601
vt 0.298540 0.018601
vt 0.296816 0.039271
vt 0.312212 0.039271
vt 0.312212 0.044438
vt 0.309133 0.044438
vt 0.309133 0.039271
vt 0.315599 0.039137
vt 0.315599 0.035804
vt 0.301589 0.035937
vt 0.304668 0.035937
vt 0.304668 0.039271
vt 0.301589 0.039271
vt 0.318678 0.044472
vt 0.318678 0.047806
vt 0.315599 0.047806
vt 0.315599 0.044472
vt 0.315599 0.042471
vt 0.312520 0.042471
vt 0.312520 0.039137
vt 0.299895 0.051139
vt 0.309502 0.023935
vt 0.312581 0.023935
vt 0.312581 0.027269
vt 0.309502 0.027269
vt 0.304668 0.027269
vt 0.304668 0.030603
vt 0.301589 0.030603
vt 0.296816 0.047806
vt 0.299895 0.042605
vt 0.323512 0.015267
vt 0.323512 0.018601
vt 0.320433 0.018601
vt 0.320433 0.015267
vt 0.312520 0.047806
vt 0.309502 0.015267
vt 0.309502 0.018601
vt 0.312212 0.047772
vt 0.324836 0.047639
vt 0.321757 0.044305
vt 0.324836 0.044305
vt 0.324836 0.039137
vt 0.312520 0.035804
vt 0.296816 0.051139
vt 0.312212 0.051106
vt 0.323512 0.023802
vt 0.323512 0.027136
vt 0.320433 0.027136
vt 0.320433 0.023802
vt 0.309133 0.044472
vt 0.306053 0.044472
vt 0.304699 0.015267
vt 0.304699 0.018601
vt 0.326530 0.035770
vn 0.000000 -1.000000 -0.000000
vn 1.000000 0.000000 0.000000
vn -0.000000 -0.000000 1.000000
vn -1.000000 -0.000000 -0.000000
vn 0.000000 0.000000 -1.000000
vn 0.000000 1.000000 0.000000
s off
f 1/1/1 2/2/1 3/3/1 4/4/1
f 1/5/2 5/6/2 6/7/2 2/8/2
f 2/9/3 6/10/3 7/11/3 3/12/3
f 3/13/4 7/14/4 8/15/4 4/16/4
f 5/17/5 1/18/5 4/19/5 8/20/5
f 9/21/1 10/22/1 11/23/1 12/24/1
f 13/25/6 16/26/6 15/27/6 14/28/6
f 9/29/2 13/30/2 14/31/2 10/32/2
f 10/33/3 14/34/3 15/35/3 11/36/3
f 11/13/4 15/37/4 16/38/4 12/14/4
f 8/20/5 20/39/5 17/8/5 5/17/5
f 7/14/4 19/40/4 20/41/4 8/15/4
f 6/10/3 18/42/3 19/43/3 7/11/3
f 5/6/2 17/2/2 18/18/2 6/7/2
f 21/44/6 24/45/6 23/46/6 22/47/6
f 22/47/6 31/48/6 32/49/6 21/44/6
f 18/42/3 22/50/3 23/51/3 19/43/3
f 19/40/4 23/52/4 24/53/4 20/41/4
f 21/44/6 54/54/6 55/55/6 24/45/6
f 17/56/1 28/57/1 27/58/1 18/59/1
f 21/59/5 32/58/5 28/60/5 17/61/5
f 25/46/1 26/45/1 27/58/1 28/57/1
f 29/11/6 32/49/6 31/48/6 30/12/6
f 25/18/2 29/2/2 30/1/2 26/62/2
f 26/63/3 30/64/3 31/65/3 27/66/3
f 18/42/3 27/66/3 31/65/3 22/50/3
f 29/45/5 25/67/5 28/60/5 32/58/5
f 20/68/1 51/69/1 50/70/1 17/71/1
f 24/53/4 55/72/4 51/73/4 20/41/4
f 33/74/1 34/75/1 35/76/1 36/77/1
f 37/78/6 40/79/6 39/80/6 38/81/6
f 34/82/3 38/83/3 39/84/3 35/72/3
f 35/62/4 39/85/4 40/19/4 36/18/4
f 37/86/5 33/87/5 36/88/5 40/89/5
f 41/51/1 42/90/1 43/91/1 44/92/1
f 46/93/3 58/60/3 59/94/3 47/19/3
f 41/95/2 45/96/2 46/97/2 42/98/2
f 34/82/3 43/80/3 47/99/3 38/83/3
f 45/100/5 41/32/5 44/31/5 48/101/5
f 49/3/1 50/70/1 51/69/1 52/102/1
f 53/74/6 56/77/6 55/55/6 54/54/6
f 49/103/2 53/36/2 54/104/2 50/105/2
f 17/106/2 50/105/2 54/104/2 21/28/2
f 51/73/4 55/72/4 56/84/4 52/107/4
f 53/93/5 49/19/5 52/85/5 56/108/5
f 61/102/6 64/109/6 63/4/6 62/3/6
f 57/110/2 61/111/2 62/112/2 58/113/2
f 58/60/3 62/67/3 63/39/3 59/94/3
f 59/114/4 63/3/4 64/2/4 60/115/4
f 61/64/5 57/116/5 60/117/5 64/65/5
f 9/29/2 42/98/2 46/97/2 13/30/2
f 13/25/6 46/36/6 47/35/6 16/26/6
f 16/38/4 47/118/4 43/40/4 12/14/4
f 12/24/1 43/91/1 42/90/1 9/21/1
f 38/81/6 47/72/6 48/27/6 37/78/6
f 37/86/5 48/101/5 44/31/5 33/87/5
f 33/74/1 44/92/1 43/91/1 34/75/1
f 47/71/4 59/114/4 60/115/4 48/5/4
f 48/101/5 60/117/5 57/116/5 45/100/5
f 45/96/2 57/110/2 58/113/2 46/97/2
