# Blender v2.77 (sub 0) OBJ File: 'character23.blend'
# www.blender.org
o Cube
v -0.401555 0.359385 0.383876
v -0.401555 0.003216 0.383876
v -0.383876 0.359385 -0.401555
v -0.383876 0.003216 -0.401555
v 0.383876 0.359385 0.401555
v 0.383876 0.003216 0.401555
v 0.401555 0.359385 -0.383876
v 0.401555 0.003216 -0.383876
v -0.500000 -0.125836 0.477987
v -0.500000 0.003216 0.477987
v -0.477987 -0.125836 -0.500000
v -0.477987 0.003216 -0.500000
v 0.477987 -0.125836 0.500000
v 0.477987 0.003216 0.500000
v 0.500000 -0.125836 -0.477987
v 0.500000 0.003216 -0.477987
v -0.469780 -0.125836 0.439528
v -0.469780 -0.270000 0.439528
v -0.449528 -0.125836 -0.460220
v -0.449528 -0.270000 -0.460220
v 0.449528 -0.125836 0.460220
v 0.449528 -0.270000 0.460220
v 0.469780 -0.125836 -0.439528
v 0.469780 -0.270000 -0.439528
v -0.481604 0.270000 0.496517
v -0.481604 0.500000 0.496517
v -0.496517 0.270000 -0.481604
v -0.496517 0.500000 -0.481604
v 0.496517 0.270000 0.481604
v 0.496517 0.500000 0.481604
v 0.481604 0.270000 -0.496517
v 0.481604 0.500000 -0.496517
v -0.500000 -0.500000 0.477987
v -0.500000 -0.270000 0.477987
v -0.477987 -0.500000 -0.500000
v -0.477987 -0.270000 -0.500000
v 0.477987 -0.500000 0.500000
v 0.477987 -0.270000 0.500000
v 0.500000 -0.500000 -0.477987
v 0.500000 -0.270000 -0.477987
vt 0.2521 0.5380
vt 0.2521 0.4635
vt 0.2592 0.4635
vt 0.2592 0.5380
vt 0.2663 0.4627
vt 0.2663 0.5380
vt 0.2592 0.5380
vt 0.2592 0.4627
vt 0.2449 0.5380
vt 0.2449 0.4635
vt 0.2520 0.4635
vt 0.2520 0.5380
vt 0.2663 0.5380
vt 0.2663 0.4627
vt 0.2734 0.4627
vt 0.2734 0.5380
vt 0.3487 0.4628
vt 0.3487 0.5380
vt 0.2735 0.5380
vt 0.2735 0.4628
vt 0.2735 0.4628
vt 0.2735 0.3876
vt 0.3487 0.3876
vt 0.3487 0.4628
vt 0.4538 0.2476
vt 0.5462 0.2476
vt 0.5462 0.7524
vt 0.4538 0.7524
vt 0.4538 0.2476
vt 0.5462 0.2476
vt 0.5462 0.7524
vt 0.4538 0.7524
vt 0.4538 0.2476
vt 0.5462 0.2476
vt 0.5462 0.7524
vt 0.4538 0.7524
vt 0.4538 0.2476
vt 0.5462 0.2476
vt 0.5462 0.7524
vt 0.4538 0.7524
vt 0.4538 0.2476
vt 0.5462 0.2476
vt 0.5462 0.7524
vt 0.4538 0.7524
vt 0.6559 0.2012
vt 0.7410 0.2012
vt 0.7410 0.6499
vt 0.6559 0.6499
vt 0.6559 0.2012
vt 0.7410 0.2012
vt 0.7410 0.6499
vt 0.6559 0.6499
vt 0.6559 0.2012
vt 0.7410 0.2012
vt 0.7410 0.6499
vt 0.6559 0.6499
vt 0.6559 0.2012
vt 0.7410 0.2012
vt 0.7410 0.6499
vt 0.6559 0.6499
vt 0.6559 0.2012
vt 0.6559 0.6499
vt 0.7410 0.2012
vt 0.7410 0.6499
vt 0.1884 0.0554
vt 0.1884 0.0162
vt 0.1959 0.0162
vt 0.1959 0.0554
vt 0.1884 0.0554
vt 0.1884 0.0162
vt 0.1959 0.0162
vt 0.1959 0.0554
vt 0.1959 0.0554
vt 0.1884 0.0554
vt 0.1884 0.0162
vt 0.1884 0.0162
vt 0.1959 0.0162
vt 0.1884 0.0554
vt 0.1959 0.0162
vt 0.1884 0.0554
vt 0.0109 0.0787
vt 0.1875 0.0787
vt 0.1875 0.9968
vt 0.0109 0.9968
vt 0.8110 0.0613
vt 0.8110 0.0220
vt 0.8187 0.0220
vt 0.8187 0.0613
vt 0.8187 0.0220
vt 0.8187 0.0613
vt 0.8110 0.0613
vt 0.8187 0.0613
vt 0.8110 0.0613
vt 0.8110 0.0220
vt 0.8187 0.0220
vt 0.8110 0.0220
vt 0.8187 0.0220
vt 0.8110 0.0613
vt 0.9800 0.9643
vt 0.8087 0.9643
vt 0.8087 0.0853
vt 0.9800 0.0853
vt 0.8187 0.0613
vn 0.9997 0.0000 0.0225
vn -0.0225 0.0000 0.9997
vn -0.9997 0.0000 -0.0225
vn 0.0225 0.0000 -0.9997
vn 0.0000 -1.0000 -0.0000
vn 0.0000 1.0000 0.0000
vn -0.9999 0.0000 0.0152
vn -0.0152 0.0000 -0.9999
vn 0.9999 0.0000 -0.0152
vn 0.0152 0.0000 0.9999
s off
f 2/1/1 4/2/1 3/3/1 1/4/1
f 4/5/2 8/6/2 7/7/2 3/8/2
f 8/9/3 6/10/3 5/11/3 7/12/3
f 6/13/4 2/14/4 1/15/4 5/16/4
f 1/17/5 3/18/5 7/19/5 5/20/5
f 6/21/6 8/22/6 4/23/6 2/24/6
f 10/25/3 12/26/3 11/27/3 9/28/3
f 12/29/4 16/30/4 15/31/4 11/32/4
f 16/33/1 14/34/1 13/35/1 15/36/1
f 14/37/2 10/38/2 9/39/2 13/40/2
f 9/41/5 11/42/5 15/31/5 13/40/5
f 14/37/6 16/30/6 12/43/6 10/44/6
f 18/45/3 17/46/3 19/47/3 20/48/3
f 20/49/4 19/50/4 23/51/4 24/52/4
f 24/53/1 23/54/1 21/55/1 22/56/1
f 22/57/2 21/58/2 17/59/2 18/60/2
f 17/61/6 21/58/6 23/51/6 19/62/6
f 22/57/5 18/63/5 20/64/5 24/52/5
f 26/65/7 28/66/7 27/67/7 25/68/7
f 28/69/8 32/70/8 31/71/8 27/72/8
f 32/73/9 30/74/9 29/75/9 31/71/9
f 30/76/10 26/77/10 25/68/10 29/78/10
f 25/79/5 27/72/5 31/80/5 29/75/5
f 30/81/6 32/82/6 28/83/6 26/84/6
f 34/85/3 36/86/3 35/87/3 33/88/3
f 36/86/4 40/89/4 39/90/4 35/91/4
f 40/92/1 38/93/1 37/94/1 39/95/1
f 38/96/2 34/97/2 33/88/2 37/98/2
f 33/99/5 35/100/5 39/101/5 37/102/5
f 38/96/6 40/89/6 36/103/6 34/85/6
