# Blender v2.75 (sub 0) OBJ File: ''
# www.blender.org
o Cube.003
v 0.150000 -0.400000 -0.150000
v 0.150000 -0.400000 0.150000
v -0.150000 -0.400000 0.150000
v -0.150000 -0.400000 -0.150000
v 0.150000 -0.100000 -0.150000
v -0.150000 -0.100000 -0.150000
v -0.150000 -0.100000 0.150000
v 0.150000 -0.100000 0.150000
vt 0.338940 0.064753
vt 0.277988 0.064753
vt 0.277988 0.003801
vt 0.338940 0.003801
vn 0.000000 -1.000000 0.000000
vn 0.000000 1.000000 0.000000
vn 1.000000 -0.000000 0.000000
vn 0.000000 -0.000000 1.000000
vn -1.000000 0.000000 0.000000
vn 0.000000 0.000000 -1.000000
s 1
f 1/1/1 2/2/1 3/3/1 4/4/1
f 5/1/2 6/2/2 7/3/2 8/4/2
f 1/1/3 5/2/3 8/3/3 2/4/3
f 2/1/4 8/2/4 7/3/4 3/4/4
f 3/1/5 7/2/5 6/3/5 4/4/5
f 5/1/6 1/2/6 4/3/6 6/4/6
