# Blender v2.76 (sub 0) OBJ File: 'decoration-move-spikes.blend'
# www.blender.org
o Cube.005
v 0.300000 -0.000000 0.500000
v 0.500000 -0.000000 0.500000
v 0.400000 0.400000 0.400000
v 0.300000 -0.000000 0.300000
v 0.500000 -0.000000 0.300000
v -0.500000 -0.000000 0.500000
v -0.300000 -0.000000 0.500000
v -0.400000 0.400000 0.400000
v -0.500000 -0.000000 0.300000
v -0.300000 -0.000000 0.300000
v -0.500000 0.000000 -0.300000
v -0.300000 0.000000 -0.300000
v -0.400000 0.400000 -0.400000
v -0.500000 0.000000 -0.500000
v -0.300000 0.000000 -0.500000
v 0.300000 0.000000 -0.300000
v 0.500000 0.000000 -0.300000
v 0.400000 0.400000 -0.400000
v 0.300000 0.000000 -0.500000
v 0.500000 0.000000 -0.500000
v -0.100000 -0.000000 0.100000
v 0.100000 -0.000000 0.100000
v 0.000000 0.400000 0.000000
v -0.100000 0.000000 -0.100000
v 0.100000 0.000000 -0.100000
vt 0.278683 0.004985
vt 0.336226 0.004985
vt 0.336226 0.062528
vt 0.278683 0.062528
vn 0.000000 0.242500 0.970100
vn -0.970100 0.242500 0.000000
vn 0.000000 0.242500 -0.970100
vn 0.970100 0.242500 0.000000
vn 0.000000 -1.000000 -0.000000
s off
f 1/1/1 2/2/1 3/3/1
f 1/1/2 3/2/2 4/3/2
f 4/1/3 3/2/3 5/3/3
f 2/1/4 5/2/4 3/3/4
f 5/1/5 2/2/5 1/3/5 4/4/5
f 6/1/1 7/2/1 8/3/1
f 6/1/2 8/2/2 9/3/2
f 9/1/3 8/2/3 10/3/3
f 7/1/4 10/2/4 8/3/4
f 10/1/5 7/2/5 6/3/5 9/4/5
f 11/1/1 12/2/1 13/3/1
f 11/1/2 13/2/2 14/3/2
f 14/1/3 13/2/3 15/3/3
f 12/1/4 15/2/4 13/3/4
f 15/1/5 12/2/5 11/3/5 14/4/5
f 16/1/1 17/2/1 18/3/1
f 16/1/2 18/2/2 19/3/2
f 19/1/3 18/2/3 20/3/3
f 17/1/4 20/2/4 18/3/4
f 20/1/5 17/2/5 16/3/5 19/4/5
f 21/1/1 22/2/1 23/3/1
f 21/1/2 23/2/2 24/3/2
f 24/1/3 23/2/3 25/3/3
f 22/1/4 25/2/4 23/3/4
f 25/1/5 22/2/5 21/3/5 24/4/5
