# Blender v2.76 (sub 0) OBJ File: ''
# www.blender.org
o Plane.004
v 0.450000 1.600000 0.750000
v 0.450000 1.900000 0.750000
v 0.750000 1.900000 0.750000
v 0.750000 1.600000 0.750000
v 0.450000 1.600000 0.950000
v 0.750000 1.600000 0.950000
v 0.750000 1.900000 0.950000
v 0.450000 1.900000 0.950000
v -0.450000 1.900000 0.750000
v -0.750000 1.900000 0.750000
v -0.750000 1.900000 0.950000
v -0.450000 1.900000 0.950000
v 0.450000 0.400000 0.750000
v 0.750000 0.400000 0.750000
v 0.750000 0.400000 0.950000
v 0.450000 0.400000 0.950000
v -0.750000 0.700000 0.750000
v -0.750000 0.400000 0.750000
v -0.750000 0.400000 0.950000
v -0.750000 0.700000 0.950000
v -0.450000 0.400000 0.750000
v -0.450000 0.400000 0.950000
v -0.150000 0.400000 0.750000
v -0.150000 0.400000 0.950000
v 0.150000 0.400000 0.750000
v 0.150000 0.400000 0.950000
v 0.150000 1.900000 0.750000
v -0.150000 1.900000 0.750000
v -0.150000 1.900000 0.950000
v 0.150000 1.900000 0.950000
v -0.750000 1.600000 0.950000
v -0.450000 1.600000 0.950000
v -0.150000 1.600000 0.950000
v 0.150000 1.600000 0.950000
v -0.750000 1.600000 0.750000
v -0.450000 1.600000 0.750000
v -0.150000 1.600000 0.750000
v 0.150000 1.600000 0.750000
v 0.150000 0.700000 0.750000
v 0.450000 0.700000 0.750000
v 0.150000 1.000000 0.750000
v 0.450000 1.000000 0.750000
v 0.150000 1.300000 0.750000
v 0.450000 1.300000 0.750000
v -0.150000 0.700000 0.750000
v -0.150000 1.000000 0.750000
v -0.150000 1.300000 0.750000
v -0.450000 0.700000 0.750000
v -0.450000 1.000000 0.750000
v -0.450000 1.300000 0.750000
v -0.750000 1.000000 0.750000
v -0.750000 1.300000 0.750000
v 0.450000 0.700000 0.950000
v 0.150000 0.700000 0.950000
v 0.450000 1.000000 0.950000
v 0.150000 1.000000 0.950000
v 0.450000 1.300000 0.950000
v 0.150000 1.300000 0.950000
v -0.150000 0.700000 0.950000
v -0.150000 1.000000 0.950000
v -0.150000 1.300000 0.950000
v -0.450000 0.700000 0.950000
v -0.450000 1.000000 0.950000
v -0.450000 1.300000 0.950000
v -0.750000 1.000000 0.950000
v -0.750000 1.300000 0.950000
v 0.750000 0.700000 0.750000
v 0.750000 0.700000 0.950000
v 0.750000 1.000000 0.750000
v 0.750000 1.300000 0.750000
v 0.750000 1.300000 0.950000
v 0.750000 1.000000 0.950000
v -0.300000 2.100000 0.850000
v -0.950000 1.450000 0.850000
v -0.950000 0.850000 0.850000
v 0.300000 2.100000 0.850000
v 0.950000 0.850000 0.850000
v 0.950000 1.450000 0.850000
vt 0.152234 0.190008
vt 0.152234 0.202551
vt 0.139671 0.202551
vt 0.139671 0.190008
vt 0.220021 0.190199
vt 0.220021 0.202995
vt 0.207246 0.202995
vt 0.207246 0.190199
vt 0.245774 0.017658
vt 0.245774 0.024277
vt 0.241367 0.024277
vt 0.241367 0.017658
vt 0.234315 0.024277
vt 0.234315 0.017658
vt 0.238723 0.017658
vt 0.238723 0.024277
vt 0.240879 0.241074
vt 0.240879 0.234455
vt 0.245286 0.234455
vt 0.245286 0.241074
vt 0.239749 0.233049
vt 0.239749 0.239668
vt 0.235342 0.239668
vt 0.235342 0.233049
vt 0.234315 0.050752
vt 0.234315 0.044133
vt 0.238723 0.044133
vt 0.238723 0.050752
vt 0.234315 0.037515
vt 0.238723 0.037515
vt 0.234315 0.030896
vt 0.238723 0.030896
vt 0.220021 0.139017
vt 0.220021 0.151813
vt 0.207246 0.151813
vt 0.207246 0.139017
vt 0.220021 0.164608
vt 0.207246 0.164608
vt 0.220021 0.177404
vt 0.207246 0.177404
vt 0.202485 0.190008
vt 0.202485 0.202551
vt 0.189922 0.202551
vt 0.189922 0.190008
vt 0.177360 0.202551
vt 0.177360 0.190008
vt 0.164797 0.202551
vt 0.164797 0.190008
vt 0.164797 0.139840
vt 0.164797 0.152381
vt 0.152234 0.152381
vt 0.152234 0.139840
vt 0.164797 0.164923
vt 0.152234 0.164923
vt 0.164797 0.177466
vt 0.152234 0.177466
vt 0.177360 0.139840
vt 0.177360 0.152381
vt 0.177360 0.164923
vt 0.177360 0.177466
vt 0.189922 0.139840
vt 0.189922 0.152381
vt 0.189922 0.164923
vt 0.189922 0.177466
vt 0.202485 0.139840
vt 0.202485 0.152381
vt 0.202485 0.164923
vt 0.202485 0.177466
vt 0.271119 0.177404
vt 0.271119 0.190199
vt 0.258345 0.190199
vt 0.258345 0.177404
vt 0.245570 0.190199
vt 0.245570 0.177404
vt 0.232795 0.190199
vt 0.232795 0.177404
vt 0.271119 0.164608
vt 0.258345 0.164608
vt 0.245570 0.164608
vt 0.232795 0.164608
vt 0.271119 0.151813
vt 0.258345 0.151813
vt 0.245570 0.151813
vt 0.232795 0.151813
vt 0.271119 0.139017
vt 0.258345 0.139017
vt 0.245570 0.139017
vt 0.232795 0.139017
vt 0.271119 0.202995
vt 0.258345 0.202995
vt 0.245570 0.202995
vt 0.232795 0.202995
vt 0.139671 0.152381
vt 0.139671 0.139840
vt 0.139671 0.164923
vt 0.139671 0.177466
vt 0.233199 0.166729
vt 0.246637 0.166729
vt 0.239918 0.162116
vt 0.241059 0.187613
vt 0.241059 0.174196
vt 0.235869 0.181036
vt 0.245816 0.237449
vt 0.245816 0.245979
vt 0.237296 0.241714
vt 0.254634 0.043185
vt 0.254634 0.051715
vt 0.246114 0.047450
vt 0.240592 0.158566
vt 0.240592 0.171361
vt 0.248628 0.164964
vt 0.230687 0.237836
vt 0.217913 0.237836
vt 0.224782 0.245074
vt 0.231444 0.224466
vt 0.231444 0.232996
vt 0.222924 0.228731
vt 0.252276 0.303275
vt 0.252276 0.311805
vt 0.243756 0.307540
vt 0.241367 0.189078
vt 0.241367 0.175661
vt 0.236177 0.182501
vt 0.228269 0.052722
vt 0.220648 0.048907
vt 0.228269 0.043185
vt 0.256237 0.237836
vt 0.243462 0.237836
vt 0.250331 0.245074
vt 0.225911 0.312812
vt 0.218290 0.308997
vt 0.225911 0.303275
vt 0.227141 0.040280
vt 0.219520 0.036465
vt 0.227141 0.030743
vt 0.231024 0.153664
vt 0.231024 0.167081
vt 0.232977 0.160504
vt 0.240592 0.184157
vt 0.240592 0.196952
vt 0.248628 0.190555
vt 0.228118 0.303952
vt 0.220497 0.300137
vt 0.228118 0.294415
vt 0.246311 0.170376
vt 0.259086 0.170376
vt 0.253180 0.161622
vt 0.223239 0.169190
vt 0.236678 0.169190
vt 0.229958 0.164577
vt 0.220762 0.170376
vt 0.233536 0.170376
vt 0.227631 0.161622
vt 0.254483 0.294415
vt 0.254483 0.302945
vt 0.245963 0.298680
vt 0.226103 0.162965
vt 0.226103 0.176382
vt 0.228056 0.169805
vn 0.000000 0.000000 -1.000000
vn 0.000000 -0.000000 1.000000
vn 0.000000 1.000000 0.000000
vn 0.000000 -1.000000 -0.000000
vn 1.000000 0.000000 0.000000
vn -1.000000 0.000000 0.000000
vn 0.000000 0.447200 -0.894400
vn -0.447200 0.000000 -0.894400
vn 0.800000 0.600000 0.000000
vn -0.600000 0.800000 0.000000
vn 0.000000 0.447200 0.894400
vn -0.447200 0.000000 0.894400
vn -0.800000 0.600000 0.000000
vn -0.600000 -0.800000 0.000000
vn 0.600000 0.800000 0.000000
vn 0.447200 0.000000 -0.894400
vn 0.600000 -0.800000 0.000000
vn 0.447200 -0.000000 0.894400
s 1
f 1/1/1 2/2/1 3/3/1 4/4/1
f 5/5/2 6/6/2 7/7/2 8/8/2
f 9/9/3 10/10/3 11/11/3 12/12/3
f 13/13/4 14/14/4 15/15/4 16/16/4
f 4/17/5 3/18/5 7/19/5 6/20/5
f 17/21/6 18/22/6 19/23/6 20/24/6
f 18/25/4 21/26/4 22/27/4 19/28/4
f 21/26/4 23/29/4 24/30/4 22/27/4
f 23/29/4 25/31/4 26/32/4 24/30/4
f 25/31/4 13/13/4 16/16/4 26/32/4
f 3/9/3 2/10/3 8/11/3 7/12/3
f 27/9/3 28/10/3 29/11/3 30/12/3
f 31/33/2 32/34/2 12/35/2 11/36/2
f 32/34/2 33/37/2 29/38/2 12/35/2
f 33/37/2 34/39/2 30/40/2 29/38/2
f 34/39/2 5/5/2 8/8/2 30/40/2
f 35/41/1 10/42/1 9/43/1 36/44/1
f 36/44/1 9/43/1 28/45/1 37/46/1
f 37/46/1 28/45/1 27/47/1 38/48/1
f 38/48/1 27/47/1 2/2/1 1/1/1
f 25/49/1 39/50/1 40/51/1 13/52/1
f 39/50/1 41/53/1 42/54/1 40/51/1
f 41/53/1 43/55/1 44/56/1 42/54/1
f 43/55/1 38/48/1 1/1/1 44/56/1
f 23/57/1 45/58/1 39/50/1 25/49/1
f 45/58/1 46/59/1 41/53/1 39/50/1
f 46/59/1 47/60/1 43/55/1 41/53/1
f 47/60/1 37/46/1 38/48/1 43/55/1
f 21/61/1 48/62/1 45/58/1 23/57/1
f 48/62/1 49/63/1 46/59/1 45/58/1
f 49/63/1 50/64/1 47/60/1 46/59/1
f 50/64/1 36/44/1 37/46/1 47/60/1
f 18/65/1 17/66/1 48/62/1 21/61/1
f 17/66/1 51/67/1 49/63/1 48/62/1
f 51/67/1 52/68/1 50/64/1 49/63/1
f 52/68/1 35/41/1 36/44/1 50/64/1
f 26/69/2 16/70/2 53/71/2 54/72/2
f 54/72/2 53/71/2 55/73/2 56/74/2
f 56/74/2 55/73/2 57/75/2 58/76/2
f 58/76/2 57/75/2 5/5/2 34/39/2
f 24/77/2 26/69/2 54/72/2 59/78/2
f 59/78/2 54/72/2 56/74/2 60/79/2
f 60/79/2 56/74/2 58/76/2 61/80/2
f 61/80/2 58/76/2 34/39/2 33/37/2
f 22/81/2 24/77/2 59/78/2 62/82/2
f 62/82/2 59/78/2 60/79/2 63/83/2
f 63/83/2 60/79/2 61/80/2 64/84/2
f 64/84/2 61/80/2 33/37/2 32/34/2
f 19/85/2 22/81/2 62/82/2 20/86/2
f 20/86/2 62/82/2 63/83/2 65/87/2
f 65/87/2 63/83/2 64/84/2 66/88/2
f 66/88/2 64/84/2 32/34/2 31/33/2
f 10/21/6 35/22/6 31/23/6 11/24/6
f 52/21/6 51/22/6 65/23/6 66/24/6
f 14/17/5 67/18/5 68/19/5 15/20/5
f 69/17/5 70/18/5 71/19/5 72/20/5
f 16/70/2 15/89/2 68/90/2 53/71/2
f 53/71/2 68/90/2 72/91/2 55/73/2
f 55/73/2 72/91/2 71/92/2 57/75/2
f 57/75/2 71/92/2 6/6/2 5/5/2
f 13/52/1 40/51/1 67/93/1 14/94/1
f 40/51/1 42/54/1 69/95/1 67/93/1
f 42/54/1 44/56/1 70/96/1 69/95/1
f 44/56/1 1/1/1 4/4/1 70/96/1
f 28/97/7 9/98/7 73/99/7
f 35/100/8 52/101/8 74/102/8
f 29/103/9 28/104/9 73/105/9
f 31/106/10 35/107/10 74/108/10
f 12/109/11 29/110/11 73/111/11
f 66/112/12 31/113/12 74/114/12
f 9/115/13 12/116/13 73/117/13
f 52/118/14 66/119/14 74/120/14
f 51/121/8 17/122/8 75/123/8
f 65/124/10 51/125/10 75/126/10
f 20/127/12 65/128/12 75/129/12
f 17/130/14 20/131/14 75/132/14
f 8/103/9 2/104/9 76/105/9
f 69/133/15 72/134/15 77/135/15
f 67/136/16 69/137/16 77/138/16
f 30/139/11 8/140/11 76/141/11
f 68/142/17 67/143/17 77/144/17
f 27/115/13 30/116/13 76/117/13
f 72/145/18 68/146/18 77/147/18
f 2/148/7 27/149/7 76/150/7
f 6/151/18 71/152/18 78/153/18
f 71/154/17 70/155/17 78/156/17
f 70/157/16 4/158/16 78/159/16
f 4/133/15 6/134/15 78/135/15
