# Blender v2.76 (sub 0) OBJ File: ''
# www.blender.org
o Plane
v 0.450000 1.600000 0.750000
v 0.450000 1.900000 0.750000
v 0.750000 1.900000 0.750000
v 0.750000 1.600000 0.750000
v 0.450000 1.600000 0.950000
v 0.750000 1.600000 0.950000
v 0.750000 1.900000 0.950000
v 0.450000 1.900000 0.950000
v -0.450000 1.900000 0.750000
v -0.750000 1.900000 0.750000
v -0.750000 1.900000 0.950000
v -0.450000 1.900000 0.950000
v 0.450000 0.400000 0.750000
v 0.750000 0.400000 0.750000
v 0.750000 0.400000 0.950000
v 0.450000 0.400000 0.950000
v -0.750000 0.700000 0.750000
v -0.750000 0.400000 0.750000
v -0.750000 0.400000 0.950000
v -0.750000 0.700000 0.950000
v -0.450000 0.400000 0.750000
v -0.450000 0.400000 0.950000
v -0.150000 0.400000 0.750000
v -0.150000 0.400000 0.950000
v 0.150000 0.400000 0.750000
v 0.150000 0.400000 0.950000
v 0.150000 1.900000 0.750000
v -0.150000 1.900000 0.750000
v -0.150000 1.900000 0.950000
v 0.150000 1.900000 0.950000
v -0.750000 1.600000 0.950000
v -0.450000 1.600000 0.950000
v -0.150000 1.600000 0.950000
v 0.150000 1.600000 0.950000
v -0.750000 1.600000 0.750000
v -0.450000 1.600000 0.750000
v -0.150000 1.600000 0.750000
v 0.150000 1.600000 0.750000
v 0.150000 0.700000 0.750000
v 0.450000 0.700000 0.750000
v 0.150000 1.000000 0.750000
v 0.450000 1.000000 0.750000
v 0.150000 1.300000 0.750000
v 0.450000 1.300000 0.750000
v -0.150000 0.700000 0.750000
v -0.150000 1.000000 0.750000
v -0.150000 1.300000 0.750000
v -0.450000 0.700000 0.750000
v -0.450000 1.000000 0.750000
v -0.450000 1.300000 0.750000
v -0.750000 1.000000 0.750000
v -0.750000 1.300000 0.750000
v 0.450000 0.700000 0.950000
v 0.150000 0.700000 0.950000
v 0.450000 1.000000 0.950000
v 0.150000 1.000000 0.950000
v 0.450000 1.300000 0.950000
v 0.150000 1.300000 0.950000
v -0.150000 0.700000 0.950000
v -0.150000 1.000000 0.950000
v -0.150000 1.300000 0.950000
v -0.450000 0.700000 0.950000
v -0.450000 1.000000 0.950000
v -0.450000 1.300000 0.950000
v -0.750000 1.000000 0.950000
v -0.750000 1.300000 0.950000
v 0.750000 0.700000 0.750000
v 0.750000 0.700000 0.950000
v 0.750000 1.000000 0.750000
v 0.750000 1.300000 0.750000
v 0.750000 1.300000 0.950000
v 0.750000 1.000000 0.950000
v -0.300000 2.100000 0.850000
v -0.950000 1.450000 0.850000
v -0.950000 0.850000 0.850000
v 0.300000 2.100000 0.850000
v 0.950000 0.850000 0.850000
v 0.950000 1.450000 0.850000
vt 0.015376 0.121185
vt 0.015376 0.133728
vt 0.002813 0.133728
vt 0.002813 0.121185
vt 0.220374 0.258258
vt 0.220374 0.271054
vt 0.207599 0.271054
vt 0.207599 0.258258
vt 0.245774 0.017658
vt 0.245774 0.024277
vt 0.241367 0.024277
vt 0.241367 0.017658
vt 0.234315 0.024277
vt 0.234315 0.017658
vt 0.238723 0.017658
vt 0.238723 0.024277
vt 0.240237 0.164690
vt 0.240237 0.171309
vt 0.235830 0.171309
vt 0.235830 0.164690
vt 0.234315 0.050752
vt 0.234315 0.044133
vt 0.238723 0.044133
vt 0.238723 0.050752
vt 0.234315 0.037515
vt 0.238723 0.037515
vt 0.234315 0.030896
vt 0.238723 0.030896
vt 0.220374 0.207076
vt 0.220374 0.219872
vt 0.207599 0.219872
vt 0.207599 0.207076
vt 0.220374 0.232667
vt 0.207599 0.232667
vt 0.220374 0.245463
vt 0.207599 0.245463
vt 0.065627 0.121185
vt 0.065627 0.133728
vt 0.053064 0.133728
vt 0.053064 0.121185
vt 0.040502 0.133728
vt 0.040502 0.121185
vt 0.027939 0.133728
vt 0.027939 0.121185
vt 0.027939 0.071017
vt 0.027939 0.083558
vt 0.015376 0.083558
vt 0.015376 0.071017
vt 0.027939 0.096100
vt 0.015376 0.096100
vt 0.027939 0.108643
vt 0.015376 0.108643
vt 0.040502 0.071017
vt 0.040502 0.083558
vt 0.040502 0.096100
vt 0.040502 0.108643
vt 0.053064 0.071017
vt 0.053064 0.083558
vt 0.053064 0.096100
vt 0.053064 0.108643
vt 0.065627 0.071017
vt 0.065627 0.083558
vt 0.065627 0.096100
vt 0.065627 0.108643
vt 0.271472 0.245463
vt 0.271472 0.258258
vt 0.258698 0.258258
vt 0.258698 0.245463
vt 0.245923 0.258258
vt 0.245923 0.245463
vt 0.233148 0.258258
vt 0.233148 0.245463
vt 0.271472 0.232667
vt 0.258698 0.232667
vt 0.245923 0.232667
vt 0.233148 0.232667
vt 0.271472 0.219872
vt 0.258698 0.219872
vt 0.245923 0.219872
vt 0.233148 0.219872
vt 0.271472 0.207076
vt 0.258698 0.207076
vt 0.245923 0.207076
vt 0.233148 0.207076
vt 0.271472 0.271054
vt 0.258698 0.271054
vt 0.245923 0.271054
vt 0.233148 0.271054
vt 0.002813 0.083558
vt 0.002813 0.071017
vt 0.002813 0.096100
vt 0.002813 0.108643
vt 0.239033 0.031493
vt 0.252471 0.031493
vt 0.245752 0.026880
vt 0.245916 0.180795
vt 0.245916 0.167378
vt 0.240726 0.174218
vt 0.244893 0.160549
vt 0.244893 0.169079
vt 0.236373 0.164814
vt 0.253506 0.030743
vt 0.253506 0.039273
vt 0.244986 0.035008
vt 0.240205 0.229100
vt 0.240205 0.241895
vt 0.248241 0.235498
vt 0.230687 0.237836
vt 0.217913 0.237836
vt 0.224782 0.245074
vt 0.231974 0.158704
vt 0.231974 0.167234
vt 0.223454 0.162969
vt 0.252276 0.303275
vt 0.252276 0.311805
vt 0.243756 0.307540
vt 0.246224 0.182260
vt 0.246224 0.168843
vt 0.241034 0.175683
vt 0.227141 0.040280
vt 0.219520 0.036465
vt 0.227141 0.030743
vt 0.256237 0.237836
vt 0.243462 0.237836
vt 0.250331 0.245074
vt 0.225911 0.312812
vt 0.218290 0.308997
vt 0.225911 0.303275
vt 0.236858 0.018428
vt 0.236858 0.031845
vt 0.238811 0.025268
vt 0.240205 0.254691
vt 0.240205 0.267486
vt 0.248241 0.261089
vt 0.245923 0.240910
vt 0.258698 0.240910
vt 0.252792 0.232156
vt 0.229073 0.033954
vt 0.242512 0.033954
vt 0.235792 0.029341
vt 0.220374 0.240910
vt 0.233148 0.240910
vt 0.227243 0.232156
vt 0.231937 0.027729
vt 0.231937 0.041146
vt 0.233890 0.034569
vn 0.000000 0.000000 -1.000000
vn 0.000000 -0.000000 1.000000
vn 0.000000 1.000000 0.000000
vn 0.000000 -1.000000 -0.000000
vn 1.000000 0.000000 0.000000
vn -1.000000 0.000000 0.000000
vn 0.000000 0.447200 -0.894400
vn -0.447200 0.000000 -0.894400
vn 0.800000 0.600000 0.000000
vn -0.600000 0.800000 0.000000
vn 0.000000 0.447200 0.894400
vn -0.447200 0.000000 0.894400
vn -0.800000 0.600000 0.000000
vn -0.600000 -0.800000 0.000000
vn 0.600000 0.800000 0.000000
vn 0.447200 0.000000 -0.894400
vn 0.600000 -0.800000 0.000000
vn 0.447200 -0.000000 0.894400
s 1
f 1/1/1 2/2/1 3/3/1 4/4/1
f 5/5/2 6/6/2 7/7/2 8/8/2
f 9/9/3 10/10/3 11/11/3 12/12/3
f 13/13/4 14/14/4 15/15/4 16/16/4
f 4/11/5 3/12/5 7/9/5 6/10/5
f 17/17/6 18/18/6 19/19/6 20/20/6
f 18/21/4 21/22/4 22/23/4 19/24/4
f 21/22/4 23/25/4 24/26/4 22/23/4
f 23/25/4 25/27/4 26/28/4 24/26/4
f 25/27/4 13/13/4 16/16/4 26/28/4
f 3/9/3 2/10/3 8/11/3 7/12/3
f 27/9/3 28/10/3 29/11/3 30/12/3
f 31/29/2 32/30/2 12/31/2 11/32/2
f 32/30/2 33/33/2 29/34/2 12/31/2
f 33/33/2 34/35/2 30/36/2 29/34/2
f 34/35/2 5/5/2 8/8/2 30/36/2
f 35/37/1 10/38/1 9/39/1 36/40/1
f 36/40/1 9/39/1 28/41/1 37/42/1
f 37/42/1 28/41/1 27/43/1 38/44/1
f 38/44/1 27/43/1 2/2/1 1/1/1
f 25/45/1 39/46/1 40/47/1 13/48/1
f 39/46/1 41/49/1 42/50/1 40/47/1
f 41/49/1 43/51/1 44/52/1 42/50/1
f 43/51/1 38/44/1 1/1/1 44/52/1
f 23/53/1 45/54/1 39/46/1 25/45/1
f 45/54/1 46/55/1 41/49/1 39/46/1
f 46/55/1 47/56/1 43/51/1 41/49/1
f 47/56/1 37/42/1 38/44/1 43/51/1
f 21/57/1 48/58/1 45/54/1 23/53/1
f 48/58/1 49/59/1 46/55/1 45/54/1
f 49/59/1 50/60/1 47/56/1 46/55/1
f 50/60/1 36/40/1 37/42/1 47/56/1
f 18/61/1 17/62/1 48/58/1 21/57/1
f 17/62/1 51/63/1 49/59/1 48/58/1
f 51/63/1 52/64/1 50/60/1 49/59/1
f 52/64/1 35/37/1 36/40/1 50/60/1
f 26/65/2 16/66/2 53/67/2 54/68/2
f 54/68/2 53/67/2 55/69/2 56/70/2
f 56/70/2 55/69/2 57/71/2 58/72/2
f 58/72/2 57/71/2 5/5/2 34/35/2
f 24/73/2 26/65/2 54/68/2 59/74/2
f 59/74/2 54/68/2 56/70/2 60/75/2
f 60/75/2 56/70/2 58/72/2 61/76/2
f 61/76/2 58/72/2 34/35/2 33/33/2
f 22/77/2 24/73/2 59/74/2 62/78/2
f 62/78/2 59/74/2 60/75/2 63/79/2
f 63/79/2 60/75/2 61/76/2 64/80/2
f 64/80/2 61/76/2 33/33/2 32/30/2
f 19/81/2 22/77/2 62/78/2 20/82/2
f 20/82/2 62/78/2 63/79/2 65/83/2
f 65/83/2 63/79/2 64/80/2 66/84/2
f 66/84/2 64/80/2 32/30/2 31/29/2
f 10/17/6 35/18/6 31/19/6 11/20/6
f 52/17/6 51/18/6 65/19/6 66/20/6
f 14/11/5 67/12/5 68/9/5 15/10/5
f 69/11/5 70/12/5 71/9/5 72/10/5
f 16/66/2 15/85/2 68/86/2 53/67/2
f 53/67/2 68/86/2 72/87/2 55/69/2
f 55/69/2 72/87/2 71/88/2 57/71/2
f 57/71/2 71/88/2 6/6/2 5/5/2
f 13/48/1 40/47/1 67/89/1 14/90/1
f 40/47/1 42/50/1 69/91/1 67/89/1
f 42/50/1 44/52/1 70/92/1 69/91/1
f 44/52/1 1/1/1 4/4/1 70/92/1
f 28/93/7 9/94/7 73/95/7
f 35/96/8 52/97/8 74/98/8
f 29/99/9 28/100/9 73/101/9
f 31/102/10 35/103/10 74/104/10
f 12/105/11 29/106/11 73/107/11
f 66/108/12 31/109/12 74/110/12
f 9/111/13 12/112/13 73/113/13
f 52/114/14 66/115/14 74/116/14
f 51/117/8 17/118/8 75/119/8
f 65/120/10 51/121/10 75/122/10
f 20/123/12 65/124/12 75/125/12
f 17/126/14 20/127/14 75/128/14
f 8/99/9 2/100/9 76/101/9
f 69/120/15 72/121/15 77/122/15
f 67/129/16 69/130/16 77/131/16
f 30/132/11 8/133/11 76/134/11
f 68/120/17 67/121/17 77/122/17
f 27/111/13 30/112/13 76/113/13
f 72/135/18 68/136/18 77/137/18
f 2/138/7 27/139/7 76/140/7
f 6/141/18 71/142/18 78/143/18
f 71/102/17 70/103/17 78/104/17
f 70/144/16 4/145/16 78/146/16
f 4/120/15 6/121/15 78/122/15
