# Blender v2.76 (sub 0) OBJ File: 'energy.blend'
# www.blender.org
o Cone_Cone.003
v 0.090388 -0.008708 -0.136769
v -0.028285 -0.524231 -0.016209
v 0.090388 -0.008708 0.104351
v 0.336375 0.087041 0.104351
v 0.322719 0.087041 -0.136769
v -0.080274 0.470280 0.104351
v -0.080274 0.470280 -0.136769
v -0.096480 -0.008708 -0.136769
v -0.096480 -0.008708 0.104351
v 0.129424 0.401254 -0.136769
v 0.050247 0.087041 -0.136769
v 0.129424 0.401254 0.104351
v 0.058518 0.087041 0.104351
vt 0.330094 0.019121
vt 0.322342 0.023684
vt 0.314831 0.018467
vt 0.311768 0.034714
vt 0.332885 0.034714
vt 0.320488 0.034725
vt 0.320069 0.042691
vt 0.311768 0.042691
vt 0.300126 0.026602
vt 0.300487 0.026574
vt 0.299246 0.025149
vt 0.301110 0.024484
vt 0.301220 0.023981
vt 0.296865 0.026546
vt 0.303541 0.025833
vt 0.289014 0.047101
vt 0.289014 0.018467
vt 0.309370 0.019369
vt 0.311758 0.043608
vn -0.974500 0.224300 0.000000
vn 0.862000 -0.504600 -0.048800
vn 0.096400 -0.247600 0.964000
vn 0.102600 -0.248800 -0.963100
vn -0.371700 0.928300 0.010500
vn -0.999400 0.033800 0.000000
vn -0.000000 0.000000 -1.000000
vn 0.972500 -0.232300 -0.016700
vn 0.000000 -0.000000 1.000000
vn 0.312700 0.949900 0.000000
vn 0.000000 -1.000000 -0.000000
vn 0.000000 1.000000 0.000000
s off
f 1/1/1 2/2/1 3/3/1
f 4/4/2 2/2/2 5/5/2
f 3/3/3 2/2/3 4/4/3
f 5/5/4 2/2/4 1/1/4
f 4/6/5 5/7/5 1/8/5 3/4/5
f 6/9/6 7/10/6 8/11/6 9/12/6
f 7/10/7 10/13/7 11/14/7 8/11/7
f 10/13/8 12/11/8 13/15/8 11/14/8
f 12/11/9 6/9/9 9/12/9 13/15/9
f 11/14/7 5/16/7 1/17/7 8/11/7
f 12/11/10 10/13/10 7/10/10 6/9/10
f 9/12/9 3/18/9 4/19/9 13/15/9
f 8/11/11 1/17/11 3/18/11 9/12/11
f 13/15/12 4/19/12 5/16/12 11/14/12
