# Blender v2.76 (sub 0) OBJ File: ''
# www.blender.org
o Text_Mesh
v -0.073368 -0.000000 0.070000
v -0.235103 -0.000000 0.070000
v -0.235103 0.603567 0.070000
v -0.073368 0.603567 0.070000
v -0.073368 0.376976 0.070000
v -0.060803 0.376976 0.070000
v 0.084313 0.603567 0.070000
v 0.276854 0.603567 0.070000
v 0.077827 0.311309 0.070000
v 0.296717 -0.000000 0.070000
v 0.096879 -0.000000 0.070000
v -0.061613 0.240778 0.070000
v -0.073368 0.240778 0.070000
v -0.073368 0.000000 -0.070000
v -0.235103 0.000000 -0.070000
v -0.235103 0.603567 -0.070000
v -0.073368 0.603567 -0.070000
v -0.073368 0.376976 -0.070000
v -0.060803 0.376976 -0.070000
v 0.084313 0.603567 -0.070000
v 0.276854 0.603567 -0.070000
v 0.077827 0.311309 -0.070000
v 0.296717 0.000000 -0.070000
v 0.096879 0.000000 -0.070000
v -0.061613 0.240778 -0.070000
v -0.073368 0.240778 -0.070000
v -0.073368 0.000000 -0.070000
v -0.073368 -0.000000 0.070000
v -0.235103 0.000000 -0.070000
v -0.235103 -0.000000 0.070000
v -0.235103 0.603567 -0.070000
v -0.235103 0.603567 0.070000
v -0.073368 0.603567 -0.070000
v -0.073368 0.603567 0.070000
v -0.073368 0.376976 -0.070000
v -0.073368 0.376976 0.070000
v -0.060803 0.376976 -0.070000
v -0.060803 0.376976 0.070000
v 0.084313 0.603567 -0.070000
v 0.084313 0.603567 0.070000
v 0.276854 0.603567 -0.070000
v 0.276854 0.603567 0.070000
v 0.077827 0.311309 -0.070000
v 0.077827 0.311309 0.070000
v 0.296717 0.000000 -0.070000
v 0.296717 -0.000000 0.070000
v 0.096879 0.000000 -0.070000
v 0.096879 -0.000000 0.070000
v -0.061613 0.240778 -0.070000
v -0.061613 0.240778 0.070000
v -0.073368 0.240778 -0.070000
v -0.073368 0.240778 0.070000
vt 0.306733 0.045618
vt 0.320579 0.041908
vt 0.320579 0.045618
vt 0.315381 0.041908
vt 0.315381 0.041620
vt 0.320579 0.033873
vt 0.320579 0.038290
vt 0.313875 0.038439
vt 0.312256 0.041908
vt 0.312256 0.041638
vt 0.306733 0.033418
vt 0.306733 0.041908
vt 0.306733 0.038002
vt 0.306721 0.037133
vt 0.292876 0.033418
vt 0.301523 0.037131
vt 0.306719 0.045168
vt 0.301523 0.037419
vt 0.306720 0.040750
vt 0.300015 0.040599
vt 0.298398 0.037130
vt 0.298398 0.037400
vt 0.292872 0.045618
vt 0.292875 0.037128
vt 0.292873 0.041034
vt 0.310462 0.026704
vt 0.313379 0.025706
vt 0.316974 0.026227
vt 0.313273 0.029510
vt 0.310102 0.015588
vt 0.311164 0.011022
vt 0.306730 0.015867
vt 0.305212 0.013840
vt 0.307160 0.019833
vt 0.305030 0.014354
vt 0.306744 0.019956
vt 0.304662 0.014496
vt 0.299064 0.015245
vt 0.298842 0.011740
vt 0.296027 0.015274
vt 0.292872 0.013341
vt 0.296807 0.022668
vt 0.292872 0.024030
vt 0.300137 0.029618
vt 0.299060 0.032479
vt 0.305553 0.028176
vt 0.304774 0.032124
vt 0.309984 0.031219
vt 0.311208 0.033408
vt 0.310143 0.031133
vt 0.311459 0.033259
vn 0.000000 -0.000000 1.000000
vn 0.000000 0.000000 -1.000000
vn 0.707100 -0.707100 0.000000
vn -0.707100 -0.707100 0.000000
vn -0.707100 0.707100 0.000000
vn 0.707100 0.707100 0.000000
vn -0.479900 0.877300 0.000000
vn 0.884000 0.467500 0.000000
vn 1.000000 0.007500 0.000000
vn 0.887400 -0.460900 0.000000
vn -0.474400 -0.880300 0.000000
s off
f 2/1/1 4/2/1 3/3/1
f 2/1/1 5/4/1 4/2/1
f 6/5/1 8/6/1 7/7/1
f 6/5/1 9/8/1 8/6/1
f 2/1/1 6/5/1 5/4/1
f 2/1/1 13/9/1 6/5/1
f 13/9/1 9/8/1 6/5/1
f 13/9/1 12/10/1 9/8/1
f 12/10/1 10/11/1 9/8/1
f 2/1/1 1/12/1 13/9/1
f 11/13/1 10/11/1 12/10/1
f 17/14/2 15/15/2 16/11/2
f 18/16/2 15/15/2 17/14/2
f 21/17/2 19/18/2 20/19/2
f 22/20/2 19/18/2 21/17/2
f 19/18/2 15/15/2 18/16/2
f 26/21/2 15/15/2 19/18/2
f 22/20/2 26/21/2 19/18/2
f 25/22/2 26/21/2 22/20/2
f 23/23/2 25/22/2 22/20/2
f 14/24/2 15/15/2 26/21/2
f 23/23/2 24/25/2 25/22/2
s 1
f 28/26/3 30/27/4 29/28/4 27/29/3
f 30/27/4 32/30/5 31/31/5 29/28/4
f 32/30/5 34/32/6 33/33/6 31/31/5
f 34/32/6 36/34/6 35/35/6 33/33/6
f 36/34/6 38/36/7 37/37/7 35/35/6
f 38/36/7 40/38/7 39/39/7 37/37/7
f 40/38/7 42/40/8 41/41/8 39/39/7
f 42/40/8 44/42/9 43/43/9 41/41/8
f 44/42/9 46/44/10 45/45/10 43/43/9
f 46/44/10 48/46/11 47/47/11 45/45/10
f 48/46/11 50/48/11 49/49/11 47/47/11
f 50/48/11 52/50/3 51/51/3 49/49/11
f 52/50/3 28/26/3 27/29/3 51/51/3
