# Blender v2.76 (sub 0) OBJ File: ''
# www.blender.org
o Text_Mesh
v -0.124645 -0.000000 0.070000
v -0.290839 0.603567 0.070000
v -0.118970 0.603567 0.070000
v -0.001824 0.132144 0.070000
v 0.120997 0.603567 0.070000
v 0.292055 0.603567 0.070000
v 0.120186 -0.000000 0.070000
v -0.124645 0.000000 -0.070000
v -0.290839 0.603567 -0.070000
v -0.118970 0.603567 -0.070000
v -0.001824 0.132144 -0.070000
v 0.120997 0.603567 -0.070000
v 0.292055 0.603567 -0.070000
v 0.120186 0.000000 -0.070000
v -0.124645 0.000000 -0.070000
v -0.124645 -0.000000 0.070000
v -0.290839 0.603567 -0.070000
v -0.290839 0.603567 0.070000
v -0.118970 0.603567 -0.070000
v -0.118970 0.603567 0.070000
v -0.001824 0.132144 -0.070000
v -0.001824 0.132144 0.070000
v 0.120997 0.603567 -0.070000
v 0.120997 0.603567 0.070000
v 0.292055 0.603567 -0.070000
v 0.292055 0.603567 0.070000
v 0.120186 0.000000 -0.070000
v 0.120186 -0.000000 0.070000
vt 0.291622 0.012839
vt 0.291733 0.024618
vt 0.288379 0.024618
vt 0.294019 0.015418
vt 0.299755 0.024618
vt 0.296416 0.024618
vt 0.296400 0.012839
vt 0.299765 0.021264
vt 0.311544 0.021379
vt 0.308966 0.018981
vt 0.299767 0.013242
vt 0.299766 0.016580
vt 0.311546 0.016600
vt 0.310920 0.042643
vt 0.296991 0.043802
vt 0.298539 0.040917
vt 0.307323 0.040419
vt 0.294545 0.039389
vt 0.297821 0.037274
vt 0.287907 0.032274
vt 0.290580 0.031654
vt 0.292231 0.024627
vt 0.293557 0.027584
vt 0.297454 0.024627
vt 0.296417 0.028349
vt 0.311546 0.034509
vt 0.307988 0.036085
vn 0.000000 -0.000000 1.000000
vn 0.000000 0.000000 -1.000000
vn -0.606000 -0.795400 0.000000
vn -0.795400 0.606000 0.000000
vn 0.616000 0.787700 0.000000
vn 0.005600 1.000000 0.000000
vn -0.611500 0.791200 0.000000
vn 0.798100 0.602500 0.000000
vn 0.602500 -0.798100 0.000000
s off
f 1/1/1 3/2/1 2/3/1
f 1/1/1 4/4/1 3/2/1
f 4/4/1 6/5/1 5/6/1
f 4/4/1 7/7/1 6/5/1
f 1/1/1 7/7/1 4/4/1
f 10/8/2 8/9/2 9/5/2
f 11/10/2 8/9/2 10/8/2
f 13/11/2 11/10/2 12/12/2
f 14/13/2 11/10/2 13/11/2
f 14/13/2 8/9/2 11/10/2
s 1
f 16/14/3 18/15/4 17/16/4 15/17/3
f 18/15/4 20/18/5 19/19/5 17/16/4
f 20/18/5 22/20/6 21/21/6 19/19/5
f 22/20/6 24/22/7 23/23/7 21/21/6
f 24/22/7 26/24/8 25/25/8 23/23/7
f 26/24/8 28/26/9 27/27/9 25/25/8
f 28/26/9 16/14/3 15/17/3 27/27/9
