# Blender v2.76 (sub 0) OBJ File: ''
# www.blender.org
o Text_Mesh
v 0.242602 -0.000000 0.070000
v -0.190717 -0.000000 0.070000
v -0.190717 0.603567 0.070000
v -0.027361 0.603567 0.070000
v -0.027361 0.140251 0.070000
v 0.242602 0.140251 0.070000
v 0.242602 0.000000 -0.070000
v -0.190717 0.000000 -0.070000
v -0.190717 0.603567 -0.070000
v -0.027361 0.603567 -0.070000
v -0.027361 0.140251 -0.070000
v 0.242602 0.140251 -0.070000
v 0.242602 0.000000 -0.070000
v 0.242602 -0.000000 0.070000
v -0.190717 0.000000 -0.070000
v -0.190717 -0.000000 0.070000
v -0.190717 0.603567 -0.070000
v -0.190717 0.603567 0.070000
v -0.027361 0.603567 -0.070000
v -0.027361 0.603567 0.070000
v -0.027361 0.140251 -0.070000
v -0.027361 0.140251 0.070000
v 0.242602 0.140251 -0.070000
v 0.242602 0.140251 0.070000
vt 0.315640 0.048756
vt 0.327850 0.036386
vt 0.330136 0.040309
vt 0.316722 0.042870
vt 0.312945 0.036386
vt 0.309576 0.038349
vt 0.307278 0.048756
vt 0.295069 0.036386
vt 0.309564 0.044832
vt 0.296151 0.042272
vt 0.292373 0.048756
vt 0.289005 0.046793
vt 0.289005 0.024581
vt 0.298319 0.010954
vt 0.300044 0.017129
vt 0.294124 0.024029
vt 0.316182 0.024058
vt 0.310823 0.026253
vt 0.316182 0.032476
vt 0.310801 0.030080
vt 0.300257 0.036374
vt 0.301325 0.031439
vt 0.291703 0.029795
vt 0.295835 0.026609
vn 0.000000 -0.000000 1.000000
vn 0.000000 0.000000 -1.000000
vn 0.707100 -0.707100 0.000000
vn -0.707100 -0.707100 0.000000
vn -0.707100 0.707100 0.000000
vn 0.707100 0.707100 0.000000
s off
f 2/1/1 4/2/1 3/3/1
f 2/1/1 5/4/1 4/2/1
f 2/1/1 6/5/1 5/4/1
f 2/1/1 1/6/1 6/5/1
f 10/7/2 8/8/2 9/9/2
f 11/10/2 8/8/2 10/7/2
f 12/11/2 8/8/2 11/10/2
f 7/12/2 8/8/2 12/11/2
s 1
f 14/13/3 16/14/4 15/15/4 13/16/3
f 16/14/4 18/17/5 17/18/5 15/15/4
f 18/17/5 20/19/6 19/20/6 17/18/5
f 20/19/6 22/21/6 21/22/6 19/20/6
f 22/21/6 24/23/6 23/24/6 21/22/6
f 24/23/6 14/13/3 13/16/3 23/24/6
