# Blender v2.76 (sub 0) OBJ File: ''
# www.blender.org
o Text_Mesh
v -0.137211 -0.000000 0.070000
v -0.291244 -0.000000 0.070000
v -0.291244 0.603567 0.070000
v -0.050872 0.603567 0.070000
v 0.136806 0.155249 0.070000
v 0.136806 0.603567 0.070000
v 0.291244 0.603567 0.070000
v 0.291244 -0.000000 0.070000
v 0.050466 -0.000000 0.070000
v -0.137211 0.452371 0.070000
v -0.137211 0.000000 -0.070000
v -0.291244 0.000000 -0.070000
v -0.291244 0.603567 -0.070000
v -0.050872 0.603567 -0.070000
v 0.136806 0.155249 -0.070000
v 0.136806 0.603567 -0.070000
v 0.291244 0.603567 -0.070000
v 0.291244 0.000000 -0.070000
v 0.050466 0.000000 -0.070000
v -0.137211 0.452371 -0.070000
v -0.137211 0.000000 -0.070000
v -0.137211 -0.000000 0.070000
v -0.291244 0.000000 -0.070000
v -0.291244 -0.000000 0.070000
v -0.291244 0.603567 -0.070000
v -0.291244 0.603567 0.070000
v -0.050872 0.603567 -0.070000
v -0.050872 0.603567 0.070000
v 0.136806 0.155249 -0.070000
v 0.136806 0.155249 0.070000
v 0.136806 0.603567 -0.070000
v 0.136806 0.603567 0.070000
v 0.291244 0.603567 -0.070000
v 0.291244 0.603567 0.070000
v 0.291244 0.000000 -0.070000
v 0.291244 -0.000000 0.070000
v 0.050466 0.000000 -0.070000
v 0.050466 -0.000000 0.070000
v -0.137211 0.452371 -0.070000
v -0.137211 0.452371 0.070000
vt 0.315253 0.051246
vt 0.312528 0.043244
vt 0.315253 0.040569
vt 0.311001 0.040569
vt 0.307681 0.048500
vt 0.304949 0.040569
vt 0.307681 0.040569
vt 0.304949 0.051246
vt 0.312528 0.051246
vt 0.309208 0.051246
vt 0.302265 0.043297
vt 0.294264 0.040569
vt 0.304939 0.044825
vt 0.297007 0.048142
vt 0.304937 0.050877
vt 0.304938 0.048145
vt 0.294260 0.050873
vt 0.294263 0.043294
vt 0.294262 0.046614
vt 0.321268 0.037881
vt 0.322067 0.036986
vt 0.324881 0.037082
vt 0.322679 0.040561
vt 0.317669 0.030846
vt 0.319000 0.028653
vt 0.314534 0.029294
vt 0.314496 0.027121
vt 0.306287 0.034090
vt 0.306696 0.030624
vt 0.300201 0.029249
vt 0.298365 0.025571
vt 0.298162 0.030711
vt 0.294260 0.030001
vt 0.302193 0.037702
vt 0.301181 0.040561
vt 0.307087 0.037466
vt 0.307408 0.040017
vt 0.315489 0.033740
vt 0.315157 0.036986
vn 0.000000 -0.000000 1.000000
vn 0.000000 0.000000 -1.000000
vn 0.707100 -0.707100 0.000000
vn -0.707100 -0.707100 0.000000
vn -0.707100 0.707100 0.000000
vn 0.554000 0.832500 0.000000
vn -0.196900 0.980400 0.000000
vn 0.707100 0.707100 0.000000
vn -0.555300 -0.831600 0.000000
vn 0.195300 -0.980700 0.000000
s off
f 2/1/1 10/2/1 3/3/1
f 10/2/1 4/4/1 3/3/1
f 10/2/1 5/5/1 4/4/1
f 5/5/1 7/6/1 6/7/1
f 5/5/1 8/8/1 7/6/1
f 2/1/1 1/9/1 10/2/1
f 9/10/1 5/5/1 10/2/1
f 9/10/1 8/8/1 5/5/1
f 20/11/2 12/12/2 13/6/2
f 14/13/2 20/11/2 13/6/2
f 15/14/2 20/11/2 14/13/2
f 17/15/2 15/14/2 16/16/2
f 18/17/2 15/14/2 17/15/2
f 11/18/2 12/12/2 20/11/2
f 15/14/2 19/19/2 20/11/2
f 18/17/2 19/19/2 15/14/2
s 1
f 22/20/3 24/21/4 23/22/4 21/23/3
f 24/21/4 26/24/5 25/25/5 23/22/4
f 26/24/5 28/26/6 27/27/6 25/25/5
f 28/26/6 30/28/7 29/29/7 27/27/6
f 30/28/7 32/30/5 31/31/5 29/29/7
f 32/30/5 34/32/8 33/33/8 31/31/5
f 34/32/8 36/34/3 35/35/3 33/33/8
f 36/34/3 38/36/9 37/37/9 35/35/3
f 38/36/9 40/38/10 39/39/10 37/37/9
f 40/38/10 22/20/3 21/23/3 39/39/10
