# Blender v2.76 (sub 0) OBJ File: ''
# www.blender.org
o Text_Mesh
v -0.102351 -0.000000 0.070000
v -0.285975 -0.000000 0.070000
v -0.126672 0.312931 0.070000
v -0.263681 0.603567 0.070000
v -0.081678 0.603567 0.070000
v 0.003851 0.394406 0.070000
v 0.090191 0.603567 0.070000
v 0.272598 0.603567 0.070000
v 0.130726 0.312931 0.070000
v 0.285975 -0.000000 0.070000
v 0.100730 -0.000000 0.070000
v 0.001419 0.229834 0.070000
v -0.102351 0.000000 -0.070000
v -0.285975 0.000000 -0.070000
v -0.126672 0.312931 -0.070000
v -0.263681 0.603567 -0.070000
v -0.081678 0.603567 -0.070000
v 0.003851 0.394406 -0.070000
v 0.090191 0.603567 -0.070000
v 0.272598 0.603567 -0.070000
v 0.130726 0.312931 -0.070000
v 0.285975 0.000000 -0.070000
v 0.100730 0.000000 -0.070000
v 0.001419 0.229834 -0.070000
v -0.102351 0.000000 -0.070000
v -0.102351 -0.000000 0.070000
v -0.285975 0.000000 -0.070000
v -0.285975 -0.000000 0.070000
v -0.126672 0.312931 -0.070000
v -0.126672 0.312931 0.070000
v -0.263681 0.603567 -0.070000
v -0.263681 0.603567 0.070000
v -0.081678 0.603567 -0.070000
v -0.081678 0.603567 0.070000
v 0.003851 0.394406 -0.070000
v 0.003851 0.394406 0.070000
v 0.090191 0.603567 -0.070000
v 0.090191 0.603567 0.070000
v 0.272598 0.603567 -0.070000
v 0.272598 0.603567 0.070000
v 0.130726 0.312931 -0.070000
v 0.130726 0.312931 0.070000
v 0.285975 0.000000 -0.070000
v 0.285975 -0.000000 0.070000
v 0.100730 0.000000 -0.070000
v 0.100730 -0.000000 0.070000
v 0.001419 0.229834 -0.070000
v 0.001419 0.229834 0.070000
vt 0.301980 0.043584
vt 0.300982 0.037133
vt 0.305021 0.037133
vt 0.299083 0.041775
vt 0.293118 0.037133
vt 0.297167 0.037133
vt 0.296267 0.043584
vt 0.305516 0.050530
vt 0.299137 0.045428
vt 0.292821 0.050530
vt 0.301441 0.050530
vt 0.296933 0.050530
vt 0.318923 0.041667
vt 0.312472 0.040669
vt 0.318923 0.037628
vt 0.314280 0.043566
vt 0.318923 0.049531
vt 0.318923 0.045482
vt 0.312472 0.046382
vt 0.310627 0.043512
vt 0.305526 0.037133
vt 0.305526 0.049828
vt 0.305526 0.041208
vt 0.305526 0.045716
vt 0.294291 0.025877
vt 0.295532 0.021639
vt 0.297298 0.023330
vt 0.296771 0.027384
vt 0.303800 0.019783
vt 0.303988 0.023976
vt 0.313488 0.019783
vt 0.312147 0.022724
vt 0.316515 0.024305
vt 0.313032 0.026625
vt 0.319602 0.028586
vt 0.316963 0.029742
vt 0.319638 0.034010
vt 0.316802 0.032511
vt 0.315185 0.037123
vt 0.314265 0.033430
vt 0.305228 0.036239
vt 0.305826 0.032042
vt 0.295456 0.034342
vt 0.296337 0.032899
vt 0.294443 0.031817
vt 0.296434 0.031038
vt 0.292821 0.029479
vt 0.294429 0.029219
vn 0.000000 -0.000000 1.000000
vn 0.000000 0.000000 -1.000000
vn 0.542400 -0.840100 0.000000
vn -0.852500 -0.522600 0.000000
vn -0.999900 0.015200 0.000000
vn -0.844500 0.535500 0.000000
vn 0.557500 0.830200 0.000000
vn 0.001600 1.000000 0.000000
vn -0.556000 0.831100 0.000000
vn 0.848100 0.529800 0.000000
vn 1.000000 0.003200 0.000000
vn 0.849800 -0.527100 0.000000
vn -0.549200 -0.835700 0.000000
vn -0.008100 -0.999900 0.000000
s off
f 3/1/1 5/2/1 4/3/1
f 3/1/1 6/4/1 5/2/1
f 6/4/1 8/5/1 7/6/1
f 6/4/1 9/7/1 8/5/1
f 3/1/1 9/7/1 6/4/1
f 2/8/1 12/9/1 3/1/1
f 12/9/1 9/7/1 3/1/1
f 12/9/1 10/10/1 9/7/1
f 2/8/1 1/11/1 12/9/1
f 11/12/1 10/10/1 12/9/1
f 17/13/2 15/14/2 16/15/2
f 18/16/2 15/14/2 17/13/2
f 20/17/2 18/16/2 19/18/2
f 21/19/2 18/16/2 20/17/2
f 21/19/2 15/14/2 18/16/2
f 24/20/2 14/21/2 15/14/2
f 21/19/2 24/20/2 15/14/2
f 22/22/2 24/20/2 21/19/2
f 13/23/2 14/21/2 24/20/2
f 22/22/2 23/24/2 24/20/2
s 1
f 26/25/3 28/26/4 27/27/4 25/28/3
f 28/26/4 30/29/5 29/30/5 27/27/4
f 30/29/5 32/31/6 31/32/6 29/30/5
f 32/31/6 34/33/7 33/34/7 31/32/6
f 34/33/7 36/35/8 35/36/8 33/34/7
f 36/35/8 38/37/9 37/38/9 35/36/8
f 38/37/9 40/39/10 39/40/10 37/38/9
f 40/39/10 42/41/11 41/42/11 39/40/10
f 42/41/11 44/43/12 43/44/12 41/42/11
f 44/43/12 46/45/13 45/46/13 43/44/12
f 46/45/13 48/47/14 47/48/14 45/46/13
f 48/47/14 26/25/3 25/28/3 47/48/14
