# Blender v2.76 (sub 0) OBJ File: ''
# www.blender.org
o Text_Mesh
v -0.311309 -0.000000 0.070000
v -0.404135 0.603567 0.070000
v -0.240778 0.603567 0.070000
v -0.183624 0.141062 0.070000
v -0.089583 0.603567 0.070000
v 0.091204 0.603567 0.070000
v 0.177544 0.141062 0.070000
v 0.240778 0.603567 0.070000
v 0.403324 0.603567 0.070000
v 0.302797 -0.000000 0.070000
v 0.072152 -0.000000 0.070000
v -0.001621 0.409404 0.070000
v -0.078233 -0.000000 0.070000
v -0.311309 0.000000 -0.070000
v -0.404135 0.603567 -0.070000
v -0.240778 0.603567 -0.070000
v -0.183624 0.141062 -0.070000
v -0.089583 0.603567 -0.070000
v 0.091204 0.603567 -0.070000
v 0.177544 0.141062 -0.070000
v 0.240778 0.603567 -0.070000
v 0.403324 0.603567 -0.070000
v 0.302797 0.000000 -0.070000
v 0.072152 0.000000 -0.070000
v -0.001621 0.409404 -0.070000
v -0.078233 0.000000 -0.070000
v -0.311309 0.000000 -0.070000
v -0.311309 -0.000000 0.070000
v -0.404135 0.603567 -0.070000
v -0.404135 0.603567 0.070000
v -0.240778 0.603567 -0.070000
v -0.240778 0.603567 0.070000
v -0.183624 0.141062 -0.070000
v -0.183624 0.141062 0.070000
v -0.089583 0.603567 -0.070000
v -0.089583 0.603567 0.070000
v 0.091204 0.603567 -0.070000
v 0.091204 0.603567 0.070000
v 0.177544 0.141062 -0.070000
v 0.177544 0.141062 0.070000
v 0.240778 0.603567 -0.070000
v 0.240778 0.603567 0.070000
v 0.403324 0.603567 -0.070000
v 0.403324 0.603567 0.070000
v 0.302797 0.000000 -0.070000
v 0.302797 -0.000000 0.070000
v 0.072152 0.000000 -0.070000
v 0.072152 -0.000000 0.070000
v -0.001621 0.409404 -0.070000
v -0.001621 0.409404 0.070000
v -0.078233 0.000000 -0.070000
v -0.078233 -0.000000 0.070000
vt 0.303224 0.028575
vt 0.302049 0.018512
vt 0.304772 0.018512
vt 0.301096 0.026223
vt 0.296514 0.018512
vt 0.299528 0.018512
vt 0.298061 0.021749
vt 0.295074 0.026223
vt 0.291310 0.018512
vt 0.294020 0.018512
vt 0.292986 0.028575
vt 0.299338 0.028575
vt 0.296831 0.028575
vt 0.315521 0.028575
vt 0.316697 0.018512
vt 0.318244 0.028575
vt 0.314568 0.020864
vt 0.309986 0.028575
vt 0.313000 0.028575
vt 0.311533 0.025338
vt 0.308546 0.020864
vt 0.304782 0.028575
vt 0.307492 0.028575
vt 0.306458 0.018512
vt 0.312811 0.018512
vt 0.310303 0.018512
vt 0.308326 0.050931
vt 0.315239 0.050238
vt 0.318244 0.051438
vt 0.307417 0.053754
vt 0.315223 0.048108
vt 0.317499 0.046930
vt 0.308557 0.046178
vt 0.311388 0.044347
vt 0.309340 0.038110
vt 0.310944 0.037289
vt 0.306194 0.035911
vt 0.309089 0.034880
vt 0.307750 0.030723
vt 0.308728 0.028585
vt 0.303291 0.033991
vt 0.303596 0.031192
vt 0.301008 0.032593
vt 0.301014 0.030405
vt 0.293601 0.033848
vt 0.291061 0.032475
vt 0.293307 0.036599
vt 0.291061 0.037614
vt 0.298804 0.040128
vt 0.296816 0.042184
vt 0.305495 0.047289
vt 0.302932 0.049775
vn 0.000000 -0.000000 1.000000
vn 0.000000 0.000000 -1.000000
vn -0.651100 -0.758900 0.000000
vn -0.758900 0.651100 0.000000
vn 0.662300 0.749200 0.000000
vn 0.038800 0.999200 0.000000
vn -0.632700 0.774300 0.000000
vn 0.638900 0.769200 0.000000
vn -0.024300 0.999700 0.000000
vn -0.657500 0.753500 0.000000
vn 0.763000 0.646400 0.000000
vn 0.646400 -0.763000 0.000000
vn -0.641300 -0.767200 0.000000
vn -0.003300 -1.000000 0.000000
vn 0.638800 -0.769400 0.000000
s off
f 1/1/1 3/2/1 2/3/1
f 1/1/1 4/4/1 3/2/1
f 4/4/1 6/5/1 5/6/1
f 4/4/1 12/7/1 6/5/1
f 12/7/1 7/8/1 6/5/1
f 7/8/1 9/9/1 8/10/1
f 7/8/1 10/11/1 9/9/1
f 4/4/1 13/12/1 12/7/1
f 11/13/1 7/8/1 12/7/1
f 1/1/1 13/12/1 4/4/1
f 11/13/1 10/11/1 7/8/1
f 16/14/2 14/15/2 15/16/2
f 17/17/2 14/15/2 16/14/2
f 19/18/2 17/17/2 18/19/2
f 25/20/2 17/17/2 19/18/2
f 20/21/2 25/20/2 19/18/2
f 22/22/2 20/21/2 21/23/2
f 23/24/2 20/21/2 22/22/2
f 26/25/2 17/17/2 25/20/2
f 20/21/2 24/26/2 25/20/2
f 26/25/2 14/15/2 17/17/2
f 23/24/2 24/26/2 20/21/2
s 1
f 28/27/3 30/28/4 29/29/4 27/30/3
f 30/28/4 32/31/5 31/32/5 29/29/4
f 32/31/5 34/33/6 33/34/6 31/32/5
f 34/33/6 36/35/7 35/36/7 33/34/6
f 36/35/7 38/37/8 37/38/8 35/36/7
f 38/37/8 40/39/9 39/40/9 37/38/8
f 40/39/9 42/41/10 41/42/10 39/40/9
f 42/41/10 44/43/11 43/44/11 41/42/10
f 44/43/11 46/45/12 45/46/12 43/44/11
f 46/45/12 48/47/13 47/48/13 45/46/12
f 48/47/13 50/49/14 49/50/14 47/48/13
f 50/49/14 52/51/15 51/52/15 49/50/14
f 52/51/15 28/27/3 27/30/3 51/52/15
