# Blender v2.76 (sub 0) OBJ File: ''
# www.blender.org
o Text_Mesh
v 0.241994 -0.000000 0.070000
v -0.252128 -0.000000 0.070000
v -0.252128 0.141062 0.070000
v 0.036887 0.463316 0.070000
v -0.233887 0.463316 0.070000
v -0.233887 0.603567 0.070000
v 0.241994 0.603567 0.070000
v 0.241994 0.459262 0.070000
v -0.039724 0.140251 0.070000
v 0.241994 0.140251 0.070000
v 0.241994 0.000000 -0.070000
v -0.252128 0.000000 -0.070000
v -0.252128 0.141062 -0.070000
v 0.036887 0.463316 -0.070000
v -0.233887 0.463316 -0.070000
v -0.233887 0.603567 -0.070000
v 0.241994 0.603567 -0.070000
v 0.241994 0.459262 -0.070000
v -0.039724 0.140251 -0.070000
v 0.241994 0.140251 -0.070000
v 0.241994 0.000000 -0.070000
v 0.241994 -0.000000 0.070000
v -0.252128 0.000000 -0.070000
v -0.252128 -0.000000 0.070000
v -0.252128 0.141062 -0.070000
v -0.252128 0.141062 0.070000
v 0.036887 0.463316 -0.070000
v 0.036887 0.463316 0.070000
v -0.233887 0.463316 -0.070000
v -0.233887 0.463316 0.070000
v -0.233887 0.603567 -0.070000
v -0.233887 0.603567 0.070000
v 0.241994 0.603567 -0.070000
v 0.241994 0.603567 0.070000
v 0.241994 0.459262 -0.070000
v 0.241994 0.459262 0.070000
v -0.039724 0.140251 -0.070000
v -0.039724 0.140251 0.070000
v 0.241994 0.140251 -0.070000
v 0.241994 0.140251 0.070000
vt 0.314206 0.026088
vt 0.309142 0.024595
vt 0.314206 0.024595
vt 0.311325 0.026088
vt 0.309142 0.026131
vt 0.314400 0.029517
vt 0.312140 0.029526
vt 0.314400 0.031018
vt 0.309142 0.029526
vt 0.309142 0.031018
vt 0.303351 0.041482
vt 0.301858 0.036417
vt 0.303351 0.036417
vt 0.301858 0.039299
vt 0.301815 0.041482
vt 0.298429 0.036223
vt 0.298420 0.038484
vt 0.296928 0.036223
vt 0.298420 0.041482
vt 0.296928 0.041482
vt 0.298294 0.030950
vt 0.298030 0.034096
vt 0.296928 0.035515
vt 0.296928 0.030240
vt 0.299189 0.034434
vt 0.299141 0.036219
vt 0.303780 0.032213
vt 0.304660 0.033852
vt 0.306463 0.030305
vt 0.307766 0.031749
vt 0.307568 0.029563
vt 0.309137 0.030062
vt 0.307247 0.026439
vt 0.308098 0.024940
vt 0.305971 0.026267
vt 0.305852 0.024595
vt 0.302366 0.028452
vt 0.301493 0.027032
vt 0.299463 0.030507
vt 0.298445 0.028945
vn 0.000000 -0.000000 1.000000
vn 0.000000 0.000000 -1.000000
vn 0.707100 -0.707100 0.000000
vn -0.707100 -0.707100 0.000000
vn -0.933900 0.357400 0.000000
vn -0.913100 -0.407600 0.000000
vn -0.707100 0.707100 0.000000
vn 0.707100 0.707100 0.000000
vn 0.935300 -0.353900 0.000000
vn 0.911600 0.411100 0.000000
s off
f 5/1/1 7/2/1 6/3/1
f 5/1/1 4/4/1 7/2/1
f 4/4/1 8/5/1 7/2/1
f 3/6/1 8/5/1 4/4/1
f 3/6/1 9/7/1 8/5/1
f 2/8/1 9/7/1 3/6/1
f 2/8/1 10/9/1 9/7/1
f 2/8/1 1/10/1 10/9/1
f 17/11/2 15/12/2 16/13/2
f 14/14/2 15/12/2 17/11/2
f 18/15/2 14/14/2 17/11/2
f 18/15/2 13/16/2 14/14/2
f 19/17/2 13/16/2 18/15/2
f 19/17/2 12/18/2 13/16/2
f 20/19/2 12/18/2 19/17/2
f 11/20/2 12/18/2 20/19/2
s 1
f 22/21/3 24/22/4 23/23/4 21/24/3
f 24/22/4 26/25/5 25/26/5 23/23/4
f 26/25/5 28/27/6 27/28/6 25/26/5
f 28/27/6 30/29/4 29/30/4 27/28/6
f 30/29/4 32/31/7 31/32/7 29/30/4
f 32/31/7 34/33/8 33/34/8 31/32/7
f 34/33/8 36/35/9 35/36/9 33/34/8
f 36/35/9 38/37/10 37/38/10 35/36/9
f 38/37/10 40/39/8 39/40/8 37/38/10
f 40/39/8 22/21/3 21/24/3 39/40/8
