# Blender v2.76 (sub 0) OBJ File: ''
# www.blender.org
o Text_Mesh
v -0.000203 0.167004 0.070000
v 0.123835 0.603567 0.070000
v 0.360154 0.603567 0.070000
v 0.360154 -0.000000 0.070000
v 0.202473 -0.000000 0.070000
v 0.202473 0.443454 0.070000
v 0.081273 -0.000000 0.070000
v -0.080462 -0.000000 0.070000
v -0.202473 0.448318 0.070000
v -0.202473 -0.000000 0.070000
v -0.360154 -0.000000 0.070000
v -0.360154 0.603567 0.070000
v -0.123835 0.603567 0.070000
v -0.000203 0.167004 -0.070000
v 0.123835 0.603567 -0.070000
v 0.360154 0.603567 -0.070000
v 0.360154 0.000000 -0.070000
v 0.202473 0.000000 -0.070000
v 0.202473 0.443454 -0.070000
v 0.081273 0.000000 -0.070000
v -0.080462 0.000000 -0.070000
v -0.202473 0.448318 -0.070000
v -0.202473 0.000000 -0.070000
v -0.360154 0.000000 -0.070000
v -0.360154 0.603567 -0.070000
v -0.123835 0.603567 -0.070000
v -0.000203 0.167004 -0.070000
v -0.000203 0.167004 0.070000
v 0.123835 0.603567 -0.070000
v 0.123835 0.603567 0.070000
v 0.360154 0.603567 -0.070000
v 0.360154 0.603567 0.070000
v 0.360154 0.000000 -0.070000
v 0.360154 -0.000000 0.070000
v 0.202473 0.000000 -0.070000
v 0.202473 -0.000000 0.070000
v 0.202473 0.443454 -0.070000
v 0.202473 0.443454 0.070000
v 0.081273 0.000000 -0.070000
v 0.081273 -0.000000 0.070000
v -0.080462 0.000000 -0.070000
v -0.080462 -0.000000 0.070000
v -0.202473 0.448318 -0.070000
v -0.202473 0.448318 0.070000
v -0.202473 0.000000 -0.070000
v -0.202473 -0.000000 0.070000
v -0.360154 0.000000 -0.070000
v -0.360154 -0.000000 0.070000
v -0.360154 0.603567 -0.070000
v -0.360154 0.603567 0.070000
v -0.123835 0.603567 -0.070000
v -0.123835 0.603567 0.070000
vt 0.317029 0.031205
vt 0.315814 0.027752
vt 0.317029 0.026556
vt 0.315208 0.026556
vt 0.314256 0.029919
vt 0.312695 0.027790
vt 0.313301 0.026556
vt 0.311480 0.026556
vt 0.311480 0.031205
vt 0.315814 0.031205
vt 0.314874 0.031205
vt 0.313628 0.031205
vt 0.312695 0.031205
vt 0.310262 0.030009
vt 0.309656 0.031205
vt 0.308704 0.027843
vt 0.307142 0.029972
vt 0.307748 0.031205
vt 0.305928 0.031205
vt 0.305928 0.026556
vt 0.310262 0.026556
vt 0.309322 0.026556
vt 0.308076 0.026556
vt 0.307142 0.026556
vt 0.312216 0.034052
vt 0.307927 0.033141
vt 0.308331 0.031769
vt 0.312365 0.032908
vt 0.306255 0.032341
vt 0.306102 0.031209
vt 0.302132 0.035016
vt 0.301331 0.033916
vt 0.301145 0.035459
vt 0.300159 0.035044
vt 0.301241 0.036938
vt 0.300746 0.037685
vt 0.304172 0.036592
vt 0.303814 0.037802
vt 0.305235 0.037354
vt 0.305092 0.038325
vt 0.308732 0.036700
vt 0.308724 0.037942
vt 0.312353 0.037172
vt 0.312596 0.038325
vt 0.313418 0.036808
vt 0.313982 0.037798
vt 0.315801 0.034746
vt 0.317029 0.034610
vt 0.315210 0.033788
vt 0.315687 0.032887
vn 0.000000 -0.000000 1.000000
vn -0.000000 0.000000 -1.000000
vn 0.000400 1.000000 0.000000
vn -0.602800 0.797900 0.000000
vn 0.707100 0.707100 0.000000
vn 0.707100 -0.707100 0.000000
vn -0.707100 -0.707100 0.000000
vn -0.133000 -0.991100 0.000000
vn 0.606800 -0.794900 0.000000
vn -0.607200 -0.794500 0.000000
vn 0.132500 -0.991200 0.000000
vn -0.707100 0.707100 0.000000
vn 0.603100 0.797600 0.000000
s off
f 11/1/1 9/2/1 12/3/1
f 9/2/1 13/4/1 12/3/1
f 9/2/1 1/5/1 13/4/1
f 1/5/1 6/6/1 2/7/1
f 6/6/1 3/8/1 2/7/1
f 6/6/1 4/9/1 3/8/1
f 11/1/1 10/10/1 9/2/1
f 8/11/1 1/5/1 9/2/1
f 1/5/1 7/12/1 6/6/1
f 5/13/1 4/9/1 6/6/1
f 8/11/1 7/12/1 1/5/1
f 22/14/2 24/8/2 25/9/2
f 26/15/2 22/14/2 25/9/2
f 14/16/2 22/14/2 26/15/2
f 19/17/2 14/16/2 15/18/2
f 16/19/2 19/17/2 15/18/2
f 17/20/2 19/17/2 16/19/2
f 23/21/2 24/8/2 22/14/2
f 14/16/2 21/22/2 22/14/2
f 20/23/2 14/16/2 19/17/2
f 17/20/2 18/24/2 19/17/2
f 20/23/2 21/22/2 14/16/2
s 1
f 28/25/3 30/26/4 29/27/4 27/28/3
f 30/26/4 32/29/5 31/30/5 29/27/4
f 32/29/5 34/31/6 33/32/6 31/30/5
f 34/31/6 36/33/7 35/34/7 33/32/6
f 36/33/7 38/35/8 37/36/8 35/34/7
f 38/35/8 40/37/9 39/38/9 37/36/8
f 40/37/9 42/39/10 41/40/10 39/38/9
f 42/39/10 44/41/11 43/42/11 41/40/10
f 44/41/11 46/43/6 45/44/6 43/42/11
f 46/43/6 48/45/7 47/46/7 45/44/6
f 48/45/7 50/47/12 49/48/12 47/46/7
f 50/47/12 52/49/13 51/50/13 49/48/12
f 52/49/13 28/25/3 27/28/3 51/50/13
