# Blender v2.76 (sub 0) OBJ File: ''
# www.blender.org
o Text_Mesh
v 0.236117 -0.000000 0.070000
v -0.223551 -0.000000 0.070000
v -0.223551 0.603567 0.070000
v 0.229631 0.603567 0.070000
v 0.229631 0.468991 0.070000
v -0.061816 0.468991 0.070000
v -0.061816 0.364410 0.070000
v 0.221119 0.364410 0.070000
v 0.221119 0.248075 0.070000
v -0.061816 0.248075 0.070000
v -0.061816 0.134576 0.070000
v 0.236117 0.134576 0.070000
v 0.236117 0.000000 -0.070000
v -0.223551 0.000000 -0.070000
v -0.223551 0.603567 -0.070000
v 0.229631 0.603567 -0.070000
v 0.229631 0.468991 -0.070000
v -0.061816 0.468991 -0.070000
v -0.061816 0.364410 -0.070000
v 0.221119 0.364410 -0.070000
v 0.221119 0.248075 -0.070000
v -0.061816 0.248075 -0.070000
v -0.061816 0.134576 -0.070000
v 0.236117 0.134576 -0.070000
v 0.236117 0.000000 -0.070000
v 0.236117 -0.000000 0.070000
v -0.223551 0.000000 -0.070000
v -0.223551 -0.000000 0.070000
v -0.223551 0.603567 -0.070000
v -0.223551 0.603567 0.070000
v 0.229631 0.603567 -0.070000
v 0.229631 0.603567 0.070000
v 0.229631 0.468991 -0.070000
v 0.229631 0.468991 0.070000
v -0.061816 0.468991 -0.070000
v -0.061816 0.468991 0.070000
v -0.061816 0.364410 -0.070000
v -0.061816 0.364410 0.070000
v 0.221119 0.364410 -0.070000
v 0.221119 0.364410 0.070000
v 0.221119 0.248075 -0.070000
v 0.221119 0.248075 0.070000
v -0.061816 0.248075 -0.070000
v -0.061816 0.248075 0.070000
v -0.061816 0.134576 -0.070000
v -0.061816 0.134576 0.070000
v 0.236117 0.134576 -0.070000
v 0.236117 0.134576 0.070000
vt 0.319393 0.054122
vt 0.314413 0.039682
vt 0.319393 0.035539
vt 0.305440 0.035539
vt 0.305440 0.039682
vt 0.314413 0.042902
vt 0.314413 0.046484
vt 0.305702 0.042902
vt 0.305702 0.046484
vt 0.314413 0.049979
vt 0.305240 0.049978
vt 0.305240 0.054122
vt 0.301084 0.040518
vt 0.286644 0.035539
vt 0.305227 0.035539
vt 0.305227 0.049492
vt 0.301084 0.049492
vt 0.297864 0.040518
vt 0.294282 0.040518
vt 0.297864 0.049230
vt 0.294282 0.049230
vt 0.290787 0.040518
vt 0.290787 0.049692
vt 0.286644 0.049692
vt 0.290698 0.018258
vt 0.305700 0.010781
vt 0.306511 0.015893
vt 0.293608 0.022187
vt 0.329785 0.013964
vt 0.325591 0.018539
vt 0.329785 0.031822
vt 0.324998 0.028962
vt 0.323712 0.035435
vt 0.321642 0.029993
vt 0.311656 0.035526
vt 0.312357 0.031104
vt 0.308029 0.034013
vt 0.309965 0.028770
vt 0.300360 0.033809
vt 0.300832 0.030637
vt 0.297136 0.032719
vt 0.298671 0.028360
vt 0.289786 0.032489
vt 0.291038 0.029471
vt 0.286644 0.030533
vt 0.289370 0.028423
vt 0.287189 0.021939
vt 0.290739 0.024014
vn 0.000000 -0.000000 1.000000
vn 0.000000 0.000000 -1.000000
vn 0.707100 -0.707100 0.000000
vn -0.707100 -0.707100 0.000000
vn -0.707100 0.707100 0.000000
vn 0.707100 0.707100 0.000000
s off
f 2/1/1 6/2/1 3/3/1
f 6/2/1 4/4/1 3/3/1
f 6/2/1 5/5/1 4/4/1
f 2/1/1 7/6/1 6/2/1
f 2/1/1 10/7/1 7/6/1
f 10/7/1 8/8/1 7/6/1
f 10/7/1 9/9/1 8/8/1
f 2/1/1 11/10/1 10/7/1
f 2/1/1 12/11/1 11/10/1
f 2/1/1 1/12/1 12/11/1
f 18/13/2 14/14/2 15/15/2
f 16/16/2 18/13/2 15/15/2
f 17/17/2 18/13/2 16/16/2
f 19/18/2 14/14/2 18/13/2
f 22/19/2 14/14/2 19/18/2
f 20/20/2 22/19/2 19/18/2
f 21/21/2 22/19/2 20/20/2
f 23/22/2 14/14/2 22/19/2
f 24/23/2 14/14/2 23/22/2
f 13/24/2 14/14/2 24/23/2
s 1
f 26/25/3 28/26/4 27/27/4 25/28/3
f 28/26/4 30/29/5 29/30/5 27/27/4
f 30/29/5 32/31/6 31/32/6 29/30/5
f 32/31/6 34/33/3 33/34/3 31/32/6
f 34/33/3 36/35/3 35/36/3 33/34/3
f 36/35/3 38/37/6 37/38/6 35/36/3
f 38/37/6 40/39/6 39/40/6 37/38/6
f 40/39/6 42/41/3 41/42/3 39/40/6
f 42/41/3 44/43/3 43/44/3 41/42/3
f 44/43/3 46/45/6 45/46/6 43/44/3
f 46/45/6 48/47/6 47/48/6 45/46/6
f 48/47/6 26/25/3 25/28/3 47/48/6
