# Blender v2.76 (sub 0) OBJ File: 'plate.blend'
# www.blender.org
o Cube.009
v 0.750000 -0.400000 -0.750000
v 0.750000 -0.400000 0.750000
v -0.750000 -0.400000 0.750000
v -0.749999 -0.400000 -0.750000
v 0.750000 0.400000 -0.749999
v -0.750000 0.400000 -0.750000
v -0.750000 0.400000 0.749999
v 0.749999 0.400000 0.750000
vt 0.069336 0.000977
vt 0.135742 0.000977
vt 0.135742 0.067383
vt 0.069336 0.067383
vt 0.067383 0.000977
vt 0.067383 0.067383
vt 0.000977 0.067383
vt 0.000977 0.000977
vn 0.000000 -1.000000 -0.000000
vn -0.000000 1.000000 0.000000
vn 1.000000 0.000000 0.000000
vn -0.000000 0.000000 1.000000
vn -1.000000 -0.000000 -0.000000
vn 0.000000 0.000000 -1.000000
s off
f 1/1/1 2/2/1 3/3/1 4/4/1
f 5/5/2 6/6/2 7/7/2 8/8/2
f 1/3/3 5/4/3 8/1/3 2/2/3
f 2/4/4 8/1/4 7/2/4 3/3/4
f 3/3/5 7/4/5 6/1/5 4/2/5
f 5/1/6 1/2/6 4/3/6 6/4/6
