# Blender v2.76 (sub 0) OBJ File: ''
# www.blender.org
o Cube.019
v 0.750000 -0.407106 -0.750000
v 0.750000 -0.407106 0.750000
v -0.750000 -0.407106 0.750000
v -0.749999 -0.407106 -0.750000
v 0.631978 0.392894 -0.631977
v -0.631978 0.392894 -0.631978
v -0.631978 0.392894 0.631977
v 0.631977 0.392894 0.631978
v 0.631978 0.284000 -0.631977
v 0.631977 0.284000 0.631978
v -0.631978 0.284000 0.631977
v -0.631978 0.284000 -0.631978
v 0.750000 0.147710 -0.749999
v -0.750000 0.147710 -0.750000
v -0.605977 0.160208 -0.605977
v 0.605978 0.160208 -0.605977
v -0.510619 0.273469 0.510619
v 0.510619 0.273469 0.510619
v 0.749999 0.147710 0.750000
v 0.605977 0.160208 0.605978
v -0.750000 0.147710 0.749999
v -0.605978 0.160208 0.605977
v -0.510619 0.273469 -0.510619
v 0.510619 0.273469 -0.510619
vt 0.146048 0.014555
vt 0.188618 0.014555
vt 0.188618 0.056010
vt 0.146048 0.056010
vt 0.067383 0.137695
vt 0.067383 0.204102
vt 0.000977 0.204102
vt 0.000977 0.137695
vt 0.226877 0.040968
vt 0.226877 0.038110
vt 0.244576 0.038110
vt 0.244576 0.040968
vt 0.245535 0.226130
vt 0.248272 0.226130
vt 0.248272 0.243078
vt 0.245535 0.243078
vt 0.244156 0.178862
vt 0.241149 0.178862
vt 0.241149 0.160247
vt 0.244156 0.160247
vt 0.069336 0.067383
vt 0.069336 0.000977
vt 0.135742 0.000977
vt 0.135742 0.067383
vt 0.258260 0.052544
vt 0.255611 0.052544
vt 0.255611 0.036127
vt 0.258348 0.036127
vt 0.253364 0.019179
vt 0.253364 0.042903
vt 0.251146 0.040625
vt 0.251146 0.021457
vt 0.231740 0.281937
vt 0.231740 0.296206
vt 0.230333 0.294836
vt 0.230333 0.283307
vt 0.255597 0.021457
vt 0.255597 0.040625
vt 0.135742 0.206055
vt 0.135742 0.272461
vt 0.069336 0.272461
vt 0.069336 0.206055
vt 0.135742 0.137695
vt 0.135742 0.204102
vt 0.069336 0.204102
vt 0.069336 0.137695
vt 0.238395 0.031634
vt 0.238395 0.024071
vt 0.237688 0.024797
vt 0.237688 0.030908
vt 0.245351 0.311720
vt 0.241831 0.310217
vt 0.241831 0.294277
vt 0.245351 0.292789
vt 0.250436 0.314030
vt 0.246915 0.312542
vt 0.246915 0.296602
vt 0.250450 0.295114
vt 0.248125 0.019179
vt 0.244590 0.020667
vt 0.244590 0.036607
vt 0.248111 0.038095
vt 0.226388 0.033448
vt 0.226388 0.019179
vt 0.227795 0.020549
vt 0.227795 0.032078
vt 0.238889 0.042850
vt 0.238889 0.050412
vt 0.239601 0.049686
vt 0.239601 0.043576
vt 0.241041 0.019179
vt 0.239634 0.020549
vt 0.241041 0.033448
vt 0.239634 0.032078
vn 0.000000 -1.000000 -0.000000
vn -0.000000 1.000000 0.000000
vn 1.000000 0.000000 0.000000
vn -0.000000 0.000000 1.000000
vn -1.000000 0.000000 0.000000
vn 0.000000 0.000000 -1.000000
vn 0.000000 0.996300 -0.086500
vn -0.000000 -0.996300 0.086500
vn 0.086500 0.996300 0.000000
vn -0.086500 0.996300 0.000000
vn -0.765000 0.644100 -0.000000
vn -0.000000 0.644100 0.765000
vn 0.765000 0.644100 0.000000
vn 0.000000 0.644100 -0.765000
vn 0.000000 -0.996300 -0.086500
vn -0.000000 0.996300 0.086500
vn 0.086500 -0.996300 -0.000000
vn -0.086500 -0.996300 -0.000000
s 1
f 1/1/1 2/2/1 3/3/1 4/4/1
f 5/5/2 6/6/2 7/7/2 8/8/2
f 9/9/3 5/10/3 8/11/3 10/12/3
f 10/13/4 8/14/4 7/15/4 11/16/4
f 11/17/5 7/18/5 6/19/5 12/20/5
f 13/21/6 1/22/6 4/23/6 14/24/6
f 5/25/6 9/26/6 12/27/6 6/28/6
f 13/29/7 14/30/7 15/31/7 16/32/7
f 10/33/8 11/34/8 17/35/8 18/36/8
f 19/30/9 13/29/9 16/37/9 20/38/9
f 1/23/3 13/24/3 19/21/3 2/22/3
f 2/39/4 19/40/4 21/41/4 3/42/4
f 3/43/5 21/44/5 14/45/5 4/46/5
f 14/47/10 21/48/10 22/49/10 15/50/10
f 22/51/11 17/52/11 23/53/11 15/54/11
f 20/55/12 18/56/12 17/57/12 22/58/12
f 16/59/13 24/60/13 18/61/13 20/62/13
f 24/60/14 16/59/14 15/62/14 23/61/14
f 12/63/15 9/64/15 24/65/15 23/66/15
f 21/67/16 19/68/16 20/69/16 22/70/16
f 9/64/17 10/71/17 18/72/17 24/65/17
f 11/73/18 12/63/18 23/66/18 17/74/18
