# Blender v2.76 (sub 0) OBJ File: 'plate-type-trap.blend'
# www.blender.org
o Cube.018
v 0.750000 -0.400000 -0.750000
v 0.750000 -0.400000 0.750000
v -0.750000 -0.400000 0.750000
v -0.749999 -0.400000 -0.750000
v 0.750000 0.200000 -0.749999
v -0.749999 0.200000 -0.750000
v -0.750000 0.200000 0.749999
v 0.749999 0.200000 0.750000
vt 0.140853 0.004897
vt 0.199545 0.004897
vt 0.199545 0.063589
vt 0.140853 0.063589
vt 0.201078 0.004488
vt 0.201078 0.063871
vt 0.141695 0.063871
vt 0.141695 0.004488
vt 0.135742 0.000976
vt 0.135742 0.067382
vt 0.069336 0.067383
vt 0.069336 0.000976
vn 0.000000 -1.000000 -0.000000
vn -0.000000 1.000000 0.000000
vn 1.000000 0.000000 0.000000
vn -0.000000 0.000000 1.000000
vn -1.000000 -0.000000 -0.000000
vn 0.000000 0.000000 -1.000000
s off
f 1/1/1 2/2/1 3/3/1 4/4/1
f 5/5/2 6/6/2 7/7/2 8/8/2
f 1/9/3 5/10/3 8/11/3 2/12/3
f 2/9/4 8/10/4 7/11/4 3/12/4
f 3/9/5 7/10/5 6/11/5 4/12/5
f 5/11/6 1/12/6 4/9/6 6/10/6
