# Blender v2.76 (sub 0) OBJ File: ''
# www.blender.org
o Cube.014
v 0.750000 0.200030 -0.750000
v 0.750000 0.200030 0.750000
v -0.750000 0.200030 0.750000
v -0.750000 0.200030 -0.750000
v 0.750000 0.399970 -0.749999
v -0.750000 0.399970 -0.750000
v -0.750000 0.399970 0.749999
v 0.749999 0.399970 0.750000
vt 0.158708 0.022750
vt 0.191411 0.022750
vt 0.191411 0.055453
vt 0.158708 0.055453
vt 0.000977 0.000977
vt 0.067383 0.000977
vt 0.067383 0.067383
vt 0.000977 0.067383
vt 0.219941 0.225051
vt 0.252644 0.225051
vt 0.252644 0.257754
vt 0.219941 0.257754
vt 0.224591 0.155292
vt 0.257294 0.155292
vt 0.257294 0.187995
vt 0.224591 0.187995
vn 0.000000 -1.000000 -0.000000
vn -0.000000 1.000000 0.000000
vn 1.000000 0.000000 0.000000
vn -0.000000 0.000000 1.000000
vn -1.000000 0.000000 0.000000
vn 0.000000 0.000000 -1.000000
s 1
f 1/1/1 2/2/1 3/3/1 4/4/1
f 5/5/2 6/6/2 7/7/2 8/8/2
f 1/1/3 5/2/3 8/3/3 2/4/3
f 2/9/4 8/10/4 7/11/4 3/12/4
f 3/13/5 7/14/5 6/15/5 4/16/5
f 5/1/6 1/2/6 4/3/6 6/4/6
