# Blender v2.76 (sub 0) OBJ File: 'plate-down.blend'
# www.blender.org
o Cube.011
v -0.535714 -0.000000 0.535714
v -0.535714 -0.000000 0.750000
v -0.750000 -0.000000 0.750000
v -0.750000 -0.000000 0.535714
v -0.535714 0.400000 0.535714
v -0.750000 0.400000 0.535714
v -0.750000 0.400000 0.749999
v -0.535714 0.400000 0.749999
v 0.749999 0.266667 0.535714
v 0.749999 0.400000 0.535715
v 0.749999 0.400000 0.750000
v 0.749999 0.266667 0.750000
v -0.535714 0.266667 0.750000
v -0.750000 0.266667 0.749999
v -0.750000 0.266667 -0.535714
v -0.750000 0.400000 -0.535714
v -0.750000 0.400000 -0.750000
v -0.750000 0.266667 -0.750000
v -0.535714 0.133333 -0.750000
v -0.535714 0.000000 -0.750000
v -0.749999 0.000000 -0.750000
v -0.749999 0.133333 -0.750000
v 0.750000 0.133333 -0.749999
v 0.750000 0.000000 -0.750000
v 0.535714 0.000000 -0.750000
v 0.535714 0.133333 -0.750000
v 0.321428 0.000000 -0.750000
v 0.321429 0.133333 -0.750000
v 0.107143 0.000000 -0.750000
v 0.107143 0.133333 -0.750000
v -0.107143 0.000000 -0.750000
v -0.107143 0.133333 -0.750000
v -0.321428 0.000000 -0.750000
v -0.321428 0.133333 -0.750000
v 0.535714 0.400000 0.750000
v 0.535714 0.266667 0.750000
v 0.321428 0.400000 0.750000
v 0.321428 0.266667 0.750000
v 0.107142 0.400000 0.750000
v 0.107143 0.266667 0.750000
v -0.107143 0.400000 0.750000
v -0.107143 0.266667 0.750000
v -0.321429 0.400000 0.750000
v -0.321429 0.266667 0.750000
v 0.535714 0.400000 0.535714
v 0.321428 0.400000 0.535714
v 0.107142 0.400000 0.535714
v -0.107143 0.400000 0.535714
v -0.321429 0.400000 0.535714
v 0.750000 -0.000000 0.535714
v 0.750000 -0.000000 0.750000
v 0.535714 -0.000000 0.750000
v 0.535714 -0.000000 0.535714
v 0.321428 -0.000000 0.750000
v 0.321428 -0.000000 0.535714
v 0.107143 -0.000000 0.750000
v 0.107143 -0.000000 0.535714
v -0.107143 -0.000000 0.750000
v -0.107143 -0.000000 0.535714
v -0.321428 -0.000000 0.750000
v -0.321428 -0.000000 0.535714
v -0.321428 0.000000 -0.535714
v -0.535714 0.000000 -0.535714
v -0.321428 0.000000 -0.321429
v -0.535714 0.000000 -0.321429
v -0.321428 0.000000 -0.107143
v -0.535714 0.000000 -0.107143
v -0.321428 -0.000000 0.107143
v -0.535714 -0.000000 0.107143
v -0.321428 -0.000000 0.321428
v -0.535714 -0.000000 0.321428
v -0.107143 0.000000 -0.535714
v -0.107143 0.000000 -0.321429
v -0.107143 0.000000 -0.107143
v -0.107143 -0.000000 0.107143
v -0.107143 -0.000000 0.321428
v 0.107143 0.000000 -0.535714
v 0.107143 0.000000 -0.321429
v 0.107143 0.000000 -0.107143
v 0.107143 -0.000000 0.107143
v 0.107143 -0.000000 0.321428
v 0.321428 0.000000 -0.535714
v 0.321428 0.000000 -0.321428
v 0.321428 0.000000 -0.107143
v 0.321428 -0.000000 0.107143
v 0.321428 -0.000000 0.321428
v 0.535714 0.000000 -0.535714
v 0.535714 0.000000 -0.321428
v 0.535714 0.000000 -0.107143
v 0.535714 -0.000000 0.107143
v 0.535714 -0.000000 0.321428
v 0.750000 0.000000 -0.535714
v 0.750000 0.000000 -0.321428
v 0.750000 0.000000 -0.107143
v 0.750000 -0.000000 0.107143
v 0.750000 -0.000000 0.321428
v -0.321428 0.400000 -0.750000
v -0.535714 0.400000 -0.750000
v -0.535714 0.400000 -0.535714
v -0.321428 0.400000 -0.535714
v -0.535714 0.400000 -0.321428
v -0.321428 0.400000 -0.321428
v -0.535714 0.400000 -0.107143
v -0.321429 0.400000 -0.107143
v -0.535714 0.400000 0.107143
v -0.321429 0.400000 0.107143
v -0.535714 0.400000 0.321428
v -0.321429 0.400000 0.321428
v -0.107143 0.400000 -0.749999
v -0.107143 0.400000 -0.535714
v -0.107143 0.400000 -0.321428
v -0.107143 0.400000 -0.107143
v -0.107143 0.400000 0.107143
v -0.107143 0.400000 0.321429
v 0.107143 0.400000 -0.749999
v 0.107143 0.400000 -0.535714
v 0.107143 0.400000 -0.321428
v 0.107143 0.400000 -0.107143
v 0.107143 0.400000 0.107143
v 0.107143 0.400000 0.321429
v 0.321429 0.400000 -0.749999
v 0.321429 0.400000 -0.535714
v 0.321428 0.400000 -0.321428
v 0.321428 0.400000 -0.107142
v 0.321428 0.400000 0.107143
v 0.321428 0.400000 0.321429
v 0.535714 0.400000 -0.749999
v 0.535714 0.400000 -0.535714
v 0.535714 0.400000 -0.321428
v 0.535714 0.400000 -0.107142
v 0.535714 0.400000 0.107143
v 0.535714 0.400000 0.321429
v 0.750000 0.400000 -0.749999
v 0.750000 0.400000 -0.535714
v 0.750000 0.400000 -0.321428
v 0.750000 0.400000 -0.107142
v 0.750000 0.400000 0.107143
v 0.749999 0.400000 0.321429
v -0.750000 0.266667 0.535714
v -0.750000 0.400000 0.321428
v -0.750000 0.266667 0.321428
v -0.750000 0.400000 0.107143
v -0.750000 0.266667 0.107143
v -0.750000 0.400000 -0.107143
v -0.750000 0.266667 -0.107143
v -0.750000 0.400000 -0.321429
v -0.750000 0.266667 -0.321429
v 0.750000 0.266667 -0.749999
v 0.750000 0.266667 -0.535714
v 0.750000 0.266667 -0.321428
v 0.750000 0.266667 -0.107142
v 0.750000 0.266667 0.107143
v 0.749999 0.266667 0.321429
v -0.749999 0.000000 -0.535714
v -0.749999 0.000000 -0.321429
v -0.750000 0.000000 -0.107143
v -0.750000 -0.000000 0.107143
v -0.750000 -0.000000 0.321428
v 0.750000 0.133333 0.321429
v 0.750000 0.133333 0.535714
v 0.750000 0.133333 0.107143
v 0.750000 0.133333 -0.107143
v 0.750000 0.133333 -0.321428
v 0.750000 0.133333 -0.535714
v 0.428571 0.200000 -0.899999
v -0.750000 0.133333 -0.321429
v -0.749999 0.133333 -0.535714
v -0.750000 0.133333 -0.107143
v -0.750000 0.133333 0.107143
v -0.900000 0.200000 0.000000
v -0.750000 0.133333 0.321428
v -0.750000 0.133333 0.535714
v -0.750000 0.133333 0.749999
v -0.321429 0.133333 0.750000
v -0.535714 0.133333 0.750000
v -0.107143 0.133333 0.750000
v 0.107143 0.133333 0.750000
v 0.321428 0.133333 0.750000
v 0.535714 0.133333 0.750000
v 0.749999 0.133333 0.750000
v -0.321428 0.266667 -0.750000
v -0.535714 0.266667 -0.750000
v -0.107143 0.266667 -0.750000
v 0.107143 0.266667 -0.749999
v -0.900000 0.200000 -0.428571
v 0.321429 0.266667 -0.749999
v 0.535714 0.266667 -0.749999
v 0.900000 0.200000 -0.428571
v 0.900000 0.200000 0.000000
v -0.428571 0.200000 -0.900000
v 0.000000 0.200000 -0.900000
v -0.900000 0.200000 0.428571
v 0.000000 0.200000 0.900000
v 0.428571 0.200000 0.900000
v 0.899999 0.200000 0.428572
v -0.428571 0.200000 0.900000
vt 0.148859 0.056141
vt 0.148859 0.064857
vt 0.140143 0.064857
vt 0.140143 0.056141
vt 0.010162 0.009944
vt 0.000648 0.009944
vt 0.000648 0.000430
vt 0.010162 0.000430
vt 0.228850 0.014169
vt 0.228850 0.016955
vt 0.224372 0.016955
vt 0.224372 0.014169
vt 0.228850 0.030962
vt 0.228850 0.033748
vt 0.224372 0.033748
vt 0.224372 0.030962
vt 0.251239 0.019779
vt 0.251239 0.016993
vt 0.255717 0.016993
vt 0.255717 0.019779
vt 0.228850 0.039358
vt 0.228850 0.042144
vt 0.224372 0.042144
vt 0.224372 0.039358
vt 0.255717 0.039358
vt 0.255717 0.042144
vt 0.251239 0.042144
vt 0.251239 0.039358
vt 0.246761 0.042144
vt 0.246761 0.039358
vt 0.242283 0.042144
vt 0.242283 0.039358
vt 0.237806 0.042144
vt 0.237806 0.039358
vt 0.233328 0.042144
vt 0.233328 0.039358
vt 0.255717 0.030962
vt 0.255717 0.033748
vt 0.251239 0.033748
vt 0.251239 0.030962
vt 0.246761 0.033748
vt 0.246761 0.030962
vt 0.242283 0.033748
vt 0.242283 0.030962
vt 0.237806 0.033748
vt 0.237806 0.030962
vt 0.233328 0.033748
vt 0.233328 0.030962
vt 0.067251 0.009944
vt 0.057736 0.009944
vt 0.057736 0.000429
vt 0.067251 0.000429
vt 0.048221 0.009944
vt 0.048221 0.000429
vt 0.038706 0.009944
vt 0.038706 0.000429
vt 0.029192 0.009944
vt 0.029192 0.000429
vt 0.019677 0.009944
vt 0.019677 0.000429
vt 0.201156 0.056141
vt 0.201156 0.064857
vt 0.192440 0.064857
vt 0.192440 0.056141
vt 0.183724 0.064857
vt 0.183724 0.056141
vt 0.175007 0.064857
vt 0.175007 0.056141
vt 0.166291 0.064857
vt 0.166291 0.056141
vt 0.157575 0.064857
vt 0.157575 0.056141
vt 0.157575 0.003844
vt 0.157575 0.012560
vt 0.148859 0.012560
vt 0.148859 0.003844
vt 0.157575 0.021276
vt 0.148859 0.021276
vt 0.157575 0.029992
vt 0.148859 0.029992
vt 0.157575 0.038709
vt 0.148859 0.038709
vt 0.157575 0.047425
vt 0.148859 0.047425
vt 0.166291 0.003844
vt 0.166291 0.012560
vt 0.166291 0.021276
vt 0.166291 0.029992
vt 0.166291 0.038709
vt 0.166291 0.047425
vt 0.175007 0.003844
vt 0.175007 0.012560
vt 0.175007 0.021276
vt 0.175007 0.029992
vt 0.175007 0.038709
vt 0.175007 0.047425
vt 0.183724 0.003844
vt 0.183724 0.012560
vt 0.183724 0.021276
vt 0.183724 0.029992
vt 0.183724 0.038709
vt 0.183724 0.047425
vt 0.192440 0.003844
vt 0.192440 0.012560
vt 0.192440 0.021276
vt 0.192440 0.029992
vt 0.192440 0.038709
vt 0.192440 0.047425
vt 0.201156 0.003844
vt 0.201156 0.012560
vt 0.201156 0.021276
vt 0.201156 0.029992
vt 0.201156 0.038709
vt 0.201156 0.047425
vt 0.019677 0.067032
vt 0.010162 0.067032
vt 0.010162 0.057518
vt 0.019677 0.057518
vt 0.010162 0.048003
vt 0.019677 0.048003
vt 0.010162 0.038488
vt 0.019677 0.038488
vt 0.010162 0.028974
vt 0.019677 0.028974
vt 0.010162 0.019459
vt 0.019677 0.019459
vt 0.029192 0.067032
vt 0.029192 0.057518
vt 0.029192 0.048003
vt 0.029192 0.038488
vt 0.029192 0.028974
vt 0.029192 0.019459
vt 0.038706 0.067032
vt 0.038706 0.057518
vt 0.038706 0.048003
vt 0.038706 0.038488
vt 0.038706 0.028974
vt 0.038706 0.019459
vt 0.048221 0.067032
vt 0.048221 0.057518
vt 0.048221 0.048003
vt 0.048221 0.038488
vt 0.048221 0.028974
vt 0.048221 0.019459
vt 0.057736 0.067032
vt 0.057736 0.057518
vt 0.057736 0.048003
vt 0.057736 0.038488
vt 0.057736 0.028974
vt 0.057736 0.019459
vt 0.067251 0.067032
vt 0.067251 0.057518
vt 0.067251 0.048003
vt 0.067251 0.038488
vt 0.067251 0.028974
vt 0.067251 0.019459
vt 0.224372 0.019779
vt 0.228850 0.019779
vt 0.233328 0.016993
vt 0.233328 0.019779
vt 0.237806 0.016993
vt 0.237806 0.019779
vt 0.242283 0.016993
vt 0.242283 0.019779
vt 0.246761 0.016993
vt 0.246761 0.019779
vt 0.255717 0.014169
vt 0.251239 0.014169
vt 0.246761 0.014169
vt 0.242283 0.014169
vt 0.237806 0.014169
vt 0.233328 0.014169
vt 0.000648 0.067032
vt 0.000648 0.057518
vt 0.000648 0.048003
vt 0.000648 0.038488
vt 0.000648 0.028974
vt 0.000648 0.019459
vt 0.140143 0.012560
vt 0.140143 0.003844
vt 0.140143 0.021276
vt 0.140143 0.029992
vt 0.140143 0.038709
vt 0.140143 0.047425
vt 0.233328 0.008596
vt 0.233328 0.011383
vt 0.228850 0.011383
vt 0.228850 0.008596
vt 0.237806 0.008596
vt 0.237806 0.011383
vt 0.242283 0.008596
vt 0.242283 0.011383
vt 0.246761 0.008596
vt 0.246761 0.011383
vt 0.251239 0.008596
vt 0.251239 0.011383
vt 0.246895 0.048247
vt 0.246895 0.054274
vt 0.244731 0.051260
vt 0.255717 0.008596
vt 0.255717 0.011383
vt 0.246761 0.025352
vt 0.246761 0.022565
vt 0.251239 0.022565
vt 0.251239 0.025352
vt 0.242283 0.025352
vt 0.242283 0.022565
vt 0.237806 0.025352
vt 0.237806 0.022565
vt 0.234804 0.042182
vt 0.239133 0.042182
vt 0.236968 0.045196
vt 0.233328 0.025352
vt 0.233328 0.022565
vt 0.228850 0.025352
vt 0.228850 0.022565
vt 0.224372 0.025352
vt 0.224372 0.022565
vt 0.233328 0.028176
vt 0.228850 0.028176
vt 0.237806 0.028176
vt 0.242283 0.028176
vt 0.246761 0.028176
vt 0.251239 0.028176
vt 0.255717 0.025389
vt 0.255717 0.028176
vt 0.233328 0.033786
vt 0.233328 0.036572
vt 0.228850 0.036572
vt 0.228850 0.033786
vt 0.237806 0.033786
vt 0.237806 0.036572
vt 0.242283 0.033786
vt 0.242283 0.036572
vt 0.242528 0.048247
vt 0.242528 0.052576
vt 0.239515 0.050412
vt 0.246761 0.033786
vt 0.246761 0.036572
vt 0.251239 0.033786
vt 0.251239 0.036572
vt 0.255717 0.033786
vt 0.255717 0.036572
vt 0.224372 0.036572
vt 0.224372 0.033786
vt 0.255717 0.022565
vt 0.224372 0.028176
vt 0.224372 0.011383
vt 0.224372 0.008596
vt 0.230399 0.050916
vt 0.230399 0.055246
vt 0.227385 0.053081
vt 0.242566 0.048247
vt 0.224372 0.055246
vt 0.242566 0.054274
vt 0.230437 0.052614
vt 0.236464 0.052614
vt 0.233450 0.054779
vt 0.224372 0.050916
vt 0.236464 0.056943
vt 0.230437 0.056943
vt 0.236501 0.048247
vt 0.224372 0.059613
vt 0.224372 0.055283
vt 0.227385 0.057448
vt 0.230399 0.059613
vt 0.230399 0.046512
vt 0.224372 0.046512
vt 0.227385 0.044347
vt 0.224372 0.042182
vt 0.230399 0.055283
vt 0.230399 0.042182
vt 0.234804 0.048209
vt 0.230437 0.048209
vt 0.232601 0.045196
vt 0.239133 0.048209
vt 0.227385 0.048714
vt 0.233450 0.050412
vt 0.236464 0.061310
vt 0.230437 0.061310
vt 0.233450 0.059146
vt 0.236464 0.056981
vt 0.230437 0.056981
vt 0.245198 0.046512
vt 0.239171 0.046512
vt 0.242184 0.044347
vt 0.239171 0.042182
vt 0.245198 0.042182
vn 0.000000 -1.000000 -0.000000
vn 0.000000 1.000000 0.000000
vn 1.000000 0.000000 0.000000
vn -0.000000 0.000000 1.000000
vn -1.000000 0.000000 0.000000
vn 0.000000 0.000000 -1.000000
vn 0.000000 -0.913800 -0.406100
vn -0.581200 0.000000 -0.813700
vn 0.581200 0.000000 -0.813700
vn 0.813700 0.000000 -0.581200
vn 0.406100 0.913800 0.000000
vn 0.000000 0.913800 -0.406100
vn 0.406100 -0.913800 -0.000000
vn -0.813700 0.000000 -0.581200
vn 0.581200 -0.000000 0.813700
vn -0.406100 0.913800 0.000000
vn -0.406100 -0.913800 -0.000000
vn -0.581200 0.000000 0.813700
vn 0.000000 -0.913800 0.406100
vn -0.813700 -0.000000 0.581200
vn 0.813700 0.000000 0.581200
vn 0.000000 0.913800 0.406100
s off
f 1/1/1 2/2/1 3/3/1 4/4/1
f 5/5/2 6/6/2 7/7/2 8/8/2
f 9/9/3 10/10/3 11/11/3 12/12/3
f 13/13/4 8/14/4 7/15/4 14/16/4
f 15/17/5 16/18/5 17/19/5 18/20/5
f 19/21/6 20/22/6 21/23/6 22/24/6
f 23/25/6 24/26/6 25/27/6 26/28/6
f 26/28/6 25/27/6 27/29/6 28/30/6
f 28/30/6 27/29/6 29/31/6 30/32/6
f 30/32/6 29/31/6 31/33/6 32/34/6
f 32/34/6 31/33/6 33/35/6 34/36/6
f 34/36/6 33/35/6 20/22/6 19/21/6
f 12/37/4 11/38/4 35/39/4 36/40/4
f 36/40/4 35/39/4 37/41/4 38/42/4
f 38/42/4 37/41/4 39/43/4 40/44/4
f 40/44/4 39/43/4 41/45/4 42/46/4
f 42/46/4 41/45/4 43/47/4 44/48/4
f 44/48/4 43/47/4 8/14/4 13/13/4
f 10/49/2 45/50/2 35/51/2 11/52/2
f 45/50/2 46/53/2 37/54/2 35/51/2
f 46/53/2 47/55/2 39/56/2 37/54/2
f 47/55/2 48/57/2 41/58/2 39/56/2
f 48/57/2 49/59/2 43/60/2 41/58/2
f 49/59/2 5/5/2 8/8/2 43/60/2
f 50/61/1 51/62/1 52/63/1 53/64/1
f 53/64/1 52/63/1 54/65/1 55/66/1
f 55/66/1 54/65/1 56/67/1 57/68/1
f 57/68/1 56/67/1 58/69/1 59/70/1
f 59/70/1 58/69/1 60/71/1 61/72/1
f 61/72/1 60/71/1 2/2/1 1/1/1
f 33/73/1 62/74/1 63/75/1 20/76/1
f 62/74/1 64/77/1 65/78/1 63/75/1
f 64/77/1 66/79/1 67/80/1 65/78/1
f 66/79/1 68/81/1 69/82/1 67/80/1
f 68/81/1 70/83/1 71/84/1 69/82/1
f 70/83/1 61/72/1 1/1/1 71/84/1
f 31/85/1 72/86/1 62/74/1 33/73/1
f 72/86/1 73/87/1 64/77/1 62/74/1
f 73/87/1 74/88/1 66/79/1 64/77/1
f 74/88/1 75/89/1 68/81/1 66/79/1
f 75/89/1 76/90/1 70/83/1 68/81/1
f 76/90/1 59/70/1 61/72/1 70/83/1
f 29/91/1 77/92/1 72/86/1 31/85/1
f 77/92/1 78/93/1 73/87/1 72/86/1
f 78/93/1 79/94/1 74/88/1 73/87/1
f 79/94/1 80/95/1 75/89/1 74/88/1
f 80/95/1 81/96/1 76/90/1 75/89/1
f 81/96/1 57/68/1 59/70/1 76/90/1
f 27/97/1 82/98/1 77/92/1 29/91/1
f 82/98/1 83/99/1 78/93/1 77/92/1
f 83/99/1 84/100/1 79/94/1 78/93/1
f 84/100/1 85/101/1 80/95/1 79/94/1
f 85/101/1 86/102/1 81/96/1 80/95/1
f 86/102/1 55/66/1 57/68/1 81/96/1
f 25/103/1 87/104/1 82/98/1 27/97/1
f 87/104/1 88/105/1 83/99/1 82/98/1
f 88/105/1 89/106/1 84/100/1 83/99/1
f 89/106/1 90/107/1 85/101/1 84/100/1
f 90/107/1 91/108/1 86/102/1 85/101/1
f 91/108/1 53/64/1 55/66/1 86/102/1
f 24/109/1 92/110/1 87/104/1 25/103/1
f 92/110/1 93/111/1 88/105/1 87/104/1
f 93/111/1 94/112/1 89/106/1 88/105/1
f 94/112/1 95/113/1 90/107/1 89/106/1
f 95/113/1 96/114/1 91/108/1 90/107/1
f 96/114/1 50/61/1 53/64/1 91/108/1
f 97/115/2 98/116/2 99/117/2 100/118/2
f 100/118/2 99/117/2 101/119/2 102/120/2
f 102/120/2 101/119/2 103/121/2 104/122/2
f 104/122/2 103/121/2 105/123/2 106/124/2
f 106/124/2 105/123/2 107/125/2 108/126/2
f 108/126/2 107/125/2 5/5/2 49/59/2
f 109/127/2 97/115/2 100/118/2 110/128/2
f 110/128/2 100/118/2 102/120/2 111/129/2
f 111/129/2 102/120/2 104/122/2 112/130/2
f 112/130/2 104/122/2 106/124/2 113/131/2
f 113/131/2 106/124/2 108/126/2 114/132/2
f 114/132/2 108/126/2 49/59/2 48/57/2
f 115/133/2 109/127/2 110/128/2 116/134/2
f 116/134/2 110/128/2 111/129/2 117/135/2
f 117/135/2 111/129/2 112/130/2 118/136/2
f 118/136/2 112/130/2 113/131/2 119/137/2
f 119/137/2 113/131/2 114/132/2 120/138/2
f 120/138/2 114/132/2 48/57/2 47/55/2
f 121/139/2 115/133/2 116/134/2 122/140/2
f 122/140/2 116/134/2 117/135/2 123/141/2
f 123/141/2 117/135/2 118/136/2 124/142/2
f 124/142/2 118/136/2 119/137/2 125/143/2
f 125/143/2 119/137/2 120/138/2 126/144/2
f 126/144/2 120/138/2 47/55/2 46/53/2
f 127/145/2 121/139/2 122/140/2 128/146/2
f 128/146/2 122/140/2 123/141/2 129/147/2
f 129/147/2 123/141/2 124/142/2 130/148/2
f 130/148/2 124/142/2 125/143/2 131/149/2
f 131/149/2 125/143/2 126/144/2 132/150/2
f 132/150/2 126/144/2 46/53/2 45/50/2
f 133/151/2 127/145/2 128/146/2 134/152/2
f 134/152/2 128/146/2 129/147/2 135/153/2
f 135/153/2 129/147/2 130/148/2 136/154/2
f 136/154/2 130/148/2 131/149/2 137/155/2
f 137/155/2 131/149/2 132/150/2 138/156/2
f 138/156/2 132/150/2 45/50/2 10/49/2
f 14/157/5 7/11/5 6/10/5 139/158/5
f 139/158/5 6/10/5 140/159/5 141/160/5
f 141/160/5 140/159/5 142/161/5 143/162/5
f 143/162/5 142/161/5 144/163/5 145/164/5
f 145/164/5 144/163/5 146/165/5 147/166/5
f 147/166/5 146/165/5 16/18/5 15/17/5
f 148/167/3 133/19/3 134/18/3 149/168/3
f 149/168/3 134/18/3 135/165/3 150/169/3
f 150/169/3 135/165/3 136/163/3 151/170/3
f 151/170/3 136/163/3 137/161/3 152/171/3
f 152/171/3 137/161/3 138/159/3 153/172/3
f 153/172/3 138/159/3 10/10/3 9/9/3
f 98/116/2 17/173/2 16/174/2 99/117/2
f 99/117/2 16/174/2 146/175/2 101/119/2
f 101/119/2 146/175/2 144/176/2 103/121/2
f 103/121/2 144/176/2 142/177/2 105/123/2
f 105/123/2 142/177/2 140/178/2 107/125/2
f 107/125/2 140/178/2 6/6/2 5/5/2
f 20/76/1 63/75/1 154/179/1 21/180/1
f 63/75/1 65/78/1 155/181/1 154/179/1
f 65/78/1 67/80/1 156/182/1 155/181/1
f 67/80/1 69/82/1 157/183/1 156/182/1
f 69/82/1 71/84/1 158/184/1 157/183/1
f 71/84/1 1/1/1 4/4/1 158/184/1
f 96/185/3 159/186/3 160/187/3 50/188/3
f 95/189/3 161/190/3 159/186/3 96/185/3
f 161/190/3 152/171/3 153/172/3 159/186/3
f 94/191/3 162/192/3 161/190/3 95/189/3
f 93/193/3 163/194/3 162/192/3 94/191/3
f 163/194/3 150/169/3 151/170/3 162/192/3
f 92/195/3 164/196/3 163/194/3 93/193/3
f 26/197/7 28/198/7 165/199/7
f 24/200/3 23/201/3 164/196/3 92/195/3
f 23/201/3 148/167/3 149/168/3 164/196/3
f 155/202/5 166/203/5 167/204/5 154/205/5
f 156/206/5 168/207/5 166/203/5 155/202/5
f 168/207/5 145/164/5 147/166/5 166/203/5
f 157/208/5 169/209/5 168/207/5 156/206/5
f 145/210/8 168/211/8 170/212/8
f 158/213/5 171/214/5 169/209/5 157/208/5
f 171/214/5 141/160/5 143/162/5 169/209/5
f 4/215/5 172/216/5 171/214/5 158/213/5
f 3/217/5 173/218/5 172/216/5 4/215/5
f 173/218/5 14/157/5 139/158/5 172/216/5
f 60/213/4 174/219/4 175/220/4 2/215/4
f 58/208/4 176/221/4 174/219/4 60/213/4
f 176/221/4 42/46/4 44/48/4 174/219/4
f 56/206/4 177/222/4 176/221/4 58/208/4
f 54/202/4 178/223/4 177/222/4 56/206/4
f 178/223/4 38/42/4 40/44/4 177/222/4
f 52/205/4 179/224/4 178/223/4 54/202/4
f 51/225/4 180/226/4 179/224/4 52/205/4
f 180/226/4 12/37/4 36/40/4 179/224/4
f 97/227/6 181/228/6 182/229/6 98/230/6
f 109/231/6 183/232/6 181/228/6 97/227/6
f 183/232/6 32/34/6 34/36/6 181/228/6
f 115/233/6 184/234/6 183/232/6 109/231/6
f 15/235/8 167/236/8 185/237/8
f 121/238/6 186/239/6 184/234/6 115/233/6
f 186/239/6 28/30/6 30/32/6 184/234/6
f 127/240/6 187/241/6 186/239/6 121/238/6
f 133/242/6 148/243/6 187/241/6 127/240/6
f 148/243/6 23/25/6 26/28/6 187/241/6
f 98/230/6 182/229/6 18/244/6 17/245/6
f 182/229/6 19/21/6 22/24/6 18/244/6
f 154/205/5 167/204/5 22/246/5 21/225/5
f 167/204/5 15/17/5 18/20/5 22/246/5
f 2/215/4 175/220/4 173/247/4 3/217/4
f 175/220/4 13/13/4 14/16/4 173/247/4
f 50/188/3 160/187/3 180/248/3 51/249/3
f 160/187/3 9/9/3 12/12/3 180/248/3
f 164/250/9 149/251/9 188/252/9
f 187/253/10 26/197/10 165/199/10
f 149/251/11 150/254/11 188/252/11
f 186/255/12 187/253/12 165/199/12
f 161/256/13 162/257/13 189/258/13
f 28/198/14 186/255/14 165/199/14
f 163/259/13 164/250/13 188/252/13
f 162/257/9 151/260/9 189/258/9
f 152/261/15 161/256/15 189/258/15
f 150/254/15 163/259/15 188/252/15
f 151/260/11 152/261/11 189/258/11
f 147/262/16 15/235/16 185/237/16
f 19/263/14 182/264/14 190/265/14
f 34/266/7 19/263/7 190/265/7
f 30/267/7 32/268/7 191/269/7
f 167/236/17 166/257/17 185/237/17
f 32/268/14 183/270/14 191/269/14
f 181/271/10 34/266/10 190/265/10
f 182/264/12 181/271/12 190/265/12
f 166/257/18 147/262/18 185/237/18
f 183/270/12 184/272/12 191/269/12
f 184/272/10 30/267/10 191/269/10
f 143/273/16 145/210/16 170/212/16
f 172/273/18 139/274/18 192/275/18
f 139/274/16 141/272/16 192/275/16
f 168/211/17 169/276/17 170/212/17
f 171/210/17 172/273/17 192/275/17
f 141/272/8 171/210/8 192/275/8
f 169/276/18 143/273/18 170/212/18
f 176/268/19 177/267/19 193/277/19
f 38/256/20 178/274/20 194/278/20
f 153/279/11 9/280/11 195/281/11
f 179/262/21 36/257/21 194/278/21
f 177/267/21 40/250/21 193/277/21
f 159/282/9 153/279/9 195/281/9
f 160/283/13 159/282/13 195/281/13
f 36/257/22 38/256/22 194/278/22
f 40/250/22 42/259/22 193/277/22
f 42/259/20 176/268/20 193/277/20
f 178/274/19 179/262/19 194/278/19
f 9/280/15 160/283/15 195/281/15
f 44/284/22 13/285/22 196/286/22
f 13/285/20 175/287/20 196/286/20
f 175/287/19 174/288/19 196/286/19
f 174/288/21 44/284/21 196/286/21
