# Blender v2.76 (sub 0) OBJ File: 'plate-type-saw.blend'
# www.blender.org
o Cube.015
v -0.750000 0.400000 2.249998
v -0.750000 0.400000 -2.249999
v -0.749999 -0.400000 -2.250000
v -0.750000 -0.400000 2.249999
v 0.750000 0.400000 -2.249998
v 0.749999 0.400000 2.250000
v 0.750000 -0.400000 2.249999
v 0.750000 -0.400000 -2.249999
v -0.450000 0.400000 2.050000
v -0.450000 0.400000 -2.050000
v -0.450000 0.400000 -2.249999
v -0.450000 0.400000 2.249999
v -0.450000 -0.400000 2.050000
v -0.450000 -0.400000 -2.050000
v -0.450000 -0.400000 2.249999
v -0.450000 -0.400000 -2.250000
v -0.150000 0.400000 2.050000
v -0.150000 -0.400000 2.050000
v 0.150000 -0.400000 -2.050000
v 0.150000 -0.400000 2.050000
v -0.150000 -0.400000 -2.050000
v -0.150000 0.400000 -2.050000
v 0.450000 -0.400000 2.050000
v 0.449999 0.400000 2.050001
v 0.450000 0.400000 -2.049999
v 0.450000 -0.400000 -2.050000
v 0.150000 0.400000 -2.049999
v 0.150000 0.400000 2.050000
v 0.450000 -0.400000 2.249999
v 0.450000 -0.400000 -2.249999
v 0.150000 -0.400000 -2.249999
v -0.150000 -0.400000 -2.249999
v 0.450000 0.400000 -2.249998
v 0.449999 0.400000 2.250000
v 0.150000 0.400000 -2.249998
v -0.150000 0.400000 -2.249998
v 0.150000 0.400000 2.250000
v -0.150000 0.400000 2.249999
v -0.150000 -0.400000 2.249999
v 0.150000 -0.400000 2.249999
vt 0.819336 0.067383
vt 0.342773 0.067383
vt 0.342773 0.000977
vt 0.819336 0.000977
vt 0.263400 0.045635
vt 0.263400 0.016680
vt 0.263400 0.015267
vt 0.265681 0.015267
vt 0.265681 0.047047
vt 0.263400 0.047047
vt 0.188390 0.032196
vt 0.159435 0.032196
vt 0.158023 0.032196
vt 0.158023 0.029916
vt 0.189803 0.029916
vt 0.189803 0.032196
vt 0.117105 0.067383
vt 0.086832 0.067383
vt 0.086832 0.000977
vt 0.117105 0.000977
vt 0.188390 0.036758
vt 0.159435 0.036758
vt 0.159435 0.034477
vt 0.188390 0.034477
vt 0.189803 0.041320
vt 0.158023 0.041320
vt 0.158023 0.039039
vt 0.159435 0.039039
vt 0.188390 0.039039
vt 0.189803 0.039039
vt 0.189803 0.036758
vt 0.189803 0.034477
vt 0.261119 0.016680
vt 0.261119 0.045635
vt 0.258839 0.045635
vt 0.258839 0.016680
vt 0.254277 0.015267
vt 0.256558 0.015267
vt 0.256558 0.016680
vt 0.256558 0.045635
vt 0.256558 0.047047
vt 0.254277 0.047047
vt 0.258839 0.015267
vt 0.261119 0.015267
vt 0.370761 0.069336
vt 0.397136 0.069336
vt 0.423510 0.069336
vt 0.449885 0.069336
vt 0.477539 0.069336
vt 0.477539 0.135742
vt 0.449885 0.135742
vt 0.423510 0.135742
vt 0.397136 0.135742
vt 0.370761 0.135742
vt 0.342773 0.135742
vt 0.342773 0.069336
vt 0.258839 0.047047
vt 0.261119 0.047047
vt 0.158023 0.036758
vt 0.158023 0.034477
vn -1.000000 -0.000000 -0.000000
vn 1.000000 0.000000 0.000000
vn -0.000000 1.000000 0.000000
vn 0.000000 -1.000000 -0.000000
vn 0.000000 0.000000 -1.000000
vn 0.000000 -0.000000 1.000000
s off
f 1/1/1 2/2/1 3/3/1 4/4/1
f 5/1/2 6/2/2 7/3/2 8/4/2
f 9/5/3 10/6/3 11/7/3 2/8/3 1/9/3 12/10/3
f 13/3/2 14/4/2 10/1/2 9/2/2
f 14/11/4 13/12/4 15/13/4 4/14/4 3/15/4 16/16/4
f 9/17/5 17/18/5 18/19/5 13/20/5
f 19/21/4 20/22/4 18/23/4 21/24/4
f 18/4/1 17/1/1 22/2/1 21/3/1
f 23/4/1 24/1/1 25/2/1 26/3/1
f 27/18/6 19/19/6 26/20/6 25/17/6
f 20/3/2 19/4/2 27/1/2 28/2/2
f 28/17/5 24/18/5 23/19/5 20/20/5
f 8/25/4 7/26/4 29/27/4 23/28/4 26/29/4 30/30/4
f 30/30/4 26/29/4 19/21/4 31/31/4
f 31/31/4 19/21/4 21/24/4 32/32/4
f 32/32/4 21/24/4 14/11/4 16/16/4
f 10/18/6 14/19/6 21/20/6 22/17/6
f 22/33/3 17/34/3 28/35/3 27/36/3
f 5/37/3 33/38/3 25/39/3 24/40/3 34/41/3 6/42/3
f 33/38/3 35/43/3 27/36/3 25/39/3
f 35/43/3 36/44/3 22/33/3 27/36/3
f 36/44/3 11/7/3 10/6/3 22/33/3
f 30/45/5 31/46/5 32/47/5 16/48/5 3/49/5 2/50/5 11/51/5 36/52/5 35/53/5 33/54/5 5/55/5 8/56/5
f 34/51/6 37/52/6 38/53/6 12/54/6 1/55/6 4/56/6 15/45/6 39/46/6 40/47/6 29/48/6 7/49/6 6/50/6
f 24/40/3 28/35/3 37/57/3 34/41/3
f 28/35/3 17/34/3 38/58/3 37/57/3
f 17/34/3 9/5/3 12/10/3 38/58/3
f 23/28/4 29/27/4 40/59/4 20/22/4
f 20/22/4 40/59/4 39/60/4 18/23/4
f 18/23/4 39/60/4 15/13/4 13/12/4
