# Blender v2.76 (sub 0) OBJ File: 'plate-type-spikes.blend'
# www.blender.org
o Cube.016
v -0.562500 -0.400000 0.562500
v -0.562500 -0.400000 0.750000
v -0.750000 -0.400000 0.750000
v -0.750000 -0.400000 0.562500
v -0.562500 0.400000 0.562500
v -0.750000 0.400000 0.562500
v -0.750000 0.400000 0.749999
v -0.562500 0.400000 0.749999
v 0.750000 -0.400000 -0.750000
v 0.750000 0.400000 -0.749999
v 0.750000 0.400000 -0.562499
v 0.750000 0.400000 -0.374999
v 0.750000 0.400000 -0.187500
v 0.750000 0.400000 0.000000
v 0.749999 0.400000 0.187500
v 0.749999 0.400000 0.375000
v 0.749999 0.400000 0.562500
v 0.749999 0.400000 0.750000
v 0.750000 -0.400000 0.750000
v 0.750000 -0.400000 0.562500
v 0.750000 -0.400000 0.375000
v 0.750000 -0.400000 0.187500
v 0.750000 -0.400000 -0.000000
v 0.750000 -0.400000 -0.187500
v 0.750000 -0.400000 -0.375000
v 0.750000 -0.400000 -0.562500
v -0.750000 0.400000 0.375000
v -0.750000 0.400000 0.187500
v -0.750000 0.400000 0.000000
v -0.750000 0.400000 -0.187500
v -0.750000 0.400000 -0.375000
v -0.750000 0.400000 -0.562500
v -0.750000 0.400000 -0.750000
v -0.749999 -0.400000 -0.750000
v -0.749999 -0.400000 -0.562500
v -0.749999 -0.400000 -0.375000
v -0.750000 -0.400000 -0.187500
v -0.750000 -0.400000 -0.000000
v -0.750000 -0.400000 0.187500
v -0.750000 -0.400000 0.375000
v 0.562500 -0.400000 -0.750000
v 0.375000 -0.400000 -0.750000
v 0.187500 -0.400000 -0.750000
v 0.000000 -0.400000 -0.750000
v -0.187500 -0.400000 -0.750000
v -0.375000 -0.400000 -0.750000
v -0.562500 -0.400000 -0.750000
v -0.562500 0.400000 -0.750000
v -0.375000 0.400000 -0.750000
v -0.187500 0.400000 -0.750000
v 0.000000 0.400000 -0.749999
v 0.187500 0.400000 -0.749999
v 0.375000 0.400000 -0.749999
v 0.562500 0.400000 -0.749999
v 0.187500 0.400000 0.562500
v 0.000000 0.400000 0.562500
v 0.000000 0.400000 0.750000
v 0.187499 0.400000 0.750000
v 0.187500 0.400000 -0.187500
v 0.000000 0.400000 -0.187500
v 0.000000 0.400000 0.000000
v 0.187500 0.400000 0.000000
v -0.562500 0.400000 -0.187500
v -0.562500 0.400000 0.000000
v -0.187500 0.400000 -0.187500
v -0.375000 0.400000 -0.187500
v -0.375000 0.400000 0.000000
v -0.187500 0.400000 0.000000
v -0.562500 -0.400000 -0.375000
v -0.562500 -0.400000 -0.187500
v -0.562500 0.400000 -0.562500
v -0.562500 0.400000 -0.375000
v 0.562500 0.400000 -0.187500
v 0.375000 0.400000 -0.187500
v 0.375000 0.400000 0.000000
v 0.562500 0.400000 0.000000
v -0.187500 -0.400000 0.562500
v -0.187500 -0.400000 0.750000
v -0.375000 -0.400000 0.750000
v -0.375000 -0.400000 0.562500
v 0.187500 0.400000 -0.562500
v 0.000000 0.400000 -0.562500
v 0.000000 0.400000 -0.375000
v 0.187500 0.400000 -0.375000
v 0.562499 0.400000 0.562500
v 0.374999 0.400000 0.562500
v 0.374999 0.400000 0.750000
v 0.562499 0.400000 0.750000
v 0.187500 0.400000 0.187500
v 0.000000 0.400000 0.187500
v 0.000000 0.400000 0.375000
v 0.187500 0.400000 0.375000
v -0.187500 0.400000 0.562500
v -0.375000 0.400000 0.562500
v -0.375000 0.400000 0.750000
v -0.187500 0.400000 0.750000
v -0.562500 -0.400000 0.187500
v -0.562500 -0.400000 0.375000
v -0.562500 0.400000 0.187500
v -0.562500 0.400000 0.375000
v 0.562500 -0.400000 0.562500
v 0.562500 -0.400000 0.750000
v 0.375000 -0.400000 0.750000
v 0.375000 -0.400000 0.562500
v -0.375000 0.400000 0.187500
v -0.187500 0.400000 0.187500
v -0.187500 0.400000 0.375000
v 0.187500 -0.400000 0.187500
v 0.187500 -0.400000 0.375000
v 0.000000 -0.400000 0.375000
v 0.000000 -0.400000 0.187500
v 0.375000 0.400000 0.187500
v 0.562500 0.400000 0.187500
v 0.562499 0.400000 0.375000
v 0.562500 -0.400000 -0.187500
v 0.562500 -0.400000 -0.000000
v 0.375000 -0.400000 -0.000000
v 0.375000 -0.400000 -0.187500
v 0.375000 0.400000 -0.562499
v 0.562500 0.400000 -0.562499
v 0.562500 0.400000 -0.374999
v 0.187500 -0.400000 -0.562500
v 0.187500 -0.400000 -0.375000
v 0.000000 -0.400000 -0.375000
v 0.000000 -0.400000 -0.562500
v -0.187500 -0.400000 -0.187500
v -0.187500 -0.400000 -0.000000
v -0.375000 -0.400000 -0.000000
v -0.375000 -0.400000 -0.187500
v -0.375000 0.400000 -0.562500
v -0.187500 0.400000 -0.562500
v -0.187500 0.400000 -0.375000
v -0.562500 -0.400000 -0.562500
v 0.187500 -0.400000 0.562500
v 0.187500 -0.400000 0.750000
v 0.000000 -0.400000 0.750000
v 0.000000 -0.400000 0.562500
v 0.187500 -0.400000 -0.187500
v 0.187500 -0.400000 -0.000000
v 0.000000 -0.400000 -0.000000
v 0.000000 -0.400000 -0.187500
v -0.562500 -0.400000 -0.000000
v -0.375000 -0.400000 -0.562500
v -0.187500 -0.400000 -0.562500
v -0.187500 -0.400000 -0.375000
v 0.375000 -0.400000 -0.562500
v 0.562500 -0.400000 -0.562500
v 0.562500 -0.400000 -0.375000
v 0.375000 -0.400000 0.187500
v 0.562500 -0.400000 0.187500
v 0.562500 -0.400000 0.375000
v -0.375000 -0.400000 0.187500
v -0.187500 -0.400000 0.187500
v -0.187500 -0.400000 0.375000
vt 0.216995 0.035449
vt 0.213653 0.035449
vt 0.213653 0.032224
vt 0.216995 0.032224
vt 0.216995 0.028958
vt 0.213653 0.028958
vt 0.135742 0.000976
vt 0.135742 0.067383
vt 0.121826 0.067383
vt 0.115212 0.067383
vt 0.108598 0.067383
vt 0.101985 0.067383
vt 0.095371 0.067383
vt 0.088757 0.067383
vt 0.082143 0.067383
vt 0.069336 0.067383
vt 0.069336 0.000976
vt 0.082143 0.000976
vt 0.088757 0.000976
vt 0.095371 0.000976
vt 0.101985 0.000976
vt 0.108599 0.000976
vt 0.115212 0.000976
vt 0.121826 0.000976
vt 0.216995 0.016057
vt 0.216995 0.019282
vt 0.213653 0.019282
vt 0.213653 0.016057
vt 0.230362 0.016057
vt 0.230362 0.019282
vt 0.227020 0.019282
vt 0.227020 0.016057
vt 0.230362 0.028958
vt 0.230362 0.032183
vt 0.227020 0.032183
vt 0.227020 0.028958
vt 0.230362 0.022507
vt 0.230362 0.025732
vt 0.227020 0.025732
vt 0.227020 0.022507
vt 0.233704 0.035449
vt 0.230362 0.035449
vt 0.233704 0.032224
vt 0.237045 0.028958
vt 0.237045 0.032183
vt 0.233704 0.028958
vt 0.230362 0.009607
vt 0.230362 0.012832
vt 0.227020 0.012832
vt 0.227020 0.009607
vt 0.216995 0.041899
vt 0.213653 0.041899
vt 0.213653 0.038674
vt 0.216995 0.038674
vt 0.237045 0.016057
vt 0.237045 0.019282
vt 0.233704 0.019282
vt 0.233704 0.016057
vt 0.216995 0.009607
vt 0.216995 0.012832
vt 0.213653 0.012832
vt 0.213653 0.009607
vt 0.223678 0.016057
vt 0.223678 0.019282
vt 0.220337 0.019282
vt 0.220337 0.016057
vt 0.216995 0.022507
vt 0.216995 0.025732
vt 0.213653 0.025732
vt 0.213653 0.022507
vt 0.223678 0.035449
vt 0.220337 0.035449
vt 0.220337 0.032224
vt 0.223678 0.032224
vt 0.223678 0.028958
vt 0.220337 0.028958
vt 0.216995 0.054800
vt 0.213653 0.054800
vt 0.213653 0.051575
vt 0.216995 0.051575
vt 0.223678 0.025732
vt 0.223678 0.022507
vt 0.220337 0.022507
vt 0.223678 0.048350
vt 0.220337 0.048350
vt 0.220337 0.045125
vt 0.223678 0.045125
vt 0.223678 0.012832
vt 0.223678 0.006382
vt 0.223678 0.009607
vt 0.220337 0.009607
vt 0.220337 0.006382
vt 0.227020 0.006382
vt 0.216995 0.006382
vt 0.213653 0.006382
vt 0.230362 0.054800
vt 0.227020 0.054800
vt 0.227020 0.051575
vt 0.230362 0.051575
vt 0.240387 0.012832
vt 0.240387 0.016057
vt 0.237045 0.012832
vt 0.240387 0.019282
vt 0.237045 0.006382
vt 0.237045 0.009607
vt 0.233704 0.009607
vt 0.233704 0.006382
vt 0.240387 0.006382
vt 0.240387 0.009607
vt 0.230362 0.006382
vt 0.237045 0.048350
vt 0.233704 0.048350
vt 0.233704 0.045125
vt 0.237045 0.045125
vt 0.230362 0.041899
vt 0.227020 0.041899
vt 0.227020 0.038674
vt 0.230362 0.038674
vt 0.240387 0.025732
vt 0.240387 0.028958
vt 0.237045 0.025732
vt 0.240387 0.032183
vt 0.237045 0.022507
vt 0.233704 0.022507
vt 0.240387 0.022507
vt 0.237045 0.035449
vt 0.216995 0.048350
vt 0.213653 0.048350
vt 0.213653 0.045125
vt 0.216995 0.045125
vt 0.230362 0.048350
vt 0.227020 0.048350
vt 0.227020 0.045125
vt 0.230362 0.045125
vt 0.227020 0.035449
vt 0.240387 0.035449
vt 0.240387 0.038674
vt 0.237045 0.038674
vt 0.240387 0.041899
vt 0.237045 0.041899
vt 0.240387 0.045125
vt 0.233704 0.041899
vt 0.240387 0.048350
vt 0.240387 0.051575
vt 0.237045 0.051575
vt 0.240387 0.054800
vt 0.237045 0.054800
vt 0.240387 0.058025
vt 0.237045 0.058025
vt 0.233704 0.058025
vt 0.233704 0.054800
vt 0.230362 0.058025
vt 0.227020 0.058025
vt 0.223678 0.051575
vt 0.223678 0.054800
vt 0.223678 0.058025
vt 0.220337 0.058025
vt 0.220337 0.054800
vt 0.216995 0.058025
vt 0.213653 0.058025
vt 0.223678 0.038674
vt 0.223678 0.041899
vt 0.220337 0.041899
vt 0.260602 0.020142
vt 0.260602 0.006382
vt 0.263944 0.006382
vt 0.267286 0.006382
vt 0.267286 0.020142
vt 0.263944 0.020142
vt 0.247112 0.033944
vt 0.243770 0.033944
vt 0.240428 0.033944
vt 0.240428 0.020183
vt 0.243770 0.020183
vt 0.247112 0.020183
vt 0.257219 0.006382
vt 0.257219 0.020142
vt 0.253877 0.020142
vt 0.253877 0.006382
vt 0.260602 0.061548
vt 0.260602 0.047787
vt 0.263944 0.047787
vt 0.267285 0.047787
vt 0.267285 0.061548
vt 0.263944 0.061548
vt 0.253877 0.033985
vt 0.257219 0.033985
vt 0.260561 0.033985
vt 0.260561 0.047746
vt 0.257219 0.047746
vt 0.253877 0.047746
vt 0.240428 0.020142
vt 0.243770 0.006382
vt 0.247112 0.006382
vt 0.247112 0.020142
vt 0.243770 0.020142
vt 0.247153 0.033944
vt 0.247153 0.020183
vt 0.250495 0.020183
vt 0.253836 0.020183
vt 0.253836 0.033944
vt 0.250495 0.033944
vt 0.250494 0.047787
vt 0.253836 0.047787
vt 0.253836 0.061548
vt 0.250494 0.061548
vt 0.247153 0.061548
vt 0.247153 0.047787
vt 0.263944 0.033985
vt 0.267285 0.033985
vt 0.267285 0.047746
vt 0.263944 0.047746
vt 0.243770 0.047787
vt 0.247112 0.047787
vt 0.247112 0.061548
vt 0.243770 0.061548
vt 0.240428 0.061548
vt 0.240428 0.047787
vt 0.257219 0.061548
vt 0.253877 0.061548
vt 0.253877 0.047787
vt 0.257219 0.047787
vt 0.240428 0.047746
vt 0.240428 0.033985
vt 0.243770 0.033985
vt 0.247112 0.033985
vt 0.247112 0.047746
vt 0.243770 0.047746
vt 0.267286 0.020183
vt 0.267286 0.033944
vt 0.263944 0.033944
vt 0.260602 0.033944
vt 0.260602 0.020183
vt 0.263944 0.020183
vt 0.253836 0.006382
vt 0.253836 0.020142
vt 0.250495 0.020142
vt 0.247153 0.020142
vt 0.247153 0.006382
vt 0.250495 0.006382
vt 0.250495 0.047746
vt 0.247153 0.047746
vt 0.247153 0.033985
vt 0.250495 0.033985
vt 0.253836 0.033985
vt 0.253836 0.047746
vt 0.253877 0.020183
vt 0.257219 0.020183
vt 0.257219 0.033944
vt 0.253877 0.033944
vn 0.000000 -1.000000 -0.000000
vn 0.000000 1.000000 0.000000
vn 1.000000 0.000000 0.000000
vn -1.000000 -0.000000 -0.000000
vn 0.000000 0.000000 -1.000000
vn 0.000000 -0.000000 1.000000
s off
f 1/1/1 2/2/1 3/3/1 4/4/1
f 5/5/2 6/4/2 7/3/2 8/6/2
f 9/7/3 10/8/3 11/9/3 12/10/3 13/11/3 14/12/3 15/13/3 16/14/3 17/15/3 18/16/3 19/17/3 20/18/3 21/19/3 22/20/3 23/21/3 24/22/3 25/23/3 26/24/3
f 3/7/4 7/8/4 6/9/4 27/10/4 28/11/4 29/12/4 30/13/4 31/14/4 32/15/4 33/16/4 34/17/4 35/18/4 36/19/4 37/20/4 38/21/4 39/22/4 40/23/4 4/24/4
f 10/16/5 9/17/5 41/18/5 42/19/5 43/20/5 44/21/5 45/22/5 46/23/5 47/24/5 34/7/5 33/8/5 48/9/5 49/10/5 50/11/5 51/12/5 52/13/5 53/14/5 54/15/5
f 55/25/2 56/26/2 57/27/2 58/28/2
f 59/29/2 60/30/2 61/31/2 62/32/2
f 63/33/2 30/34/2 29/35/2 64/36/2
f 65/37/2 66/38/2 67/39/2 68/40/2
f 69/41/1 70/42/1 37/34/1 36/43/1
f 71/44/2 32/45/2 31/43/2 72/46/2
f 73/47/2 74/48/2 75/49/2 76/50/2
f 77/51/1 78/52/1 79/53/1 80/54/1
f 81/55/2 82/56/2 83/57/2 84/58/2
f 85/59/2 86/60/2 87/61/2 88/62/2
f 89/63/2 90/64/2 91/65/2 92/66/2
f 93/67/2 94/68/2 95/69/2 96/70/2
f 97/71/1 98/72/1 40/73/1 39/74/1
f 99/75/2 28/74/2 27/73/2 100/76/2
f 101/77/1 102/78/1 103/79/1 104/80/1
f 67/39/2 64/36/2 99/75/2 105/81/2
f 64/36/2 29/35/2 28/74/2 99/75/2
f 90/64/2 106/82/2 107/83/2 91/65/2
f 61/31/2 68/40/2 106/82/2 90/64/2
f 68/40/2 67/39/2 105/81/2 106/82/2
f 56/26/2 93/67/2 96/70/2 57/27/2
f 91/65/2 107/83/2 93/67/2 56/26/2
f 108/84/1 109/85/1 110/86/1 111/87/1
f 75/49/2 62/32/2 89/63/2 112/88/2
f 62/32/2 61/31/2 90/64/2 89/63/2
f 15/89/2 113/90/2 114/91/2 16/92/2
f 14/93/2 76/50/2 113/90/2 15/89/2
f 76/50/2 75/49/2 112/88/2 113/90/2
f 17/94/2 85/59/2 88/62/2 18/95/2
f 16/92/2 114/91/2 85/59/2 17/94/2
f 115/96/1 116/97/1 117/98/1 118/99/1
f 53/100/2 52/101/2 81/55/2 119/102/2
f 52/101/2 51/103/2 82/56/2 81/55/2
f 11/104/2 120/105/2 121/106/2 12/107/2
f 10/108/2 54/109/2 120/105/2 11/104/2
f 54/109/2 53/100/2 119/102/2 120/105/2
f 13/110/2 73/47/2 76/50/2 14/93/2
f 12/107/2 121/106/2 73/47/2 13/110/2
f 122/111/1 123/112/1 124/113/1 125/114/1
f 126/115/1 127/116/1 128/117/1 129/118/1
f 49/119/2 48/120/2 71/44/2 130/121/2
f 48/120/2 33/122/2 32/45/2 71/44/2
f 82/56/2 131/123/2 132/124/2 83/57/2
f 51/103/2 50/125/2 131/123/2 82/56/2
f 50/125/2 49/119/2 130/121/2 131/123/2
f 60/30/2 65/37/2 68/40/2 61/31/2
f 83/57/2 132/124/2 65/37/2 60/30/2
f 66/38/2 63/33/2 64/36/2 67/39/2
f 133/126/1 69/41/1 36/43/1 35/45/1
f 72/46/2 31/43/2 30/34/2 63/33/2
f 74/48/2 59/29/2 62/32/2 75/49/2
f 134/127/1 135/128/1 136/129/1 137/130/1
f 84/58/2 83/57/2 60/30/2 59/29/2
f 86/60/2 55/25/2 58/28/2 87/61/2
f 138/131/1 139/132/1 140/133/1 141/134/1
f 92/66/2 91/65/2 56/26/2 55/25/2
f 94/68/2 5/5/2 8/6/2 95/69/2
f 70/42/1 142/135/1 38/35/1 37/34/1
f 100/76/2 27/73/2 6/4/2 5/5/2
f 129/118/1 128/117/1 142/135/1 70/42/1
f 123/112/1 138/131/1 141/134/1 124/113/1
f 118/99/1 117/98/1 139/132/1 138/131/1
f 109/85/1 134/127/1 137/130/1 110/86/1
f 104/80/1 103/79/1 135/128/1 134/127/1
f 47/136/1 133/126/1 35/45/1 34/122/1
f 46/137/1 143/138/1 133/126/1 47/136/1
f 45/139/1 144/140/1 143/138/1 46/137/1
f 44/141/1 125/114/1 144/140/1 45/139/1
f 125/114/1 124/113/1 145/142/1 144/140/1
f 124/113/1 141/134/1 126/115/1 145/142/1
f 141/134/1 140/133/1 127/116/1 126/115/1
f 43/143/1 122/111/1 125/114/1 44/141/1
f 42/144/1 146/145/1 122/111/1 43/143/1
f 41/146/1 147/147/1 146/145/1 42/144/1
f 9/148/1 26/149/1 147/147/1 41/146/1
f 26/149/1 25/150/1 148/151/1 147/147/1
f 25/150/1 24/152/1 115/96/1 148/151/1
f 24/152/1 23/153/1 116/97/1 115/96/1
f 139/132/1 108/84/1 111/87/1 140/133/1
f 117/98/1 149/154/1 108/84/1 139/132/1
f 116/97/1 150/155/1 149/154/1 117/98/1
f 23/153/1 22/156/1 150/155/1 116/97/1
f 22/156/1 21/157/1 151/158/1 150/155/1
f 21/157/1 20/159/1 101/77/1 151/158/1
f 20/159/1 19/160/1 102/78/1 101/77/1
f 142/135/1 97/71/1 39/74/1 38/35/1
f 128/117/1 152/161/1 97/71/1 142/135/1
f 127/116/1 153/162/1 152/161/1 128/117/1
f 140/133/1 111/87/1 153/162/1 127/116/1
f 111/87/1 110/86/1 154/163/1 153/162/1
f 110/86/1 137/130/1 77/51/1 154/163/1
f 137/130/1 136/129/1 78/52/1 77/51/1
f 98/72/1 1/1/1 4/4/1 40/73/1
f 80/54/1 79/53/1 2/2/1 1/1/1
f 99/164/6 97/165/6 152/166/6 153/167/6 106/168/6 105/169/6
f 99/170/3 100/171/3 5/172/3 1/173/3 98/174/3 97/175/3
f 94/176/5 93/165/5 77/164/5 80/177/5 1/178/5 5/179/5
f 106/180/4 153/181/4 154/182/4 77/183/4 93/184/4 107/185/4
f 89/186/3 92/187/3 55/188/3 134/189/3 109/190/3 108/191/3
f 89/192/6 108/108/6 149/193/6 150/194/6 113/195/6 112/196/6
f 113/197/4 150/198/4 151/199/4 101/200/4 85/201/4 114/202/4
f 86/203/5 85/204/5 101/205/5 104/206/5 134/207/5 55/208/5
f 81/188/3 84/209/3 59/210/3 138/211/3 123/212/3 122/189/3
f 74/213/5 73/214/5 115/215/5 118/216/5 138/217/5 59/218/5
f 120/181/4 147/180/4 148/219/4 115/220/4 73/221/4 121/222/4
f 81/223/6 122/224/6 146/225/6 147/226/6 120/227/6 119/228/6
f 71/229/6 133/230/6 143/231/6 144/232/6 131/233/6 130/234/6
f 131/235/4 144/236/4 145/237/4 126/238/4 65/239/4 132/240/4
f 66/241/5 65/242/5 126/243/5 129/244/5 70/245/5 63/246/5
f 71/247/3 72/248/3 63/233/3 70/232/3 69/249/3 133/250/3
f 3/17/6 2/18/6 79/19/6 78/20/6 136/21/6 135/22/6 103/23/6 102/24/6 19/7/6 18/8/6 88/9/6 87/10/6 58/11/6 57/12/6 96/13/6 95/14/6 8/15/6 7/16/6
