# Blender v2.76 (sub 0) OBJ File: 'saw.blend'
# www.blender.org
o Circle.001_Circle.002
v -0.150000 -0.405265 0.058373
v -0.070000 0.000000 0.000000
v -0.150000 -0.372433 -0.170389
v -0.150000 0.221356 -0.345054
v -0.150000 0.372433 -0.170389
v -0.150000 0.309428 0.268602
v -0.150000 0.115350 0.393552
v -0.150000 -0.309428 0.268602
v -0.150000 0.000000 -0.410166
v -0.150000 -0.221356 -0.345054
v -0.150000 0.405265 0.058373
v -0.150000 -0.115351 0.393552
v 0.150000 0.115350 0.393552
v 0.070000 0.000000 0.000000
v 0.150000 0.309428 0.268602
v 0.150000 -0.405265 0.058373
v 0.150000 -0.309428 0.268602
v 0.150000 0.221356 -0.345054
v 0.150000 0.000000 -0.410166
v 0.150000 -0.221356 -0.345054
v 0.150000 0.405265 0.058373
v 0.150000 -0.115351 0.393552
v 0.150000 -0.372433 -0.170389
v 0.150000 0.372433 -0.170389
v 0.000000 -0.554662 0.046740
v 0.000000 -0.441387 0.339731
v 0.000000 -0.187974 0.524859
v 0.000000 0.125118 0.543348
v 0.000000 0.398487 0.389328
v 0.000000 0.545338 0.111699
v 0.000000 0.519049 -0.201393
v 0.000000 0.327965 -0.450545
v 0.000000 0.032754 -0.556652
v 0.000000 -0.491836 -0.261090
v 0.000000 -0.272855 -0.486026
vt 0.324697 0.037464
vt 0.319552 0.046514
vt 0.318631 0.036185
vt 0.308846 0.048643
vt 0.311881 0.053782
vt 0.323521 0.056238
vt 0.328430 0.052775
vt 0.329129 0.041617
vt 0.309210 0.042829
vt 0.312858 0.038184
vt 0.317351 0.056613
vt 0.330521 0.047325
vt 0.328430 0.012663
vt 0.319552 0.018619
vt 0.323520 0.009032
vt 0.324696 0.027845
vt 0.329129 0.023845
vt 0.308845 0.016121
vt 0.309209 0.021948
vt 0.312857 0.026717
vt 0.317350 0.008445
vt 0.330521 0.018185
vt 0.318631 0.028916
vt 0.311880 0.011087
vt 0.305181 0.040718
vt 0.298511 0.044527
vt 0.298511 0.036023
vt 0.325757 0.031515
vt 0.325757 0.033830
vt 0.302174 0.017035
vt 0.302174 0.008986
vt 0.305180 0.013011
vt 0.332118 0.026426
vt 0.332119 0.039139
vt 0.284377 0.052683
vt 0.284377 0.044635
vt 0.287714 0.048659
vt 0.305180 0.019274
vt 0.299031 0.023971
vt 0.299031 0.017074
vt 0.291601 0.036799
vt 0.298472 0.040991
vt 0.291601 0.044527
vt 0.334490 0.018858
vt 0.334490 0.046789
vt 0.287791 0.032833
vt 0.287791 0.024784
vt 0.291566 0.028809
vt 0.295458 0.017228
vt 0.295458 0.009179
vt 0.298472 0.013204
vt 0.298511 0.024009
vt 0.305180 0.027820
vt 0.298511 0.032510
vt 0.332118 0.011214
vt 0.332118 0.054352
vt 0.287920 0.018089
vt 0.287920 0.010040
vt 0.291649 0.014064
vt 0.285259 0.018127
vt 0.291649 0.023022
vt 0.285259 0.024745
vt 0.325757 0.005921
vt 0.325757 0.059426
vt 0.298472 0.029044
vt 0.291605 0.032510
vt 0.291605 0.024784
vt 0.284266 0.032833
vt 0.284266 0.024784
vt 0.287753 0.028809
vt 0.317426 0.004659
vt 0.317426 0.060401
vt 0.284545 0.018089
vt 0.284545 0.010040
vt 0.287881 0.014064
vt 0.309769 0.007829
vt 0.309770 0.056967
vt 0.305181 0.048693
vt 0.298191 0.052683
vt 0.298191 0.044565
vt 0.287790 0.044527
vt 0.287790 0.036478
vt 0.291562 0.040502
vt 0.291363 0.053132
vt 0.297668 0.057589
vt 0.291363 0.060401
vt 0.305218 0.014425
vt 0.305220 0.050214
vt 0.297707 0.060401
vt 0.297707 0.052722
vt 0.305181 0.056183
vt 0.305218 0.022353
vt 0.305220 0.042286
vt 0.292407 0.017228
vt 0.292407 0.009179
vt 0.295420 0.013204
vt 0.317426 0.032510
vt 0.287753 0.052683
vt 0.287753 0.044635
vt 0.291525 0.048659
vt 0.291564 0.052683
vt 0.291564 0.044635
vt 0.298152 0.048659
vt 0.284410 0.044527
vt 0.284410 0.036478
vt 0.287751 0.040502
vt 0.309770 0.035701
vt 0.309769 0.029094
vt 0.291688 0.017267
vt 0.298472 0.021598
vt 0.291688 0.024745
vn -0.979900 0.197500 0.028300
vn -0.979900 -0.150800 0.130400
vn -0.979900 -0.107900 -0.167600
vn -0.979900 0.181500 -0.082700
vn -0.980000 -0.056200 0.191100
vn -0.980000 0.056200 0.191100
vn -0.979900 -0.181500 -0.082700
vn -0.979900 0.107900 -0.167600
vn -0.979900 0.150800 0.130400
vn -0.979900 -0.197500 0.028300
vn -0.980000 0.000000 -0.199200
vn 0.979900 -0.107900 -0.167600
vn 0.979900 0.181500 -0.082700
vn 0.980000 -0.056200 0.191100
vn 0.980000 0.056200 0.191100
vn 0.979900 -0.181500 -0.082700
vn 0.979900 0.107900 -0.167600
vn 0.979900 0.150800 0.130400
vn 0.979900 -0.197500 0.028300
vn 0.980000 0.000000 -0.199200
vn 0.979900 0.197500 0.028300
vn 0.979900 -0.150800 0.130400
vn 0.000000 -0.766000 -0.642900
vn 0.706000 -0.701000 -0.100600
vn -0.706000 -0.701000 -0.100600
vn 0.000000 -0.077600 0.997000
vn 0.706100 -0.644300 0.293700
vn -0.706100 -0.644300 0.293700
vn 0.000000 0.474500 0.880300
vn 0.000000 -0.991900 -0.127300
vn 0.000000 -0.903600 0.428300
vn 0.706400 -0.383100 0.595100
vn -0.706400 -0.383100 0.595100
vn 0.000000 0.875100 0.484000
vn 0.000000 0.997900 -0.065100
vn 0.000000 -0.528700 0.848800
vn 0.706600 -0.000000 0.707600
vn -0.706600 -0.000000 0.707600
vn 0.000000 0.804700 -0.593600
vn 0.000000 0.014900 0.999900
vn 0.706400 0.383100 0.595100
vn -0.706400 0.383100 0.595100
vn 0.000000 0.553800 0.832700
vn 0.000000 0.355800 -0.934600
vn 0.706100 0.644300 0.293700
vn -0.706100 0.644300 0.293700
vn 0.000000 -0.206900 -0.978400
vn 0.706000 0.701000 -0.100600
vn -0.706000 0.701000 -0.100600
vn 0.000000 0.916000 0.401200
vn 0.000000 -0.703400 -0.710800
vn 0.000000 0.987600 -0.156800
vn 0.706300 0.535400 -0.463100
vn -0.706300 0.535400 -0.463100
vn 0.000000 0.746500 -0.665400
vn 0.706600 0.199700 -0.678900
vn -0.706600 0.199700 -0.678900
vn 0.000000 -0.975900 -0.218200
vn 0.706300 -0.535400 -0.463100
vn -0.706300 -0.535400 -0.463100
vn 0.000000 -0.604900 0.796300
vn 0.000000 -0.296500 -0.955000
vn 0.000000 -0.939300 0.343100
vn -0.706600 -0.199700 -0.678900
vn 0.706600 -0.199700 -0.678900
vn 0.000000 0.267900 -0.963500
s off
f 1/1/1 2/2/1 3/3/1
f 4/4/2 2/2/2 5/5/2
f 6/6/3 2/2/3 7/7/3
f 8/8/4 2/2/4 1/1/4
f 9/9/5 2/2/5 4/4/5
f 10/10/6 2/2/6 9/9/6
f 11/11/7 2/2/7 6/6/7
f 12/12/8 2/2/8 8/8/8
f 3/3/9 2/2/9 10/10/9
f 5/5/10 2/2/10 11/11/10
f 7/7/11 2/2/11 12/12/11
f 13/13/12 14/14/12 15/15/12
f 16/16/13 14/14/13 17/17/13
f 18/18/14 14/14/14 19/19/14
f 19/19/15 14/14/15 20/20/15
f 15/15/16 14/14/16 21/21/16
f 17/17/17 14/14/17 22/22/17
f 20/20/18 14/14/18 23/23/18
f 21/21/19 14/14/19 24/24/19
f 22/22/20 14/14/20 13/13/20
f 23/23/21 14/14/21 16/16/21
f 24/24/22 14/14/22 18/18/22
f 3/25/23 23/26/23 25/27/23
f 23/23/24 16/16/24 25/28/24
f 1/1/25 3/3/25 25/29/25
f 16/30/26 1/31/26 25/32/26
f 16/16/27 17/17/27 26/33/27
f 8/8/28 1/1/28 26/34/28
f 17/35/29 8/36/29 26/37/29
f 1/38/30 16/39/30 26/40/30
f 8/41/31 17/42/31 27/43/31
f 17/17/32 22/22/32 27/44/32
f 12/12/33 8/8/33 27/45/33
f 22/46/34 12/47/34 27/48/34
f 13/49/35 7/50/35 28/51/35
f 12/52/36 22/53/36 28/54/36
f 22/22/37 13/13/37 28/55/37
f 7/7/38 12/12/38 28/56/38
f 15/57/39 6/58/39 29/59/39
f 7/60/40 13/61/40 29/62/40
f 13/13/41 15/15/41 29/63/41
f 6/6/42 7/7/42 29/64/42
f 6/65/43 15/66/43 30/67/43
f 21/68/44 11/69/44 30/70/44
f 15/15/45 21/21/45 30/71/45
f 11/11/46 6/6/46 30/72/46
f 24/73/47 5/74/47 31/75/47
f 21/21/48 24/24/48 31/76/48
f 5/5/49 11/11/49 31/77/49
f 11/78/50 21/79/50 31/80/50
f 18/81/51 4/82/51 32/83/51
f 5/84/52 24/85/52 32/86/52
f 24/24/53 18/18/53 32/87/53
f 4/4/54 5/5/54 32/88/54
f 4/89/55 18/90/55 33/91/55
f 18/18/56 19/19/56 33/92/56
f 9/9/57 4/4/57 33/93/57
f 19/94/58 9/95/58 33/96/58
f 20/20/59 23/23/59 34/97/59
f 3/3/60 10/10/60 34/97/60
f 23/98/61 3/99/61 34/100/61
f 10/101/62 20/102/62 34/103/62
f 20/104/63 10/105/63 35/106/63
f 10/10/64 9/9/64 35/107/64
f 19/19/65 20/20/65 35/108/65
f 9/109/66 19/110/66 35/111/66
