# Blender v2.76 (sub 0) OBJ File: 'spikes.blend'
# www.blender.org
o Cube.019
v 0.562500 -0.400000 0.187500
v 0.187500 -0.400000 0.187500
v 0.375000 0.400000 0.375000
v 0.562500 -0.400000 0.562500
v 0.187500 -0.400000 0.562500
v -0.562500 -0.400000 0.187500
v -0.375000 0.400000 0.375000
v -0.187500 -0.400000 0.187500
v -0.562500 -0.400000 0.562500
v -0.187500 -0.400000 0.562500
v 0.562500 -0.400000 -0.187500
v 0.375000 0.400000 -0.375000
v 0.187500 -0.400000 -0.187500
v 0.562500 -0.400000 -0.562500
v 0.187500 -0.400000 -0.562500
v -0.562500 -0.400000 -0.187500
v -0.187500 -0.400000 -0.187500
v -0.375000 0.400000 -0.375000
v -0.562500 -0.400000 -0.562500
v -0.187500 -0.400000 -0.562500
vt 0.282123 0.007111
vt 0.335371 0.007111
vt 0.335371 0.060359
vt 0.282123 0.060359
vn 0.000000 0.228200 -0.973600
vn 0.973600 0.228200 0.000000
vn 0.000000 0.228200 0.973600
vn -0.973600 0.228200 0.000000
vn 0.000000 -1.000000 -0.000000
s off
f 1/1/1 2/2/1 3/3/1
f 1/1/2 3/2/2 4/3/2
f 4/1/3 3/2/3 5/3/3
f 2/1/4 5/2/4 3/3/4
f 6/1/1 7/2/1 8/3/1
f 6/1/4 9/2/4 7/3/4
f 9/1/3 10/2/3 7/3/3
f 8/1/2 7/2/2 10/3/2
f 11/1/3 12/2/3 13/3/3
f 11/1/2 14/2/2 12/3/2
f 14/1/1 15/2/1 12/3/1
f 13/1/4 12/2/4 15/3/4
f 16/1/3 17/2/3 18/3/3
f 16/1/4 18/2/4 19/3/4
f 19/1/1 18/2/1 20/3/1
f 17/1/2 20/2/2 18/3/2
f 20/1/5 17/2/5 16/3/5 19/4/5
f 15/1/5 14/2/5 11/3/5 13/4/5
f 10/1/5 9/2/5 6/3/5 8/4/5
f 5/1/5 2/2/5 1/3/5 4/4/5
