# Blender v2.76 (sub 0) OBJ File: 'star.blend'
# www.blender.org
o Cube_Cube.001
v 0.127658 0.191572 0.087241
v 0.000000 0.444072 0.087241
v -0.127658 0.191572 0.087241
v -0.408317 0.155903 0.087241
v -0.206505 -0.043093 0.087241
v -0.260009 -0.333139 0.087241
v 0.000939 -0.193279 0.087241
v -0.000939 -0.193279 0.087241
v 0.260009 -0.333139 0.087241
v 0.206505 -0.043093 0.087241
v 0.408317 0.155903 0.087241
v 0.127658 0.191572 -0.087241
v 0.408317 0.155903 -0.087241
v 0.206505 -0.043093 -0.087241
v 0.260009 -0.333139 -0.087241
v -0.000939 -0.193279 -0.087241
v 0.000939 -0.193279 -0.087241
v -0.260009 -0.333139 -0.087241
v -0.206505 -0.043093 -0.087241
v -0.408317 0.155903 -0.087241
v -0.127658 0.191572 -0.087241
v 0.000000 0.444072 -0.087241
vt 0.307989 0.051393
vt 0.318727 0.048241
vt 0.326055 0.039783
vt 0.327648 0.028706
vt 0.322999 0.018527
vt 0.313585 0.012477
vt 0.302394 0.012477
vt 0.292980 0.018527
vt 0.288331 0.028706
vt 0.289923 0.039783
vt 0.297252 0.048241
vt 0.288129 0.011672
vt 0.327850 0.011672
vt 0.327850 0.051393
vt 0.288129 0.051393
vn 0.000000 -0.000000 1.000000
vn -0.000000 0.000000 -1.000000
vn 0.472400 -0.881400 -0.000000
vn -0.126100 0.992000 0.000000
vn 0.983400 0.181400 0.000000
vn 0.000000 1.000000 0.000000
vn 0.892400 0.451200 0.000000
vn -0.702100 -0.712100 -0.000000
vn -0.472400 -0.881400 -0.000000
vn 0.126100 0.992000 0.000000
vn -0.983400 0.181400 0.000000
vn -0.892400 0.451200 0.000000
vn 0.702100 -0.712100 -0.000000
s off
f 1/1/1 2/2/1 3/3/1 4/4/1 5/5/1 6/6/1 7/7/1 8/8/1 9/9/1 10/10/1 11/11/1
f 12/1/2 13/2/2 14/3/2 15/4/2 16/5/2 17/6/2 18/7/2 19/8/2 20/9/2 21/10/2 22/11/2
f 7/12/3 6/13/3 18/14/3 17/15/3
f 4/12/4 3/13/4 21/14/4 20/15/4
f 10/12/5 9/13/5 15/14/5 14/15/5
f 8/12/6 7/13/6 17/14/6 16/15/6
f 2/12/7 1/13/7 12/14/7 22/15/7
f 5/12/8 4/13/8 20/14/8 19/15/8
f 9/12/9 8/13/9 16/14/9 15/15/9
f 1/12/10 11/13/10 13/14/10 12/15/10
f 6/12/11 5/13/11 19/14/11 18/15/11
f 3/12/12 2/13/12 22/14/12 21/15/12
f 11/12/13 10/13/13 14/14/13 13/15/13
