# Blender v2.76 (sub 0) OBJ File: ''
# www.blender.org
o Cube_Cube.022
v -0.750000 0.000000 0.750000
v -0.750000 1.500000 0.750000
v -0.750000 0.000000 -0.750000
v -0.750000 1.500000 -0.750000
v 0.750000 0.000000 0.750000
v 0.750000 1.500000 0.750000
v 0.750000 0.000000 -0.750000
v 0.750000 1.500000 -0.750000
vt 1.000000 1.000000
vt 0.000000 1.000000
vt 0.000000 0.000000
vt 1.000000 0.000000
vt 0.819111 0.803237
vt 0.942841 0.803237
vt 0.942841 0.926967
vt 0.819111 0.926967
vt 0.785062 0.792999
vt 0.929268 0.792999
vt 0.929268 0.937205
vt 0.785062 0.937205
vn -1.000000 0.000000 0.000000
vn 0.000000 0.000000 -1.000000
vn 1.000000 0.000000 0.000000
vn 0.000000 0.000000 1.000000
vn 0.000000 -1.000000 0.000000
vn 0.000000 1.000000 0.000000
s off
f 2/1/1 4/2/1 3/3/1 1/4/1
f 4/1/2 8/2/2 7/3/2 3/4/2
f 8/1/3 6/2/3 5/3/3 7/4/3
f 6/1/4 2/2/4 1/3/4 5/4/4
f 1/5/5 3/6/5 7/7/5 5/8/5
f 6/9/6 8/10/6 4/11/6 2/12/6
