# Blender v2.75 (sub 0) OBJ File: 'gate.blend'
# www.blender.org
o Plane
v -0.750000 0.400000 0.750000
v 0.750000 0.400000 0.750000
v -0.750000 1.900000 0.750000
v 0.750000 1.900000 0.750000
v -0.750000 0.400000 0.950000
v 0.750000 0.400000 0.950000
v -0.750000 1.900000 0.950000
v 0.750000 1.900000 0.950000
v -0.450000 0.400000 0.750000
v -0.150000 0.400000 0.750000
v 0.150000 0.400000 0.750000
v 0.450000 0.400000 0.750000
v 0.450000 1.900000 0.750000
v 0.150000 1.900000 0.750000
v -0.150000 1.900000 0.750000
v -0.450000 1.900000 0.750000
v -0.450000 0.400000 0.950000
v -0.150000 0.400000 0.950000
v 0.150000 0.400000 0.950000
v 0.450000 0.400000 0.950000
v 0.450000 1.900000 0.950000
v 0.150000 1.900000 0.950000
v -0.150000 1.900000 0.950000
v -0.450000 1.900000 0.950000
v -0.750000 1.600000 0.750000
v -0.750000 1.300000 0.750000
v -0.750000 1.000000 0.750000
v -0.750000 0.700000 0.750000
v 0.750000 0.700000 0.750000
v 0.750000 1.000000 0.750000
v 0.750000 1.300000 0.750000
v 0.750000 1.600000 0.750000
v -0.750000 1.600000 0.950000
v -0.750000 1.300000 0.950000
v -0.750000 1.000000 0.950000
v -0.750000 0.700000 0.950000
v 0.750000 0.700000 0.950000
v 0.750000 1.000000 0.950000
v 0.750000 1.300000 0.950000
v 0.750000 1.600000 0.950000
v -0.450000 0.700000 0.950000
v -0.450000 1.000000 0.950000
v -0.450000 1.300000 0.950000
v -0.450000 1.600000 0.950000
v -0.150000 0.700000 0.950000
v -0.150000 1.000000 0.950000
v -0.150000 1.300000 0.950000
v -0.150000 1.600000 0.950000
v 0.150000 0.700000 0.950000
v 0.150000 1.000000 0.950000
v 0.150000 1.300000 0.950000
v 0.150000 1.600000 0.950000
v 0.450000 0.700000 0.950000
v 0.450000 1.000000 0.950000
v 0.450000 1.300000 0.950000
v 0.450000 1.600000 0.950000
v -0.450000 1.600000 0.750000
v -0.450000 1.300000 0.750000
v -0.450000 1.000000 0.750000
v -0.450000 0.700000 0.750000
v -0.150000 1.600000 0.750000
v -0.150000 1.300000 0.750000
v -0.150000 1.000000 0.750000
v -0.150000 0.700000 0.750000
v 0.150000 1.600000 0.750000
v 0.150000 1.300000 0.750000
v 0.150000 1.000000 0.750000
v 0.150000 0.700000 0.750000
v 0.450000 1.600000 0.750000
v 0.450000 1.300000 0.750000
v 0.450000 1.000000 0.750000
v 0.450000 0.700000 0.750000
v 0.300000 2.100000 0.850000
v -0.300000 2.100000 0.850000
v -0.950000 1.450000 0.850000
v -0.950000 0.850000 0.850000
v 0.950000 0.850000 0.850000
v 0.950000 1.450000 0.850000
vt 0.154407 0.153846
vt 0.072124 0.153846
vt 0.072124 0.071429
vt 0.154407 0.071429
vt 0.654407 0.401099
vt 0.654407 0.483516
vt 0.572124 0.483516
vt 0.572124 0.401099
vt 0.246954 0.686813
vt 0.246954 0.769231
vt 0.192075 0.769231
vt 0.192075 0.686813
vt 0.016464 0.653846
vt 0.016464 0.571429
vt 0.071342 0.571429
vt 0.071342 0.653846
vt 0.104269 0.769231
vt 0.104269 0.686813
vt 0.159148 0.686813
vt 0.159148 0.769231
vt 0.685983 0.571429
vt 0.685983 0.653846
vt 0.631104 0.653846
vt 0.631104 0.571429
vt 0.016464 0.983516
vt 0.016464 0.901099
vt 0.071342 0.901099
vt 0.071342 0.983516
vt 0.016464 0.818681
vt 0.071342 0.818681
vt 0.016464 0.736264
vt 0.071342 0.736264
vt 0.510371 0.571429
vt 0.510371 0.653846
vt 0.455493 0.653846
vt 0.455493 0.571429
vt 0.598177 0.571429
vt 0.598177 0.653846
vt 0.543299 0.653846
vt 0.543299 0.571429
vt 0.654407 0.071429
vt 0.654407 0.153846
vt 0.572124 0.153846
vt 0.572124 0.071429
vt 0.654407 0.236264
vt 0.572124 0.236264
vt 0.654407 0.318681
vt 0.572124 0.318681
vt 0.154407 0.483517
vt 0.072124 0.483517
vt 0.072124 0.401099
vt 0.154407 0.401099
vt 0.072124 0.318681
vt 0.154407 0.318681
vt 0.072124 0.236264
vt 0.154407 0.236264
vt 0.483536 0.236264
vt 0.401254 0.236264
vt 0.401254 0.153846
vt 0.483536 0.153846
vt 0.318971 0.236264
vt 0.318971 0.153846
vt 0.236689 0.236264
vt 0.236689 0.153846
vt 0.483536 0.318681
vt 0.401254 0.318681
vt 0.318971 0.318681
vt 0.236689 0.318681
vt 0.483536 0.401099
vt 0.401254 0.401099
vt 0.318971 0.401099
vt 0.236689 0.401099
vt 0.483536 0.483516
vt 0.401254 0.483516
vt 0.318971 0.483517
vt 0.236689 0.483517
vt 0.983536 0.318681
vt 0.983536 0.401099
vt 0.901254 0.401099
vt 0.901254 0.318681
vt 0.818972 0.401099
vt 0.818972 0.318681
vt 0.736689 0.401099
vt 0.736689 0.318681
vt 0.983536 0.236264
vt 0.901254 0.236264
vt 0.818971 0.236264
vt 0.736689 0.236264
vt 0.983536 0.153846
vt 0.901254 0.153846
vt 0.818971 0.153846
vt 0.736689 0.153846
vt 0.983536 0.071429
vt 0.901254 0.071429
vt 0.818971 0.071429
vt 0.736689 0.071429
vt 0.422566 0.571429
vt 0.422566 0.653846
vt 0.367687 0.653846
vt 0.367687 0.571429
vt 0.246954 0.571429
vt 0.246954 0.653846
vt 0.192075 0.653846
vt 0.192075 0.571429
vt 0.279881 0.653846
vt 0.279881 0.571429
vt 0.334760 0.571429
vt 0.334760 0.653846
vt 0.104269 0.653846
vt 0.104269 0.571429
vt 0.159148 0.571429
vt 0.159148 0.653846
vt 0.983536 0.483516
vt 0.901254 0.483516
vt 0.818972 0.483516
vt 0.736689 0.483516
vt 0.401254 0.071429
vt 0.483536 0.071429
vt 0.318971 0.071429
vt 0.236689 0.071429
vt 0.016464 0.359890
vt 0.194742 0.538462
vt 0.832626 0.686813
vt 0.832626 0.741758
vt 0.777747 0.714286
vt 0.832626 0.774725
vt 0.832626 0.829670
vt 0.777747 0.802198
vt 0.516464 0.195055
vt 0.694742 0.016484
vt 0.773789 0.571429
vt 0.773789 0.626374
vt 0.718910 0.598901
vt 0.422566 0.781211
vt 0.422566 0.836156
vt 0.367687 0.808683
vt 0.359307 0.538462
vt 0.410978 0.748244
vt 0.361893 0.723671
vt 0.410978 0.686813
vt 0.859307 0.016484
vt 0.657014 0.748244
vt 0.607930 0.723671
vt 0.657014 0.686813
vt 0.744820 0.686813
vt 0.744820 0.741758
vt 0.689942 0.714286
vt 0.492990 0.748244
vt 0.443905 0.723671
vt 0.492990 0.686813
vt 0.359307 0.016484
vt 0.516464 0.359890
vt 0.328966 0.748244
vt 0.279881 0.723671
vt 0.328966 0.686813
vt 0.744820 0.774725
vt 0.744820 0.829670
vt 0.689942 0.802198
vt 0.859307 0.538462
vt 0.016464 0.195055
vt 0.694742 0.538462
vt 0.334760 0.781211
vt 0.334760 0.836156
vt 0.279881 0.808683
vt 0.194742 0.016484
vt 0.575002 0.748244
vt 0.525917 0.723671
vt 0.575002 0.686813
vn 0.000000 0.000000 -1.000000
vn 0.000000 0.000000 1.000000
vn 0.000000 1.000000 0.000000
vn 0.000000 -1.000000 0.000000
vn 1.000000 0.000000 0.000000
vn -1.000000 -0.000000 0.000000
vn 0.000000 0.447200 -0.894400
vn -0.447200 0.000000 -0.894400
vn 0.800000 0.600000 0.000000
vn -0.600000 0.800000 0.000000
vn 0.000000 0.447200 0.894400
vn -0.447200 0.000000 0.894400
vn -0.800000 0.600000 0.000000
vn -0.600000 -0.800000 0.000000
vn 0.600000 0.800000 0.000000
vn 0.447200 0.000000 -0.894400
vn 0.600000 -0.800000 0.000000
vn 0.447200 0.000000 0.894400
s off
f 69/1/1 13/2/1 4/3/1 32/4/1
f 56/5/2 40/6/2 8/7/2 21/8/2
f 16/9/3 3/10/3 7/11/3 24/12/3
f 12/13/4 2/14/4 6/15/4 20/16/4
f 32/17/5 4/18/5 8/19/5 40/20/5
f 28/21/6 1/22/6 5/23/6 36/24/6
f 1/25/4 9/26/4 17/27/4 5/28/4
f 9/26/4 10/29/4 18/30/4 17/27/4
f 10/29/4 11/31/4 19/32/4 18/30/4
f 11/31/4 12/13/4 20/16/4 19/32/4
f 4/33/3 13/34/3 21/35/3 8/36/3
f 14/37/3 15/38/3 23/39/3 22/40/3
f 33/41/2 44/42/2 24/43/2 7/44/2
f 44/42/2 48/45/2 23/46/2 24/43/2
f 48/45/2 52/47/2 22/48/2 23/46/2
f 52/47/2 56/5/2 21/8/2 22/48/2
f 25/49/1 3/50/1 16/51/1 57/52/1
f 57/52/1 16/51/1 15/53/1 61/54/1
f 61/54/1 15/53/1 14/55/1 65/56/1
f 65/56/1 14/55/1 13/2/1 69/1/1
f 11/57/1 68/58/1 72/59/1 12/60/1
f 68/58/1 67/61/1 71/62/1 72/59/1
f 67/61/1 66/63/1 70/64/1 71/62/1
f 66/63/1 65/56/1 69/1/1 70/64/1
f 10/65/1 64/66/1 68/58/1 11/57/1
f 64/66/1 63/67/1 67/61/1 68/58/1
f 63/67/1 62/68/1 66/63/1 67/61/1
f 62/68/1 61/54/1 65/56/1 66/63/1
f 9/69/1 60/70/1 64/66/1 10/65/1
f 60/70/1 59/71/1 63/67/1 64/66/1
f 59/71/1 58/72/1 62/68/1 63/67/1
f 58/72/1 57/52/1 61/54/1 62/68/1
f 1/73/1 28/74/1 60/70/1 9/69/1
f 28/74/1 27/75/1 59/71/1 60/70/1
f 27/75/1 26/76/1 58/72/1 59/71/1
f 26/76/1 25/49/1 57/52/1 58/72/1
f 19/77/2 20/78/2 53/79/2 49/80/2
f 49/80/2 53/79/2 54/81/2 50/82/2
f 50/82/2 54/81/2 55/83/2 51/84/2
f 51/84/2 55/83/2 56/5/2 52/47/2
f 18/85/2 19/77/2 49/80/2 45/86/2
f 45/86/2 49/80/2 50/82/2 46/87/2
f 46/87/2 50/82/2 51/84/2 47/88/2
f 47/88/2 51/84/2 52/47/2 48/45/2
f 17/89/2 18/85/2 45/86/2 41/90/2
f 41/90/2 45/86/2 46/87/2 42/91/2
f 42/91/2 46/87/2 47/88/2 43/92/2
f 43/92/2 47/88/2 48/45/2 44/42/2
f 5/93/2 17/89/2 41/90/2 36/94/2
f 36/94/2 41/90/2 42/91/2 35/95/2
f 35/95/2 42/91/2 43/92/2 34/96/2
f 34/96/2 43/92/2 44/42/2 33/41/2
f 3/97/6 25/98/6 33/99/6 7/100/6
f 26/101/6 27/102/6 35/103/6 34/104/6
f 2/105/5 29/106/5 37/107/5 6/108/5
f 30/109/5 31/110/5 39/111/5 38/112/5
f 20/78/2 6/113/2 37/114/2 53/79/2
f 53/79/2 37/114/2 38/115/2 54/81/2
f 54/81/2 38/115/2 39/116/2 55/83/2
f 55/83/2 39/116/2 40/6/2 56/5/2
f 12/60/1 72/59/1 29/117/1 2/118/1
f 72/59/1 71/62/1 30/119/1 29/117/1
f 71/62/1 70/64/1 31/120/1 30/119/1
f 70/64/1 69/1/1 32/4/1 31/120/1
f 15/53/7 16/51/7 74/121/7
f 25/49/8 26/76/8 75/122/8
f 23/123/9 15/124/9 74/125/9
f 33/126/10 25/127/10 75/128/10
f 24/43/11 23/46/11 74/129/11
f 34/96/12 33/41/12 75/130/12
f 16/131/13 24/132/13 74/133/13
f 26/134/14 34/135/14 75/136/14
f 27/75/8 28/74/8 76/137/8
f 35/138/10 27/139/10 76/140/10
f 36/94/12 35/95/12 76/141/12
f 28/142/14 36/143/14 76/144/14
f 21/145/9 13/146/9 73/147/9
f 30/148/15 38/149/15 77/150/15
f 29/117/16 30/119/16 77/151/16
f 22/48/11 21/8/11 73/152/11
f 37/153/17 29/154/17 77/155/17
f 14/156/13 22/157/13 73/158/13
f 38/115/18 37/114/18 77/159/18
f 13/2/7 14/55/7 73/160/7
f 40/6/18 39/116/18 78/161/18
f 39/162/17 31/163/17 78/164/17
f 31/120/16 32/4/16 78/165/16
f 32/166/15 40/167/15 78/168/15
