# Blender v2.76 (sub 0) OBJ File: 'plate-side.blend'
# www.blender.org
o Cube
v 0.750000 0.200030 -0.750000
v 0.750000 0.200030 0.750000
v -0.750000 0.200030 0.750000
v -0.750000 0.200030 -0.750000
v 0.750000 0.399970 -0.749999
v 0.749999 0.399970 0.750000
v -0.750000 0.399970 0.749999
v -0.750000 0.399970 -0.750000
vt 0.630382 0.630382
vt 0.795399 0.630382
vt 0.795399 0.795399
vt 0.630382 0.795399
vt 0.634574 0.027536
vt 0.634574 0.308402
vt 0.353708 0.308402
vt 0.353708 0.027536
vt 0.066647 0.500000
vt 0.133294 0.500000
vt 0.133294 1.000000
vt 0.066647 1.000000
vt 0.266588 1.000000
vt 0.199941 1.000000
vt 0.199941 0.500000
vt 0.266588 0.500000
vt 0.000000 0.500000
vt 0.000000 1.000000
vn 0.000000 -1.000000 0.000000
vn 0.000000 1.000000 -0.000000
vn 1.000000 0.000000 0.000000
vn -0.000000 -0.000000 1.000000
vn -1.000000 -0.000000 -0.000000
vn 0.000000 0.000000 -1.000000
s off
f 1/1/1 2/2/1 3/3/1 4/4/1
f 5/5/2 8/6/2 7/7/2 6/8/2
f 1/9/3 5/10/3 6/11/3 2/12/3
f 2/13/4 6/14/4 7/15/4 3/16/4
f 3/14/5 7/11/5 8/10/5 4/15/5
f 5/17/6 1/9/6 4/12/6 8/18/6
