# Blender v2.76 (sub 0) OBJ File: 'energy.blend'
# www.blender.org
mtllib energy.mtl
o Cone_Cone.003
v 0.366227 1.127175 0.176150
v 0.346274 1.127175 -0.176150
v -0.166576 0.234047 -0.000000
v 0.006817 0.987277 -0.176150
v 0.006817 0.987277 0.176150
v -0.266215 0.987277 0.176150
v -0.242536 1.687125 0.176150
v -0.266215 0.987277 -0.176150
v -0.242536 1.687125 -0.176150
v -0.039748 1.127175 0.176150
v 0.063852 1.586271 0.176150
v -0.051832 1.127175 -0.176150
v 0.063852 1.586271 -0.176150
vt 0.608798 0.697779
vt 0.694966 0.474477
vt 0.781134 0.697779
vt 0.383458 0.809563
vt 0.551927 0.474477
vt 0.551927 0.851497
vt 0.224468 0.080581
vt 0.332788 0.081439
vt 0.331238 0.248460
vt 0.699171 0.078339
vt 0.696071 0.218587
vt 0.589832 0.214463
vt 0.734631 0.890482
vt 0.608798 0.947831
vt 0.608801 0.761511
vt 0.781137 0.761445
vt 0.197169 0.775241
vt 0.197169 0.968167
vt 0.028435 0.968167
vt 0.028435 0.775241
vt 0.391209 0.220119
vt 0.386476 0.078089
vt 0.505359 0.082105
vt 0.502537 0.220563
vt 0.838008 0.954461
vt 0.838882 0.761606
vt 0.958815 0.761445
vt 0.961539 0.954461
vt 0.045130 0.247567
vt 0.039287 0.081253
vt 0.151491 0.081834
vt 0.176424 0.249479
vt 0.883925 0.031833
vt 0.883925 0.224759
vt 0.734339 0.224814
vt 0.734339 0.031888
vt 0.838004 0.474477
vt 0.971565 0.474477
vt 0.971565 0.667403
vt 0.838004 0.667403
vt 0.200771 0.489269
vt 0.200771 0.711575
vt 0.028435 0.700645
vt 0.028435 0.482648
vn -0.974500 0.224300 0.000000
vn 0.862000 -0.504600 -0.048800
vn 0.096400 -0.247600 0.964000
vn 0.102600 -0.248800 -0.963100
vn -0.371700 0.928300 0.010500
vn -0.999400 0.033800 0.000000
vn 0.000000 0.000000 -1.000000
vn 0.972500 -0.232300 -0.016700
vn 0.000000 -0.000000 1.000000
vn 0.312700 0.949900 0.000000
vn 0.000000 -1.000000 0.000000
vn 0.000000 1.000000 0.000000
usemtl Material
s off
f 4/1/1 3/2/1 5/3/1
f 1/4/2 3/5/2 2/6/2
f 5/7/3 3/8/3 1/9/3
f 2/10/4 3/11/4 4/12/4
f 1/13/5 2/14/5 4/15/5 5/16/5
f 7/17/6 9/18/6 8/19/6 6/20/6
f 9/21/7 13/22/7 12/23/7 8/24/7
f 13/25/8 11/26/8 10/27/8 12/28/8
f 11/29/9 7/30/9 6/31/9 10/32/9
f 12/23/7 2/10/7 4/12/7 8/24/7
f 11/33/10 13/34/10 9/35/10 7/36/10
f 6/31/9 5/7/9 1/9/9 10/32/9
f 8/37/11 4/38/11 5/39/11 6/40/11
f 10/41/12 1/42/12 2/43/12 12/44/12
