# Blender v2.76 (sub 0) OBJ File: 'plate.blend'
# www.blender.org
mtllib plate.mtl
o Cube
v 0.750000 -0.400000 -0.750000
v 0.750000 -0.400000 0.750000
v -0.750000 -0.400000 0.750000
v -0.749999 -0.400000 -0.750000
v 0.750000 0.400000 -0.749999
v 0.749999 0.400000 0.750000
v -0.750000 0.400000 0.749999
v -0.750000 0.400000 -0.750000
v 0.750000 0.400000 0.000000
v 0.000000 0.400000 -0.749999
v -0.000000 0.400000 0.750000
v -0.750000 0.400000 -0.000000
v -0.000000 0.400000 0.000000
v 0.749999 0.400000 0.375000
v -0.375000 0.400000 -0.750000
v -0.375000 0.400000 0.750000
v -0.750000 0.400000 -0.375000
v 0.750000 0.400000 -0.374999
v 0.375000 0.400000 -0.749999
v 0.374999 0.400000 0.750000
v -0.750000 0.400000 0.375000
v -0.000000 0.400000 0.375000
v 0.000000 0.400000 -0.375000
v 0.375000 0.400000 0.000000
v -0.375000 0.400000 0.000000
v -0.750000 -0.400000 -0.000000
v 0.000000 -0.400000 0.750000
v 0.000000 -0.400000 -0.750000
v 0.750000 -0.400000 0.000000
v 0.749999 0.400000 0.562500
v -0.562500 0.400000 -0.750000
v -0.562500 0.400000 0.749999
v -0.750000 0.400000 -0.562500
v 0.750000 0.400000 -0.187500
v 0.187500 0.400000 -0.749999
v 0.187499 0.400000 0.750000
v -0.750000 0.400000 0.187500
v -0.000000 0.400000 0.562500
v -0.000000 0.400000 -0.187500
v 0.562500 0.400000 0.000000
v -0.187500 0.400000 0.000000
v 0.749999 0.400000 0.187500
v -0.187500 0.400000 -0.750000
v -0.187500 0.400000 0.750000
v -0.750000 0.400000 -0.187500
v 0.750000 0.400000 -0.562499
v 0.562500 0.400000 -0.749999
v 0.562499 0.400000 0.750000
v -0.750000 0.400000 0.562500
v -0.000000 0.400000 0.187500
v 0.000000 0.400000 -0.562500
v 0.187500 0.400000 0.000000
v -0.562500 0.400000 -0.000000
v -0.375000 0.400000 -0.187500
v -0.375000 0.400000 -0.562500
v -0.187500 0.400000 -0.375000
v -0.562500 0.400000 -0.375000
v 0.375000 0.400000 -0.187500
v 0.375000 0.400000 -0.562499
v 0.562500 0.400000 -0.374999
v 0.187500 0.400000 -0.375000
v 0.374999 0.400000 0.562500
v 0.375000 0.400000 0.187500
v 0.562499 0.400000 0.375000
v 0.187500 0.400000 0.375000
v -0.375000 0.400000 0.562500
v -0.375000 0.400000 0.187500
v -0.187500 0.400000 0.375000
v -0.562500 0.400000 0.375000
v -0.562500 0.400000 0.187500
v -0.187500 0.400000 0.187500
v -0.187500 0.400000 0.562500
v 0.187500 0.400000 0.187500
v 0.562500 0.400000 0.187500
v 0.562499 0.400000 0.562500
v 0.187500 0.400000 -0.562500
v 0.562500 0.400000 -0.562499
v 0.562500 0.400000 -0.187500
v -0.562500 0.400000 -0.562500
v -0.187500 0.400000 -0.562500
v -0.187500 0.400000 -0.187500
v -0.562500 0.400000 -0.187500
v 0.187500 0.400000 -0.187500
v 0.187500 0.400000 0.562500
v -0.562500 0.400000 0.562500
v 0.000000 -0.400000 -0.000000
v 0.750000 -0.400000 0.375000
v -0.375000 -0.400000 -0.750000
v -0.375000 -0.400000 0.750000
v -0.749999 -0.400000 -0.375000
v 0.000000 -0.400000 0.375000
v 0.000000 -0.400000 -0.375000
v 0.375000 -0.400000 -0.000000
v -0.375000 -0.400000 -0.000000
v -0.750000 -0.400000 0.375000
v 0.375000 -0.400000 0.750000
v 0.375000 -0.400000 -0.750000
v 0.750000 -0.400000 -0.375000
v 0.750000 -0.400000 0.562500
v -0.562500 -0.400000 -0.750000
v -0.562500 -0.400000 0.750000
v -0.749999 -0.400000 -0.562500
v -0.187500 -0.400000 -0.000000
v 0.562500 -0.400000 0.000000
v 0.000000 -0.400000 -0.187500
v 0.000000 -0.400000 0.562500
v -0.750000 -0.400000 -0.187500
v -0.187500 -0.400000 0.750000
v -0.187500 -0.400000 -0.750000
v 0.750000 -0.400000 0.187500
v 0.000000 -0.400000 0.187500
v 0.000000 -0.400000 -0.562500
v 0.187500 -0.400000 -0.000000
v -0.562500 -0.400000 -0.000000
v -0.750000 -0.400000 0.187500
v 0.187500 -0.400000 0.750000
v 0.187500 -0.400000 -0.750000
v 0.750000 -0.400000 -0.187500
v -0.750000 -0.400000 0.562500
v 0.562500 -0.400000 0.750000
v 0.562500 -0.400000 -0.750000
v 0.750000 -0.400000 -0.562500
v -0.562500 -0.400000 -0.375000
v -0.187500 -0.400000 -0.375000
v -0.375000 -0.400000 -0.562500
v -0.375000 -0.400000 -0.187500
v 0.187500 -0.400000 -0.375000
v 0.562500 -0.400000 -0.375000
v 0.375000 -0.400000 -0.562500
v 0.375000 -0.400000 -0.187500
v 0.187500 -0.400000 0.375000
v 0.562500 -0.400000 0.375000
v 0.375000 -0.400000 0.187500
v 0.375000 -0.400000 0.562500
v -0.562500 -0.400000 0.375000
v -0.187500 -0.400000 0.375000
v -0.375000 -0.400000 0.187500
v -0.375000 -0.400000 0.562500
v -0.562500 -0.400000 -0.187500
v 0.187500 -0.400000 -0.187500
v 0.187500 -0.400000 0.562500
v -0.562500 -0.400000 -0.562500
v -0.187500 -0.400000 -0.562500
v -0.187500 -0.400000 -0.187500
v 0.187500 -0.400000 -0.562500
v 0.562500 -0.400000 -0.562500
v 0.562500 -0.400000 -0.187500
v 0.187500 -0.400000 0.187500
v 0.562500 -0.400000 0.187500
v 0.562500 -0.400000 0.562500
v -0.562500 -0.400000 0.187500
v -0.187500 -0.400000 0.187500
v -0.187500 -0.400000 0.562500
v -0.562500 -0.400000 0.562500
vt 0.323494 0.312209
vt 0.368675 0.312209
vt 0.368675 0.355814
vt 0.323494 0.355814
vt 0.323494 0.413372
vt 0.323494 0.369767
vt 0.368675 0.369767
vt 0.368675 0.413372
vt 0.575904 0.718604
vt 0.383132 0.718604
vt 0.383132 0.675000
vt 0.383132 0.631395
vt 0.383132 0.587790
vt 0.383132 0.544186
vt 0.383132 0.500581
vt 0.383132 0.456977
vt 0.383132 0.413372
vt 0.383132 0.369767
vt 0.575904 0.369767
vt 0.575904 0.413372
vt 0.575904 0.456977
vt 0.575904 0.500581
vt 0.575904 0.544186
vt 0.575904 0.587791
vt 0.575904 0.631395
vt 0.575904 0.675000
vt 0.575904 0.355814
vt 0.383132 0.355814
vt 0.383132 0.312209
vt 0.383132 0.268604
vt 0.383132 0.225000
vt 0.383132 0.181395
vt 0.383132 0.137791
vt 0.383132 0.094186
vt 0.383132 0.050581
vt 0.383133 0.006977
vt 0.575904 0.006977
vt 0.575904 0.050581
vt 0.575904 0.094186
vt 0.575904 0.137791
vt 0.575904 0.181395
vt 0.575904 0.225000
vt 0.575904 0.268605
vt 0.575904 0.312209
vt 0.590361 0.006977
vt 0.783133 0.006977
vt 0.783132 0.050581
vt 0.783132 0.094186
vt 0.783133 0.137791
vt 0.783132 0.181395
vt 0.783132 0.225000
vt 0.783132 0.268605
vt 0.783132 0.312209
vt 0.783132 0.355814
vt 0.590361 0.355814
vt 0.590361 0.312209
vt 0.590361 0.268605
vt 0.590361 0.225000
vt 0.590361 0.181395
vt 0.590361 0.137791
vt 0.590361 0.094186
vt 0.590361 0.050581
vt 0.323494 0.587790
vt 0.323494 0.544186
vt 0.368675 0.544186
vt 0.368675 0.587790
vt 0.142771 0.587790
vt 0.142771 0.544186
vt 0.187952 0.544186
vt 0.187952 0.587790
vt 0.142771 0.413372
vt 0.142771 0.369767
vt 0.187952 0.369767
vt 0.187952 0.413372
vt 0.142771 0.500581
vt 0.142771 0.456977
vt 0.187952 0.456977
vt 0.187952 0.500581
vt 0.097590 0.312209
vt 0.142771 0.312209
vt 0.142771 0.355814
vt 0.097590 0.355814
vt 0.052410 0.413372
vt 0.052410 0.369767
vt 0.097590 0.369767
vt 0.097590 0.413372
vt 0.142771 0.675000
vt 0.142771 0.631395
vt 0.187952 0.631395
vt 0.187952 0.675000
vt 0.323494 0.225000
vt 0.368675 0.225000
vt 0.368675 0.268605
vt 0.323494 0.268605
vt 0.052410 0.587790
vt 0.052410 0.544186
vt 0.097590 0.544186
vt 0.097590 0.587790
vt 0.323494 0.675000
vt 0.323494 0.631395
vt 0.368675 0.631395
vt 0.368675 0.675000
vt 0.233132 0.587790
vt 0.233132 0.544186
vt 0.278313 0.544186
vt 0.278313 0.587790
vt 0.323494 0.500581
vt 0.323494 0.456977
vt 0.368675 0.456977
vt 0.368675 0.500581
vt 0.233132 0.312209
vt 0.278313 0.312209
vt 0.278313 0.355814
vt 0.233132 0.355814
vt 0.233132 0.413372
vt 0.233132 0.369767
vt 0.278313 0.369767
vt 0.278313 0.413372
vt 0.323494 0.050581
vt 0.368675 0.050581
vt 0.368675 0.094186
vt 0.323494 0.094186
vt 0.233132 0.456977
vt 0.233132 0.500581
vt 0.278313 0.500581
vt 0.233132 0.137791
vt 0.278313 0.137791
vt 0.278313 0.181395
vt 0.233132 0.181395
vt 0.233132 0.631395
vt 0.233132 0.718604
vt 0.233132 0.675000
vt 0.278313 0.675000
vt 0.278313 0.718604
vt 0.187952 0.718604
vt 0.323494 0.718604
vt 0.368675 0.718604
vt 0.142771 0.050581
vt 0.187952 0.050581
vt 0.187952 0.094186
vt 0.142771 0.094186
vt 0.007229 0.631395
vt 0.007229 0.587790
vt 0.052410 0.631395
vt 0.007229 0.544186
vt 0.052410 0.718604
vt 0.052410 0.675000
vt 0.097590 0.675000
vt 0.097590 0.718604
vt 0.007229 0.718604
vt 0.007229 0.675000
vt 0.142771 0.718604
vt 0.052410 0.137791
vt 0.097590 0.137791
vt 0.097590 0.181395
vt 0.052410 0.181395
vt 0.142771 0.225000
vt 0.187952 0.225000
vt 0.187952 0.268605
vt 0.142771 0.268605
vt 0.007229 0.456977
vt 0.007229 0.413372
vt 0.052410 0.456977
vt 0.007229 0.369767
vt 0.052410 0.500581
vt 0.097590 0.500581
vt 0.007229 0.500581
vt 0.052410 0.312209
vt 0.052410 0.355814
vt 0.323494 0.137791
vt 0.368675 0.137791
vt 0.368675 0.181395
vt 0.323494 0.181395
vt 0.142771 0.137791
vt 0.187952 0.137791
vt 0.187952 0.181395
vt 0.142771 0.181395
vt 0.187952 0.312209
vt 0.187952 0.355814
vt 0.007229 0.312209
vt 0.007229 0.355814
vt 0.007229 0.268605
vt 0.052410 0.268605
vt 0.007229 0.225000
vt 0.052410 0.225000
vt 0.007229 0.181395
vt 0.097590 0.225000
vt 0.007229 0.137791
vt 0.007229 0.094186
vt 0.052410 0.094186
vt 0.007229 0.050581
vt 0.052410 0.050581
vt 0.007229 0.006977
vt 0.052410 0.006977
vt 0.097590 0.006977
vt 0.097590 0.050581
vt 0.142771 0.006977
vt 0.187952 0.006977
vt 0.233132 0.094186
vt 0.233132 0.050581
vt 0.233132 0.006977
vt 0.278313 0.006977
vt 0.278313 0.050581
vt 0.323494 0.006977
vt 0.368675 0.006977
vt 0.233132 0.268605
vt 0.233132 0.225000
vt 0.278313 0.225000
vt 0.992771 0.006977
vt 0.992771 0.193023
vt 0.947590 0.193023
vt 0.902410 0.193023
vt 0.902410 0.006977
vt 0.947590 0.006977
vt 0.531325 0.732558
vt 0.576506 0.732558
vt 0.621687 0.732558
vt 0.621687 0.918604
vt 0.576506 0.918604
vt 0.531325 0.918604
vt 0.842771 0.593023
vt 0.797590 0.593023
vt 0.797590 0.406977
vt 0.842771 0.406977
vt 0.887952 0.406977
vt 0.887952 0.593023
vt 0.516867 0.732558
vt 0.516867 0.918604
vt 0.471687 0.918604
vt 0.426506 0.918604
vt 0.426506 0.732558
vt 0.471687 0.732558
vt 0.992771 0.393023
vt 0.947590 0.393023
vt 0.902410 0.393023
vt 0.902410 0.206977
vt 0.947590 0.206977
vt 0.992771 0.206977
vt 0.887952 0.206977
vt 0.887952 0.393023
vt 0.842771 0.393023
vt 0.797590 0.393023
vt 0.797590 0.206977
vt 0.842771 0.206977
vt 0.202410 0.732558
vt 0.202410 0.918604
vt 0.157229 0.918604
vt 0.112048 0.918604
vt 0.112048 0.732558
vt 0.157229 0.732558
vt 0.052410 0.918604
vt 0.007229 0.918604
vt 0.007229 0.732558
vt 0.052410 0.732558
vt 0.097590 0.732558
vt 0.097590 0.918604
vt 0.412048 0.918604
vt 0.366867 0.918604
vt 0.321687 0.918604
vt 0.321687 0.732558
vt 0.366867 0.732558
vt 0.412048 0.732558
vt 0.947590 0.593023
vt 0.902410 0.593023
vt 0.902410 0.406977
vt 0.947590 0.406977
vt 0.992771 0.406977
vt 0.992771 0.593023
vt 0.636145 0.918604
vt 0.636145 0.732558
vt 0.681325 0.732558
vt 0.726506 0.732558
vt 0.726506 0.918604
vt 0.681325 0.918604
vt 0.887952 0.006977
vt 0.887952 0.193023
vt 0.842771 0.193023
vt 0.797590 0.193023
vt 0.797590 0.006977
vt 0.842771 0.006977
vt 0.902410 0.793023
vt 0.902410 0.606977
vt 0.947590 0.606977
vt 0.992771 0.606977
vt 0.992771 0.793023
vt 0.947590 0.793023
vt 0.216867 0.918604
vt 0.216867 0.732558
vt 0.262048 0.732558
vt 0.307229 0.732558
vt 0.307229 0.918604
vt 0.262048 0.918604
vt 0.842771 0.606977
vt 0.887952 0.606977
vt 0.887952 0.793023
vt 0.842771 0.793023
vt 0.797590 0.793023
vt 0.797590 0.606977
vt 0.887952 0.993023
vt 0.842771 0.993023
vt 0.797590 0.993023
vt 0.797590 0.806977
vt 0.842771 0.806977
vt 0.887952 0.806977
vt 0.783132 0.369767
vt 0.783132 0.413372
vt 0.783132 0.456977
vt 0.783132 0.500581
vt 0.783132 0.544186
vt 0.783132 0.587790
vt 0.783132 0.631395
vt 0.783133 0.675000
vt 0.783133 0.718604
vt 0.590361 0.718604
vt 0.590361 0.675000
vt 0.590361 0.631395
vt 0.590361 0.587790
vt 0.590361 0.544186
vt 0.590361 0.500581
vt 0.590361 0.456977
vt 0.590361 0.413372
vt 0.590361 0.369767
vn 0.000000 -1.000000 0.000000
vn 0.000000 1.000000 0.000000
vn 1.000000 0.000000 0.000000
vn -1.000000 -0.000000 -0.000000
vn 0.000000 0.000000 -1.000000
vn -0.000000 -0.000000 1.000000
usemtl Material
s off
f 154/1/1 101/2/1 3/3/1 119/4/1
f 85/5/2 49/6/2 7/7/2 32/8/2
f 1/9/3 5/10/3 46/11/3 18/12/3 34/13/3 9/14/3 42/15/3 14/16/3 30/17/3 6/18/3 2/19/3 99/20/3 87/21/3 110/22/3 29/23/3 118/24/3 98/25/3 122/26/3
f 3/27/4 7/28/4 49/29/4 21/30/4 37/31/4 12/32/4 45/33/4 17/34/4 33/35/4 8/36/4 4/37/4 102/38/4 90/39/4 107/40/4 26/41/4 115/42/4 95/43/4 119/44/4
f 5/45/5 1/46/5 121/47/5 97/48/5 117/49/5 28/50/5 109/51/5 88/52/5 100/53/5 4/54/5 8/55/5 31/56/5 15/57/5 43/58/5 10/59/5 35/60/5 19/61/5 47/62/5
f 84/63/2 38/64/2 11/65/2 36/66/2
f 83/67/2 39/68/2 13/69/2 52/70/2
f 82/71/2 45/72/2 12/73/2 53/74/2
f 81/75/2 54/76/2 25/77/2 41/78/2
f 123/79/1 139/80/1 107/81/1 90/82/1
f 79/83/2 33/84/2 17/85/2 57/86/2
f 78/87/2 58/88/2 24/89/2 40/90/2
f 153/91/1 108/92/1 89/93/1 138/94/1
f 76/95/2 51/96/2 23/97/2 61/98/2
f 75/99/2 62/100/2 20/101/2 48/102/2
f 73/103/2 50/104/2 22/105/2 65/106/2
f 72/107/2 66/108/2 16/109/2 44/110/2
f 151/111/1 135/112/1 95/113/1 115/114/1
f 70/115/2 37/116/2 21/117/2 69/118/2
f 150/119/1 120/120/1 96/121/1 134/122/1
f 25/77/2 53/74/2 70/115/2 67/123/2
f 53/74/2 12/73/2 37/116/2 70/115/2
f 50/104/2 71/124/2 68/125/2 22/105/2
f 13/69/2 41/78/2 71/124/2 50/104/2
f 41/78/2 25/77/2 67/123/2 71/124/2
f 38/64/2 72/107/2 44/110/2 11/65/2
f 22/105/2 68/125/2 72/107/2 38/64/2
f 148/126/1 131/127/1 91/128/1 111/129/1
f 24/89/2 52/70/2 73/103/2 63/130/2
f 52/70/2 13/69/2 50/104/2 73/103/2
f 42/131/2 74/132/2 64/133/2 14/134/2
f 9/135/2 40/90/2 74/132/2 42/131/2
f 40/90/2 24/89/2 63/130/2 74/132/2
f 30/136/2 75/99/2 48/102/2 6/137/2
f 14/134/2 64/133/2 75/99/2 30/136/2
f 147/138/1 104/139/1 93/140/1 130/141/1
f 19/142/2 35/143/2 76/95/2 59/144/2
f 35/143/2 10/145/2 51/96/2 76/95/2
f 46/146/2 77/147/2 60/148/2 18/149/2
f 5/150/2 47/151/2 77/147/2 46/146/2
f 47/151/2 19/142/2 59/144/2 77/147/2
f 34/152/2 78/87/2 40/90/2 9/135/2
f 18/149/2 60/148/2 78/87/2 34/152/2
f 145/153/1 127/154/1 92/155/1 112/156/1
f 144/157/1 103/158/1 94/159/1 126/160/1
f 15/161/2 31/162/2 79/83/2 55/163/2
f 31/162/2 8/164/2 33/84/2 79/83/2
f 51/96/2 80/165/2 56/166/2 23/97/2
f 10/145/2 43/167/2 80/165/2 51/96/2
f 43/167/2 15/161/2 55/163/2 80/165/2
f 39/68/2 81/75/2 41/78/2 13/69/2
f 23/97/2 56/166/2 81/75/2 39/68/2
f 54/76/2 82/71/2 53/74/2 25/77/2
f 142/168/1 123/79/1 90/82/1 102/169/1
f 57/86/2 17/85/2 45/72/2 82/71/2
f 58/88/2 83/67/2 52/70/2 24/89/2
f 141/170/1 116/171/1 27/172/1 106/173/1
f 61/98/2 23/97/2 39/68/2 83/67/2
f 62/100/2 84/63/2 36/66/2 20/101/2
f 140/174/1 113/175/1 86/176/1 105/177/1
f 65/106/2 22/105/2 38/64/2 84/63/2
f 66/108/2 85/5/2 32/8/2 16/109/2
f 139/80/1 114/178/1 26/179/1 107/81/1
f 69/118/2 21/117/2 49/6/2 85/5/2
f 126/160/1 94/159/1 114/178/1 139/80/1
f 127/154/1 140/174/1 105/177/1 92/155/1
f 130/141/1 93/140/1 113/175/1 140/174/1
f 131/127/1 141/170/1 106/173/1 91/128/1
f 134/122/1 96/121/1 116/171/1 141/170/1
f 100/180/1 142/168/1 102/169/1 4/181/1
f 88/182/1 125/183/1 142/168/1 100/180/1
f 109/184/1 143/185/1 125/183/1 88/182/1
f 28/186/1 112/156/1 143/185/1 109/184/1
f 112/156/1 92/155/1 124/187/1 143/185/1
f 92/155/1 105/177/1 144/157/1 124/187/1
f 105/177/1 86/176/1 103/158/1 144/157/1
f 117/188/1 145/153/1 112/156/1 28/186/1
f 97/189/1 129/190/1 145/153/1 117/188/1
f 121/191/1 146/192/1 129/190/1 97/189/1
f 1/193/1 122/194/1 146/192/1 121/191/1
f 122/194/1 98/195/1 128/196/1 146/192/1
f 98/195/1 118/197/1 147/138/1 128/196/1
f 118/197/1 29/198/1 104/139/1 147/138/1
f 113/175/1 148/126/1 111/129/1 86/176/1
f 93/140/1 133/199/1 148/126/1 113/175/1
f 104/139/1 149/200/1 133/199/1 93/140/1
f 29/198/1 110/201/1 149/200/1 104/139/1
f 110/201/1 87/202/1 132/203/1 149/200/1
f 87/202/1 99/204/1 150/119/1 132/203/1
f 99/204/1 2/205/1 120/120/1 150/119/1
f 114/178/1 151/111/1 115/114/1 26/179/1
f 94/159/1 137/206/1 151/111/1 114/178/1
f 103/158/1 152/207/1 137/206/1 94/159/1
f 86/176/1 111/129/1 152/207/1 103/158/1
f 111/129/1 91/128/1 136/208/1 152/207/1
f 91/128/1 106/173/1 153/91/1 136/208/1
f 106/173/1 27/172/1 108/92/1 153/91/1
f 135/112/1 154/1/1 119/4/1 95/113/1
f 138/94/1 89/93/1 101/2/1 154/1/1
f 70/209/6 151/210/6 137/211/6 152/212/6 71/213/6 67/214/6
f 70/215/3 69/216/3 85/217/3 154/218/3 135/219/3 151/220/3
f 66/221/5 72/222/5 153/223/5 138/224/5 154/225/5 85/226/5
f 71/227/4 152/228/4 136/229/4 153/230/4 72/231/4 68/232/4
f 73/233/3 65/234/3 84/235/3 141/236/3 131/237/3 148/238/3
f 73/239/6 148/240/6 133/241/6 149/242/6 74/243/6 63/244/6
f 74/245/4 149/246/4 132/247/4 150/248/4 75/249/4 64/250/4
f 62/251/5 75/252/5 150/253/5 134/254/5 141/255/5 84/256/5
f 76/257/3 61/258/3 83/259/3 140/260/3 127/261/3 145/262/3
f 58/263/5 78/264/5 147/265/5 130/266/5 140/267/5 83/268/5
f 77/269/4 146/270/4 128/271/4 147/272/4 78/273/4 60/274/4
f 76/275/6 145/276/6 129/277/6 146/278/6 77/279/6 59/280/6
f 79/281/6 142/282/6 125/283/6 143/284/6 80/285/6 55/286/6
f 80/287/4 143/288/4 124/289/4 144/290/4 81/291/4 56/292/4
f 54/293/5 81/294/5 144/295/5 126/296/5 139/297/5 82/298/5
f 79/299/3 57/300/3 82/301/3 139/302/3 123/303/3 142/304/3
f 3/305/6 101/306/6 89/307/6 108/308/6 27/309/6 116/310/6 96/311/6 120/312/6 2/313/6 6/314/6 48/315/6 20/316/6 36/317/6 11/318/6 44/319/6 16/320/6 32/321/6 7/322/6
