# Blender v2.76 (sub 0) OBJ File: 'plate.blend'
# www.blender.org
o Cube
v 0.750000 -0.400000 -0.750000
v 0.750000 -0.400000 0.750000
v -0.750000 -0.400000 0.750000
v -0.749999 -0.400000 -0.750000
v 0.631978 0.386035 -0.631977
v 0.631977 0.386035 0.631978
v -0.631978 0.386035 0.631977
v -0.631978 0.386035 -0.631978
v 0.631978 0.279043 -0.631977
v 0.631977 0.279043 0.631978
v -0.631978 0.279043 0.631977
v -0.631978 0.279043 -0.631978
v 0.750000 0.145132 -0.749999
v 0.749999 0.145132 0.750000
v -0.750000 0.145132 0.749999
v -0.750000 0.145132 -0.750000
v 0.605978 0.157412 -0.605977
v 0.510619 0.268695 -0.510619
v 0.605977 0.157412 0.605978
v 0.510619 0.268695 0.510619
v -0.605978 0.157412 0.605977
v -0.510619 0.268695 0.510619
v -0.605977 0.157412 -0.605977
v -0.510619 0.268695 -0.510619
vt 0.149430 0.465383
vt 0.208491 0.465383
vt 0.208491 0.522898
vt 0.149430 0.522898
vt 0.629463 0.367275
vt 0.629463 0.627510
vt 0.362232 0.627510
vt 0.362232 0.367275
vt 0.984815 0.965355
vt 0.949112 0.965355
vt 0.949112 0.744275
vt 0.984815 0.744275
vt 0.980448 0.250381
vt 0.946260 0.250381
vt 0.946260 0.038676
vt 0.980448 0.038676
vt 0.018464 0.030218
vt 0.056016 0.030218
vt 0.056016 0.262745
vt 0.018464 0.262745
vt 0.193086 0.678411
vt 0.399785 0.678411
vt 0.399785 0.976537
vt 0.193086 0.976537
vt 0.021361 0.749114
vt 0.054450 0.749114
vt 0.054450 0.954006
vt 0.021361 0.954006
vt 0.143696 0.949847
vt 0.143696 0.696871
vt 0.167349 0.721160
vt 0.167349 0.925557
vt 0.793865 0.529259
vt 0.793865 0.466817
vt 0.800021 0.472812
vt 0.800021 0.523264
vt 0.837496 0.943740
vt 0.837496 0.702093
vt 0.861322 0.725295
vt 0.861322 0.920539
vt 0.805777 0.976949
vt 0.596685 0.976949
vt 0.596685 0.675371
vt 0.805777 0.675371
vt 0.778437 0.318320
vt 0.578078 0.318319
vt 0.578078 0.029337
vt 0.778437 0.029337
vt 0.404924 0.313303
vt 0.201591 0.313303
vt 0.201591 0.020030
vt 0.404924 0.020030
vt 0.171671 0.037156
vt 0.171671 0.296177
vt 0.146133 0.271307
vt 0.146133 0.062026
vt 0.118712 0.249966
vt 0.077017 0.232336
vt 0.077017 0.043535
vt 0.118712 0.025905
vt 0.911554 0.248064
vt 0.874019 0.232194
vt 0.874019 0.062227
vt 0.911554 0.046356
vt 0.887990 0.753261
vt 0.926907 0.769716
vt 0.926907 0.945939
vt 0.887990 0.962394
vt 0.075849 0.760469
vt 0.115974 0.743503
vt 0.115974 0.959130
vt 0.075849 0.942165
vt 0.857987 0.466817
vt 0.857987 0.529259
vt 0.851830 0.523264
vt 0.851830 0.472812
vt 0.837238 0.053760
vt 0.837238 0.306033
vt 0.813651 0.281811
vt 0.813651 0.077982
vn 0.000000 -1.000000 0.000000
vn 0.000000 1.000000 0.000000
vn 1.000000 -0.000000 0.000000
vn -0.000000 -0.000000 1.000000
vn -1.000000 0.000000 -0.000000
vn 0.000000 0.000000 -1.000000
vn 0.000000 0.996400 -0.085000
vn -0.000000 -0.996400 0.085000
vn 0.085000 0.996400 0.000000
vn -0.085000 0.996400 -0.000000
vn -0.759300 0.650700 -0.000000
vn -0.000000 0.650700 0.759400
vn 0.759300 0.650700 0.000000
vn 0.000000 0.650700 -0.759300
vn 0.000000 -0.996400 -0.085000
vn -0.000000 0.996400 0.085000
vn 0.085000 -0.996400 0.000000
vn -0.085000 -0.996400 -0.000000
s off
f 1/1/1 2/2/1 3/3/1 4/4/1
f 5/5/2 8/6/2 7/7/2 6/8/2
f 9/9/3 5/10/3 6/11/3 10/12/3
f 10/13/4 6/14/4 7/15/4 11/16/4
f 11/17/5 7/18/5 8/19/5 12/20/5
f 13/21/6 1/22/6 4/23/6 16/24/6
f 5/25/6 9/26/6 12/27/6 8/28/6
f 13/29/7 16/30/7 23/31/7 17/32/7
f 10/33/8 11/34/8 22/35/8 20/36/8
f 14/37/9 13/38/9 17/39/9 19/40/9
f 1/41/3 13/42/3 14/43/3 2/44/3
f 2/45/4 14/46/4 15/47/4 3/48/4
f 3/49/5 15/50/5 16/51/5 4/52/5
f 16/53/10 15/54/10 21/55/10 23/56/10
f 21/57/11 22/58/11 24/59/11 23/60/11
f 19/61/12 20/62/12 22/63/12 21/64/12
f 17/65/13 18/66/13 20/67/13 19/68/13
f 18/69/14 17/70/14 23/71/14 24/72/14
f 12/73/15 9/74/15 18/75/15 24/76/15
f 15/77/16 14/78/16 19/79/16 21/80/16
f 9/74/17 10/33/17 20/36/17 18/75/17
f 11/34/18 12/73/18 24/76/18 22/35/18
