# Blender v2.76 (sub 0) OBJ File: 'spike-test.blend'
# www.blender.org
mtllib spike-test.mtl
o Cube
v -0.562500 0.000000 0.187500
v -0.187500 0.000000 0.187500
v -0.187500 0.000000 0.562500
v 0.187500 0.000000 0.187500
v 0.562500 0.000000 0.187500
v 0.562499 0.000000 0.562500
v 0.187500 0.000000 -0.562500
v 0.562500 0.000000 -0.562499
v 0.562500 0.000000 -0.187500
v -0.562500 0.000000 -0.562500
v -0.187500 0.000000 -0.562500
v -0.187500 0.000000 -0.187500
v -0.562500 0.000000 -0.187500
v 0.187500 0.000000 -0.187500
v 0.187500 0.000000 0.562500
v -0.562500 0.000000 0.562500
v -0.375000 0.400000 0.375000
v 0.375000 0.400000 0.375000
v 0.375000 0.400000 -0.375000
v -0.375000 0.400000 -0.375000
v 0.562500 0.000000 -0.562499
v 0.187500 0.000000 -0.562500
v 0.187500 0.000000 -0.187500
v 0.562500 0.000000 -0.187500
v -0.562500 0.000000 -0.562500
v -0.187500 0.000000 -0.562500
v -0.187500 0.000000 -0.187500
v -0.562500 0.000000 -0.187500
v -0.562500 0.000000 0.187500
v -0.187500 0.000000 0.187500
v -0.187500 0.000000 0.562500
v -0.562500 0.000000 0.562500
v 0.562499 0.000000 0.562500
v 0.562500 0.000000 0.187500
v 0.187500 0.000000 0.187500
v 0.187500 0.000000 0.562500
v 0.562500 -1.500000 -0.562499
v 0.187500 -1.500000 -0.562500
v 0.187500 -1.500000 -0.187500
v 0.562500 -1.500000 -0.187500
v -0.562500 -1.500000 -0.562500
v -0.187500 -1.500000 -0.562500
v -0.187500 -1.500000 -0.187500
v -0.562500 -1.500000 -0.187500
v -0.562500 -1.500000 0.187500
v -0.187500 -1.500000 0.187500
v -0.187500 -1.500000 0.562500
v -0.562500 -1.500000 0.562500
v 0.562499 -1.500000 0.562500
v 0.562500 -1.500000 0.187500
v 0.187500 -1.500000 0.187500
v 0.187500 -1.500000 0.562500
vt 0.000000 0.000000
vt 0.610962 0.907423
vt 0.691048 0.871492
vt 0.691048 0.992539
vt 0.798416 0.983195
vt 0.711632 0.983195
vt 0.755024 0.871492
vt 0.993057 0.393563
vt 0.906273 0.393563
vt 0.949665 0.288911
vt 0.892387 0.817867
vt 0.812302 0.781936
vt 0.892387 0.696820
vt 0.892387 0.409958
vt 0.812302 0.374027
vt 0.892387 0.288911
vt 0.892387 0.681897
vt 0.812302 0.645966
vt 0.892387 0.560851
vt 0.892387 0.545928
vt 0.812302 0.509997
vt 0.892387 0.424881
vt 0.388223 0.989655
vt 0.308952 0.951693
vt 0.388223 0.875084
vt 0.812302 0.042034
vt 0.892903 0.007461
vt 0.892903 0.133264
vt 0.093727 0.986787
vt 0.006943 0.986787
vt 0.050335 0.875084
vt 0.597077 0.983195
vt 0.510292 0.983195
vt 0.553684 0.871492
vt 0.194397 0.986787
vt 0.107613 0.986787
vt 0.151005 0.875084
vt 0.409622 0.907423
vt 0.489708 0.871492
vt 0.489708 0.992539
vt 0.812302 0.182759
vt 0.892903 0.148186
vt 0.892903 0.273988
vt 0.812302 0.868721
vt 0.892387 0.832790
vt 0.892387 0.953837
vt 0.295067 0.986787
vt 0.208283 0.986787
vt 0.251675 0.875084
vt 0.295067 0.860161
vt 0.208283 0.860161
vt 0.208283 0.441273
vt 0.295067 0.441273
vt 0.093727 0.860161
vt 0.006943 0.860161
vt 0.006943 0.441273
vt 0.093727 0.441273
vt 0.409622 0.007461
vt 0.496407 0.007461
vt 0.496407 0.426350
vt 0.409622 0.426350
vt 0.798416 0.426350
vt 0.711632 0.426350
vt 0.711632 0.007461
vt 0.798416 0.007461
vt 0.308952 0.007461
vt 0.395737 0.007461
vt 0.395737 0.426350
vt 0.308952 0.426350
vt 0.697746 0.426350
vt 0.610962 0.426350
vt 0.610962 0.007461
vt 0.697746 0.007461
vt 0.597077 0.856569
vt 0.510292 0.856569
vt 0.510292 0.441273
vt 0.597076 0.441273
vt 0.006943 0.007461
vt 0.093727 0.007461
vt 0.093727 0.426350
vt 0.006943 0.426350
vt 0.208283 0.007461
vt 0.295067 0.007461
vt 0.295067 0.426350
vt 0.208283 0.426350
vt 0.496407 0.856569
vt 0.409622 0.856569
vt 0.409622 0.441273
vt 0.496407 0.441273
vt 0.194397 0.860161
vt 0.107613 0.860161
vt 0.107613 0.441273
vt 0.194397 0.441273
vt 0.107613 0.007461
vt 0.194397 0.007461
vt 0.194397 0.426350
vt 0.107613 0.426350
vt 0.510292 0.007461
vt 0.597077 0.007461
vt 0.597077 0.426350
vt 0.510292 0.426350
vt 0.395737 0.860161
vt 0.308952 0.860161
vt 0.308952 0.441273
vt 0.395737 0.441273
vt 0.711632 0.441272
vt 0.798416 0.441272
vt 0.798416 0.856569
vt 0.711632 0.856569
vt 0.697746 0.856569
vt 0.610962 0.856569
vt 0.610962 0.441273
vt 0.697746 0.441272
vn 0.000000 0.000000 1.000000
vn 0.905500 0.424400 0.000000
vn -0.000000 0.424400 0.905500
vn -0.905500 0.424400 -0.000000
vn 0.905500 -0.424400 0.000000
vn 0.000000 0.424400 -0.905500
vn 0.000000 -0.424400 -0.905500
vn -0.905500 -0.424400 -0.000000
vn -0.000000 -0.424400 0.905500
vn 1.000000 0.000000 0.000000
vn 0.000000 0.000000 -1.000000
vn -1.000000 0.000000 -0.000000
usemtl Material
s off
f 13/1/1 12/1/1 27/1/1 28/1/1
f 4/1/1 5/1/1 34/1/1 35/1/1
f 12/1/1 11/1/1 26/1/1 27/1/1
f 5/1/1 6/1/1 33/1/1 34/1/1
f 9/2/2 8/3/2 19/4/2
f 14/5/3 9/6/3 19/7/3
f 7/8/4 14/9/4 19/10/4
f 13/11/5 10/12/5 20/13/5
f 8/14/6 7/15/6 19/16/6
f 15/17/3 6/18/3 18/19/3
f 12/20/7 13/21/7 20/22/7
f 4/23/4 15/24/4 18/25/4
f 11/26/8 12/27/8 20/28/8
f 5/29/6 4/30/6 18/31/6
f 10/32/9 11/33/9 20/34/9
f 6/35/2 5/36/2 18/37/2
f 1/38/9 2/39/9 17/40/9
f 2/41/8 3/42/8 17/43/8
f 3/44/7 16/45/7 17/46/7
f 16/47/5 1/48/5 17/49/5
f 29/50/10 32/51/10 48/52/10 45/53/10
f 21/54/10 24/55/10 40/56/10 37/57/10
f 32/58/11 31/59/11 47/60/11 48/61/11
f 24/62/1 23/63/1 39/64/1 40/65/1
f 15/1/1 4/1/1 35/1/1 36/1/1
f 10/1/1 13/1/1 28/1/1 25/1/1
f 7/1/1 8/1/1 21/1/1 22/1/1
f 6/1/1 15/1/1 36/1/1 33/1/1
f 2/1/1 1/1/1 29/1/1 30/1/1
f 14/1/1 7/1/1 22/1/1 23/1/1
f 3/1/1 2/1/1 30/1/1 31/1/1
f 9/1/1 14/1/1 23/1/1 24/1/1
f 16/1/1 3/1/1 31/1/1 32/1/1
f 8/1/1 9/1/1 24/1/1 21/1/1
f 1/1/1 16/1/1 32/1/1 29/1/1
f 11/1/1 10/1/1 25/1/1 26/1/1
f 26/66/1 25/67/1 41/68/1 42/69/1
f 34/70/10 33/71/10 49/72/10 50/73/10
f 27/74/12 26/75/12 42/76/12 43/77/12
f 35/78/11 34/79/11 50/80/11 51/81/11
f 28/82/11 27/83/11 43/84/11 44/85/11
f 36/86/12 35/87/12 51/88/12 52/89/12
f 25/90/10 28/91/10 44/92/10 41/93/10
f 22/94/11 21/95/11 37/96/11 38/97/11
f 33/98/1 36/99/1 52/100/1 49/101/1
f 30/102/1 29/103/1 45/104/1 46/105/1
f 23/106/12 22/107/12 38/108/12 39/109/12
f 31/110/12 30/111/12 46/112/12 47/113/12
